2024-12-08 01:26:10,741 - INFO - Detected operating system: Darwin
2024-12-08 01:26:10,742 - INFO - Trying to start FluidSynth with driver: coreaudio
2024-12-08 01:26:12,199 - INFO - FluidSynth started successfully using driver 'coreaudio'.
2024-12-08 01:26:15,331 - DEBUG - Navigating down: 1
2024-12-08 01:26:15,550 - INFO - Selected SoundFont: Fantasy Piano.sf2
2024-12-08 01:26:15,561 - INFO - SoundFont 'Fantasy Piano.sf2' loaded successfully.
2024-12-08 01:26:16,642 - DEBUG - Key pressed: -
2024-12-08 01:26:16,642 - INFO - Playback speed decreased to: 0.9x
2024-12-08 01:26:16,789 - DEBUG - Key pressed: -
2024-12-08 01:26:16,789 - INFO - Playback speed decreased to: 0.8x
2024-12-08 01:26:17,026 - DEBUG - Key pressed: -
2024-12-08 01:26:17,027 - INFO - Playback speed decreased to: 0.7x
2024-12-08 01:26:17,800 - DEBUG - Key pressed: 1
2024-12-08 01:26:18,166 - DEBUG - Navigating down: 1
2024-12-08 01:26:18,295 - DEBUG - Navigating down: 2
2024-12-08 01:26:18,414 - DEBUG - Navigating down: 3
2024-12-08 01:26:18,534 - DEBUG - Navigating down: 4
2024-12-08 01:26:19,054 - DEBUG - Navigating up: 3
2024-12-08 01:26:21,230 - INFO - Selected MIDI file: Jingle Bells classic.mid
2024-12-08 01:26:21,349 - INFO - MIDI messages prepared for playback.
2024-12-08 01:26:21,350 - INFO - MIDIPlayer initialized for file: Jingle Bells classic.mid
2024-12-08 01:26:21,350 - INFO - Starting MIDI playback: Jingle Bells classic.mid
2024-12-08 01:26:21,350 - DEBUG - Program Change: Ch 0 Program 0
2024-12-08 01:26:21,350 - DEBUG - Program Change: Ch 1 Program 0
2024-12-08 01:26:21,350 - DEBUG - Program Change: Ch 2 Program 105
2024-12-08 01:26:21,350 - DEBUG - Program Change: Ch 3 Program 32
2024-12-08 01:26:21,350 - DEBUG - Program Change: Ch 4 Program 114
2024-12-08 01:26:21,350 - DEBUG - Program Change: Ch 9 Program 33
2024-12-08 01:26:23,394 - DEBUG - Note ON: Ch 2 MIDI 65 Velocity 124
2024-12-08 01:26:23,394 - DEBUG - Note ON: Ch 3 MIDI 41 Velocity 119
2024-12-08 01:26:23,406 - DEBUG - Note ON: Ch 2 MIDI 72 Velocity 121
2024-12-08 01:26:23,546 - DEBUG - Note OFF: Ch 2 MIDI 65
2024-12-08 01:26:23,558 - DEBUG - Note OFF: Ch 2 MIDI 72
2024-12-08 01:26:23,666 - DEBUG - Note OFF: Ch 3 MIDI 41
2024-12-08 01:26:23,809 - DEBUG - Note ON: Ch 2 MIDI 72 Velocity 116
2024-12-08 01:26:23,822 - DEBUG - Note ON: Ch 2 MIDI 67 Velocity 118
2024-12-08 01:26:23,834 - DEBUG - Note ON: Ch 3 MIDI 43 Velocity 115
2024-12-08 01:26:23,954 - DEBUG - Note OFF: Ch 2 MIDI 67
2024-12-08 01:26:23,977 - DEBUG - Note OFF: Ch 2 MIDI 72
2024-12-08 01:26:24,061 - DEBUG - Note OFF: Ch 3 MIDI 43
2024-12-08 01:26:24,217 - DEBUG - Note ON: Ch 2 MIDI 72 Velocity 119
2024-12-08 01:26:24,217 - DEBUG - Note ON: Ch 2 MIDI 69 Velocity 121
2024-12-08 01:26:24,242 - DEBUG - Note ON: Ch 3 MIDI 45 Velocity 115
2024-12-08 01:26:24,360 - DEBUG - Note OFF: Ch 2 MIDI 69
2024-12-08 01:26:24,372 - DEBUG - Note OFF: Ch 2 MIDI 72
2024-12-08 01:26:24,420 - DEBUG - Note OFF: Ch 3 MIDI 45
2024-12-08 01:26:24,649 - DEBUG - Note ON: Ch 9 MIDI 35 Velocity 100
2024-12-08 01:26:24,649 - DEBUG - Note ON: Ch 3 MIDI 46 Velocity 127
2024-12-08 01:26:24,649 - DEBUG - Note ON: Ch 9 MIDI 42 Velocity 70
2024-12-08 01:26:24,649 - DEBUG - Note ON: Ch 9 MIDI 49 Velocity 70
2024-12-08 01:26:24,661 - DEBUG - Note ON: Ch 2 MIDI 70 Velocity 127
2024-12-08 01:26:24,770 - DEBUG - Note OFF: Ch 2 MIDI 70
2024-12-08 01:26:24,794 - DEBUG - Note OFF: Ch 9 MIDI 35
2024-12-08 01:26:24,806 - DEBUG - Note OFF: Ch 9 MIDI 42
2024-12-08 01:26:24,806 - DEBUG - Note OFF: Ch 9 MIDI 49
2024-12-08 01:26:24,926 - DEBUG - Note OFF: Ch 3 MIDI 46
2024-12-08 01:26:25,034 - DEBUG - Note ON: Ch 1 MIDI 58 Velocity 121
2024-12-08 01:26:25,046 - DEBUG - Note ON: Ch 0 MIDI 62 Velocity 110
2024-12-08 01:26:25,058 - DEBUG - Note ON: Ch 1 MIDI 53 Velocity 95
2024-12-08 01:26:25,069 - DEBUG - Note ON: Ch 9 MIDI 42 Velocity 80
2024-12-08 01:26:25,069 - DEBUG - Note ON: Ch 9 MIDI 38 Velocity 90
2024-12-08 01:26:25,094 - DEBUG - Note ON: Ch 2 MIDI 70 Velocity 127
2024-12-08 01:26:25,203 - DEBUG - Note OFF: Ch 2 MIDI 70
2024-12-08 01:26:25,216 - DEBUG - Note OFF: Ch 9 MIDI 42
2024-12-08 01:26:25,229 - DEBUG - Note OFF: Ch 9 MIDI 38
2024-12-08 01:26:25,302 - DEBUG - Note OFF: Ch 1 MIDI 58
2024-12-08 01:26:25,302 - DEBUG - Note OFF: Ch 0 MIDI 62
2024-12-08 01:26:25,302 - DEBUG - Note OFF: Ch 1 MIDI 53
2024-12-08 01:26:25,469 - DEBUG - Note ON: Ch 9 MIDI 35 Velocity 100
2024-12-08 01:26:25,482 - DEBUG - Note ON: Ch 9 MIDI 42 Velocity 70
2024-12-08 01:26:25,482 - DEBUG - Note ON: Ch 2 MIDI 70 Velocity 127
2024-12-08 01:26:25,494 - DEBUG - Note ON: Ch 3 MIDI 46 Velocity 127
2024-12-08 01:26:25,620 - DEBUG - Note OFF: Ch 9 MIDI 35
2024-12-08 01:26:25,631 - DEBUG - Note OFF: Ch 9 MIDI 42
2024-12-08 01:26:25,868 - DEBUG - Note ON: Ch 1 MIDI 58 Velocity 122
2024-12-08 01:26:25,868 - DEBUG - Note ON: Ch 0 MIDI 62 Velocity 108
2024-12-08 01:26:25,880 - DEBUG - Note ON: Ch 1 MIDI 53 Velocity 104
2024-12-08 01:26:25,891 - DEBUG - Note OFF: Ch 2 MIDI 70
2024-12-08 01:26:25,891 - DEBUG - Note OFF: Ch 3 MIDI 46
2024-12-08 01:26:25,891 - DEBUG - Note ON: Ch 9 MIDI 42 Velocity 80
2024-12-08 01:26:25,891 - DEBUG - Note ON: Ch 9 MIDI 38 Velocity 90
2024-12-08 01:26:26,046 - DEBUG - Note OFF: Ch 9 MIDI 42
2024-12-08 01:26:26,046 - DEBUG - Note OFF: Ch 9 MIDI 38
2024-12-08 01:26:26,094 - DEBUG - Note ON: Ch 9 MIDI 46 Velocity 54
2024-12-08 01:26:26,106 - DEBUG - Note ON: Ch 2 MIDI 70 Velocity 124
2024-12-08 01:26:26,178 - DEBUG - Note OFF: Ch 2 MIDI 70
2024-12-08 01:26:26,214 - DEBUG - Note OFF: Ch 1 MIDI 58
2024-12-08 01:26:26,239 - DEBUG - Note OFF: Ch 0 MIDI 62
2024-12-08 01:26:26,251 - DEBUG - Note OFF: Ch 9 MIDI 46
2024-12-08 01:26:26,276 - DEBUG - Note ON: Ch 1 MIDI 57 Velocity 86
2024-12-08 01:26:26,290 - DEBUG - Note ON: Ch 0 MIDI 60 Velocity 76
2024-12-08 01:26:26,290 - DEBUG - Note ON: Ch 2 MIDI 70 Velocity 124
2024-12-08 01:26:26,290 - DEBUG - Note ON: Ch 9 MIDI 35 Velocity 100
2024-12-08 01:26:26,302 - DEBUG - Note ON: Ch 9 MIDI 42 Velocity 70
2024-12-08 01:26:26,314 - DEBUG - Note ON: Ch 3 MIDI 41 Velocity 115
2024-12-08 01:26:26,350 - DEBUG - Note OFF: Ch 1 MIDI 57
2024-12-08 01:26:26,363 - DEBUG - Note OFF: Ch 0 MIDI 60
2024-12-08 01:26:26,376 - DEBUG - Note OFF: Ch 1 MIDI 53
2024-12-08 01:26:26,446 - DEBUG - Note OFF: Ch 9 MIDI 35
2024-12-08 01:26:26,458 - DEBUG - Note OFF: Ch 9 MIDI 42
2024-12-08 01:26:26,458 - DEBUG - Note OFF: Ch 2 MIDI 70
2024-12-08 01:26:26,699 - DEBUG - Note ON: Ch 0 MIDI 60 Velocity 103
2024-12-08 01:26:26,699 - DEBUG - Note ON: Ch 1 MIDI 57 Velocity 110
2024-12-08 01:26:26,699 - DEBUG - Note ON: Ch 2 MIDI 69 Velocity 121
2024-12-08 01:26:26,712 - DEBUG - Note ON: Ch 1 MIDI 53 Velocity 110
2024-12-08 01:26:26,712 - DEBUG - Note OFF: Ch 3 MIDI 41
2024-12-08 01:26:26,712 - DEBUG - Note ON: Ch 9 MIDI 42 Velocity 80
2024-12-08 01:26:26,724 - DEBUG - Note ON: Ch 9 MIDI 38 Velocity 90
2024-12-08 01:26:26,810 - DEBUG - Note OFF: Ch 2 MIDI 69
2024-12-08 01:26:26,872 - DEBUG - Note OFF: Ch 9 MIDI 42
2024-12-08 01:26:26,872 - DEBUG - Note OFF: Ch 9 MIDI 38
2024-12-08 01:26:26,920 - DEBUG - Note ON: Ch 9 MIDI 42 Velocity 90
2024-12-08 01:26:26,943 - DEBUG - Note OFF: Ch 1 MIDI 57
2024-12-08 01:26:26,956 - DEBUG - Note OFF: Ch 0 MIDI 60
2024-12-08 01:26:26,967 - DEBUG - Note OFF: Ch 1 MIDI 53
2024-12-08 01:26:27,000 - DEBUG - Key pressed: ]
2024-12-08 01:26:27,001 - INFO - Octave increased to: 1
2024-12-08 01:26:27,073 - DEBUG - Note OFF: Ch 9 MIDI 42
2024-12-08 01:26:27,119 - DEBUG - Note ON: Ch 9 MIDI 35 Velocity 100
2024-12-08 01:26:27,120 - DEBUG - Note ON: Ch 3 MIDI 38 Velocity 115
2024-12-08 01:26:27,120 - DEBUG - Note ON: Ch 9 MIDI 42 Velocity 70
2024-12-08 01:26:27,146 - DEBUG - Note ON: Ch 2 MIDI 69 Velocity 126
2024-12-08 01:26:27,266 - DEBUG - Note OFF: Ch 9 MIDI 35
2024-12-08 01:26:27,279 - DEBUG - Note OFF: Ch 9 MIDI 42
2024-12-08 01:26:27,436 - DEBUG - Note OFF: Ch 2 MIDI 69
2024-12-08 01:26:27,494 - DEBUG - Key pressed: ]
2024-12-08 01:26:27,494 - INFO - Octave increased to: 2
2024-12-08 01:26:27,518 - DEBUG - Note ON: Ch 0 MIDI 62 Velocity 110
2024-12-08 01:26:27,518 - DEBUG - Note ON: Ch 1 MIDI 53 Velocity 104
2024-12-08 01:26:27,532 - DEBUG - Note ON: Ch 1 MIDI 57 Velocity 111
2024-12-08 01:26:27,532 - DEBUG - Note ON: Ch 2 MIDI 69 Velocity 102
2024-12-08 01:26:27,532 - DEBUG - Note ON: Ch 9 MIDI 42 Velocity 80
2024-12-08 01:26:27,543 - DEBUG - Note ON: Ch 9 MIDI 38 Velocity 90
2024-12-08 01:26:27,567 - DEBUG - Note OFF: Ch 3 MIDI 38
2024-12-08 01:26:27,652 - DEBUG - Note OFF: Ch 2 MIDI 69
2024-12-08 01:26:27,689 - DEBUG - Note OFF: Ch 9 MIDI 42
2024-12-08 01:26:27,700 - DEBUG - Note OFF: Ch 9 MIDI 38
2024-12-08 01:26:27,738 - DEBUG - Note OFF: Ch 1 MIDI 57
2024-12-08 01:26:27,738 - DEBUG - Note ON: Ch 2 MIDI 69 Velocity 99
2024-12-08 01:26:27,738 - DEBUG - Note ON: Ch 9 MIDI 42 Velocity 90
2024-12-08 01:26:27,798 - DEBUG - Note OFF: Ch 1 MIDI 53
2024-12-08 01:26:27,893 - DEBUG - Note ON: Ch 1 MIDI 58 Velocity 97
2024-12-08 01:26:27,894 - DEBUG - Note OFF: Ch 2 MIDI 69
2024-12-08 01:26:27,894 - DEBUG - Note OFF: Ch 9 MIDI 42
2024-12-08 01:26:27,906 - DEBUG - Note ON: Ch 1 MIDI 53 Velocity 73
2024-12-08 01:26:27,929 - DEBUG - Note ON: Ch 2 MIDI 72 Velocity 112
2024-12-08 01:26:27,942 - DEBUG - Note ON: Ch 9 MIDI 35 Velocity 100
2024-12-08 01:26:27,954 - DEBUG - Note ON: Ch 3 MIDI 43 Velocity 123
2024-12-08 01:26:27,954 - DEBUG - Note ON: Ch 9 MIDI 42 Velocity 70
2024-12-08 01:26:28,026 - DEBUG - Note OFF: Ch 1 MIDI 53
2024-12-08 01:26:28,040 - DEBUG - Note OFF: Ch 1 MIDI 58
2024-12-08 01:26:28,040 - DEBUG - Note OFF: Ch 0 MIDI 62
2024-12-08 01:26:28,052 - DEBUG - Note OFF: Ch 2 MIDI 72
2024-12-08 01:26:28,101 - DEBUG - Note OFF: Ch 9 MIDI 35
2024-12-08 01:26:28,101 - DEBUG - Note OFF: Ch 9 MIDI 42
2024-12-08 01:26:28,329 - DEBUG - Note ON: Ch 1 MIDI 58 Velocity 121
2024-12-08 01:26:28,341 - DEBUG - Note ON: Ch 0 MIDI 62 Velocity 110
2024-12-08 01:26:28,341 - DEBUG - Note ON: Ch 1 MIDI 53 Velocity 109
2024-12-08 01:26:28,366 - DEBUG - Note ON: Ch 2 MIDI 72 Velocity 123
2024-12-08 01:26:28,366 - DEBUG - Note OFF: Ch 3 MIDI 43
2024-12-08 01:26:28,366 - DEBUG - Note ON: Ch 9 MIDI 42 Velocity 80
2024-12-08 01:26:28,366 - DEBUG - Note ON: Ch 9 MIDI 38 Velocity 90
2024-12-08 01:26:28,494 - DEBUG - Note OFF: Ch 2 MIDI 72
2024-12-08 01:26:28,507 - DEBUG - Key pressed: s
2024-12-08 01:26:28,507 - INFO - MIDI playback stopped.
2024-12-08 01:26:28,507 - INFO - MIDI playback stopped by user.
2024-12-08 01:26:29,313 - DEBUG - Key pressed: 1
2024-12-08 01:26:29,801 - DEBUG - Navigating down: 1
2024-12-08 01:26:29,922 - DEBUG - Navigating down: 2
2024-12-08 01:26:30,083 - DEBUG - Navigating down: 3
2024-12-08 01:26:30,543 - INFO - Selected MIDI file: Jingle Bells classic.mid
2024-12-08 01:26:30,669 - INFO - MIDI messages prepared for playback.
2024-12-08 01:26:30,669 - INFO - MIDIPlayer initialized for file: Jingle Bells classic.mid
2024-12-08 01:26:30,670 - INFO - Starting MIDI playback: Jingle Bells classic.mid
2024-12-08 01:26:30,670 - DEBUG - Program Change: Ch 0 Program 0
2024-12-08 01:26:30,671 - DEBUG - Program Change: Ch 1 Program 0
2024-12-08 01:26:30,671 - DEBUG - Program Change: Ch 2 Program 105
2024-12-08 01:26:30,671 - DEBUG - Program Change: Ch 3 Program 32
2024-12-08 01:26:30,671 - DEBUG - Program Change: Ch 4 Program 114
2024-12-08 01:26:30,671 - DEBUG - Program Change: Ch 9 Program 33
2024-12-08 01:26:32,717 - DEBUG - Note ON: Ch 2 MIDI 89 Velocity 124
2024-12-08 01:26:32,717 - DEBUG - Note ON: Ch 3 MIDI 65 Velocity 119
2024-12-08 01:26:32,728 - DEBUG - Note ON: Ch 2 MIDI 96 Velocity 121
2024-12-08 01:26:32,863 - DEBUG - Note OFF: Ch 2 MIDI 89
2024-12-08 01:26:32,876 - DEBUG - Note OFF: Ch 2 MIDI 96
2024-12-08 01:26:32,979 - DEBUG - Note OFF: Ch 3 MIDI 65
2024-12-08 01:26:33,136 - DEBUG - Note ON: Ch 2 MIDI 96 Velocity 116
2024-12-08 01:26:33,136 - DEBUG - Note ON: Ch 2 MIDI 91 Velocity 118
2024-12-08 01:26:33,159 - DEBUG - Note ON: Ch 3 MIDI 67 Velocity 115
2024-12-08 01:26:33,267 - DEBUG - Note OFF: Ch 2 MIDI 91
2024-12-08 01:26:33,289 - DEBUG - Note OFF: Ch 2 MIDI 96
2024-12-08 01:26:33,373 - DEBUG - Note OFF: Ch 3 MIDI 67
2024-12-08 01:26:33,528 - DEBUG - Note ON: Ch 2 MIDI 96 Velocity 119
2024-12-08 01:26:33,539 - DEBUG - Note ON: Ch 2 MIDI 93 Velocity 121
2024-12-08 01:26:33,561 - DEBUG - Note ON: Ch 3 MIDI 69 Velocity 115
2024-12-08 01:26:33,686 - DEBUG - Note OFF: Ch 2 MIDI 93
2024-12-08 01:26:33,698 - DEBUG - Note OFF: Ch 2 MIDI 96
2024-12-08 01:26:33,734 - DEBUG - Note OFF: Ch 3 MIDI 69
2024-12-08 01:26:33,961 - DEBUG - Note ON: Ch 9 MIDI 59 Velocity 100
2024-12-08 01:26:33,973 - DEBUG - Note ON: Ch 3 MIDI 70 Velocity 127
2024-12-08 01:26:33,974 - DEBUG - Note ON: Ch 9 MIDI 66 Velocity 70
2024-12-08 01:26:33,974 - DEBUG - Note ON: Ch 9 MIDI 73 Velocity 70
2024-12-08 01:26:33,986 - DEBUG - Note ON: Ch 2 MIDI 94 Velocity 127
2024-12-08 01:26:34,094 - DEBUG - Note OFF: Ch 2 MIDI 94
2024-12-08 01:26:34,118 - DEBUG - Note OFF: Ch 9 MIDI 59
2024-12-08 01:26:34,129 - DEBUG - Note OFF: Ch 9 MIDI 66
2024-12-08 01:26:34,129 - DEBUG - Note OFF: Ch 9 MIDI 73
2024-12-08 01:26:34,247 - DEBUG - Note OFF: Ch 3 MIDI 70
2024-12-08 01:26:34,360 - DEBUG - Note ON: Ch 1 MIDI 82 Velocity 121
2024-12-08 01:26:34,373 - DEBUG - Note ON: Ch 0 MIDI 86 Velocity 110
2024-12-08 01:26:34,373 - DEBUG - Note ON: Ch 1 MIDI 77 Velocity 95
2024-12-08 01:26:34,386 - DEBUG - Note ON: Ch 9 MIDI 66 Velocity 80
2024-12-08 01:26:34,397 - DEBUG - Note ON: Ch 9 MIDI 62 Velocity 90
2024-12-08 01:26:34,409 - DEBUG - Note ON: Ch 2 MIDI 94 Velocity 127
2024-12-08 01:26:34,517 - DEBUG - Note OFF: Ch 2 MIDI 94
2024-12-08 01:26:34,540 - DEBUG - Note OFF: Ch 9 MIDI 66
2024-12-08 01:26:34,553 - DEBUG - Note OFF: Ch 9 MIDI 62
2024-12-08 01:26:34,613 - DEBUG - Note OFF: Ch 1 MIDI 82
2024-12-08 01:26:34,626 - DEBUG - Note OFF: Ch 0 MIDI 86
2024-12-08 01:26:34,626 - DEBUG - Note OFF: Ch 1 MIDI 77
2024-12-08 01:26:34,781 - DEBUG - Note ON: Ch 9 MIDI 59 Velocity 100
2024-12-08 01:26:34,793 - DEBUG - Note ON: Ch 9 MIDI 66 Velocity 70
2024-12-08 01:26:34,806 - DEBUG - Note ON: Ch 2 MIDI 94 Velocity 127
2024-12-08 01:26:34,817 - DEBUG - Note ON: Ch 3 MIDI 70 Velocity 127
2024-12-08 01:26:34,937 - DEBUG - Note OFF: Ch 9 MIDI 59
2024-12-08 01:26:34,948 - DEBUG - Note OFF: Ch 9 MIDI 66
2024-12-08 01:26:35,186 - DEBUG - Note ON: Ch 1 MIDI 82 Velocity 122
2024-12-08 01:26:35,186 - DEBUG - Note ON: Ch 0 MIDI 86 Velocity 108
2024-12-08 01:26:35,199 - DEBUG - Note ON: Ch 1 MIDI 77 Velocity 104
2024-12-08 01:26:35,210 - DEBUG - Note OFF: Ch 2 MIDI 94
2024-12-08 01:26:35,210 - DEBUG - Note OFF: Ch 3 MIDI 70
2024-12-08 01:26:35,211 - DEBUG - Note ON: Ch 9 MIDI 66 Velocity 80
2024-12-08 01:26:35,211 - DEBUG - Note ON: Ch 9 MIDI 62 Velocity 90
2024-12-08 01:26:35,366 - DEBUG - Note OFF: Ch 9 MIDI 66
2024-12-08 01:26:35,366 - DEBUG - Note OFF: Ch 9 MIDI 62
2024-12-08 01:26:35,410 - DEBUG - Note ON: Ch 9 MIDI 70 Velocity 54
2024-12-08 01:26:35,423 - DEBUG - Note ON: Ch 2 MIDI 94 Velocity 124
2024-12-08 01:26:35,506 - DEBUG - Note OFF: Ch 2 MIDI 94
2024-12-08 01:26:35,528 - DEBUG - Note OFF: Ch 1 MIDI 82
2024-12-08 01:26:35,566 - DEBUG - Note OFF: Ch 0 MIDI 86
2024-12-08 01:26:35,566 - DEBUG - Note OFF: Ch 9 MIDI 70
2024-12-08 01:26:35,589 - DEBUG - Note ON: Ch 1 MIDI 81 Velocity 86
2024-12-08 01:26:35,600 - DEBUG - Note ON: Ch 0 MIDI 84 Velocity 76
2024-12-08 01:26:35,601 - DEBUG - Note ON: Ch 2 MIDI 94 Velocity 124
2024-12-08 01:26:35,613 - DEBUG - Note ON: Ch 9 MIDI 59 Velocity 100
2024-12-08 01:26:35,626 - DEBUG - Note ON: Ch 9 MIDI 66 Velocity 70
2024-12-08 01:26:35,626 - DEBUG - Note ON: Ch 3 MIDI 65 Velocity 115
2024-12-08 01:26:35,673 - DEBUG - Note OFF: Ch 1 MIDI 81
2024-12-08 01:26:35,686 - DEBUG - Note OFF: Ch 0 MIDI 84
2024-12-08 01:26:35,686 - DEBUG - Note OFF: Ch 1 MIDI 77
2024-12-08 01:26:35,768 - DEBUG - Note OFF: Ch 9 MIDI 59
2024-12-08 01:26:35,768 - DEBUG - Note OFF: Ch 9 MIDI 66
2024-12-08 01:26:35,780 - DEBUG - Note OFF: Ch 2 MIDI 94
2024-12-08 01:26:36,018 - DEBUG - Note ON: Ch 0 MIDI 84 Velocity 103
2024-12-08 01:26:36,018 - DEBUG - Note ON: Ch 1 MIDI 81 Velocity 110
2024-12-08 01:26:36,018 - DEBUG - Note ON: Ch 2 MIDI 93 Velocity 121
2024-12-08 01:26:36,030 - DEBUG - Note ON: Ch 1 MIDI 77 Velocity 110
2024-12-08 01:26:36,030 - DEBUG - Note OFF: Ch 3 MIDI 65
2024-12-08 01:26:36,031 - DEBUG - Note ON: Ch 9 MIDI 66 Velocity 80
2024-12-08 01:26:36,042 - DEBUG - Note ON: Ch 9 MIDI 62 Velocity 90
2024-12-08 01:26:36,129 - DEBUG - Note OFF: Ch 2 MIDI 93
2024-12-08 01:26:36,190 - DEBUG - Note OFF: Ch 9 MIDI 66
2024-12-08 01:26:36,190 - DEBUG - Note OFF: Ch 9 MIDI 62
2024-12-08 01:26:36,238 - DEBUG - Note ON: Ch 9 MIDI 66 Velocity 90
2024-12-08 01:26:36,262 - DEBUG - Note OFF: Ch 1 MIDI 81
2024-12-08 01:26:36,274 - DEBUG - Note OFF: Ch 0 MIDI 84
2024-12-08 01:26:36,286 - DEBUG - Note OFF: Ch 1 MIDI 77
2024-12-08 01:26:36,389 - DEBUG - Note OFF: Ch 9 MIDI 66
2024-12-08 01:26:36,437 - DEBUG - Note ON: Ch 9 MIDI 59 Velocity 100
2024-12-08 01:26:36,449 - DEBUG - Note ON: Ch 3 MIDI 62 Velocity 115
2024-12-08 01:26:36,449 - DEBUG - Note ON: Ch 9 MIDI 66 Velocity 70
2024-12-08 01:26:36,461 - DEBUG - Note ON: Ch 2 MIDI 93 Velocity 126
2024-12-08 01:26:36,589 - DEBUG - Note OFF: Ch 9 MIDI 59
2024-12-08 01:26:36,600 - DEBUG - Note OFF: Ch 9 MIDI 66
2024-12-08 01:26:36,748 - DEBUG - Note OFF: Ch 2 MIDI 93
2024-12-08 01:26:36,836 - DEBUG - Note ON: Ch 0 MIDI 86 Velocity 110
2024-12-08 01:26:36,836 - DEBUG - Note ON: Ch 1 MIDI 77 Velocity 104
2024-12-08 01:26:36,848 - DEBUG - Note ON: Ch 1 MIDI 81 Velocity 111
2024-12-08 01:26:36,860 - DEBUG - Note ON: Ch 2 MIDI 93 Velocity 102
2024-12-08 01:26:36,860 - DEBUG - Note ON: Ch 9 MIDI 66 Velocity 80
2024-12-08 01:26:36,861 - DEBUG - Note ON: Ch 9 MIDI 62 Velocity 90
2024-12-08 01:26:36,886 - DEBUG - Note OFF: Ch 3 MIDI 62
2024-12-08 01:26:36,966 - DEBUG - Note OFF: Ch 2 MIDI 93
2024-12-08 01:26:37,010 - DEBUG - Note OFF: Ch 9 MIDI 66
2024-12-08 01:26:37,022 - DEBUG - Note OFF: Ch 9 MIDI 62
2024-12-08 01:26:37,057 - DEBUG - Note OFF: Ch 1 MIDI 81
2024-12-08 01:26:37,057 - DEBUG - Note ON: Ch 2 MIDI 93 Velocity 99
2024-12-08 01:26:37,057 - DEBUG - Note ON: Ch 9 MIDI 66 Velocity 90
2024-12-08 01:26:37,118 - DEBUG - Note OFF: Ch 1 MIDI 77
2024-12-08 01:26:37,206 - DEBUG - Note ON: Ch 1 MIDI 82 Velocity 97
2024-12-08 01:26:37,206 - DEBUG - Note OFF: Ch 2 MIDI 93
2024-12-08 01:26:37,217 - DEBUG - Note OFF: Ch 9 MIDI 66
2024-12-08 01:26:37,228 - DEBUG - Note ON: Ch 1 MIDI 77 Velocity 73
2024-12-08 01:26:37,253 - DEBUG - Note ON: Ch 2 MIDI 96 Velocity 112
2024-12-08 01:26:37,266 - DEBUG - Note ON: Ch 9 MIDI 59 Velocity 100
2024-12-08 01:26:37,266 - DEBUG - Note ON: Ch 3 MIDI 67 Velocity 123
2024-12-08 01:26:37,266 - DEBUG - Note ON: Ch 9 MIDI 66 Velocity 70
2024-12-08 01:26:37,349 - DEBUG - Note OFF: Ch 1 MIDI 77
2024-12-08 01:26:37,349 - DEBUG - Note OFF: Ch 1 MIDI 82
2024-12-08 01:26:37,361 - DEBUG - Note OFF: Ch 0 MIDI 86
2024-12-08 01:26:37,373 - DEBUG - Note OFF: Ch 2 MIDI 96
2024-12-08 01:26:37,409 - DEBUG - Note OFF: Ch 9 MIDI 59
2024-12-08 01:26:37,422 - DEBUG - Note OFF: Ch 9 MIDI 66
2024-12-08 01:26:37,641 - DEBUG - Note ON: Ch 1 MIDI 82 Velocity 121
2024-12-08 01:26:37,654 - DEBUG - Note ON: Ch 0 MIDI 86 Velocity 110
2024-12-08 01:26:37,654 - DEBUG - Note ON: Ch 1 MIDI 77 Velocity 109
2024-12-08 01:26:37,677 - DEBUG - Note ON: Ch 2 MIDI 96 Velocity 123
2024-12-08 01:26:37,677 - DEBUG - Note OFF: Ch 3 MIDI 67
2024-12-08 01:26:37,677 - DEBUG - Note ON: Ch 9 MIDI 66 Velocity 80
2024-12-08 01:26:37,688 - DEBUG - Note ON: Ch 9 MIDI 62 Velocity 90
2024-12-08 01:26:37,814 - DEBUG - Note OFF: Ch 2 MIDI 96
2024-12-08 01:26:37,837 - DEBUG - Note OFF: Ch 9 MIDI 66
2024-12-08 01:26:37,850 - DEBUG - Note OFF: Ch 9 MIDI 62
2024-12-08 01:26:37,850 - DEBUG - Note OFF: Ch 1 MIDI 77
2024-12-08 01:26:37,873 - DEBUG - Note OFF: Ch 1 MIDI 82
2024-12-08 01:26:37,932 - DEBUG - Note OFF: Ch 0 MIDI 86
2024-12-08 01:26:38,077 - DEBUG - Note ON: Ch 0 MIDI 84 Velocity 97
2024-12-08 01:26:38,088 - DEBUG - Note ON: Ch 1 MIDI 82 Velocity 111
2024-12-08 01:26:38,088 - DEBUG - Note ON: Ch 1 MIDI 76 Velocity 90
2024-12-08 01:26:38,088 - DEBUG - Note ON: Ch 9 MIDI 59 Velocity 100
2024-12-08 01:26:38,088 - DEBUG - Note ON: Ch 3 MIDI 60 Velocity 112
2024-12-08 01:26:38,089 - DEBUG - Note ON: Ch 9 MIDI 66 Velocity 70
2024-12-08 01:26:38,113 - DEBUG - Note ON: Ch 2 MIDI 94 Velocity 127
2024-12-08 01:26:38,222 - DEBUG - Note OFF: Ch 2 MIDI 94
2024-12-08 01:26:38,235 - DEBUG - Note OFF: Ch 9 MIDI 59
2024-12-08 01:26:38,249 - DEBUG - Note OFF: Ch 9 MIDI 66
2024-12-08 01:26:38,485 - DEBUG - Note OFF: Ch 3 MIDI 60
2024-12-08 01:26:38,508 - DEBUG - Note ON: Ch 9 MIDI 66 Velocity 80
2024-12-08 01:26:38,508 - DEBUG - Note ON: Ch 9 MIDI 62 Velocity 90
2024-12-08 01:26:38,520 - DEBUG - Note ON: Ch 2 MIDI 91 Velocity 114
2024-12-08 01:26:38,533 - DEBUG - Note OFF: Ch 0 MIDI 84
2024-12-08 01:26:38,533 - DEBUG - Note OFF: Ch 1 MIDI 76
2024-12-08 01:26:38,557 - DEBUG - Note OFF: Ch 1 MIDI 82
2024-12-08 01:26:38,630 - DEBUG - Note OFF: Ch 2 MIDI 91
2024-12-08 01:26:38,653 - DEBUG - Note OFF: Ch 9 MIDI 66
2024-12-08 01:26:38,665 - DEBUG - Note OFF: Ch 9 MIDI 62
2024-12-08 01:26:38,713 - DEBUG - Note ON: Ch 9 MIDI 66 Velocity 90
2024-12-08 01:26:38,868 - DEBUG - Note OFF: Ch 9 MIDI 66
2024-12-08 01:26:38,868 - DEBUG - Note ON: Ch 0 MIDI 89 Velocity 94
2024-12-08 01:26:38,868 - DEBUG - Note ON: Ch 0 MIDI 84 Velocity 93
2024-12-08 01:26:38,893 - DEBUG - Note ON: Ch 1 MIDI 81 Velocity 100
2024-12-08 01:26:38,893 - DEBUG - Note ON: Ch 1 MIDI 77 Velocity 84
2024-12-08 01:26:38,906 - DEBUG - Note ON: Ch 9 MIDI 59 Velocity 100
2024-12-08 01:26:38,919 - DEBUG - Note ON: Ch 3 MIDI 65 Velocity 113
2024-12-08 01:26:38,919 - DEBUG - Note ON: Ch 9 MIDI 66 Velocity 70
2024-12-08 01:26:38,932 - DEBUG - Note ON: Ch 2 MIDI 89 Velocity 114
2024-12-08 01:26:39,066 - DEBUG - Note OFF: Ch 9 MIDI 59
2024-12-08 01:26:39,066 - DEBUG - Note OFF: Ch 9 MIDI 66
2024-12-08 01:26:39,181 - DEBUG - Note OFF: Ch 1 MIDI 81
2024-12-08 01:26:39,205 - DEBUG - Note OFF: Ch 0 MIDI 89
2024-12-08 01:26:39,206 - DEBUG - Note OFF: Ch 0 MIDI 84
2024-12-08 01:26:39,217 - DEBUG - Note OFF: Ch 1 MIDI 77
2024-12-08 01:26:39,325 - DEBUG - Note OFF: Ch 2 MIDI 89
2024-12-08 01:26:39,326 - DEBUG - Note ON: Ch 9 MIDI 66 Velocity 80
2024-12-08 01:26:39,338 - DEBUG - Note ON: Ch 9 MIDI 62 Velocity 90
2024-12-08 01:26:39,351 - DEBUG - Note OFF: Ch 3 MIDI 65
2024-12-08 01:26:39,485 - DEBUG - Note OFF: Ch 9 MIDI 66
2024-12-08 01:26:39,497 - DEBUG - Note OFF: Ch 9 MIDI 62
2024-12-08 01:26:39,520 - DEBUG - Note ON: Ch 2 MIDI 84 Velocity 96
2024-12-08 01:26:39,605 - DEBUG - Note ON: Ch 2 MIDI 88 Velocity 108
2024-12-08 01:26:39,617 - DEBUG - Note OFF: Ch 2 MIDI 84
2024-12-08 01:26:39,685 - DEBUG - Note ON: Ch 2 MIDI 91 Velocity 114
2024-12-08 01:26:39,731 - DEBUG - Note ON: Ch 1 MIDI 82 Velocity 118
2024-12-08 01:26:39,732 - DEBUG - Note ON: Ch 9 MIDI 59 Velocity 100
2024-12-08 01:26:39,743 - DEBUG - Note ON: Ch 0 MIDI 84 Velocity 105
2024-12-08 01:26:39,743 - DEBUG - Note ON: Ch 3 MIDI 60 Velocity 115
2024-12-08 01:26:39,743 - DEBUG - Note ON: Ch 9 MIDI 66 Velocity 70
2024-12-08 01:26:39,756 - DEBUG - Note ON: Ch 1 MIDI 76 Velocity 104
2024-12-08 01:26:39,756 - DEBUG - Note OFF: Ch 2 MIDI 88
2024-12-08 01:26:39,756 - DEBUG - Note ON: Ch 2 MIDI 96 Velocity 126
2024-12-08 01:26:39,817 - DEBUG - Note OFF: Ch 2 MIDI 91
2024-12-08 01:26:39,889 - DEBUG - Note OFF: Ch 9 MIDI 59
2024-12-08 01:26:39,889 - DEBUG - Note OFF: Ch 9 MIDI 66
2024-12-08 01:26:40,153 - DEBUG - Note ON: Ch 9 MIDI 66 Velocity 80
2024-12-08 01:26:40,166 - DEBUG - Note OFF: Ch 3 MIDI 60
2024-12-08 01:26:40,166 - DEBUG - Note ON: Ch 9 MIDI 62 Velocity 90
2024-12-08 01:26:40,310 - DEBUG - Note OFF: Ch 9 MIDI 66
2024-12-08 01:26:40,310 - DEBUG - Note OFF: Ch 9 MIDI 62
2024-12-08 01:26:40,359 - DEBUG - Note ON: Ch 9 MIDI 66 Velocity 90
2024-12-08 01:26:40,372 - DEBUG - Note OFF: Ch 1 MIDI 76
2024-12-08 01:26:40,373 - DEBUG - Note OFF: Ch 2 MIDI 96
2024-12-08 01:26:40,397 - DEBUG - Note OFF: Ch 1 MIDI 82
2024-12-08 01:26:40,512 - DEBUG - Note OFF: Ch 9 MIDI 66
2024-12-08 01:26:40,559 - DEBUG - Note ON: Ch 9 MIDI 81 Velocity 73
2024-12-08 01:26:40,559 - DEBUG - Note ON: Ch 9 MIDI 59 Velocity 100
2024-12-08 01:26:40,559 - DEBUG - Note ON: Ch 9 MIDI 66 Velocity 70
2024-12-08 01:26:40,572 - DEBUG - Note ON: Ch 0 MIDI 84 Velocity 127
2024-12-08 01:26:40,573 - DEBUG - Note ON: Ch 1 MIDI 81 Velocity 76
2024-12-08 01:26:40,573 - DEBUG - Note ON: Ch 3 MIDI 65 Velocity 106
2024-12-08 01:26:40,609 - DEBUG - Note ON: Ch 1 MIDI 77 Velocity 61
2024-12-08 01:26:40,668 - DEBUG - Note OFF: Ch 1 MIDI 81
2024-12-08 01:26:40,680 - DEBUG - Note OFF: Ch 0 MIDI 84
2024-12-08 01:26:40,680 - DEBUG - Note OFF: Ch 1 MIDI 77
2024-12-08 01:26:40,706 - DEBUG - Note OFF: Ch 9 MIDI 59
2024-12-08 01:26:40,707 - DEBUG - Note OFF: Ch 9 MIDI 81
2024-12-08 01:26:40,718 - DEBUG - Note OFF: Ch 9 MIDI 66
2024-12-08 01:26:40,873 - DEBUG - Note OFF: Ch 0 MIDI 84
2024-12-08 01:26:40,945 - DEBUG - Note OFF: Ch 3 MIDI 65
2024-12-08 01:26:40,957 - DEBUG - Note ON: Ch 0 MIDI 91 Velocity 127
2024-12-08 01:26:40,968 - DEBUG - Note ON: Ch 0 MIDI 84 Velocity 97
2024-12-08 01:26:40,981 - DEBUG - Note ON: Ch 1 MIDI 81 Velocity 101
2024-12-08 01:26:40,981 - DEBUG - Note ON: Ch 9 MIDI 66 Velocity 80
2024-12-08 01:26:40,981 - DEBUG - Note ON: Ch 1 MIDI 77 Velocity 92
2024-12-08 01:26:40,982 - DEBUG - Note ON: Ch 9 MIDI 62 Velocity 90
2024-12-08 01:26:41,066 - DEBUG - Note ON: Ch 0 MIDI 93 Velocity 119
2024-12-08 01:26:41,091 - DEBUG - Note OFF: Ch 0 MIDI 91
2024-12-08 01:26:41,115 - DEBUG - Note OFF: Ch 1 MIDI 81
2024-12-08 01:26:41,127 - DEBUG - Note OFF: Ch 9 MIDI 66
2024-12-08 01:26:41,139 - DEBUG - Note OFF: Ch 9 MIDI 62
2024-12-08 01:26:41,150 - DEBUG - Note OFF: Ch 0 MIDI 84
2024-12-08 01:26:41,150 - DEBUG - Note OFF: Ch 1 MIDI 77
2024-12-08 01:26:41,261 - DEBUG - Note OFF: Ch 0 MIDI 93
2024-12-08 01:26:41,380 - DEBUG - Note ON: Ch 9 MIDI 59 Velocity 100
2024-12-08 01:26:41,393 - DEBUG - Note ON: Ch 9 MIDI 66 Velocity 70
2024-12-08 01:26:41,405 - DEBUG - Note ON: Ch 0 MIDI 91 Velocity 127
2024-12-08 01:26:41,428 - DEBUG - Note ON: Ch 3 MIDI 60 Velocity 109
2024-12-08 01:26:41,537 - DEBUG - Note OFF: Ch 9 MIDI 59
2024-12-08 01:26:41,549 - DEBUG - Note OFF: Ch 9 MIDI 66
2024-12-08 01:26:41,597 - DEBUG - Note OFF: Ch 0 MIDI 91
2024-12-08 01:26:41,778 - DEBUG - Note ON: Ch 0 MIDI 84 Velocity 79
2024-12-08 01:26:41,790 - DEBUG - Note ON: Ch 0 MIDI 89 Velocity 127
2024-12-08 01:26:41,790 - DEBUG - Note ON: Ch 1 MIDI 77 Velocity 90
2024-12-08 01:26:41,801 - DEBUG - Note ON: Ch 1 MIDI 81 Velocity 85
2024-12-08 01:26:41,802 - DEBUG - Note ON: Ch 9 MIDI 66 Velocity 80
2024-12-08 01:26:41,813 - DEBUG - Note OFF: Ch 3 MIDI 60
2024-12-08 01:26:41,814 - DEBUG - Note ON: Ch 9 MIDI 62 Velocity 90
2024-12-08 01:26:41,957 - DEBUG - Note OFF: Ch 9 MIDI 66
2024-12-08 01:26:41,969 - DEBUG - Note OFF: Ch 0 MIDI 89
2024-12-08 01:26:41,969 - DEBUG - Note OFF: Ch 9 MIDI 62
2024-12-08 01:26:41,969 - DEBUG - Note OFF: Ch 0 MIDI 84
2024-12-08 01:26:41,981 - DEBUG - Note OFF: Ch 1 MIDI 81
2024-12-08 01:26:41,993 - DEBUG - Note OFF: Ch 1 MIDI 77
2024-12-08 01:26:42,005 - DEBUG - Note ON: Ch 9 MIDI 66 Velocity 90
2024-12-08 01:26:42,157 - DEBUG - Note OFF: Ch 9 MIDI 66
2024-12-08 01:26:42,205 - DEBUG - Note ON: Ch 0 MIDI 84 Velocity 127
2024-12-08 01:26:42,205 - DEBUG - Note ON: Ch 9 MIDI 59 Velocity 100
2024-12-08 01:26:42,217 - DEBUG - Note ON: Ch 9 MIDI 66 Velocity 70
2024-12-08 01:26:42,228 - DEBUG - Note ON: Ch 3 MIDI 65 Velocity 103
2024-12-08 01:26:42,360 - DEBUG - Note OFF: Ch 9 MIDI 59
2024-12-08 01:26:42,373 - DEBUG - Note OFF: Ch 9 MIDI 66
2024-12-08 01:26:42,599 - DEBUG - Note ON: Ch 0 MIDI 84 Velocity 83
2024-12-08 01:26:42,599 - DEBUG - Note ON: Ch 1 MIDI 77 Velocity 94
2024-12-08 01:26:42,611 - DEBUG - Note ON: Ch 1 MIDI 81 Velocity 86
2024-12-08 01:26:42,623 - DEBUG - Note OFF: Ch 3 MIDI 65
2024-12-08 01:26:42,623 - DEBUG - Note ON: Ch 9 MIDI 66 Velocity 80
2024-12-08 01:26:42,635 - DEBUG - Note ON: Ch 9 MIDI 62 Velocity 90
2024-12-08 01:26:42,785 - DEBUG - Note OFF: Ch 0 MIDI 84
2024-12-08 01:26:42,786 - DEBUG - Note OFF: Ch 9 MIDI 66
2024-12-08 01:26:42,786 - DEBUG - Note OFF: Ch 1 MIDI 81
2024-12-08 01:26:42,786 - DEBUG - Note OFF: Ch 9 MIDI 62
2024-12-08 01:26:42,797 - DEBUG - Note OFF: Ch 1 MIDI 77
2024-12-08 01:26:43,033 - DEBUG - Note ON: Ch 9 MIDI 59 Velocity 100
2024-12-08 01:26:43,033 - DEBUG - Note ON: Ch 3 MIDI 60 Velocity 112
2024-12-08 01:26:43,033 - DEBUG - Note ON: Ch 9 MIDI 66 Velocity 70
2024-12-08 01:26:43,188 - DEBUG - Note OFF: Ch 9 MIDI 59
2024-12-08 01:26:43,188 - DEBUG - Note OFF: Ch 9 MIDI 66
2024-12-08 01:26:43,273 - DEBUG - Note OFF: Ch 0 MIDI 84
2024-12-08 01:26:43,428 - DEBUG - Note ON: Ch 0 MIDI 84 Velocity 89
2024-12-08 01:26:43,428 - DEBUG - Note ON: Ch 0 MIDI 84 Velocity 122
2024-12-08 01:26:43,439 - DEBUG - Note ON: Ch 1 MIDI 81 Velocity 89
2024-12-08 01:26:43,440 - DEBUG - Note ON: Ch 1 MIDI 77 Velocity 83
2024-12-08 01:26:43,453 - DEBUG - Note ON: Ch 9 MIDI 66 Velocity 80
2024-12-08 01:26:43,453 - DEBUG - Note ON: Ch 9 MIDI 62 Velocity 90
2024-12-08 01:26:43,488 - DEBUG - Note OFF: Ch 3 MIDI 60
2024-12-08 01:26:43,570 - DEBUG - Note OFF: Ch 0 MIDI 84
2024-12-08 01:26:43,607 - DEBUG - Note OFF: Ch 9 MIDI 66
2024-12-08 01:26:43,607 - DEBUG - Note OFF: Ch 9 MIDI 62
2024-12-08 01:26:43,631 - DEBUG - Note OFF: Ch 1 MIDI 81
2024-12-08 01:26:43,642 - DEBUG - Note OFF: Ch 0 MIDI 84
2024-12-08 01:26:43,655 - DEBUG - Note OFF: Ch 1 MIDI 77
2024-12-08 01:26:43,655 - DEBUG - Note ON: Ch 9 MIDI 66 Velocity 90
2024-12-08 01:26:43,668 - DEBUG - Note ON: Ch 0 MIDI 84 Velocity 125
2024-12-08 01:26:43,789 - DEBUG - Note OFF: Ch 0 MIDI 84
2024-12-08 01:26:43,813 - DEBUG - Note OFF: Ch 9 MIDI 66
2024-12-08 01:26:43,836 - DEBUG - Note ON: Ch 0 MIDI 84 Velocity 103
2024-12-08 01:26:43,850 - DEBUG - Note ON: Ch 3 MIDI 65 Velocity 103
2024-12-08 01:26:43,850 - DEBUG - Note ON: Ch 9 MIDI 59 Velocity 100
2024-12-08 01:26:43,863 - DEBUG - Note ON: Ch 9 MIDI 66 Velocity 70
2024-12-08 01:26:44,008 - DEBUG - Note OFF: Ch 9 MIDI 59
2024-12-08 01:26:44,019 - DEBUG - Note OFF: Ch 9 MIDI 66
2024-12-08 01:26:44,133 - DEBUG - Note OFF: Ch 0 MIDI 84
2024-12-08 01:26:44,253 - DEBUG - Note ON: Ch 0 MIDI 91 Velocity 127
2024-12-08 01:26:44,265 - DEBUG - Note ON: Ch 0 MIDI 84 Velocity 97
2024-12-08 01:26:44,277 - DEBUG - Note ON: Ch 1 MIDI 77 Velocity 97
2024-12-08 01:26:44,277 - DEBUG - Note ON: Ch 9 MIDI 66 Velocity 80
2024-12-08 01:26:44,277 - DEBUG - Note ON: Ch 1 MIDI 81 Velocity 99
2024-12-08 01:26:44,277 - DEBUG - Note ON: Ch 9 MIDI 62 Velocity 90
2024-12-08 01:26:44,337 - DEBUG - Note OFF: Ch 3 MIDI 65
2024-12-08 01:26:44,348 - DEBUG - Note ON: Ch 0 MIDI 93 Velocity 114
2024-12-08 01:26:44,371 - DEBUG - Note OFF: Ch 0 MIDI 91
2024-12-08 01:26:44,430 - DEBUG - Note OFF: Ch 9 MIDI 66
2024-12-08 01:26:44,442 - DEBUG - Note OFF: Ch 9 MIDI 62
2024-12-08 01:26:44,455 - DEBUG - Note OFF: Ch 1 MIDI 81
2024-12-08 01:26:44,478 - DEBUG - Note OFF: Ch 0 MIDI 84
2024-12-08 01:26:44,478 - DEBUG - Note OFF: Ch 1 MIDI 77
2024-12-08 01:26:44,620 - DEBUG - Note OFF: Ch 0 MIDI 93
2024-12-08 01:26:44,680 - DEBUG - Note ON: Ch 9 MIDI 59 Velocity 100
2024-12-08 01:26:44,680 - DEBUG - Note ON: Ch 3 MIDI 67 Velocity 109
2024-12-08 01:26:44,680 - DEBUG - Note ON: Ch 9 MIDI 66 Velocity 70
2024-12-08 01:26:44,706 - DEBUG - Note ON: Ch 0 MIDI 91 Velocity 127
2024-12-08 01:26:44,830 - DEBUG - Note OFF: Ch 9 MIDI 59
2024-12-08 01:26:44,842 - DEBUG - Note OFF: Ch 9 MIDI 66
2024-12-08 01:26:44,890 - DEBUG - Note OFF: Ch 3 MIDI 67
2024-12-08 01:26:44,985 - DEBUG - Note OFF: Ch 0 MIDI 91
2024-12-08 01:26:45,070 - DEBUG - Note ON: Ch 0 MIDI 84 Velocity 94
2024-12-08 01:26:45,070 - DEBUG - Note ON: Ch 1 MIDI 81 Velocity 99
2024-12-08 01:26:45,082 - DEBUG - Note ON: Ch 3 MIDI 69 Velocity 107
2024-12-08 01:26:45,095 - DEBUG - Note ON: Ch 1 MIDI 77 Velocity 85
2024-12-08 01:26:45,095 - DEBUG - Note ON: Ch 0 MIDI 89 Velocity 127
2024-12-08 01:26:45,096 - DEBUG - Note ON: Ch 9 MIDI 66 Velocity 80
2024-12-08 01:26:45,108 - DEBUG - Note ON: Ch 9 MIDI 62 Velocity 90
2024-12-08 01:26:45,241 - DEBUG - Note OFF: Ch 3 MIDI 69
2024-12-08 01:26:45,253 - DEBUG - Note OFF: Ch 9 MIDI 66
2024-12-08 01:26:45,265 - DEBUG - Note OFF: Ch 9 MIDI 62
2024-12-08 01:26:45,303 - DEBUG - Note ON: Ch 9 MIDI 66 Velocity 90
2024-12-08 01:26:45,315 - DEBUG - Note OFF: Ch 0 MIDI 84
2024-12-08 01:26:45,315 - DEBUG - Note OFF: Ch 0 MIDI 89
2024-12-08 01:26:45,360 - DEBUG - Note OFF: Ch 1 MIDI 77
2024-12-08 01:26:45,373 - DEBUG - Note OFF: Ch 1 MIDI 81
2024-12-08 01:26:45,457 - DEBUG - Note OFF: Ch 9 MIDI 66
2024-12-08 01:26:45,505 - DEBUG - Note ON: Ch 0 MIDI 86 Velocity 127
2024-12-08 01:26:45,506 - DEBUG - Note ON: Ch 3 MIDI 70 Velocity 127
2024-12-08 01:26:45,506 - DEBUG - Note ON: Ch 9 MIDI 59 Velocity 100
2024-12-08 01:26:45,506 - DEBUG - Note ON: Ch 9 MIDI 66 Velocity 70
2024-12-08 01:26:45,656 - DEBUG - Note OFF: Ch 9 MIDI 59
2024-12-08 01:26:45,668 - DEBUG - Note OFF: Ch 9 MIDI 66
2024-12-08 01:26:45,883 - DEBUG - Note ON: Ch 1 MIDI 82 Velocity 104
2024-12-08 01:26:45,907 - DEBUG - Note ON: Ch 0 MIDI 86 Velocity 97
2024-12-08 01:26:45,907 - DEBUG - Note ON: Ch 1 MIDI 77 Velocity 88
2024-12-08 01:26:45,919 - DEBUG - Note ON: Ch 9 MIDI 66 Velocity 80
2024-12-08 01:26:45,931 - DEBUG - Note ON: Ch 9 MIDI 62 Velocity 90
2024-12-08 01:26:45,942 - DEBUG - Note OFF: Ch 3 MIDI 70
2024-12-08 01:26:46,073 - DEBUG - Note OFF: Ch 9 MIDI 66
2024-12-08 01:26:46,085 - DEBUG - Note OFF: Ch 9 MIDI 62
2024-12-08 01:26:46,098 - DEBUG - Note OFF: Ch 1 MIDI 82
2024-12-08 01:26:46,111 - DEBUG - Note OFF: Ch 1 MIDI 77
2024-12-08 01:26:46,124 - DEBUG - Note OFF: Ch 0 MIDI 86
2024-12-08 01:26:46,313 - DEBUG - Note ON: Ch 3 MIDI 70 Velocity 127
2024-12-08 01:26:46,325 - DEBUG - Note ON: Ch 9 MIDI 59 Velocity 100
2024-12-08 01:26:46,337 - DEBUG - Note ON: Ch 9 MIDI 66 Velocity 70
2024-12-08 01:26:46,480 - DEBUG - Note OFF: Ch 9 MIDI 59
2024-12-08 01:26:46,493 - DEBUG - Note OFF: Ch 9 MIDI 66
2024-12-08 01:26:46,577 - DEBUG - Note OFF: Ch 3 MIDI 70
2024-12-08 01:26:46,717 - DEBUG - Note ON: Ch 1 MIDI 82 Velocity 118
2024-12-08 01:26:46,729 - DEBUG - Note ON: Ch 0 MIDI 86 Velocity 103
2024-12-08 01:26:46,729 - DEBUG - Note ON: Ch 3 MIDI 69 Velocity 106
2024-12-08 01:26:46,740 - DEBUG - Note ON: Ch 1 MIDI 77 Velocity 99
2024-12-08 01:26:46,740 - DEBUG - Note ON: Ch 9 MIDI 66 Velocity 80
2024-12-08 01:26:46,753 - DEBUG - Note ON: Ch 9 MIDI 62 Velocity 90
2024-12-08 01:26:46,897 - DEBUG - Note OFF: Ch 0 MIDI 86
2024-12-08 01:26:46,897 - DEBUG - Note OFF: Ch 9 MIDI 66
2024-12-08 01:26:46,909 - DEBUG - Note OFF: Ch 9 MIDI 62
2024-12-08 01:26:46,933 - DEBUG - Note OFF: Ch 1 MIDI 82
2024-12-08 01:26:46,933 - DEBUG - Note OFF: Ch 1 MIDI 77
2024-12-08 01:26:46,957 - DEBUG - Note ON: Ch 9 MIDI 66 Velocity 90
2024-12-08 01:26:46,957 - DEBUG - Note OFF: Ch 0 MIDI 86
2024-12-08 01:26:46,957 - DEBUG - Note OFF: Ch 3 MIDI 69
2024-12-08 01:26:47,113 - DEBUG - Note OFF: Ch 9 MIDI 66
2024-12-08 01:26:47,147 - DEBUG - Note ON: Ch 9 MIDI 59 Velocity 100
2024-12-08 01:26:47,159 - DEBUG - Note ON: Ch 9 MIDI 66 Velocity 70
2024-12-08 01:26:47,172 - DEBUG - Note ON: Ch 0 MIDI 86 Velocity 127
2024-12-08 01:26:47,173 - DEBUG - Note ON: Ch 3 MIDI 67 Velocity 107
2024-12-08 01:26:47,305 - DEBUG - Note OFF: Ch 9 MIDI 59
2024-12-08 01:26:47,317 - DEBUG - Note OFF: Ch 9 MIDI 66
2024-12-08 01:26:47,459 - DEBUG - Note OFF: Ch 0 MIDI 86
2024-12-08 01:26:47,539 - DEBUG - Note ON: Ch 0 MIDI 93 Velocity 121
2024-12-08 01:26:47,539 - DEBUG - Note ON: Ch 1 MIDI 82 Velocity 104
2024-12-08 01:26:47,551 - DEBUG - Note ON: Ch 0 MIDI 86 Velocity 100
2024-12-08 01:26:47,564 - DEBUG - Note ON: Ch 1 MIDI 79 Velocity 90
2024-12-08 01:26:47,564 - DEBUG - Note ON: Ch 9 MIDI 66 Velocity 80
2024-12-08 01:26:47,576 - DEBUG - Note ON: Ch 9 MIDI 62 Velocity 90
2024-12-08 01:26:47,625 - DEBUG - Note OFF: Ch 3 MIDI 67
2024-12-08 01:26:47,660 - DEBUG - Note ON: Ch 0 MIDI 94 Velocity 118
2024-12-08 01:26:47,710 - DEBUG - Note OFF: Ch 0 MIDI 93
2024-12-08 01:26:47,721 - DEBUG - Note OFF: Ch 9 MIDI 66
2024-12-08 01:26:47,735 - DEBUG - Note OFF: Ch 9 MIDI 62
2024-12-08 01:26:47,747 - DEBUG - Note OFF: Ch 1 MIDI 82
2024-12-08 01:26:47,770 - DEBUG - Note OFF: Ch 1 MIDI 79
2024-12-08 01:26:47,783 - DEBUG - Note OFF: Ch 0 MIDI 86
2024-12-08 01:26:47,905 - DEBUG - Note OFF: Ch 0 MIDI 94
2024-12-08 01:26:47,969 - DEBUG - Note ON: Ch 9 MIDI 59 Velocity 100
2024-12-08 01:26:47,980 - DEBUG - Note ON: Ch 9 MIDI 66 Velocity 70
2024-12-08 01:26:48,005 - DEBUG - Note ON: Ch 0 MIDI 93 Velocity 127
2024-12-08 01:26:48,006 - DEBUG - Note ON: Ch 3 MIDI 62 Velocity 110
2024-12-08 01:26:48,125 - DEBUG - Note OFF: Ch 9 MIDI 59
2024-12-08 01:26:48,138 - DEBUG - Note OFF: Ch 9 MIDI 66
2024-12-08 01:26:48,257 - DEBUG - Note OFF: Ch 0 MIDI 93
2024-12-08 01:26:48,363 - DEBUG - Note ON: Ch 0 MIDI 86 Velocity 105
2024-12-08 01:26:48,375 - DEBUG - Note ON: Ch 1 MIDI 82 Velocity 115
2024-12-08 01:26:48,387 - DEBUG - Note ON: Ch 0 MIDI 91 Velocity 122
2024-12-08 01:26:48,387 - DEBUG - Note ON: Ch 1 MIDI 79 Velocity 98
2024-12-08 01:26:48,399 - DEBUG - Note ON: Ch 9 MIDI 66 Velocity 80
2024-12-08 01:26:48,399 - DEBUG - Note ON: Ch 9 MIDI 62 Velocity 90
2024-12-08 01:26:48,447 - DEBUG - Note OFF: Ch 3 MIDI 62
2024-12-08 01:26:48,553 - DEBUG - Note OFF: Ch 9 MIDI 66
2024-12-08 01:26:48,553 - DEBUG - Note OFF: Ch 9 MIDI 62
2024-12-08 01:26:48,589 - DEBUG - Note OFF: Ch 1 MIDI 79
2024-12-08 01:26:48,601 - DEBUG - Note OFF: Ch 1 MIDI 82
2024-12-08 01:26:48,601 - DEBUG - Note ON: Ch 9 MIDI 66 Velocity 90
2024-12-08 01:26:48,614 - DEBUG - Note OFF: Ch 0 MIDI 86
2024-12-08 01:26:48,660 - DEBUG - Note OFF: Ch 0 MIDI 91
2024-12-08 01:26:48,757 - DEBUG - Note OFF: Ch 9 MIDI 66
2024-12-08 01:26:48,793 - DEBUG - Note ON: Ch 9 MIDI 59 Velocity 100
2024-12-08 01:26:48,805 - DEBUG - Note ON: Ch 9 MIDI 66 Velocity 70
2024-12-08 01:26:48,817 - DEBUG - Note ON: Ch 0 MIDI 88 Velocity 127
2024-12-08 01:26:48,817 - DEBUG - Note ON: Ch 3 MIDI 60 Velocity 113
2024-12-08 01:26:48,951 - DEBUG - Note OFF: Ch 9 MIDI 59
2024-12-08 01:26:48,963 - DEBUG - Note OFF: Ch 9 MIDI 66
2024-12-08 01:26:49,189 - DEBUG - Note ON: Ch 0 MIDI 84 Velocity 96
2024-12-08 01:26:49,201 - DEBUG - Note ON: Ch 1 MIDI 82 Velocity 115
2024-12-08 01:26:49,214 - DEBUG - Note ON: Ch 1 MIDI 76 Velocity 98
2024-12-08 01:26:49,214 - DEBUG - Note ON: Ch 9 MIDI 66 Velocity 80
2024-12-08 01:26:49,225 - DEBUG - Note ON: Ch 9 MIDI 62 Velocity 90
2024-12-08 01:26:49,249 - DEBUG - Note OFF: Ch 3 MIDI 60
2024-12-08 01:26:49,368 - DEBUG - Note OFF: Ch 9 MIDI 66
2024-12-08 01:26:49,380 - DEBUG - Note OFF: Ch 9 MIDI 62
2024-12-08 01:26:49,428 - DEBUG - Note OFF: Ch 0 MIDI 84
2024-12-08 01:26:49,428 - DEBUG - Note OFF: Ch 1 MIDI 82
2024-12-08 01:26:49,440 - DEBUG - Note OFF: Ch 1 MIDI 76
2024-12-08 01:26:49,617 - DEBUG - Note ON: Ch 9 MIDI 59 Velocity 100
2024-12-08 01:26:49,629 - DEBUG - Note ON: Ch 3 MIDI 67 Velocity 115
2024-12-08 01:26:49,629 - DEBUG - Note ON: Ch 9 MIDI 66 Velocity 70
2024-12-08 01:26:49,770 - DEBUG - Note OFF: Ch 9 MIDI 59
2024-12-08 01:26:49,783 - DEBUG - Note OFF: Ch 9 MIDI 66
2024-12-08 01:26:50,021 - DEBUG - Note ON: Ch 0 MIDI 84 Velocity 96
2024-12-08 01:26:50,022 - DEBUG - Note ON: Ch 1 MIDI 82 Velocity 116
2024-12-08 01:26:50,035 - DEBUG - Note ON: Ch 1 MIDI 76 Velocity 88
2024-12-08 01:26:50,047 - DEBUG - Note ON: Ch 9 MIDI 66 Velocity 80
2024-12-08 01:26:50,047 - DEBUG - Note ON: Ch 9 MIDI 62 Velocity 90
2024-12-08 01:26:50,059 - DEBUG - Note OFF: Ch 3 MIDI 67
2024-12-08 01:26:50,193 - DEBUG - Note OFF: Ch 9 MIDI 66
2024-12-08 01:26:50,205 - DEBUG - Note OFF: Ch 9 MIDI 62
2024-12-08 01:26:50,253 - DEBUG - Note ON: Ch 9 MIDI 66 Velocity 90
2024-12-08 01:26:50,253 - DEBUG - Note OFF: Ch 0 MIDI 84
2024-12-08 01:26:50,265 - DEBUG - Note OFF: Ch 1 MIDI 82
2024-12-08 01:26:50,289 - DEBUG - Note OFF: Ch 0 MIDI 88
2024-12-08 01:26:50,289 - DEBUG - Note OFF: Ch 1 MIDI 76
2024-12-08 01:26:50,398 - DEBUG - Note OFF: Ch 9 MIDI 66
2024-12-08 01:26:50,433 - DEBUG - Note ON: Ch 3 MIDI 60 Velocity 110
2024-12-08 01:26:50,445 - DEBUG - Note ON: Ch 9 MIDI 59 Velocity 100
2024-12-08 01:26:50,456 - DEBUG - Note ON: Ch 0 MIDI 96 Velocity 127
2024-12-08 01:26:50,457 - DEBUG - Note ON: Ch 9 MIDI 66 Velocity 70
2024-12-08 01:26:50,600 - DEBUG - Note OFF: Ch 9 MIDI 59
2024-12-08 01:26:50,613 - DEBUG - Note OFF: Ch 9 MIDI 66
2024-12-08 01:26:50,661 - DEBUG - Note OFF: Ch 0 MIDI 96
2024-12-08 01:26:50,840 - DEBUG - Note ON: Ch 1 MIDI 82 Velocity 106
2024-12-08 01:26:50,853 - DEBUG - Note ON: Ch 0 MIDI 84 Velocity 89
2024-12-08 01:26:50,853 - DEBUG - Note ON: Ch 1 MIDI 77 Velocity 98
2024-12-08 01:26:50,865 - DEBUG - Note ON: Ch 0 MIDI 96 Velocity 127
2024-12-08 01:26:50,865 - DEBUG - Note ON: Ch 9 MIDI 66 Velocity 80
2024-12-08 01:26:50,876 - DEBUG - Note ON: Ch 9 MIDI 62 Velocity 90
2024-12-08 01:26:50,913 - DEBUG - Note OFF: Ch 3 MIDI 60
2024-12-08 01:26:51,025 - DEBUG - Note OFF: Ch 9 MIDI 66
2024-12-08 01:26:51,025 - DEBUG - Note OFF: Ch 9 MIDI 62
2024-12-08 01:26:51,070 - DEBUG - Note OFF: Ch 0 MIDI 84
2024-12-08 01:26:51,082 - DEBUG - Note OFF: Ch 1 MIDI 82
2024-12-08 01:26:51,095 - DEBUG - Note OFF: Ch 1 MIDI 77
2024-12-08 01:26:51,130 - DEBUG - Note OFF: Ch 0 MIDI 96
2024-12-08 01:26:51,265 - DEBUG - Note ON: Ch 3 MIDI 62 Velocity 109
2024-12-08 01:26:51,265 - DEBUG - Note ON: Ch 9 MIDI 59 Velocity 100
2024-12-08 01:26:51,277 - DEBUG - Note ON: Ch 0 MIDI 94 Velocity 127
2024-12-08 01:26:51,277 - DEBUG - Note ON: Ch 9 MIDI 66 Velocity 70
2024-12-08 01:26:51,420 - DEBUG - Note OFF: Ch 9 MIDI 59
2024-12-08 01:26:51,432 - DEBUG - Note OFF: Ch 9 MIDI 66
2024-12-08 01:26:51,505 - DEBUG - Note OFF: Ch 3 MIDI 62
2024-12-08 01:26:51,619 - DEBUG - Note OFF: Ch 0 MIDI 94
2024-12-08 01:26:51,656 - DEBUG - Note ON: Ch 0 MIDI 84 Velocity 96
2024-12-08 01:26:51,657 - DEBUG - Note ON: Ch 0 MIDI 91 Velocity 127
2024-12-08 01:26:51,668 - DEBUG - Note ON: Ch 1 MIDI 76 Velocity 98
2024-12-08 01:26:51,668 - DEBUG - Note ON: Ch 3 MIDI 64 Velocity 103
2024-12-08 01:26:51,669 - DEBUG - Note ON: Ch 1 MIDI 82 Velocity 105
2024-12-08 01:26:51,692 - DEBUG - Note ON: Ch 9 MIDI 66 Velocity 80
2024-12-08 01:26:51,705 - DEBUG - Note ON: Ch 9 MIDI 62 Velocity 90
2024-12-08 01:26:51,848 - DEBUG - Note OFF: Ch 0 MIDI 91
2024-12-08 01:26:51,849 - DEBUG - Note OFF: Ch 3 MIDI 64
2024-12-08 01:26:51,849 - DEBUG - Note OFF: Ch 9 MIDI 66
2024-12-08 01:26:51,849 - DEBUG - Note OFF: Ch 9 MIDI 62
2024-12-08 01:26:51,896 - DEBUG - Note OFF: Ch 1 MIDI 76
2024-12-08 01:26:51,897 - DEBUG - Note ON: Ch 9 MIDI 66 Velocity 90
2024-12-08 01:26:51,960 - DEBUG - Note OFF: Ch 1 MIDI 82
2024-12-08 01:26:52,056 - DEBUG - Note OFF: Ch 9 MIDI 66
2024-12-08 01:26:52,067 - DEBUG - Note ON: Ch 0 MIDI 91 Velocity 127
2024-12-08 01:26:52,093 - DEBUG - Note ON: Ch 3 MIDI 65 Velocity 110
2024-12-08 01:26:52,093 - DEBUG - Note ON: Ch 9 MIDI 59 Velocity 100
2024-12-08 01:26:52,105 - DEBUG - Note ON: Ch 9 MIDI 66 Velocity 70
2024-12-08 01:26:52,116 - DEBUG - Note ON: Ch 1 MIDI 77 Velocity 65
2024-12-08 01:26:52,177 - DEBUG - Note ON: Ch 0 MIDI 93 Velocity 110
2024-12-08 01:26:52,200 - DEBUG - Note OFF: Ch 0 MIDI 91
2024-12-08 01:26:52,212 - DEBUG - Note OFF: Ch 1 MIDI 77
2024-12-08 01:26:52,225 - DEBUG - Note OFF: Ch 0 MIDI 84
2024-12-08 01:26:52,248 - DEBUG - Note OFF: Ch 9 MIDI 59
2024-12-08 01:26:52,260 - DEBUG - Note OFF: Ch 9 MIDI 66
2024-12-08 01:26:52,508 - DEBUG - Note ON: Ch 0 MIDI 84 Velocity 95
2024-12-08 01:26:52,509 - DEBUG - Note ON: Ch 1 MIDI 81 Velocity 98
2024-12-08 01:26:52,509 - DEBUG - Note ON: Ch 1 MIDI 77 Velocity 93
2024-12-08 01:26:52,509 - DEBUG - Note ON: Ch 9 MIDI 66 Velocity 80
2024-12-08 01:26:52,520 - DEBUG - Note ON: Ch 9 MIDI 62 Velocity 90
2024-12-08 01:26:52,558 - DEBUG - Note OFF: Ch 3 MIDI 65
2024-12-08 01:26:52,668 - DEBUG - Note OFF: Ch 9 MIDI 66
2024-12-08 01:26:52,680 - DEBUG - Note OFF: Ch 9 MIDI 62
2024-12-08 01:26:52,728 - DEBUG - Note OFF: Ch 1 MIDI 81
2024-12-08 01:26:52,739 - DEBUG - Note OFF: Ch 1 MIDI 77
2024-12-08 01:26:52,765 - DEBUG - Note OFF: Ch 0 MIDI 84
2024-12-08 01:26:52,920 - DEBUG - Note ON: Ch 3 MIDI 60 Velocity 109
2024-12-08 01:26:52,921 - DEBUG - Note ON: Ch 9 MIDI 59 Velocity 100
2024-12-08 01:26:52,932 - DEBUG - Note ON: Ch 9 MIDI 66 Velocity 70
2024-12-08 01:26:53,075 - DEBUG - Note OFF: Ch 9 MIDI 59
2024-12-08 01:26:53,086 - DEBUG - Note OFF: Ch 9 MIDI 66
2024-12-08 01:26:53,325 - DEBUG - Note ON: Ch 1 MIDI 82 Velocity 122
2024-12-08 01:26:53,325 - DEBUG - Note ON: Ch 1 MIDI 76 Velocity 98
2024-12-08 01:26:53,325 - DEBUG - Note ON: Ch 0 MIDI 84 Velocity 110
2024-12-08 01:26:53,336 - DEBUG - Note ON: Ch 9 MIDI 66 Velocity 80
2024-12-08 01:26:53,347 - DEBUG - Note ON: Ch 9 MIDI 62 Velocity 90
2024-12-08 01:26:53,385 - DEBUG - Note OFF: Ch 3 MIDI 60
2024-12-08 01:26:53,435 - DEBUG - Note OFF: Ch 0 MIDI 93
2024-12-08 01:26:53,493 - DEBUG - Note OFF: Ch 9 MIDI 66
2024-12-08 01:26:53,506 - DEBUG - Note OFF: Ch 9 MIDI 62
2024-12-08 01:26:53,540 - DEBUG - Note OFF: Ch 1 MIDI 76
2024-12-08 01:26:53,541 - DEBUG - Note ON: Ch 9 MIDI 66 Velocity 90
2024-12-08 01:26:53,697 - DEBUG - Note OFF: Ch 9 MIDI 66
2024-12-08 01:26:53,708 - DEBUG - Note OFF: Ch 1 MIDI 82
2024-12-08 01:26:53,719 - DEBUG - Note ON: Ch 1 MIDI 81 Velocity 92
2024-12-08 01:26:53,732 - DEBUG - Note ON: Ch 1 MIDI 77 Velocity 92
2024-12-08 01:26:53,745 - DEBUG - Note ON: Ch 9 MIDI 59 Velocity 100
2024-12-08 01:26:53,745 - DEBUG - Note ON: Ch 9 MIDI 66 Velocity 70
2024-12-08 01:26:53,767 - DEBUG - Note ON: Ch 0 MIDI 84 Velocity 127
2024-12-08 01:26:53,768 - DEBUG - Note ON: Ch 3 MIDI 65 Velocity 109
2024-12-08 01:26:53,880 - DEBUG - Note OFF: Ch 1 MIDI 77
2024-12-08 01:26:53,880 - DEBUG - Note OFF: Ch 1 MIDI 81
2024-12-08 01:26:53,892 - DEBUG - Note OFF: Ch 9 MIDI 59
2024-12-08 01:26:53,905 - DEBUG - Note OFF: Ch 0 MIDI 84
2024-12-08 01:26:53,905 - DEBUG - Note OFF: Ch 9 MIDI 66
2024-12-08 01:26:54,059 - DEBUG - Note OFF: Ch 0 MIDI 84
2024-12-08 01:26:54,141 - DEBUG - Note ON: Ch 1 MIDI 81 Velocity 90
2024-12-08 01:26:54,155 - DEBUG - Note ON: Ch 0 MIDI 84 Velocity 87
2024-12-08 01:26:54,168 - DEBUG - Note ON: Ch 0 MIDI 91 Velocity 127
2024-12-08 01:26:54,168 - DEBUG - Note ON: Ch 1 MIDI 77 Velocity 86
2024-12-08 01:26:54,168 - DEBUG - Note ON: Ch 9 MIDI 66 Velocity 80
2024-12-08 01:26:54,168 - DEBUG - Note ON: Ch 9 MIDI 62 Velocity 90
2024-12-08 01:26:54,228 - DEBUG - Note OFF: Ch 3 MIDI 65
2024-12-08 01:26:54,241 - DEBUG - Note ON: Ch 0 MIDI 93 Velocity 101
2024-12-08 01:26:54,312 - DEBUG - Note OFF: Ch 0 MIDI 91
2024-12-08 01:26:54,313 - DEBUG - Note OFF: Ch 9 MIDI 66
2024-12-08 01:26:54,325 - DEBUG - Note OFF: Ch 9 MIDI 62
2024-12-08 01:26:54,336 - DEBUG - Note OFF: Ch 1 MIDI 81
2024-12-08 01:26:54,349 - DEBUG - Note OFF: Ch 1 MIDI 77
2024-12-08 01:26:54,363 - DEBUG - Note OFF: Ch 0 MIDI 84
2024-12-08 01:26:54,565 - DEBUG - Note ON: Ch 9 MIDI 59 Velocity 100
2024-12-08 01:26:54,576 - DEBUG - Note ON: Ch 9 MIDI 66 Velocity 70
2024-12-08 01:26:54,601 - DEBUG - Note ON: Ch 0 MIDI 91 Velocity 127
2024-12-08 01:26:54,615 - DEBUG - Note ON: Ch 3 MIDI 60 Velocity 113
2024-12-08 01:26:54,648 - DEBUG - Note OFF: Ch 0 MIDI 93
2024-12-08 01:26:54,718 - DEBUG - Note OFF: Ch 9 MIDI 59
2024-12-08 01:26:54,730 - DEBUG - Note OFF: Ch 9 MIDI 66
2024-12-08 01:26:54,813 - DEBUG - Note OFF: Ch 0 MIDI 91
2024-12-08 01:26:54,966 - DEBUG - Note ON: Ch 1 MIDI 81 Velocity 99
2024-12-08 01:26:54,978 - DEBUG - Note ON: Ch 0 MIDI 84 Velocity 99
2024-12-08 01:26:54,990 - DEBUG - Note ON: Ch 1 MIDI 77 Velocity 85
2024-12-08 01:26:54,990 - DEBUG - Note ON: Ch 9 MIDI 66 Velocity 80
2024-12-08 01:26:54,990 - DEBUG - Note ON: Ch 0 MIDI 89 Velocity 127
2024-12-08 01:26:54,990 - DEBUG - Note ON: Ch 9 MIDI 62 Velocity 90
2024-12-08 01:26:55,038 - DEBUG - Note OFF: Ch 3 MIDI 60
2024-12-08 01:26:55,146 - DEBUG - Note OFF: Ch 9 MIDI 66
2024-12-08 01:26:55,146 - DEBUG - Note OFF: Ch 9 MIDI 62
2024-12-08 01:26:55,180 - DEBUG - Note OFF: Ch 1 MIDI 81
2024-12-08 01:26:55,180 - DEBUG - Note OFF: Ch 0 MIDI 84
2024-12-08 01:26:55,192 - DEBUG - Note OFF: Ch 1 MIDI 77
2024-12-08 01:26:55,192 - DEBUG - Note ON: Ch 9 MIDI 66 Velocity 90
2024-12-08 01:26:55,205 - DEBUG - Note OFF: Ch 0 MIDI 89
2024-12-08 01:26:55,347 - DEBUG - Note OFF: Ch 9 MIDI 66
2024-12-08 01:26:55,392 - DEBUG - Note ON: Ch 9 MIDI 59 Velocity 100
2024-12-08 01:26:55,405 - DEBUG - Note ON: Ch 3 MIDI 65 Velocity 109
2024-12-08 01:26:55,405 - DEBUG - Note ON: Ch 9 MIDI 66 Velocity 70
2024-12-08 01:26:55,418 - DEBUG - Note ON: Ch 0 MIDI 84 Velocity 127
2024-12-08 01:26:55,548 - DEBUG - Note OFF: Ch 9 MIDI 59
2024-12-08 01:26:55,548 - DEBUG - Note OFF: Ch 9 MIDI 66
2024-12-08 01:26:55,788 - DEBUG - Note ON: Ch 1 MIDI 81 Velocity 103
2024-12-08 01:26:55,800 - DEBUG - Note ON: Ch 0 MIDI 84 Velocity 100
2024-12-08 01:26:55,813 - DEBUG - Note ON: Ch 1 MIDI 77 Velocity 95
2024-12-08 01:26:55,813 - DEBUG - Note ON: Ch 9 MIDI 66 Velocity 80
2024-12-08 01:26:55,825 - DEBUG - Note ON: Ch 9 MIDI 62 Velocity 90
2024-12-08 01:26:55,860 - DEBUG - Note OFF: Ch 3 MIDI 65
2024-12-08 01:26:55,968 - DEBUG - Note OFF: Ch 9 MIDI 66
2024-12-08 01:26:55,968 - DEBUG - Note OFF: Ch 1 MIDI 81
2024-12-08 01:26:55,969 - DEBUG - Note OFF: Ch 9 MIDI 62
2024-12-08 01:26:55,981 - DEBUG - Note OFF: Ch 1 MIDI 77
2024-12-08 01:26:56,005 - DEBUG - Note OFF: Ch 0 MIDI 84
2024-12-08 01:26:56,216 - DEBUG - Note ON: Ch 9 MIDI 59 Velocity 100
2024-12-08 01:26:56,227 - DEBUG - Note ON: Ch 3 MIDI 60 Velocity 107
2024-12-08 01:26:56,227 - DEBUG - Note ON: Ch 9 MIDI 66 Velocity 70
2024-12-08 01:26:56,369 - DEBUG - Note OFF: Ch 9 MIDI 59
2024-12-08 01:26:56,381 - DEBUG - Note OFF: Ch 9 MIDI 66
2024-12-08 01:26:56,632 - DEBUG - Note ON: Ch 1 MIDI 81 Velocity 98
2024-12-08 01:26:56,632 - DEBUG - Note ON: Ch 0 MIDI 84 Velocity 98
2024-12-08 01:26:56,633 - DEBUG - Note ON: Ch 1 MIDI 77 Velocity 89
2024-12-08 01:26:56,633 - DEBUG - Note ON: Ch 9 MIDI 66 Velocity 80
2024-12-08 01:26:56,645 - DEBUG - Note ON: Ch 9 MIDI 62 Velocity 90
2024-12-08 01:26:56,692 - DEBUG - Note OFF: Ch 3 MIDI 60
2024-12-08 01:26:56,788 - DEBUG - Note OFF: Ch 9 MIDI 66
2024-12-08 01:26:56,800 - DEBUG - Note OFF: Ch 9 MIDI 62
2024-12-08 01:26:56,813 - DEBUG - Note OFF: Ch 0 MIDI 84
2024-12-08 01:26:56,825 - DEBUG - Note OFF: Ch 1 MIDI 81
2024-12-08 01:26:56,836 - DEBUG - Note OFF: Ch 1 MIDI 77
2024-12-08 01:26:56,836 - DEBUG - Note OFF: Ch 0 MIDI 84
2024-12-08 01:26:56,836 - DEBUG - Note ON: Ch 9 MIDI 66 Velocity 90
2024-12-08 01:26:57,000 - DEBUG - Note OFF: Ch 9 MIDI 66
2024-12-08 01:26:57,025 - DEBUG - Note ON: Ch 0 MIDI 84 Velocity 127
2024-12-08 01:26:57,036 - DEBUG - Note ON: Ch 3 MIDI 65 Velocity 105
2024-12-08 01:26:57,036 - DEBUG - Note ON: Ch 9 MIDI 59 Velocity 100
2024-12-08 01:26:57,049 - DEBUG - Note ON: Ch 9 MIDI 66 Velocity 70
2024-12-08 01:26:57,192 - DEBUG - Note OFF: Ch 9 MIDI 59
2024-12-08 01:26:57,205 - DEBUG - Note OFF: Ch 9 MIDI 66
2024-12-08 01:26:57,301 - DEBUG - Note OFF: Ch 0 MIDI 84
2024-12-08 01:26:57,445 - DEBUG - Note ON: Ch 0 MIDI 84 Velocity 92
2024-12-08 01:26:57,445 - DEBUG - Note ON: Ch 1 MIDI 81 Velocity 95
2024-12-08 01:26:57,456 - DEBUG - Note ON: Ch 0 MIDI 91 Velocity 127
2024-12-08 01:26:57,457 - DEBUG - Note ON: Ch 1 MIDI 77 Velocity 88
2024-12-08 01:26:57,457 - DEBUG - Note ON: Ch 9 MIDI 66 Velocity 80
2024-12-08 01:26:57,468 - DEBUG - Note ON: Ch 9 MIDI 62 Velocity 90
2024-12-08 01:26:57,538 - DEBUG - Note OFF: Ch 3 MIDI 65
2024-12-08 01:26:57,575 - DEBUG - Note ON: Ch 0 MIDI 93 Velocity 105
2024-12-08 01:26:57,600 - DEBUG - Note OFF: Ch 0 MIDI 91
2024-12-08 01:26:57,613 - DEBUG - Note OFF: Ch 9 MIDI 66
2024-12-08 01:26:57,625 - DEBUG - Note OFF: Ch 9 MIDI 62
2024-12-08 01:26:57,636 - DEBUG - Note OFF: Ch 1 MIDI 77
2024-12-08 01:26:57,647 - DEBUG - Note OFF: Ch 1 MIDI 81
2024-12-08 01:26:57,672 - DEBUG - Note OFF: Ch 0 MIDI 84
2024-12-08 01:26:57,868 - DEBUG - Note ON: Ch 3 MIDI 67 Velocity 109
2024-12-08 01:26:57,868 - DEBUG - Note ON: Ch 9 MIDI 59 Velocity 100
2024-12-08 01:26:57,868 - DEBUG - Note ON: Ch 0 MIDI 91 Velocity 127
2024-12-08 01:26:57,868 - DEBUG - Note ON: Ch 9 MIDI 66 Velocity 70
2024-12-08 01:26:57,938 - DEBUG - Note OFF: Ch 0 MIDI 93
2024-12-08 01:26:58,021 - DEBUG - Note OFF: Ch 9 MIDI 59
2024-12-08 01:26:58,021 - DEBUG - Note OFF: Ch 9 MIDI 66
2024-12-08 01:26:58,046 - DEBUG - Note OFF: Ch 3 MIDI 67
2024-12-08 01:26:58,169 - DEBUG - Note OFF: Ch 0 MIDI 91
2024-12-08 01:26:58,260 - DEBUG - Note ON: Ch 1 MIDI 81 Velocity 101
2024-12-08 01:26:58,273 - DEBUG - Note ON: Ch 0 MIDI 84 Velocity 98
2024-12-08 01:26:58,273 - DEBUG - Note ON: Ch 0 MIDI 89 Velocity 122
2024-12-08 01:26:58,273 - DEBUG - Note ON: Ch 1 MIDI 77 Velocity 90
2024-12-08 01:26:58,273 - DEBUG - Note ON: Ch 3 MIDI 69 Velocity 103
2024-12-08 01:26:58,285 - DEBUG - Note ON: Ch 9 MIDI 66 Velocity 80
2024-12-08 01:26:58,298 - DEBUG - Note ON: Ch 9 MIDI 62 Velocity 90
2024-12-08 01:26:58,445 - DEBUG - Note OFF: Ch 3 MIDI 69
2024-12-08 01:26:58,445 - DEBUG - Note OFF: Ch 9 MIDI 66
2024-12-08 01:26:58,445 - DEBUG - Note OFF: Ch 9 MIDI 62
2024-12-08 01:26:58,467 - DEBUG - Note OFF: Ch 0 MIDI 84
2024-12-08 01:26:58,492 - DEBUG - Note ON: Ch 9 MIDI 66 Velocity 90
2024-12-08 01:26:58,516 - DEBUG - Note OFF: Ch 1 MIDI 81
2024-12-08 01:26:58,527 - DEBUG - Note OFF: Ch 0 MIDI 89
2024-12-08 01:26:58,527 - DEBUG - Note OFF: Ch 1 MIDI 77
2024-12-08 01:26:58,645 - DEBUG - Note OFF: Ch 9 MIDI 66
2024-12-08 01:26:58,656 - DEBUG - Note ON: Ch 0 MIDI 86 Velocity 84
2024-12-08 01:26:58,667 - DEBUG - Note ON: Ch 1 MIDI 77 Velocity 82
2024-12-08 01:26:58,667 - DEBUG - Note ON: Ch 1 MIDI 82 Velocity 94
2024-12-08 01:26:58,693 - DEBUG - Note ON: Ch 9 MIDI 59 Velocity 100
2024-12-08 01:26:58,693 - DEBUG - Note ON: Ch 0 MIDI 86 Velocity 127
2024-12-08 01:26:58,693 - DEBUG - Note ON: Ch 3 MIDI 70 Velocity 121
2024-12-08 01:26:58,693 - DEBUG - Note ON: Ch 9 MIDI 66 Velocity 70
2024-12-08 01:26:58,796 - DEBUG - Note OFF: Ch 1 MIDI 77
2024-12-08 01:26:58,796 - DEBUG - Note OFF: Ch 1 MIDI 82
2024-12-08 01:26:58,819 - DEBUG - Note OFF: Ch 0 MIDI 86
2024-12-08 01:26:58,845 - DEBUG - Note OFF: Ch 9 MIDI 59
2024-12-08 01:26:58,845 - DEBUG - Note OFF: Ch 9 MIDI 66
2024-12-08 01:26:59,105 - DEBUG - Note ON: Ch 1 MIDI 82 Velocity 111
2024-12-08 01:26:59,105 - DEBUG - Note ON: Ch 0 MIDI 86 Velocity 103
2024-12-08 01:26:59,105 - DEBUG - Note ON: Ch 9 MIDI 66 Velocity 80
2024-12-08 01:26:59,117 - DEBUG - Note ON: Ch 1 MIDI 77 Velocity 89
2024-12-08 01:26:59,117 - DEBUG - Note ON: Ch 9 MIDI 62 Velocity 90
2024-12-08 01:26:59,192 - DEBUG - Note OFF: Ch 3 MIDI 70
2024-12-08 01:26:59,265 - DEBUG - Note OFF: Ch 9 MIDI 66
2024-12-08 01:26:59,276 - DEBUG - Note OFF: Ch 9 MIDI 62
2024-12-08 01:26:59,336 - DEBUG - Note OFF: Ch 1 MIDI 82
2024-12-08 01:26:59,347 - DEBUG - Note OFF: Ch 0 MIDI 86
2024-12-08 01:26:59,359 - DEBUG - Note OFF: Ch 1 MIDI 77
2024-12-08 01:26:59,516 - DEBUG - Note ON: Ch 9 MIDI 59 Velocity 100
2024-12-08 01:26:59,516 - DEBUG - Note ON: Ch 9 MIDI 66 Velocity 70
2024-12-08 01:26:59,528 - DEBUG - Note ON: Ch 3 MIDI 70 Velocity 123
2024-12-08 01:26:59,668 - DEBUG - Note OFF: Ch 9 MIDI 59
2024-12-08 01:26:59,681 - DEBUG - Note OFF: Ch 9 MIDI 66
2024-12-08 01:26:59,739 - DEBUG - Note OFF: Ch 0 MIDI 86
2024-12-08 01:26:59,906 - DEBUG - Note ON: Ch 1 MIDI 82 Velocity 115
2024-12-08 01:26:59,918 - DEBUG - Note ON: Ch 0 MIDI 86 Velocity 103
2024-12-08 01:26:59,918 - DEBUG - Note ON: Ch 1 MIDI 77 Velocity 96
2024-12-08 01:26:59,931 - DEBUG - Note ON: Ch 9 MIDI 66 Velocity 80
2024-12-08 01:26:59,945 - DEBUG - Note ON: Ch 0 MIDI 86 Velocity 127
2024-12-08 01:26:59,945 - DEBUG - Note ON: Ch 9 MIDI 62 Velocity 90
2024-12-08 01:26:59,992 - DEBUG - Note OFF: Ch 3 MIDI 70
2024-12-08 01:27:00,088 - DEBUG - Note OFF: Ch 9 MIDI 66
2024-12-08 01:27:00,100 - DEBUG - Note OFF: Ch 9 MIDI 62
2024-12-08 01:27:00,113 - DEBUG - Note OFF: Ch 1 MIDI 82
2024-12-08 01:27:00,113 - DEBUG - Note OFF: Ch 1 MIDI 77
2024-12-08 01:27:00,136 - DEBUG - Note ON: Ch 9 MIDI 66 Velocity 90
2024-12-08 01:27:00,160 - DEBUG - Note OFF: Ch 0 MIDI 86
2024-12-08 01:27:00,160 - DEBUG - Note OFF: Ch 0 MIDI 86
2024-12-08 01:27:00,292 - DEBUG - Note OFF: Ch 9 MIDI 66
2024-12-08 01:27:00,330 - DEBUG - Note ON: Ch 9 MIDI 59 Velocity 100
2024-12-08 01:27:00,342 - DEBUG - Note ON: Ch 9 MIDI 66 Velocity 70
2024-12-08 01:27:00,366 - DEBUG - Note ON: Ch 3 MIDI 67 Velocity 109
2024-12-08 01:27:00,366 - DEBUG - Note ON: Ch 0 MIDI 86 Velocity 127
2024-12-08 01:27:00,484 - DEBUG - Note OFF: Ch 9 MIDI 59
2024-12-08 01:27:00,496 - DEBUG - Note OFF: Ch 9 MIDI 66
2024-12-08 01:27:00,660 - DEBUG - Note OFF: Ch 0 MIDI 86
2024-12-08 01:27:00,732 - DEBUG - Note ON: Ch 1 MIDI 82 Velocity 114
2024-12-08 01:27:00,732 - DEBUG - Note ON: Ch 1 MIDI 79 Velocity 98
2024-12-08 01:27:00,745 - DEBUG - Note ON: Ch 0 MIDI 86 Velocity 99
2024-12-08 01:27:00,756 - DEBUG - Note ON: Ch 9 MIDI 66 Velocity 80
2024-12-08 01:27:00,768 - DEBUG - Note ON: Ch 9 MIDI 62 Velocity 90
2024-12-08 01:27:00,779 - DEBUG - Note ON: Ch 0 MIDI 94 Velocity 127
2024-12-08 01:27:00,804 - DEBUG - Note OFF: Ch 3 MIDI 67
2024-12-08 01:27:00,907 - DEBUG - Note OFF: Ch 9 MIDI 66
2024-12-08 01:27:00,919 - DEBUG - Note OFF: Ch 1 MIDI 79
2024-12-08 01:27:00,919 - DEBUG - Note OFF: Ch 9 MIDI 62
2024-12-08 01:27:00,932 - DEBUG - Note OFF: Ch 1 MIDI 82
2024-12-08 01:27:00,945 - DEBUG - Note OFF: Ch 0 MIDI 86
2024-12-08 01:27:01,077 - DEBUG - Note OFF: Ch 0 MIDI 94
2024-12-08 01:27:01,160 - DEBUG - Note ON: Ch 3 MIDI 60 Velocity 112
2024-12-08 01:27:01,160 - DEBUG - Note ON: Ch 9 MIDI 59 Velocity 100
2024-12-08 01:27:01,172 - DEBUG - Note ON: Ch 9 MIDI 66 Velocity 70
2024-12-08 01:27:01,172 - DEBUG - Note ON: Ch 0 MIDI 93 Velocity 127
2024-12-08 01:27:01,316 - DEBUG - Note OFF: Ch 9 MIDI 59
2024-12-08 01:27:01,328 - DEBUG - Note OFF: Ch 9 MIDI 66
2024-12-08 01:27:01,481 - DEBUG - Note OFF: Ch 0 MIDI 93
2024-12-08 01:27:01,552 - DEBUG - Note ON: Ch 1 MIDI 82 Velocity 121
2024-12-08 01:27:01,564 - DEBUG - Note ON: Ch 0 MIDI 84 Velocity 98
2024-12-08 01:27:01,577 - DEBUG - Note ON: Ch 0 MIDI 91 Velocity 125
2024-12-08 01:27:01,577 - DEBUG - Note ON: Ch 1 MIDI 76 Velocity 99
2024-12-08 01:27:01,577 - DEBUG - Note ON: Ch 9 MIDI 66 Velocity 80
2024-12-08 01:27:01,589 - DEBUG - Note ON: Ch 9 MIDI 62 Velocity 90
2024-12-08 01:27:01,649 - DEBUG - Note OFF: Ch 3 MIDI 60
2024-12-08 01:27:01,732 - DEBUG - Note OFF: Ch 9 MIDI 66
2024-12-08 01:27:01,745 - DEBUG - Note OFF: Ch 0 MIDI 84
2024-12-08 01:27:01,745 - DEBUG - Note OFF: Ch 9 MIDI 62
2024-12-08 01:27:01,767 - DEBUG - Note OFF: Ch 1 MIDI 82
2024-12-08 01:27:01,767 - DEBUG - Note OFF: Ch 1 MIDI 76
2024-12-08 01:27:01,792 - DEBUG - Note ON: Ch 9 MIDI 66 Velocity 90
2024-12-08 01:27:01,887 - DEBUG - Note OFF: Ch 0 MIDI 91
2024-12-08 01:27:01,936 - DEBUG - Note OFF: Ch 9 MIDI 66
2024-12-08 01:27:01,984 - DEBUG - Note ON: Ch 9 MIDI 59 Velocity 100
2024-12-08 01:27:01,996 - DEBUG - Note ON: Ch 3 MIDI 65 Velocity 107
2024-12-08 01:27:01,996 - DEBUG - Note ON: Ch 9 MIDI 66 Velocity 70
2024-12-08 01:27:01,996 - DEBUG - Note ON: Ch 0 MIDI 96 Velocity 127
2024-12-08 01:27:02,145 - DEBUG - Note OFF: Ch 9 MIDI 59
2024-12-08 01:27:02,145 - DEBUG - Note OFF: Ch 9 MIDI 66
2024-12-08 01:27:02,218 - DEBUG - Note OFF: Ch 0 MIDI 96
2024-12-08 01:27:02,376 - DEBUG - Note ON: Ch 0 MIDI 84 Velocity 95
2024-12-08 01:27:02,387 - DEBUG - Note ON: Ch 1 MIDI 81 Velocity 95
2024-12-08 01:27:02,399 - DEBUG - Note ON: Ch 1 MIDI 77 Velocity 89
2024-12-08 01:27:02,399 - DEBUG - Note ON: Ch 9 MIDI 66 Velocity 80
2024-12-08 01:27:02,412 - DEBUG - Note ON: Ch 9 MIDI 62 Velocity 90
2024-12-08 01:27:02,425 - DEBUG - Note ON: Ch 0 MIDI 96 Velocity 127
2024-12-08 01:27:02,438 - DEBUG - Note OFF: Ch 3 MIDI 65
2024-12-08 01:27:02,557 - DEBUG - Note OFF: Ch 9 MIDI 66
2024-12-08 01:27:02,569 - DEBUG - Note OFF: Ch 9 MIDI 62
2024-12-08 01:27:02,619 - DEBUG - Note OFF: Ch 1 MIDI 81
2024-12-08 01:27:02,632 - DEBUG - Note OFF: Ch 0 MIDI 84
2024-12-08 01:27:02,644 - DEBUG - Note OFF: Ch 1 MIDI 77
2024-12-08 01:27:02,669 - DEBUG - Note OFF: Ch 0 MIDI 96
2024-12-08 01:27:02,804 - DEBUG - Note ON: Ch 3 MIDI 62 Velocity 106
2024-12-08 01:27:02,804 - DEBUG - Note ON: Ch 9 MIDI 59 Velocity 100
2024-12-08 01:27:02,818 - DEBUG - Note ON: Ch 9 MIDI 66 Velocity 70
2024-12-08 01:27:02,829 - DEBUG - Note ON: Ch 0 MIDI 96 Velocity 127
2024-12-08 01:27:02,959 - DEBUG - Note OFF: Ch 9 MIDI 59
2024-12-08 01:27:02,972 - DEBUG - Note OFF: Ch 9 MIDI 66
2024-12-08 01:27:03,081 - DEBUG - Note OFF: Ch 0 MIDI 96
2024-12-08 01:27:03,216 - DEBUG - Note ON: Ch 0 MIDI 86 Velocity 110
2024-12-08 01:27:03,216 - DEBUG - Note ON: Ch 1 MIDI 78 Velocity 105
2024-12-08 01:27:03,228 - DEBUG - Note ON: Ch 0 MIDI 96 Velocity 127
2024-12-08 01:27:03,228 - DEBUG - Note ON: Ch 1 MIDI 81 Velocity 110
2024-12-08 01:27:03,228 - DEBUG - Note ON: Ch 9 MIDI 66 Velocity 80
2024-12-08 01:27:03,239 - DEBUG - Note ON: Ch 9 MIDI 62 Velocity 90
2024-12-08 01:27:03,276 - DEBUG - Note OFF: Ch 3 MIDI 62
2024-12-08 01:27:03,381 - DEBUG - Note OFF: Ch 9 MIDI 66
2024-12-08 01:27:03,395 - DEBUG - Note OFF: Ch 9 MIDI 62
2024-12-08 01:27:03,430 - DEBUG - Note ON: Ch 9 MIDI 66 Velocity 90
2024-12-08 01:27:03,467 - DEBUG - Note OFF: Ch 1 MIDI 81
2024-12-08 01:27:03,516 - DEBUG - Note OFF: Ch 0 MIDI 96
2024-12-08 01:27:03,550 - DEBUG - Note OFF: Ch 1 MIDI 78
2024-12-08 01:27:03,586 - DEBUG - Note OFF: Ch 9 MIDI 66
2024-12-08 01:27:03,621 - DEBUG - Note ON: Ch 1 MIDI 77 Velocity 68
2024-12-08 01:27:03,634 - DEBUG - Note ON: Ch 9 MIDI 59 Velocity 100
2024-12-08 01:27:03,646 - DEBUG - Note ON: Ch 9 MIDI 66 Velocity 70
2024-12-08 01:27:03,646 - DEBUG - Note ON: Ch 0 MIDI 98 Velocity 127
2024-12-08 01:27:03,646 - DEBUG - Note ON: Ch 3 MIDI 67 Velocity 117
2024-12-08 01:27:03,732 - DEBUG - Note OFF: Ch 1 MIDI 77
2024-12-08 01:27:03,756 - DEBUG - Note OFF: Ch 0 MIDI 86
2024-12-08 01:27:03,792 - DEBUG - Note OFF: Ch 9 MIDI 59
2024-12-08 01:27:03,792 - DEBUG - Note OFF: Ch 9 MIDI 66
2024-12-08 01:27:03,975 - DEBUG - Note OFF: Ch 0 MIDI 98
2024-12-08 01:27:04,032 - DEBUG - Note ON: Ch 1 MIDI 82 Velocity 118
2024-12-08 01:27:04,032 - DEBUG - Note ON: Ch 0 MIDI 86 Velocity 104
2024-12-08 01:27:04,045 - DEBUG - Note ON: Ch 1 MIDI 77 Velocity 95
2024-12-08 01:27:04,056 - DEBUG - Note ON: Ch 9 MIDI 66 Velocity 80
2024-12-08 01:27:04,056 - DEBUG - Note ON: Ch 0 MIDI 96 Velocity 116
2024-12-08 01:27:04,056 - DEBUG - Note ON: Ch 9 MIDI 62 Velocity 90
2024-12-08 01:27:04,093 - DEBUG - Note OFF: Ch 3 MIDI 67
2024-12-08 01:27:04,201 - DEBUG - Note OFF: Ch 1 MIDI 77
2024-12-08 01:27:04,201 - DEBUG - Note OFF: Ch 9 MIDI 66
2024-12-08 01:27:04,214 - DEBUG - Note OFF: Ch 1 MIDI 82
2024-12-08 01:27:04,215 - DEBUG - Note OFF: Ch 9 MIDI 62
2024-12-08 01:27:04,227 - DEBUG - Note OFF: Ch 0 MIDI 86
2024-12-08 01:27:04,312 - DEBUG - Note OFF: Ch 0 MIDI 96
2024-12-08 01:27:04,452 - DEBUG - Note ON: Ch 0 MIDI 94 Velocity 127
2024-12-08 01:27:04,453 - DEBUG - Note ON: Ch 3 MIDI 60 Velocity 100
2024-12-08 01:27:04,453 - DEBUG - Note ON: Ch 0 MIDI 88 Velocity 94
2024-12-08 01:27:04,453 - DEBUG - Note ON: Ch 9 MIDI 59 Velocity 100
2024-12-08 01:27:04,464 - DEBUG - Note ON: Ch 1 MIDI 79 Velocity 98
2024-12-08 01:27:04,465 - DEBUG - Note ON: Ch 9 MIDI 66 Velocity 70
2024-12-08 01:27:04,476 - DEBUG - Note ON: Ch 1 MIDI 82 Velocity 106
2024-12-08 01:27:04,607 - DEBUG - Note OFF: Ch 9 MIDI 59
2024-12-08 01:27:04,619 - DEBUG - Note OFF: Ch 9 MIDI 66
2024-12-08 01:27:04,716 - DEBUG - Note OFF: Ch 0 MIDI 94
2024-12-08 01:27:04,716 - DEBUG - Note OFF: Ch 1 MIDI 79
2024-12-08 01:27:04,716 - DEBUG - Note OFF: Ch 1 MIDI 82
2024-12-08 01:27:04,740 - DEBUG - Note OFF: Ch 0 MIDI 88
2024-12-08 01:27:04,836 - DEBUG - Note ON: Ch 1 MIDI 82 Velocity 108
2024-12-08 01:27:04,849 - DEBUG - Note ON: Ch 1 MIDI 79 Velocity 84
2024-12-08 01:27:04,861 - DEBUG - Note ON: Ch 0 MIDI 88 Velocity 98
2024-12-08 01:27:04,872 - DEBUG - Note ON: Ch 0 MIDI 91 Velocity 122
2024-12-08 01:27:04,872 - DEBUG - Note ON: Ch 9 MIDI 66 Velocity 80
2024-12-08 01:27:04,886 - DEBUG - Note ON: Ch 9 MIDI 62 Velocity 90
2024-12-08 01:27:04,935 - DEBUG - Note OFF: Ch 3 MIDI 60
2024-12-08 01:27:05,017 - DEBUG - Note OFF: Ch 1 MIDI 79
2024-12-08 01:27:05,030 - DEBUG - Note OFF: Ch 9 MIDI 66
2024-12-08 01:27:05,042 - DEBUG - Note OFF: Ch 9 MIDI 62
2024-12-08 01:27:05,055 - DEBUG - Note OFF: Ch 0 MIDI 88
2024-12-08 01:27:05,055 - DEBUG - Note OFF: Ch 0 MIDI 91
2024-12-08 01:27:05,067 - DEBUG - Note OFF: Ch 1 MIDI 82
2024-12-08 01:27:05,079 - DEBUG - Note ON: Ch 9 MIDI 66 Velocity 90
2024-12-08 01:27:05,240 - DEBUG - Note OFF: Ch 9 MIDI 66
2024-12-08 01:27:05,265 - DEBUG - Note ON: Ch 0 MIDI 84 Velocity 105
2024-12-08 01:27:05,265 - DEBUG - Note ON: Ch 0 MIDI 89 Velocity 105
2024-12-08 01:27:05,265 - DEBUG - Note ON: Ch 0 MIDI 89 Velocity 127
2024-12-08 01:27:05,277 - DEBUG - Note ON: Ch 1 MIDI 81 Velocity 93
2024-12-08 01:27:05,277 - DEBUG - Note ON: Ch 3 MIDI 65 Velocity 110
2024-12-08 01:27:05,277 - DEBUG - Note ON: Ch 9 MIDI 59 Velocity 100
2024-12-08 01:27:05,289 - DEBUG - Note ON: Ch 9 MIDI 66 Velocity 70
2024-12-08 01:27:05,433 - DEBUG - Note OFF: Ch 9 MIDI 59
2024-12-08 01:27:05,445 - DEBUG - Note OFF: Ch 9 MIDI 66
2024-12-08 01:27:05,492 - DEBUG - Note OFF: Ch 1 MIDI 81
2024-12-08 01:27:05,516 - DEBUG - Note OFF: Ch 0 MIDI 84
2024-12-08 01:27:05,527 - DEBUG - Note OFF: Ch 0 MIDI 89
2024-12-08 01:27:05,552 - DEBUG - Note OFF: Ch 3 MIDI 65
2024-12-08 01:27:05,696 - DEBUG - Note OFF: Ch 0 MIDI 89
2024-12-08 01:27:05,696 - DEBUG - Note ON: Ch 3 MIDI 60 Velocity 109
2024-12-08 01:27:05,696 - DEBUG - Note ON: Ch 9 MIDI 66 Velocity 80
2024-12-08 01:27:05,708 - DEBUG - Note ON: Ch 9 MIDI 62 Velocity 90
2024-12-08 01:27:05,854 - DEBUG - Note OFF: Ch 9 MIDI 66
2024-12-08 01:27:05,867 - DEBUG - Note OFF: Ch 9 MIDI 62
2024-12-08 01:27:06,061 - DEBUG - Note OFF: Ch 3 MIDI 60
2024-12-08 01:27:06,105 - DEBUG - Note ON: Ch 0 MIDI 96 Velocity 127
2024-12-08 01:27:06,105 - DEBUG - Note ON: Ch 9 MIDI 59 Velocity 100
2024-12-08 01:27:06,118 - DEBUG - Note ON: Ch 0 MIDI 88 Velocity 127
2024-12-08 01:27:06,119 - DEBUG - Note ON: Ch 9 MIDI 66 Velocity 70
2024-12-08 01:27:06,119 - DEBUG - Note ON: Ch 0 MIDI 84 Velocity 106
2024-12-08 01:27:06,119 - DEBUG - Note ON: Ch 3 MIDI 62 Velocity 105
2024-12-08 01:27:06,144 - DEBUG - Note ON: Ch 1 MIDI 82 Velocity 118
2024-12-08 01:27:06,145 - DEBUG - Note ON: Ch 1 MIDI 76 Velocity 92
2024-12-08 01:27:06,264 - DEBUG - Note OFF: Ch 9 MIDI 59
2024-12-08 01:27:06,264 - DEBUG - Note OFF: Ch 9 MIDI 66
2024-12-08 01:27:06,372 - DEBUG - Note OFF: Ch 3 MIDI 62
2024-12-08 01:27:06,507 - DEBUG - Note ON: Ch 3 MIDI 64 Velocity 101
2024-12-08 01:27:06,520 - DEBUG - Note ON: Ch 9 MIDI 66 Velocity 80
2024-12-08 01:27:06,532 - DEBUG - Note ON: Ch 9 MIDI 62 Velocity 90
2024-12-08 01:27:06,676 - DEBUG - Note OFF: Ch 9 MIDI 66
2024-12-08 01:27:06,687 - DEBUG - Note OFF: Ch 9 MIDI 62
2024-12-08 01:27:06,712 - DEBUG - Note OFF: Ch 0 MIDI 96
2024-12-08 01:27:06,725 - DEBUG - Note ON: Ch 9 MIDI 66 Velocity 90
2024-12-08 01:27:06,738 - DEBUG - Note OFF: Ch 0 MIDI 88
2024-12-08 01:27:06,738 - DEBUG - Note OFF: Ch 1 MIDI 76
2024-12-08 01:27:06,738 - DEBUG - Note OFF: Ch 3 MIDI 64
2024-12-08 01:27:06,812 - DEBUG - Note OFF: Ch 1 MIDI 82
2024-12-08 01:27:06,884 - DEBUG - Note OFF: Ch 9 MIDI 66
2024-12-08 01:27:06,919 - DEBUG - Note ON: Ch 9 MIDI 73 Velocity 66
2024-12-08 01:27:06,919 - DEBUG - Note ON: Ch 9 MIDI 107 Velocity 72
2024-12-08 01:27:06,932 - DEBUG - Note ON: Ch 0 MIDI 96 Velocity 127
2024-12-08 01:27:06,932 - DEBUG - Note ON: Ch 0 MIDI 91 Velocity 127
2024-12-08 01:27:06,932 - DEBUG - Note ON: Ch 1 MIDI 81 Velocity 95
2024-12-08 01:27:06,932 - DEBUG - Note ON: Ch 9 MIDI 59 Velocity 100
2024-12-08 01:27:06,932 - DEBUG - Note ON: Ch 1 MIDI 77 Velocity 82
2024-12-08 01:27:06,932 - DEBUG - Note ON: Ch 9 MIDI 66 Velocity 70
2024-12-08 01:27:06,944 - DEBUG - Note ON: Ch 3 MIDI 65 Velocity 112
2024-12-08 01:27:07,027 - DEBUG - Note OFF: Ch 1 MIDI 81
2024-12-08 01:27:07,027 - DEBUG - Note OFF: Ch 1 MIDI 77
2024-12-08 01:27:07,027 - DEBUG - Note OFF: Ch 0 MIDI 84
2024-12-08 01:27:07,076 - DEBUG - Note OFF: Ch 9 MIDI 73
2024-12-08 01:27:07,076 - DEBUG - Note OFF: Ch 9 MIDI 107
2024-12-08 01:27:07,089 - DEBUG - Note OFF: Ch 9 MIDI 59
2024-12-08 01:27:07,089 - DEBUG - Note OFF: Ch 0 MIDI 91
2024-12-08 01:27:07,089 - DEBUG - Note ON: Ch 0 MIDI 93 Velocity 98
2024-12-08 01:27:07,089 - DEBUG - Note OFF: Ch 9 MIDI 66
2024-12-08 01:27:07,218 - DEBUG - Note OFF: Ch 0 MIDI 96
2024-12-08 01:27:07,241 - DEBUG - Note OFF: Ch 0 MIDI 93
2024-12-08 01:27:07,327 - DEBUG - Note OFF: Ch 3 MIDI 65
2024-12-08 01:27:07,327 - DEBUG - Note ON: Ch 0 MIDI 84 Velocity 96
2024-12-08 01:27:07,327 - DEBUG - Note ON: Ch 9 MIDI 107 Velocity 62
2024-12-08 01:27:07,339 - DEBUG - Note ON: Ch 1 MIDI 81 Velocity 103
2024-12-08 01:27:07,352 - DEBUG - Note ON: Ch 0 MIDI 93 Velocity 115
2024-12-08 01:27:07,352 - DEBUG - Note ON: Ch 9 MIDI 66 Velocity 80
2024-12-08 01:27:07,352 - DEBUG - Note ON: Ch 0 MIDI 96 Velocity 111
2024-12-08 01:27:07,352 - DEBUG - Note ON: Ch 1 MIDI 77 Velocity 78
2024-12-08 01:27:07,352 - DEBUG - Note ON: Ch 9 MIDI 62 Velocity 90
2024-12-08 01:27:07,488 - DEBUG - Note OFF: Ch 9 MIDI 107
2024-12-08 01:27:07,499 - DEBUG - Note OFF: Ch 1 MIDI 81
2024-12-08 01:27:07,499 - DEBUG - Note OFF: Ch 9 MIDI 66
2024-12-08 01:27:07,512 - DEBUG - Note OFF: Ch 9 MIDI 62
2024-12-08 01:27:07,524 - DEBUG - Note OFF: Ch 0 MIDI 84
2024-12-08 01:27:07,537 - DEBUG - Note OFF: Ch 1 MIDI 77
2024-12-08 01:27:07,572 - DEBUG - Note OFF: Ch 0 MIDI 93
2024-12-08 01:27:07,584 - DEBUG - Note OFF: Ch 0 MIDI 96
2024-12-08 01:27:07,739 - DEBUG - Note ON: Ch 9 MIDI 107 Velocity 49
2024-12-08 01:27:07,752 - DEBUG - Note ON: Ch 9 MIDI 59 Velocity 100
2024-12-08 01:27:07,764 - DEBUG - Note ON: Ch 9 MIDI 66 Velocity 70
2024-12-08 01:27:07,764 - DEBUG - Note ON: Ch 0 MIDI 96 Velocity 114
2024-12-08 01:27:07,764 - DEBUG - Note ON: Ch 0 MIDI 93 Velocity 127
2024-12-08 01:27:07,788 - DEBUG - Note ON: Ch 3 MIDI 60 Velocity 103
2024-12-08 01:27:07,904 - DEBUG - Note OFF: Ch 9 MIDI 107
2024-12-08 01:27:07,905 - DEBUG - Note OFF: Ch 9 MIDI 59
2024-12-08 01:27:07,916 - DEBUG - Note OFF: Ch 9 MIDI 66
2024-12-08 01:27:08,152 - DEBUG - Note ON: Ch 9 MIDI 107 Velocity 51
2024-12-08 01:27:08,176 - DEBUG - Note ON: Ch 0 MIDI 84 Velocity 93
2024-12-08 01:27:08,176 - DEBUG - Note ON: Ch 1 MIDI 81 Velocity 97
2024-12-08 01:27:08,176 - DEBUG - Note ON: Ch 9 MIDI 66 Velocity 80
2024-12-08 01:27:08,176 - DEBUG - Note ON: Ch 1 MIDI 77 Velocity 93
2024-12-08 01:27:08,176 - DEBUG - Note ON: Ch 9 MIDI 62 Velocity 90
2024-12-08 01:27:08,238 - DEBUG - Note OFF: Ch 3 MIDI 60
2024-12-08 01:27:08,307 - DEBUG - Note OFF: Ch 9 MIDI 107
2024-12-08 01:27:08,332 - DEBUG - Note OFF: Ch 9 MIDI 66
2024-12-08 01:27:08,332 - DEBUG - Note OFF: Ch 0 MIDI 96
2024-12-08 01:27:08,332 - DEBUG - Note OFF: Ch 1 MIDI 81
2024-12-08 01:27:08,332 - DEBUG - Note OFF: Ch 9 MIDI 62
2024-12-08 01:27:08,345 - DEBUG - Note OFF: Ch 0 MIDI 93
2024-12-08 01:27:08,356 - DEBUG - Note OFF: Ch 1 MIDI 77
2024-12-08 01:27:08,368 - DEBUG - Note OFF: Ch 0 MIDI 84
2024-12-08 01:27:08,380 - DEBUG - Note ON: Ch 9 MIDI 66 Velocity 90
2024-12-08 01:27:08,538 - DEBUG - Note OFF: Ch 9 MIDI 66
2024-12-08 01:27:08,573 - DEBUG - Note ON: Ch 9 MIDI 107 Velocity 52
2024-12-08 01:27:08,573 - DEBUG - Note ON: Ch 0 MIDI 96 Velocity 127
2024-12-08 01:27:08,573 - DEBUG - Note ON: Ch 3 MIDI 65 Velocity 110
2024-12-08 01:27:08,573 - DEBUG - Note ON: Ch 9 MIDI 59 Velocity 100
2024-12-08 01:27:08,586 - DEBUG - Note ON: Ch 0 MIDI 91 Velocity 127
2024-12-08 01:27:08,586 - DEBUG - Note ON: Ch 9 MIDI 66 Velocity 70
2024-12-08 01:27:08,717 - DEBUG - Note ON: Ch 0 MIDI 93 Velocity 95
2024-12-08 01:27:08,717 - DEBUG - Note OFF: Ch 9 MIDI 107
2024-12-08 01:27:08,729 - DEBUG - Note OFF: Ch 9 MIDI 59
2024-12-08 01:27:08,741 - DEBUG - Note OFF: Ch 9 MIDI 66
2024-12-08 01:27:08,754 - DEBUG - Note OFF: Ch 0 MIDI 91
2024-12-08 01:27:08,874 - DEBUG - Note OFF: Ch 3 MIDI 65
2024-12-08 01:27:08,888 - DEBUG - Note OFF: Ch 0 MIDI 93
2024-12-08 01:27:08,899 - DEBUG - Note OFF: Ch 0 MIDI 96
2024-12-08 01:27:08,985 - DEBUG - Note ON: Ch 0 MIDI 84 Velocity 93
2024-12-08 01:27:08,985 - DEBUG - Note ON: Ch 9 MIDI 107 Velocity 53
2024-12-08 01:27:08,985 - DEBUG - Note ON: Ch 1 MIDI 81 Velocity 100
2024-12-08 01:27:08,997 - DEBUG - Note ON: Ch 1 MIDI 77 Velocity 86
2024-12-08 01:27:08,997 - DEBUG - Note ON: Ch 9 MIDI 66 Velocity 80
2024-12-08 01:27:09,009 - DEBUG - Note ON: Ch 0 MIDI 93 Velocity 118
2024-12-08 01:27:09,009 - DEBUG - Note ON: Ch 9 MIDI 62 Velocity 90
2024-12-08 01:27:09,009 - DEBUG - Note ON: Ch 0 MIDI 96 Velocity 106
2024-12-08 01:27:09,138 - DEBUG - Note OFF: Ch 9 MIDI 107
2024-12-08 01:27:09,138 - DEBUG - Note OFF: Ch 1 MIDI 81
2024-12-08 01:27:09,149 - DEBUG - Note OFF: Ch 9 MIDI 66
2024-12-08 01:27:09,161 - DEBUG - Note OFF: Ch 0 MIDI 84
2024-12-08 01:27:09,161 - DEBUG - Note OFF: Ch 1 MIDI 77
2024-12-08 01:27:09,161 - DEBUG - Note OFF: Ch 9 MIDI 62
2024-12-08 01:27:09,222 - DEBUG - Note OFF: Ch 0 MIDI 93
2024-12-08 01:27:09,234 - DEBUG - Note OFF: Ch 0 MIDI 96
2024-12-08 01:27:09,387 - DEBUG - Note ON: Ch 9 MIDI 107 Velocity 47
2024-12-08 01:27:09,398 - DEBUG - Note ON: Ch 3 MIDI 60 Velocity 107
2024-12-08 01:27:09,398 - DEBUG - Note ON: Ch 9 MIDI 59 Velocity 100
2024-12-08 01:27:09,410 - DEBUG - Note ON: Ch 0 MIDI 96 Velocity 109
2024-12-08 01:27:09,410 - DEBUG - Note ON: Ch 9 MIDI 66 Velocity 70
2024-12-08 01:27:09,421 - DEBUG - Note ON: Ch 0 MIDI 93 Velocity 121
2024-12-08 01:27:09,549 - DEBUG - Note OFF: Ch 9 MIDI 107
2024-12-08 01:27:09,560 - DEBUG - Note OFF: Ch 9 MIDI 59
2024-12-08 01:27:09,560 - DEBUG - Note OFF: Ch 9 MIDI 66
2024-12-08 01:27:09,804 - DEBUG - Note ON: Ch 9 MIDI 107 Velocity 51
2024-12-08 01:27:09,817 - DEBUG - Note ON: Ch 0 MIDI 84 Velocity 97
2024-12-08 01:27:09,817 - DEBUG - Note ON: Ch 1 MIDI 81 Velocity 100
2024-12-08 01:27:09,817 - DEBUG - Note ON: Ch 1 MIDI 77 Velocity 94
2024-12-08 01:27:09,817 - DEBUG - Note ON: Ch 9 MIDI 66 Velocity 80
2024-12-08 01:27:09,830 - DEBUG - Note ON: Ch 9 MIDI 62 Velocity 90
2024-12-08 01:27:09,892 - DEBUG - Note OFF: Ch 3 MIDI 60
2024-12-08 01:27:09,954 - DEBUG - Note OFF: Ch 0 MIDI 93
2024-12-08 01:27:09,954 - DEBUG - Note OFF: Ch 0 MIDI 96
2024-12-08 01:27:09,955 - DEBUG - Note OFF: Ch 9 MIDI 107
2024-12-08 01:27:09,977 - DEBUG - Note OFF: Ch 1 MIDI 81
2024-12-08 01:27:09,977 - DEBUG - Note OFF: Ch 9 MIDI 66
2024-12-08 01:27:09,989 - DEBUG - Note OFF: Ch 9 MIDI 62
2024-12-08 01:27:09,989 - DEBUG - Note OFF: Ch 1 MIDI 77
2024-12-08 01:27:10,001 - DEBUG - Note OFF: Ch 0 MIDI 84
2024-12-08 01:27:10,027 - DEBUG - Note ON: Ch 9 MIDI 66 Velocity 90
2024-12-08 01:27:10,184 - DEBUG - Note OFF: Ch 9 MIDI 66
2024-12-08 01:27:10,196 - DEBUG - Note ON: Ch 0 MIDI 96 Velocity 116
2024-12-08 01:27:10,208 - DEBUG - Note ON: Ch 0 MIDI 93 Velocity 127
2024-12-08 01:27:10,219 - DEBUG - Note ON: Ch 3 MIDI 65 Velocity 107
2024-12-08 01:27:10,219 - DEBUG - Note ON: Ch 9 MIDI 107 Velocity 55
2024-12-08 01:27:10,219 - DEBUG - Note ON: Ch 9 MIDI 59 Velocity 100
2024-12-08 01:27:10,232 - DEBUG - Note ON: Ch 9 MIDI 66 Velocity 70
2024-12-08 01:27:10,366 - DEBUG - Note OFF: Ch 9 MIDI 107
2024-12-08 01:27:10,379 - DEBUG - Note OFF: Ch 9 MIDI 59
2024-12-08 01:27:10,392 - DEBUG - Note OFF: Ch 9 MIDI 66
2024-12-08 01:27:10,488 - DEBUG - Note OFF: Ch 0 MIDI 93
2024-12-08 01:27:10,488 - DEBUG - Note OFF: Ch 0 MIDI 96
2024-12-08 01:27:10,599 - DEBUG - Note OFF: Ch 3 MIDI 65
2024-12-08 01:27:10,624 - DEBUG - Note ON: Ch 0 MIDI 84 Velocity 96
2024-12-08 01:27:10,625 - DEBUG - Note ON: Ch 0 MIDI 96 Velocity 118
2024-12-08 01:27:10,625 - DEBUG - Note ON: Ch 1 MIDI 77 Velocity 95
2024-12-08 01:27:10,625 - DEBUG - Note ON: Ch 1 MIDI 81 Velocity 97
2024-12-08 01:27:10,625 - DEBUG - Note ON: Ch 9 MIDI 107 Velocity 54
2024-12-08 01:27:10,638 - DEBUG - Note ON: Ch 0 MIDI 101 Velocity 127
2024-12-08 01:27:10,650 - DEBUG - Note ON: Ch 9 MIDI 66 Velocity 80
2024-12-08 01:27:10,650 - DEBUG - Note ON: Ch 9 MIDI 62 Velocity 90
2024-12-08 01:27:10,762 - DEBUG - Note OFF: Ch 1 MIDI 81
2024-12-08 01:27:10,788 - DEBUG - Note OFF: Ch 1 MIDI 77
2024-12-08 01:27:10,788 - DEBUG - Note OFF: Ch 9 MIDI 107
2024-12-08 01:27:10,800 - DEBUG - Note OFF: Ch 0 MIDI 84
2024-12-08 01:27:10,800 - DEBUG - Note OFF: Ch 9 MIDI 66
2024-12-08 01:27:10,812 - DEBUG - Note OFF: Ch 0 MIDI 101
2024-12-08 01:27:10,812 - DEBUG - Note OFF: Ch 9 MIDI 62
2024-12-08 01:27:10,826 - DEBUG - Note OFF: Ch 0 MIDI 96
2024-12-08 01:27:11,040 - DEBUG - Note ON: Ch 0 MIDI 89 Velocity 115
2024-12-08 01:27:11,040 - DEBUG - Note ON: Ch 9 MIDI 107 Velocity 54
2024-12-08 01:27:11,052 - DEBUG - Note ON: Ch 0 MIDI 96 Velocity 118
2024-12-08 01:27:11,052 - DEBUG - Note ON: Ch 9 MIDI 59 Velocity 100
2024-12-08 01:27:11,052 - DEBUG - Note ON: Ch 3 MIDI 60 Velocity 106
2024-12-08 01:27:11,052 - DEBUG - Note ON: Ch 9 MIDI 66 Velocity 70
2024-12-08 01:27:11,197 - DEBUG - Note OFF: Ch 9 MIDI 107
2024-12-08 01:27:11,209 - DEBUG - Note OFF: Ch 9 MIDI 59
2024-12-08 01:27:11,209 - DEBUG - Note OFF: Ch 9 MIDI 66
2024-12-08 01:27:11,437 - DEBUG - Note ON: Ch 0 MIDI 84 Velocity 97
2024-12-08 01:27:11,449 - DEBUG - Note ON: Ch 1 MIDI 81 Velocity 98
2024-12-08 01:27:11,449 - DEBUG - Note ON: Ch 1 MIDI 77 Velocity 90
2024-12-08 01:27:11,449 - DEBUG - Note ON: Ch 9 MIDI 107 Velocity 53
2024-12-08 01:27:11,474 - DEBUG - Note ON: Ch 9 MIDI 66 Velocity 80
2024-12-08 01:27:11,474 - DEBUG - Note ON: Ch 9 MIDI 62 Velocity 90
2024-12-08 01:27:11,510 - DEBUG - Note OFF: Ch 0 MIDI 96
2024-12-08 01:27:11,547 - DEBUG - Note OFF: Ch 0 MIDI 89
2024-12-08 01:27:11,606 - DEBUG - Note OFF: Ch 1 MIDI 81
2024-12-08 01:27:11,606 - DEBUG - Note OFF: Ch 1 MIDI 77
2024-12-08 01:27:11,606 - DEBUG - Note OFF: Ch 9 MIDI 107
2024-12-08 01:27:11,630 - DEBUG - Note OFF: Ch 0 MIDI 84
2024-12-08 01:27:11,630 - DEBUG - Note OFF: Ch 9 MIDI 66
2024-12-08 01:27:11,630 - DEBUG - Note OFF: Ch 9 MIDI 62
2024-12-08 01:27:11,643 - DEBUG - Note ON: Ch 0 MIDI 91 Velocity 125
2024-12-08 01:27:11,643 - DEBUG - Note ON: Ch 0 MIDI 96 Velocity 119
2024-12-08 01:27:11,655 - DEBUG - Note OFF: Ch 3 MIDI 60
2024-12-08 01:27:11,677 - DEBUG - Note ON: Ch 9 MIDI 66 Velocity 90
2024-12-08 01:27:11,750 - DEBUG - Note OFF: Ch 0 MIDI 91
2024-12-08 01:27:11,751 - DEBUG - Note OFF: Ch 0 MIDI 96
2024-12-08 01:27:11,838 - DEBUG - Note OFF: Ch 9 MIDI 66
2024-12-08 01:27:11,838 - DEBUG - Note ON: Ch 0 MIDI 96 Velocity 118
2024-12-08 01:27:11,862 - DEBUG - Note ON: Ch 0 MIDI 91 Velocity 127
2024-12-08 01:27:11,863 - DEBUG - Note ON: Ch 9 MIDI 107 Velocity 54
2024-12-08 01:27:11,874 - DEBUG - Note ON: Ch 9 MIDI 59 Velocity 100
2024-12-08 01:27:11,885 - DEBUG - Note ON: Ch 9 MIDI 66 Velocity 70
2024-12-08 01:27:11,897 - DEBUG - Note ON: Ch 3 MIDI 65 Velocity 105
2024-12-08 01:27:12,022 - DEBUG - Note OFF: Ch 9 MIDI 107
2024-12-08 01:27:12,034 - DEBUG - Note OFF: Ch 9 MIDI 59
2024-12-08 01:27:12,034 - DEBUG - Note ON: Ch 0 MIDI 93 Velocity 101
2024-12-08 01:27:12,034 - DEBUG - Note OFF: Ch 9 MIDI 66
2024-12-08 01:27:12,058 - DEBUG - Note OFF: Ch 0 MIDI 91
2024-12-08 01:27:12,168 - DEBUG - Note OFF: Ch 3 MIDI 65
2024-12-08 01:27:12,264 - DEBUG - Note ON: Ch 0 MIDI 84 Velocity 101
2024-12-08 01:27:12,264 - DEBUG - Note ON: Ch 1 MIDI 81 Velocity 99
2024-12-08 01:27:12,276 - DEBUG - Note ON: Ch 1 MIDI 77 Velocity 81
2024-12-08 01:27:12,276 - DEBUG - Note ON: Ch 9 MIDI 107 Velocity 47
2024-12-08 01:27:12,299 - DEBUG - Note ON: Ch 9 MIDI 66 Velocity 80
2024-12-08 01:27:12,299 - DEBUG - Note ON: Ch 3 MIDI 65 Velocity 106
2024-12-08 01:27:12,299 - DEBUG - Note ON: Ch 9 MIDI 62 Velocity 90
2024-12-08 01:27:12,432 - DEBUG - Note OFF: Ch 9 MIDI 107
2024-12-08 01:27:12,444 - DEBUG - Note OFF: Ch 9 MIDI 66
2024-12-08 01:27:12,456 - DEBUG - Note OFF: Ch 9 MIDI 62
2024-12-08 01:27:12,468 - DEBUG - Note OFF: Ch 1 MIDI 81
2024-12-08 01:27:12,504 - DEBUG - Note OFF: Ch 0 MIDI 84
2024-12-08 01:27:12,505 - DEBUG - Note OFF: Ch 1 MIDI 77
2024-12-08 01:27:12,541 - DEBUG - Note OFF: Ch 3 MIDI 65
2024-12-08 01:27:12,687 - DEBUG - Note ON: Ch 9 MIDI 107 Velocity 48
2024-12-08 01:27:12,699 - DEBUG - Note ON: Ch 9 MIDI 59 Velocity 100
2024-12-08 01:27:12,713 - DEBUG - Note ON: Ch 3 MIDI 67 Velocity 112
2024-12-08 01:27:12,713 - DEBUG - Note ON: Ch 9 MIDI 66 Velocity 70
2024-12-08 01:27:12,844 - DEBUG - Note OFF: Ch 9 MIDI 107
2024-12-08 01:27:12,856 - DEBUG - Note OFF: Ch 9 MIDI 59
2024-12-08 01:27:12,856 - DEBUG - Note OFF: Ch 9 MIDI 66
2024-12-08 01:27:12,917 - DEBUG - Note OFF: Ch 3 MIDI 67
2024-12-08 01:27:13,079 - DEBUG - Note ON: Ch 0 MIDI 87 Velocity 98
2024-12-08 01:27:13,079 - DEBUG - Note ON: Ch 1 MIDI 81 Velocity 108
2024-12-08 01:27:13,105 - DEBUG - Note ON: Ch 0 MIDI 84 Velocity 98
2024-12-08 01:27:13,105 - DEBUG - Note ON: Ch 1 MIDI 77 Velocity 76
2024-12-08 01:27:13,105 - DEBUG - Note ON: Ch 9 MIDI 107 Velocity 54
2024-12-08 01:27:13,117 - DEBUG - Note ON: Ch 3 MIDI 69 Velocity 113
2024-12-08 01:27:13,118 - DEBUG - Note ON: Ch 9 MIDI 66 Velocity 80
2024-12-08 01:27:13,130 - DEBUG - Note ON: Ch 9 MIDI 62 Velocity 90
2024-12-08 01:27:13,254 - DEBUG - Note OFF: Ch 9 MIDI 107
2024-12-08 01:27:13,277 - DEBUG - Note OFF: Ch 9 MIDI 66
2024-12-08 01:27:13,277 - DEBUG - Note OFF: Ch 9 MIDI 62
2024-12-08 01:27:13,301 - DEBUG - Note OFF: Ch 1 MIDI 81
2024-12-08 01:27:13,301 - DEBUG - Note OFF: Ch 3 MIDI 69
2024-12-08 01:27:13,314 - DEBUG - Note OFF: Ch 0 MIDI 93
2024-12-08 01:27:13,325 - DEBUG - Note ON: Ch 9 MIDI 66 Velocity 90
2024-12-08 01:27:13,350 - DEBUG - Note OFF: Ch 0 MIDI 96
2024-12-08 01:27:13,445 - DEBUG - Note OFF: Ch 0 MIDI 87
2024-12-08 01:27:13,445 - DEBUG - Note OFF: Ch 0 MIDI 84
2024-12-08 01:27:13,484 - DEBUG - Note OFF: Ch 9 MIDI 66
2024-12-08 01:27:13,508 - DEBUG - Note ON: Ch 0 MIDI 86 Velocity 90
2024-12-08 01:27:13,508 - DEBUG - Note ON: Ch 0 MIDI 94 Velocity 127
2024-12-08 01:27:13,508 - DEBUG - Note ON: Ch 9 MIDI 107 Velocity 50
2024-12-08 01:27:13,521 - DEBUG - Note ON: Ch 0 MIDI 86 Velocity 121
2024-12-08 01:27:13,521 - DEBUG - Note ON: Ch 9 MIDI 59 Velocity 100
2024-12-08 01:27:13,534 - DEBUG - Note ON: Ch 1 MIDI 82 Velocity 106
2024-12-08 01:27:13,534 - DEBUG - Note ON: Ch 3 MIDI 70 Velocity 127
2024-12-08 01:27:13,534 - DEBUG - Note ON: Ch 9 MIDI 66 Velocity 70
2024-12-08 01:27:13,630 - DEBUG - Note OFF: Ch 1 MIDI 77
2024-12-08 01:27:13,643 - DEBUG - Note OFF: Ch 1 MIDI 82
2024-12-08 01:27:13,655 - DEBUG - Note OFF: Ch 0 MIDI 86
2024-12-08 01:27:13,667 - DEBUG - Note OFF: Ch 9 MIDI 107
2024-12-08 01:27:13,679 - DEBUG - Note OFF: Ch 9 MIDI 59
2024-12-08 01:27:13,679 - DEBUG - Note OFF: Ch 9 MIDI 66
2024-12-08 01:27:13,731 - DEBUG - Note OFF: Ch 0 MIDI 86
2024-12-08 01:27:13,767 - DEBUG - Note OFF: Ch 0 MIDI 94
2024-12-08 01:27:13,880 - DEBUG - Note OFF: Ch 3 MIDI 70
2024-12-08 01:27:13,929 - DEBUG - Note ON: Ch 0 MIDI 94 Velocity 127
2024-12-08 01:27:13,929 - DEBUG - Note ON: Ch 9 MIDI 107 Velocity 56
2024-12-08 01:27:13,929 - DEBUG - Note ON: Ch 0 MIDI 86 Velocity 116
2024-12-08 01:27:13,929 - DEBUG - Note ON: Ch 1 MIDI 82 Velocity 115
2024-12-08 01:27:13,942 - DEBUG - Note ON: Ch 0 MIDI 86 Velocity 105
2024-12-08 01:27:13,942 - DEBUG - Note ON: Ch 9 MIDI 66 Velocity 80
2024-12-08 01:27:13,954 - DEBUG - Note ON: Ch 1 MIDI 77 Velocity 88
2024-12-08 01:27:13,954 - DEBUG - Note ON: Ch 9 MIDI 62 Velocity 90
2024-12-08 01:27:14,075 - DEBUG - Note OFF: Ch 9 MIDI 107
2024-12-08 01:27:14,099 - DEBUG - Note OFF: Ch 9 MIDI 66
2024-12-08 01:27:14,112 - DEBUG - Note OFF: Ch 0 MIDI 86
2024-12-08 01:27:14,112 - DEBUG - Note OFF: Ch 9 MIDI 62
2024-12-08 01:27:14,112 - DEBUG - Note OFF: Ch 1 MIDI 82
2024-12-08 01:27:14,124 - DEBUG - Note OFF: Ch 0 MIDI 94
2024-12-08 01:27:14,138 - DEBUG - Note OFF: Ch 1 MIDI 77
2024-12-08 01:27:14,138 - DEBUG - Note OFF: Ch 0 MIDI 86
2024-12-08 01:27:14,334 - DEBUG - Note ON: Ch 3 MIDI 70 Velocity 119
2024-12-08 01:27:14,334 - DEBUG - Note ON: Ch 9 MIDI 107 Velocity 54
2024-12-08 01:27:14,347 - DEBUG - Note ON: Ch 9 MIDI 59 Velocity 100
2024-12-08 01:27:14,358 - DEBUG - Note ON: Ch 0 MIDI 94 Velocity 127
2024-12-08 01:27:14,358 - DEBUG - Note ON: Ch 9 MIDI 66 Velocity 70
2024-12-08 01:27:14,358 - DEBUG - Note ON: Ch 0 MIDI 86 Velocity 121
2024-12-08 01:27:14,491 - DEBUG - Note OFF: Ch 9 MIDI 107
2024-12-08 01:27:14,504 - DEBUG - Note OFF: Ch 9 MIDI 59
2024-12-08 01:27:14,505 - DEBUG - Note OFF: Ch 9 MIDI 66
2024-12-08 01:27:14,740 - DEBUG - Note ON: Ch 1 MIDI 82 Velocity 118
2024-12-08 01:27:14,753 - DEBUG - Note ON: Ch 0 MIDI 86 Velocity 109
2024-12-08 01:27:14,753 - DEBUG - Note ON: Ch 9 MIDI 107 Velocity 48
2024-12-08 01:27:14,753 - DEBUG - Note ON: Ch 1 MIDI 77 Velocity 93
2024-12-08 01:27:14,764 - DEBUG - Note ON: Ch 9 MIDI 66 Velocity 80
2024-12-08 01:27:14,775 - DEBUG - Note ON: Ch 9 MIDI 62 Velocity 90
2024-12-08 01:27:14,872 - DEBUG - Note OFF: Ch 3 MIDI 70
2024-12-08 01:27:14,895 - DEBUG - Note OFF: Ch 0 MIDI 94
2024-12-08 01:27:14,907 - DEBUG - Note OFF: Ch 0 MIDI 86
2024-12-08 01:27:14,907 - DEBUG - Note OFF: Ch 9 MIDI 107
2024-12-08 01:27:14,920 - DEBUG - Note OFF: Ch 9 MIDI 66
2024-12-08 01:27:14,932 - DEBUG - Note OFF: Ch 1 MIDI 77
2024-12-08 01:27:14,932 - DEBUG - Note OFF: Ch 9 MIDI 62
2024-12-08 01:27:14,944 - DEBUG - Note OFF: Ch 1 MIDI 82
2024-12-08 01:27:14,971 - DEBUG - Note ON: Ch 9 MIDI 66 Velocity 90
2024-12-08 01:27:14,985 - DEBUG - Note OFF: Ch 0 MIDI 86
2024-12-08 01:27:14,997 - DEBUG - Note ON: Ch 0 MIDI 86 Velocity 106
2024-12-08 01:27:15,008 - DEBUG - Note ON: Ch 0 MIDI 94 Velocity 122
2024-12-08 01:27:15,095 - DEBUG - Note OFF: Ch 0 MIDI 94
2024-12-08 01:27:15,107 - DEBUG - Note OFF: Ch 0 MIDI 86
2024-12-08 01:27:15,134 - DEBUG - Note OFF: Ch 9 MIDI 66
2024-12-08 01:27:15,159 - DEBUG - Note ON: Ch 9 MIDI 107 Velocity 55
2024-12-08 01:27:15,172 - DEBUG - Note ON: Ch 9 MIDI 59 Velocity 100
2024-12-08 01:27:15,184 - DEBUG - Note ON: Ch 0 MIDI 86 Velocity 104
2024-12-08 01:27:15,184 - DEBUG - Note ON: Ch 9 MIDI 66 Velocity 70
2024-12-08 01:27:15,184 - DEBUG - Note ON: Ch 0 MIDI 94 Velocity 127
2024-12-08 01:27:15,209 - DEBUG - Note ON: Ch 3 MIDI 65 Velocity 110
2024-12-08 01:27:15,319 - DEBUG - Note OFF: Ch 9 MIDI 107
2024-12-08 01:27:15,319 - DEBUG - Note OFF: Ch 9 MIDI 59
2024-12-08 01:27:15,331 - DEBUG - Note OFF: Ch 9 MIDI 66
2024-12-08 01:27:15,449 - DEBUG - Note OFF: Ch 0 MIDI 94
2024-12-08 01:27:15,449 - DEBUG - Note OFF: Ch 0 MIDI 86
2024-12-08 01:27:15,561 - DEBUG - Note ON: Ch 0 MIDI 84 Velocity 99
2024-12-08 01:27:15,574 - DEBUG - Note ON: Ch 1 MIDI 81 Velocity 103
2024-12-08 01:27:15,574 - DEBUG - Note ON: Ch 9 MIDI 107 Velocity 54
2024-12-08 01:27:15,587 - DEBUG - Note ON: Ch 1 MIDI 77 Velocity 96
2024-12-08 01:27:15,588 - DEBUG - Note ON: Ch 0 MIDI 93 Velocity 127
2024-12-08 01:27:15,588 - DEBUG - Note ON: Ch 9 MIDI 66 Velocity 80
2024-12-08 01:27:15,600 - DEBUG - Note ON: Ch 0 MIDI 84 Velocity 119
2024-12-08 01:27:15,600 - DEBUG - Note ON: Ch 9 MIDI 62 Velocity 90
2024-12-08 01:27:15,612 - DEBUG - Note OFF: Ch 3 MIDI 65
2024-12-08 01:27:15,734 - DEBUG - Note OFF: Ch 9 MIDI 107
2024-12-08 01:27:15,746 - DEBUG - Note OFF: Ch 9 MIDI 66
2024-12-08 01:27:15,760 - DEBUG - Note OFF: Ch 9 MIDI 62
2024-12-08 01:27:15,760 - DEBUG - Note OFF: Ch 1 MIDI 81
2024-12-08 01:27:15,787 - DEBUG - Note OFF: Ch 0 MIDI 84
2024-12-08 01:27:15,812 - DEBUG - Note OFF: Ch 1 MIDI 77
2024-12-08 01:27:15,824 - DEBUG - Note OFF: Ch 0 MIDI 84
2024-12-08 01:27:15,837 - DEBUG - Note OFF: Ch 0 MIDI 93
2024-12-08 01:27:15,984 - DEBUG - Note ON: Ch 9 MIDI 107 Velocity 51
2024-12-08 01:27:15,997 - DEBUG - Note ON: Ch 0 MIDI 93 Velocity 127
2024-12-08 01:27:15,997 - DEBUG - Note ON: Ch 9 MIDI 59 Velocity 100
2024-12-08 01:27:15,997 - DEBUG - Note ON: Ch 0 MIDI 84 Velocity 116
2024-12-08 01:27:15,997 - DEBUG - Note ON: Ch 3 MIDI 62 Velocity 115
2024-12-08 01:27:15,997 - DEBUG - Note ON: Ch 9 MIDI 66 Velocity 70
2024-12-08 01:27:16,146 - DEBUG - Note OFF: Ch 9 MIDI 107
2024-12-08 01:27:16,146 - DEBUG - Note OFF: Ch 9 MIDI 59
2024-12-08 01:27:16,157 - DEBUG - Note OFF: Ch 9 MIDI 66
2024-12-08 01:27:16,281 - DEBUG - Note OFF: Ch 0 MIDI 93
2024-12-08 01:27:16,281 - DEBUG - Note OFF: Ch 0 MIDI 84
2024-12-08 01:27:16,394 - DEBUG - Note ON: Ch 0 MIDI 93 Velocity 119
2024-12-08 01:27:16,395 - DEBUG - Note ON: Ch 1 MIDI 81 Velocity 97
2024-12-08 01:27:16,395 - DEBUG - Note ON: Ch 0 MIDI 84 Velocity 88
2024-12-08 01:27:16,395 - DEBUG - Note ON: Ch 0 MIDI 84 Velocity 109
2024-12-08 01:27:16,395 - DEBUG - Note ON: Ch 9 MIDI 107 Velocity 53
2024-12-08 01:27:16,408 - DEBUG - Note ON: Ch 1 MIDI 77 Velocity 92
2024-12-08 01:27:16,421 - DEBUG - Note ON: Ch 9 MIDI 66 Velocity 80
2024-12-08 01:27:16,421 - DEBUG - Note ON: Ch 9 MIDI 62 Velocity 90
2024-12-08 01:27:16,509 - DEBUG - Note OFF: Ch 3 MIDI 62
2024-12-08 01:27:16,520 - DEBUG - Note OFF: Ch 0 MIDI 84
2024-12-08 01:27:16,534 - DEBUG - Note OFF: Ch 0 MIDI 93
2024-12-08 01:27:16,556 - DEBUG - Note OFF: Ch 9 MIDI 107
2024-12-08 01:27:16,569 - DEBUG - Note OFF: Ch 9 MIDI 66
2024-12-08 01:27:16,582 - DEBUG - Note OFF: Ch 9 MIDI 62
2024-12-08 01:27:16,607 - DEBUG - Note ON: Ch 0 MIDI 93 Velocity 101
2024-12-08 01:27:16,607 - DEBUG - Note ON: Ch 0 MIDI 84 Velocity 95
2024-12-08 01:27:16,618 - DEBUG - Note OFF: Ch 1 MIDI 81
2024-12-08 01:27:16,619 - DEBUG - Note OFF: Ch 1 MIDI 77
2024-12-08 01:27:16,619 - DEBUG - Note ON: Ch 9 MIDI 66 Velocity 90
2024-12-08 01:27:16,667 - DEBUG - Note OFF: Ch 0 MIDI 84
2024-12-08 01:27:16,705 - DEBUG - Note OFF: Ch 0 MIDI 84
2024-12-08 01:27:16,755 - DEBUG - Note OFF: Ch 0 MIDI 93
2024-12-08 01:27:16,777 - DEBUG - Note OFF: Ch 9 MIDI 66
2024-12-08 01:27:16,814 - DEBUG - Note ON: Ch 0 MIDI 93 Velocity 116
2024-12-08 01:27:16,814 - DEBUG - Note ON: Ch 9 MIDI 107 Velocity 52
2024-12-08 01:27:16,814 - DEBUG - Note ON: Ch 9 MIDI 59 Velocity 100
2024-12-08 01:27:16,826 - DEBUG - Note ON: Ch 9 MIDI 66 Velocity 70
2024-12-08 01:27:16,849 - DEBUG - Note ON: Ch 3 MIDI 67 Velocity 112
2024-12-08 01:27:16,968 - DEBUG - Note OFF: Ch 9 MIDI 107
2024-12-08 01:27:16,969 - DEBUG - Note OFF: Ch 9 MIDI 59
2024-12-08 01:27:16,982 - DEBUG - Note OFF: Ch 9 MIDI 66
2024-12-08 01:27:17,065 - DEBUG - Note OFF: Ch 0 MIDI 93
2024-12-08 01:27:17,208 - DEBUG - Note ON: Ch 0 MIDI 86 Velocity 109
2024-12-08 01:27:17,208 - DEBUG - Note ON: Ch 1 MIDI 83 Velocity 99
2024-12-08 01:27:17,209 - DEBUG - Note ON: Ch 1 MIDI 77 Velocity 98
2024-12-08 01:27:17,221 - DEBUG - Note ON: Ch 9 MIDI 107 Velocity 51
2024-12-08 01:27:17,235 - DEBUG - Note ON: Ch 0 MIDI 91 Velocity 121
2024-12-08 01:27:17,235 - DEBUG - Note ON: Ch 9 MIDI 66 Velocity 80
2024-12-08 01:27:17,246 - DEBUG - Note ON: Ch 1 MIDI 83 Velocity 127
2024-12-08 01:27:17,246 - DEBUG - Note OFF: Ch 3 MIDI 67
2024-12-08 01:27:17,246 - DEBUG - Note ON: Ch 9 MIDI 62 Velocity 90
2024-12-08 01:27:17,378 - DEBUG - Note OFF: Ch 9 MIDI 107
2024-12-08 01:27:17,392 - DEBUG - Note OFF: Ch 9 MIDI 66
2024-12-08 01:27:17,404 - DEBUG - Note OFF: Ch 9 MIDI 62
2024-12-08 01:27:17,416 - DEBUG - Note OFF: Ch 1 MIDI 83
2024-12-08 01:27:17,439 - DEBUG - Note OFF: Ch 1 MIDI 77
2024-12-08 01:27:17,451 - DEBUG - Note OFF: Ch 0 MIDI 86
2024-12-08 01:27:17,452 - DEBUG - Note OFF: Ch 0 MIDI 91
2024-12-08 01:27:17,452 - DEBUG - Note OFF: Ch 1 MIDI 83
2024-12-08 01:27:17,632 - DEBUG - Note ON: Ch 9 MIDI 107 Velocity 49
2024-12-08 01:27:17,644 - DEBUG - Note ON: Ch 9 MIDI 59 Velocity 100
2024-12-08 01:27:17,655 - DEBUG - Note ON: Ch 3 MIDI 67 Velocity 115
2024-12-08 01:27:17,655 - DEBUG - Note ON: Ch 9 MIDI 66 Velocity 70
2024-12-08 01:27:17,656 - DEBUG - Note ON: Ch 0 MIDI 91 Velocity 118
2024-12-08 01:27:17,656 - DEBUG - Note ON: Ch 1 MIDI 83 Velocity 119
2024-12-08 01:27:17,794 - DEBUG - Note OFF: Ch 9 MIDI 107
2024-12-08 01:27:17,794 - DEBUG - Note OFF: Ch 9 MIDI 59
2024-12-08 01:27:17,806 - DEBUG - Note OFF: Ch 9 MIDI 66
2024-12-08 01:27:17,966 - DEBUG - Note OFF: Ch 0 MIDI 91
2024-12-08 01:27:18,021 - DEBUG - Note ON: Ch 0 MIDI 86 Velocity 106
2024-12-08 01:27:18,034 - DEBUG - Note ON: Ch 1 MIDI 83 Velocity 98
2024-12-08 01:27:18,034 - DEBUG - Note ON: Ch 1 MIDI 77 Velocity 94
2024-12-08 01:27:18,046 - DEBUG - Note ON: Ch 9 MIDI 107 Velocity 51
2024-12-08 01:27:18,060 - DEBUG - Note ON: Ch 9 MIDI 66 Velocity 80
2024-12-08 01:27:18,075 - DEBUG - Note ON: Ch 0 MIDI 93 Velocity 127
2024-12-08 01:27:18,075 - DEBUG - Note ON: Ch 9 MIDI 62 Velocity 90
2024-12-08 01:27:18,087 - DEBUG - Note OFF: Ch 3 MIDI 67
2024-12-08 01:27:18,187 - DEBUG - Note OFF: Ch 1 MIDI 83
2024-12-08 01:27:18,201 - DEBUG - Note OFF: Ch 9 MIDI 107
2024-12-08 01:27:18,214 - DEBUG - Note OFF: Ch 1 MIDI 83
2024-12-08 01:27:18,214 - DEBUG - Note OFF: Ch 1 MIDI 77
2024-12-08 01:27:18,214 - DEBUG - Note OFF: Ch 9 MIDI 66
2024-12-08 01:27:18,226 - DEBUG - Note OFF: Ch 9 MIDI 62
2024-12-08 01:27:18,264 - DEBUG - Note OFF: Ch 0 MIDI 86
2024-12-08 01:27:18,264 - DEBUG - Note OFF: Ch 0 MIDI 93
2024-12-08 01:27:18,264 - DEBUG - Note ON: Ch 9 MIDI 66 Velocity 90
2024-12-08 01:27:18,424 - DEBUG - Note OFF: Ch 9 MIDI 66
2024-12-08 01:27:18,459 - DEBUG - Note ON: Ch 9 MIDI 107 Velocity 53
2024-12-08 01:27:18,472 - DEBUG - Note ON: Ch 0 MIDI 91 Velocity 122
2024-12-08 01:27:18,473 - DEBUG - Note ON: Ch 9 MIDI 59 Velocity 100
2024-12-08 01:27:18,473 - DEBUG - Note ON: Ch 0 MIDI 84 Velocity 108
2024-12-08 01:27:18,473 - DEBUG - Note ON: Ch 3 MIDI 60 Velocity 113
2024-12-08 01:27:18,473 - DEBUG - Note ON: Ch 9 MIDI 66 Velocity 70
2024-12-08 01:27:18,485 - DEBUG - Note ON: Ch 0 MIDI 88 Velocity 110
2024-12-08 01:27:18,486 - DEBUG - Note ON: Ch 1 MIDI 82 Velocity 127
2024-12-08 01:27:18,486 - DEBUG - Note ON: Ch 1 MIDI 79 Velocity 108
2024-12-08 01:27:18,615 - DEBUG - Note OFF: Ch 9 MIDI 107
2024-12-08 01:27:18,615 - DEBUG - Note OFF: Ch 9 MIDI 59
2024-12-08 01:27:18,629 - DEBUG - Note OFF: Ch 9 MIDI 66
2024-12-08 01:27:18,871 - DEBUG - Note ON: Ch 9 MIDI 107 Velocity 45
2024-12-08 01:27:18,884 - DEBUG - Note ON: Ch 9 MIDI 66 Velocity 80
2024-12-08 01:27:18,896 - DEBUG - Note ON: Ch 9 MIDI 62 Velocity 90
2024-12-08 01:27:18,947 - DEBUG - Note OFF: Ch 1 MIDI 82
2024-12-08 01:27:18,948 - DEBUG - Note OFF: Ch 3 MIDI 60
2024-12-08 01:27:18,986 - DEBUG - Note OFF: Ch 0 MIDI 84
2024-12-08 01:27:19,009 - DEBUG - Note OFF: Ch 1 MIDI 79
2024-12-08 01:27:19,020 - DEBUG - Note OFF: Ch 0 MIDI 88
2024-12-08 01:27:19,020 - DEBUG - Note OFF: Ch 9 MIDI 107
2024-12-08 01:27:19,045 - DEBUG - Note OFF: Ch 9 MIDI 66
2024-12-08 01:27:19,046 - DEBUG - Note OFF: Ch 0 MIDI 91
2024-12-08 01:27:19,046 - DEBUG - Note OFF: Ch 9 MIDI 62
2024-12-08 01:27:19,287 - DEBUG - Note ON: Ch 0 MIDI 88 Velocity 106
2024-12-08 01:27:19,288 - DEBUG - Note ON: Ch 9 MIDI 107 Velocity 54
2024-12-08 01:27:19,288 - DEBUG - Note ON: Ch 1 MIDI 82 Velocity 103
2024-12-08 01:27:19,288 - DEBUG - Note ON: Ch 9 MIDI 59 Velocity 100
2024-12-08 01:27:19,299 - DEBUG - Note ON: Ch 1 MIDI 79 Velocity 90
2024-12-08 01:27:19,299 - DEBUG - Note ON: Ch 9 MIDI 66 Velocity 70
2024-12-08 01:27:19,312 - DEBUG - Note ON: Ch 0 MIDI 96 Velocity 127
2024-12-08 01:27:19,312 - DEBUG - Note ON: Ch 3 MIDI 60 Velocity 113
2024-12-08 01:27:19,324 - DEBUG - Note ON: Ch 0 MIDI 88 Velocity 127
2024-12-08 01:27:19,441 - DEBUG - Note OFF: Ch 9 MIDI 107
2024-12-08 01:27:19,441 - DEBUG - Note OFF: Ch 9 MIDI 59
2024-12-08 01:27:19,454 - DEBUG - Note OFF: Ch 9 MIDI 66
2024-12-08 01:27:19,692 - DEBUG - Note ON: Ch 9 MIDI 107 Velocity 46
2024-12-08 01:27:19,715 - DEBUG - Note ON: Ch 9 MIDI 66 Velocity 80
2024-12-08 01:27:19,715 - DEBUG - Note ON: Ch 9 MIDI 62 Velocity 90
2024-12-08 01:27:19,775 - DEBUG - Note OFF: Ch 3 MIDI 60
2024-12-08 01:27:19,826 - DEBUG - Note OFF: Ch 0 MIDI 88
2024-12-08 01:27:19,848 - DEBUG - Note OFF: Ch 9 MIDI 107
2024-12-08 01:27:19,861 - DEBUG - Note OFF: Ch 0 MIDI 96
2024-12-08 01:27:19,861 - DEBUG - Note OFF: Ch 9 MIDI 66
2024-12-08 01:27:19,874 - DEBUG - Note OFF: Ch 1 MIDI 79
2024-12-08 01:27:19,875 - DEBUG - Note OFF: Ch 9 MIDI 62
2024-12-08 01:27:19,924 - DEBUG - Note OFF: Ch 1 MIDI 82
2024-12-08 01:27:19,924 - DEBUG - Note ON: Ch 9 MIDI 66 Velocity 90
2024-12-08 01:27:19,947 - DEBUG - Note OFF: Ch 0 MIDI 88
2024-12-08 01:27:20,066 - DEBUG - Note OFF: Ch 9 MIDI 66
2024-12-08 01:27:20,092 - DEBUG - Note ON: Ch 0 MIDI 84 Velocity 83
2024-12-08 01:27:20,092 - DEBUG - Note ON: Ch 1 MIDI 81 Velocity 94
2024-12-08 01:27:20,104 - DEBUG - Note ON: Ch 1 MIDI 77 Velocity 65
2024-12-08 01:27:20,104 - DEBUG - Note ON: Ch 9 MIDI 107 Velocity 55
2024-12-08 01:27:20,115 - DEBUG - Note ON: Ch 0 MIDI 96 Velocity 127
2024-12-08 01:27:20,116 - DEBUG - Note ON: Ch 3 MIDI 65 Velocity 101
2024-12-08 01:27:20,116 - DEBUG - Note ON: Ch 9 MIDI 59 Velocity 100
2024-12-08 01:27:20,127 - DEBUG - Note ON: Ch 0 MIDI 91 Velocity 127
2024-12-08 01:27:20,127 - DEBUG - Note ON: Ch 9 MIDI 66 Velocity 70
2024-12-08 01:27:20,178 - DEBUG - Note OFF: Ch 0 MIDI 84
2024-12-08 01:27:20,192 - DEBUG - Note OFF: Ch 1 MIDI 77
2024-12-08 01:27:20,192 - DEBUG - Note OFF: Ch 1 MIDI 81
2024-12-08 01:27:20,266 - DEBUG - Note OFF: Ch 9 MIDI 107
2024-12-08 01:27:20,266 - DEBUG - Note OFF: Ch 9 MIDI 59
2024-12-08 01:27:20,279 - DEBUG - Note OFF: Ch 9 MIDI 66
2024-12-08 01:27:20,291 - DEBUG - Note OFF: Ch 0 MIDI 91
2024-12-08 01:27:20,291 - DEBUG - Note ON: Ch 0 MIDI 93 Velocity 97
2024-12-08 01:27:20,401 - DEBUG - Note OFF: Ch 3 MIDI 65
2024-12-08 01:27:20,426 - DEBUG - Note OFF: Ch 0 MIDI 96
2024-12-08 01:27:20,427 - DEBUG - Note OFF: Ch 0 MIDI 93
2024-12-08 01:27:20,511 - DEBUG - Note ON: Ch 1 MIDI 81 Velocity 90
2024-12-08 01:27:20,524 - DEBUG - Note ON: Ch 0 MIDI 84 Velocity 90
2024-12-08 01:27:20,524 - DEBUG - Note ON: Ch 1 MIDI 77 Velocity 90
2024-12-08 01:27:20,524 - DEBUG - Note ON: Ch 9 MIDI 107 Velocity 49
2024-12-08 01:27:20,537 - DEBUG - Note ON: Ch 9 MIDI 66 Velocity 80
2024-12-08 01:27:20,549 - DEBUG - Note ON: Ch 9 MIDI 62 Velocity 90
2024-12-08 01:27:20,549 - DEBUG - Note ON: Ch 0 MIDI 93 Velocity 115
2024-12-08 01:27:20,550 - DEBUG - Note ON: Ch 0 MIDI 96 Velocity 99
2024-12-08 01:27:20,672 - DEBUG - Note OFF: Ch 9 MIDI 107
2024-12-08 01:27:20,696 - DEBUG - Note OFF: Ch 9 MIDI 66
2024-12-08 01:27:20,696 - DEBUG - Note OFF: Ch 9 MIDI 62
2024-12-08 01:27:20,707 - DEBUG - Note OFF: Ch 1 MIDI 81
2024-12-08 01:27:20,719 - DEBUG - Note OFF: Ch 0 MIDI 84
2024-12-08 01:27:20,719 - DEBUG - Note OFF: Ch 1 MIDI 77
2024-12-08 01:27:20,767 - DEBUG - Note OFF: Ch 0 MIDI 93
2024-12-08 01:27:20,768 - DEBUG - Note OFF: Ch 0 MIDI 96
2024-12-08 01:27:20,937 - DEBUG - Note ON: Ch 9 MIDI 107 Velocity 53
2024-12-08 01:27:20,937 - DEBUG - Note ON: Ch 9 MIDI 59 Velocity 100
2024-12-08 01:27:20,949 - DEBUG - Note ON: Ch 0 MIDI 96 Velocity 108
2024-12-08 01:27:20,949 - DEBUG - Note ON: Ch 3 MIDI 60 Velocity 113
2024-12-08 01:27:20,949 - DEBUG - Note ON: Ch 9 MIDI 66 Velocity 70
2024-12-08 01:27:20,962 - DEBUG - Note ON: Ch 0 MIDI 93 Velocity 122
2024-12-08 01:27:21,084 - DEBUG - Note OFF: Ch 9 MIDI 107
2024-12-08 01:27:21,114 - DEBUG - Note OFF: Ch 9 MIDI 59
2024-12-08 01:27:21,114 - DEBUG - Note OFF: Ch 9 MIDI 66
2024-12-08 01:27:21,337 - DEBUG - Note ON: Ch 0 MIDI 84 Velocity 97
2024-12-08 01:27:21,337 - DEBUG - Note ON: Ch 9 MIDI 107 Velocity 54
2024-12-08 01:27:21,349 - DEBUG - Note ON: Ch 1 MIDI 77 Velocity 100
2024-12-08 01:27:21,361 - DEBUG - Note ON: Ch 1 MIDI 81 Velocity 98
2024-12-08 01:27:21,361 - DEBUG - Note ON: Ch 9 MIDI 66 Velocity 80
2024-12-08 01:27:21,374 - DEBUG - Note ON: Ch 9 MIDI 62 Velocity 90
2024-12-08 01:27:21,400 - DEBUG - Note OFF: Ch 3 MIDI 60
2024-12-08 01:27:21,511 - DEBUG - Note OFF: Ch 9 MIDI 107
2024-12-08 01:27:21,511 - DEBUG - Note OFF: Ch 0 MIDI 96
2024-12-08 01:27:21,511 - DEBUG - Note OFF: Ch 0 MIDI 93
2024-12-08 01:27:21,516 - DEBUG - Note OFF: Ch 1 MIDI 81
2024-12-08 01:27:21,516 - DEBUG - Note OFF: Ch 9 MIDI 66
2024-12-08 01:27:21,530 - DEBUG - Note OFF: Ch 9 MIDI 62
2024-12-08 01:27:21,557 - DEBUG - Note OFF: Ch 0 MIDI 84
2024-12-08 01:27:21,557 - DEBUG - Note OFF: Ch 1 MIDI 77
2024-12-08 01:27:21,571 - DEBUG - Note ON: Ch 9 MIDI 66 Velocity 90
2024-12-08 01:27:21,720 - DEBUG - Note OFF: Ch 9 MIDI 66
2024-12-08 01:27:21,761 - DEBUG - Note ON: Ch 3 MIDI 65 Velocity 101
2024-12-08 01:27:21,761 - DEBUG - Note ON: Ch 9 MIDI 107 Velocity 56
2024-12-08 01:27:21,762 - DEBUG - Note ON: Ch 9 MIDI 59 Velocity 100
2024-12-08 01:27:21,777 - DEBUG - Note ON: Ch 0 MIDI 96 Velocity 122
2024-12-08 01:27:21,777 - DEBUG - Note ON: Ch 9 MIDI 66 Velocity 70
2024-12-08 01:27:21,777 - DEBUG - Note ON: Ch 0 MIDI 91 Velocity 127
2024-12-08 01:27:21,917 - DEBUG - Note OFF: Ch 9 MIDI 107
2024-12-08 01:27:21,918 - DEBUG - Note OFF: Ch 9 MIDI 59
2024-12-08 01:27:21,932 - DEBUG - Note OFF: Ch 9 MIDI 66
2024-12-08 01:27:21,946 - DEBUG - Note ON: Ch 0 MIDI 93 Velocity 93
2024-12-08 01:27:21,958 - DEBUG - Note OFF: Ch 0 MIDI 91
2024-12-08 01:27:22,085 - DEBUG - Note OFF: Ch 0 MIDI 96
2024-12-08 01:27:22,097 - DEBUG - Note OFF: Ch 0 MIDI 93
2024-12-08 01:27:22,108 - DEBUG - Note OFF: Ch 3 MIDI 65
2024-12-08 01:27:22,168 - DEBUG - Note ON: Ch 9 MIDI 107 Velocity 60
2024-12-08 01:27:22,181 - DEBUG - Note ON: Ch 0 MIDI 84 Velocity 88
2024-12-08 01:27:22,181 - DEBUG - Note ON: Ch 1 MIDI 81 Velocity 98
2024-12-08 01:27:22,181 - DEBUG - Note ON: Ch 9 MIDI 66 Velocity 80
2024-12-08 01:27:22,198 - DEBUG - Note ON: Ch 1 MIDI 77 Velocity 92
2024-12-08 01:27:22,198 - DEBUG - Note ON: Ch 9 MIDI 62 Velocity 90
2024-12-08 01:27:22,209 - DEBUG - Note ON: Ch 0 MIDI 93 Velocity 118
2024-12-08 01:27:22,210 - DEBUG - Note ON: Ch 0 MIDI 96 Velocity 108
2024-12-08 01:27:22,320 - DEBUG - Note OFF: Ch 9 MIDI 107
2024-12-08 01:27:22,334 - DEBUG - Note OFF: Ch 9 MIDI 66
2024-12-08 01:27:22,347 - DEBUG - Note OFF: Ch 9 MIDI 62
2024-12-08 01:27:22,387 - DEBUG - Note OFF: Ch 1 MIDI 81
2024-12-08 01:27:22,412 - DEBUG - Note OFF: Ch 0 MIDI 93
2024-12-08 01:27:22,412 - DEBUG - Note OFF: Ch 1 MIDI 77
2024-12-08 01:27:22,412 - DEBUG - Note OFF: Ch 0 MIDI 84
2024-12-08 01:27:22,425 - DEBUG - Note OFF: Ch 0 MIDI 96
2024-12-08 01:27:22,574 - DEBUG - Note ON: Ch 3 MIDI 60 Velocity 103
2024-12-08 01:27:22,574 - DEBUG - Note ON: Ch 9 MIDI 107 Velocity 54
2024-12-08 01:27:22,586 - DEBUG - Note ON: Ch 9 MIDI 59 Velocity 100
2024-12-08 01:27:22,597 - DEBUG - Note ON: Ch 0 MIDI 96 Velocity 116
2024-12-08 01:27:22,597 - DEBUG - Note ON: Ch 9 MIDI 66 Velocity 70
2024-12-08 01:27:22,608 - DEBUG - Note ON: Ch 0 MIDI 93 Velocity 122
2024-12-08 01:27:22,734 - DEBUG - Note OFF: Ch 9 MIDI 107
2024-12-08 01:27:22,747 - DEBUG - Note OFF: Ch 9 MIDI 59
2024-12-08 01:27:22,747 - DEBUG - Note OFF: Ch 9 MIDI 66
2024-12-08 01:27:22,989 - DEBUG - Note ON: Ch 9 MIDI 107 Velocity 57
2024-12-08 01:27:23,000 - DEBUG - Note OFF: Ch 0 MIDI 93
2024-12-08 01:27:23,000 - DEBUG - Note ON: Ch 0 MIDI 84 Velocity 101
2024-12-08 01:27:23,014 - DEBUG - Note ON: Ch 1 MIDI 81 Velocity 101
2024-12-08 01:27:23,014 - DEBUG - Note ON: Ch 1 MIDI 77 Velocity 98
2024-12-08 01:27:23,014 - DEBUG - Note ON: Ch 9 MIDI 66 Velocity 80
2024-12-08 01:27:23,014 - DEBUG - Note ON: Ch 9 MIDI 62 Velocity 90
2024-12-08 01:27:23,037 - DEBUG - Note OFF: Ch 3 MIDI 60
2024-12-08 01:27:23,149 - DEBUG - Note OFF: Ch 0 MIDI 96
2024-12-08 01:27:23,149 - DEBUG - Note OFF: Ch 9 MIDI 107
2024-12-08 01:27:23,162 - DEBUG - Note OFF: Ch 9 MIDI 66
2024-12-08 01:27:23,174 - DEBUG - Note OFF: Ch 9 MIDI 62
2024-12-08 01:27:23,199 - DEBUG - Note OFF: Ch 1 MIDI 81
2024-12-08 01:27:23,212 - DEBUG - Note ON: Ch 9 MIDI 66 Velocity 90
2024-12-08 01:27:23,237 - DEBUG - Note OFF: Ch 0 MIDI 84
2024-12-08 01:27:23,237 - DEBUG - Note OFF: Ch 1 MIDI 77
2024-12-08 01:27:23,369 - DEBUG - Note OFF: Ch 9 MIDI 66
2024-12-08 01:27:23,393 - DEBUG - Note ON: Ch 0 MIDI 93 Velocity 118
2024-12-08 01:27:23,394 - DEBUG - Note ON: Ch 0 MIDI 96 Velocity 127
2024-12-08 01:27:23,405 - DEBUG - Note ON: Ch 3 MIDI 65 Velocity 102
2024-12-08 01:27:23,405 - DEBUG - Note ON: Ch 9 MIDI 107 Velocity 59
2024-12-08 01:27:23,416 - DEBUG - Note ON: Ch 9 MIDI 59 Velocity 100
2024-12-08 01:27:23,416 - DEBUG - Note ON: Ch 9 MIDI 66 Velocity 70
2024-12-08 01:27:23,554 - DEBUG - Note OFF: Ch 9 MIDI 107
2024-12-08 01:27:23,565 - DEBUG - Note OFF: Ch 9 MIDI 59
2024-12-08 01:27:23,576 - DEBUG - Note OFF: Ch 9 MIDI 66
2024-12-08 01:27:23,675 - DEBUG - Note OFF: Ch 0 MIDI 96
2024-12-08 01:27:23,701 - DEBUG - Note OFF: Ch 0 MIDI 93
2024-12-08 01:27:23,795 - DEBUG - Note ON: Ch 0 MIDI 96 Velocity 119
2024-12-08 01:27:23,796 - DEBUG - Note ON: Ch 0 MIDI 101 Velocity 127
2024-12-08 01:27:23,820 - DEBUG - Note ON: Ch 0 MIDI 84 Velocity 97
2024-12-08 01:27:23,821 - DEBUG - Note ON: Ch 1 MIDI 81 Velocity 101
2024-12-08 01:27:23,821 - DEBUG - Note ON: Ch 9 MIDI 107 Velocity 56
2024-12-08 01:27:23,821 - DEBUG - Note ON: Ch 1 MIDI 77 Velocity 93
2024-12-08 01:27:23,821 - DEBUG - Note OFF: Ch 3 MIDI 65
2024-12-08 01:27:23,834 - DEBUG - Note ON: Ch 9 MIDI 66 Velocity 80
2024-12-08 01:27:23,847 - DEBUG - Note ON: Ch 9 MIDI 62 Velocity 90
2024-12-08 01:27:23,971 - DEBUG - Note OFF: Ch 9 MIDI 107
2024-12-08 01:27:23,984 - DEBUG - Note OFF: Ch 9 MIDI 66
2024-12-08 01:27:23,996 - DEBUG - Note OFF: Ch 9 MIDI 62
2024-12-08 01:27:24,019 - DEBUG - Note OFF: Ch 0 MIDI 101
2024-12-08 01:27:24,019 - DEBUG - Note OFF: Ch 1 MIDI 81
2024-12-08 01:27:24,044 - DEBUG - Note OFF: Ch 0 MIDI 96
2024-12-08 01:27:24,044 - DEBUG - Note OFF: Ch 0 MIDI 84
2024-12-08 01:27:24,044 - DEBUG - Note OFF: Ch 1 MIDI 77
2024-12-08 01:27:24,224 - DEBUG - Note ON: Ch 3 MIDI 60 Velocity 113
2024-12-08 01:27:24,224 - DEBUG - Note ON: Ch 9 MIDI 107 Velocity 52
2024-12-08 01:27:24,237 - DEBUG - Note ON: Ch 9 MIDI 59 Velocity 100
2024-12-08 01:27:24,248 - DEBUG - Note ON: Ch 0 MIDI 89 Velocity 115
2024-12-08 01:27:24,248 - DEBUG - Note ON: Ch 9 MIDI 66 Velocity 70
2024-12-08 01:27:24,248 - DEBUG - Note ON: Ch 0 MIDI 96 Velocity 110
2024-12-08 01:27:24,378 - DEBUG - Note OFF: Ch 9 MIDI 107
2024-12-08 01:27:24,395 - DEBUG - Note OFF: Ch 9 MIDI 59
2024-12-08 01:27:24,395 - DEBUG - Note OFF: Ch 9 MIDI 66
2024-12-08 01:27:24,632 - DEBUG - Note ON: Ch 0 MIDI 84 Velocity 95
2024-12-08 01:27:24,644 - DEBUG - Note ON: Ch 1 MIDI 81 Velocity 97
2024-12-08 01:27:24,645 - DEBUG - Note ON: Ch 1 MIDI 77 Velocity 95
2024-12-08 01:27:24,645 - DEBUG - Note ON: Ch 9 MIDI 107 Velocity 53
2024-12-08 01:27:24,658 - DEBUG - Note ON: Ch 9 MIDI 66 Velocity 80
2024-12-08 01:27:24,681 - DEBUG - Note ON: Ch 9 MIDI 62 Velocity 90
2024-12-08 01:27:24,731 - DEBUG - Note OFF: Ch 0 MIDI 96
2024-12-08 01:27:24,744 - DEBUG - Note OFF: Ch 0 MIDI 89
2024-12-08 01:27:24,792 - DEBUG - Note OFF: Ch 3 MIDI 60
2024-12-08 01:27:24,792 - DEBUG - Note OFF: Ch 9 MIDI 107
2024-12-08 01:27:24,805 - DEBUG - Note OFF: Ch 9 MIDI 66
2024-12-08 01:27:24,817 - DEBUG - Note ON: Ch 0 MIDI 91 Velocity 122
2024-12-08 01:27:24,817 - DEBUG - Note OFF: Ch 9 MIDI 62
2024-12-08 01:27:24,830 - DEBUG - Note ON: Ch 0 MIDI 96 Velocity 121
2024-12-08 01:27:24,844 - DEBUG - Note OFF: Ch 1 MIDI 81
2024-12-08 01:27:24,855 - DEBUG - Note OFF: Ch 0 MIDI 84
2024-12-08 01:27:24,869 - DEBUG - Note OFF: Ch 1 MIDI 77
2024-12-08 01:27:24,869 - DEBUG - Note ON: Ch 9 MIDI 66 Velocity 90
2024-12-08 01:27:24,911 - DEBUG - Note OFF: Ch 0 MIDI 91
2024-12-08 01:27:24,964 - DEBUG - Note OFF: Ch 0 MIDI 96
2024-12-08 01:27:25,010 - DEBUG - Note ON: Ch 0 MIDI 96 Velocity 101
2024-12-08 01:27:25,023 - DEBUG - Note OFF: Ch 9 MIDI 66
2024-12-08 01:27:25,023 - DEBUG - Note ON: Ch 0 MIDI 91 Velocity 127
2024-12-08 01:27:25,047 - DEBUG - Note ON: Ch 9 MIDI 107 Velocity 53
2024-12-08 01:27:25,058 - DEBUG - Note ON: Ch 3 MIDI 65 Velocity 112
2024-12-08 01:27:25,059 - DEBUG - Note ON: Ch 9 MIDI 59 Velocity 100
2024-12-08 01:27:25,071 - DEBUG - Note ON: Ch 9 MIDI 66 Velocity 70
2024-12-08 01:27:25,170 - DEBUG - Note ON: Ch 0 MIDI 93 Velocity 97
2024-12-08 01:27:25,207 - DEBUG - Note OFF: Ch 0 MIDI 91
2024-12-08 01:27:25,208 - DEBUG - Note OFF: Ch 9 MIDI 107
2024-12-08 01:27:25,219 - DEBUG - Note OFF: Ch 9 MIDI 59
2024-12-08 01:27:25,219 - DEBUG - Note OFF: Ch 9 MIDI 66
2024-12-08 01:27:25,287 - DEBUG - Note OFF: Ch 3 MIDI 65
2024-12-08 01:27:25,438 - DEBUG - Note ON: Ch 1 MIDI 77 Velocity 95
2024-12-08 01:27:25,451 - DEBUG - Note ON: Ch 0 MIDI 84 Velocity 100
2024-12-08 01:27:25,451 - DEBUG - Note ON: Ch 1 MIDI 81 Velocity 96
2024-12-08 01:27:25,464 - DEBUG - Note ON: Ch 9 MIDI 107 Velocity 57
2024-12-08 01:27:25,476 - DEBUG - Note ON: Ch 3 MIDI 65 Velocity 105
2024-12-08 01:27:25,476 - DEBUG - Note ON: Ch 9 MIDI 66 Velocity 80
2024-12-08 01:27:25,487 - DEBUG - Note ON: Ch 9 MIDI 62 Velocity 90
2024-12-08 01:27:25,612 - DEBUG - Note OFF: Ch 9 MIDI 107
2024-12-08 01:27:25,635 - DEBUG - Note OFF: Ch 9 MIDI 66
2024-12-08 01:27:25,646 - DEBUG - Note OFF: Ch 9 MIDI 62
2024-12-08 01:27:25,671 - DEBUG - Note OFF: Ch 1 MIDI 81
2024-12-08 01:27:25,706 - DEBUG - Note OFF: Ch 1 MIDI 77
2024-12-08 01:27:25,706 - DEBUG - Note OFF: Ch 0 MIDI 84
2024-12-08 01:27:25,744 - DEBUG - Note OFF: Ch 3 MIDI 65
2024-12-08 01:27:25,870 - DEBUG - Note ON: Ch 9 MIDI 107 Velocity 57
2024-12-08 01:27:25,883 - DEBUG - Note ON: Ch 9 MIDI 59 Velocity 100
2024-12-08 01:27:25,895 - DEBUG - Note ON: Ch 3 MIDI 67 Velocity 109
2024-12-08 01:27:25,896 - DEBUG - Note ON: Ch 9 MIDI 66 Velocity 70
2024-12-08 01:27:26,034 - DEBUG - Note OFF: Ch 9 MIDI 107
2024-12-08 01:27:26,034 - DEBUG - Note OFF: Ch 9 MIDI 59
2024-12-08 01:27:26,045 - DEBUG - Note OFF: Ch 9 MIDI 66
2024-12-08 01:27:26,129 - DEBUG - Note OFF: Ch 3 MIDI 67
2024-12-08 01:27:26,275 - DEBUG - Note ON: Ch 1 MIDI 81 Velocity 98
2024-12-08 01:27:26,275 - DEBUG - Note ON: Ch 3 MIDI 69 Velocity 105
2024-12-08 01:27:26,275 - DEBUG - Note ON: Ch 0 MIDI 87 Velocity 100
2024-12-08 01:27:26,288 - DEBUG - Note ON: Ch 1 MIDI 77 Velocity 83
2024-12-08 01:27:26,288 - DEBUG - Note ON: Ch 9 MIDI 107 Velocity 56
2024-12-08 01:27:26,300 - DEBUG - Note ON: Ch 0 MIDI 84 Velocity 88
2024-12-08 01:27:26,300 - DEBUG - Note ON: Ch 9 MIDI 66 Velocity 80
2024-12-08 01:27:26,312 - DEBUG - Note ON: Ch 9 MIDI 62 Velocity 90
2024-12-08 01:27:26,445 - DEBUG - Note OFF: Ch 9 MIDI 107
2024-12-08 01:27:26,445 - DEBUG - Note OFF: Ch 3 MIDI 69
2024-12-08 01:27:26,458 - DEBUG - Note OFF: Ch 9 MIDI 66
2024-12-08 01:27:26,471 - DEBUG - Note OFF: Ch 9 MIDI 62
2024-12-08 01:27:26,471 - DEBUG - Note OFF: Ch 1 MIDI 81
2024-12-08 01:27:26,507 - DEBUG - Note OFF: Ch 0 MIDI 93
2024-12-08 01:27:26,507 - DEBUG - Note ON: Ch 9 MIDI 66 Velocity 90
2024-12-08 01:27:26,520 - DEBUG - Note OFF: Ch 0 MIDI 96
2024-12-08 01:27:26,591 - DEBUG - Note OFF: Ch 0 MIDI 84
2024-12-08 01:27:26,603 - DEBUG - Note OFF: Ch 1 MIDI 77
2024-12-08 01:27:26,627 - DEBUG - Note OFF: Ch 0 MIDI 87
2024-12-08 01:27:26,663 - DEBUG - Note OFF: Ch 9 MIDI 66
2024-12-08 01:27:26,676 - DEBUG - Note ON: Ch 1 MIDI 77 Velocity 50
2024-12-08 01:27:26,689 - DEBUG - Note ON: Ch 1 MIDI 82 Velocity 99
2024-12-08 01:27:26,702 - DEBUG - Note ON: Ch 0 MIDI 86 Velocity 93
2024-12-08 01:27:26,702 - DEBUG - Note ON: Ch 3 MIDI 70 Velocity 123
2024-12-08 01:27:26,702 - DEBUG - Note ON: Ch 9 MIDI 107 Velocity 52
2024-12-08 01:27:26,702 - DEBUG - Note ON: Ch 9 MIDI 59 Velocity 100
2024-12-08 01:27:26,714 - DEBUG - Note ON: Ch 0 MIDI 86 Velocity 125
2024-12-08 01:27:26,714 - DEBUG - Note ON: Ch 0 MIDI 94 Velocity 127
2024-12-08 01:27:26,714 - DEBUG - Note ON: Ch 9 MIDI 66 Velocity 70
2024-12-08 01:27:26,799 - DEBUG - Note OFF: Ch 1 MIDI 82
2024-12-08 01:27:26,799 - DEBUG - Note OFF: Ch 1 MIDI 77
2024-12-08 01:27:26,824 - DEBUG - Note OFF: Ch 0 MIDI 86
2024-12-08 01:27:26,850 - DEBUG - Note OFF: Ch 9 MIDI 107
2024-12-08 01:27:26,868 - DEBUG - Note OFF: Ch 9 MIDI 59
2024-12-08 01:27:26,868 - DEBUG - Note OFF: Ch 9 MIDI 66
2024-12-08 01:27:26,954 - DEBUG - Note OFF: Ch 0 MIDI 94
2024-12-08 01:27:26,966 - DEBUG - Note OFF: Ch 0 MIDI 86
2024-12-08 01:27:27,103 - DEBUG - Note ON: Ch 0 MIDI 86 Velocity 109
2024-12-08 01:27:27,104 - DEBUG - Note ON: Ch 1 MIDI 82 Velocity 121
2024-12-08 01:27:27,117 - DEBUG - Note ON: Ch 1 MIDI 77 Velocity 93
2024-12-08 01:27:27,117 - DEBUG - Note ON: Ch 9 MIDI 107 Velocity 58
2024-12-08 01:27:27,117 - DEBUG - Note ON: Ch 0 MIDI 94 Velocity 127
2024-12-08 01:27:27,117 - DEBUG - Note ON: Ch 0 MIDI 86 Velocity 110
2024-12-08 01:27:27,131 - DEBUG - Note ON: Ch 9 MIDI 66 Velocity 80
2024-12-08 01:27:27,143 - DEBUG - Note ON: Ch 9 MIDI 62 Velocity 90
2024-12-08 01:27:27,144 - DEBUG - Note OFF: Ch 3 MIDI 70
2024-12-08 01:27:27,263 - DEBUG - Note OFF: Ch 9 MIDI 107
2024-12-08 01:27:27,288 - DEBUG - Note OFF: Ch 9 MIDI 66
2024-12-08 01:27:27,288 - DEBUG - Note OFF: Ch 1 MIDI 82
2024-12-08 01:27:27,288 - DEBUG - Note OFF: Ch 9 MIDI 62
2024-12-08 01:27:27,299 - DEBUG - Note OFF: Ch 1 MIDI 77
2024-12-08 01:27:27,324 - DEBUG - Note OFF: Ch 0 MIDI 86
2024-12-08 01:27:27,337 - DEBUG - Note OFF: Ch 0 MIDI 94
2024-12-08 01:27:27,337 - DEBUG - Note OFF: Ch 0 MIDI 86
2024-12-08 01:27:27,520 - DEBUG - Note ON: Ch 3 MIDI 70 Velocity 123
2024-12-08 01:27:27,520 - DEBUG - Note ON: Ch 9 MIDI 107 Velocity 57
2024-12-08 01:27:27,533 - DEBUG - Note ON: Ch 9 MIDI 59 Velocity 100
2024-12-08 01:27:27,545 - DEBUG - Note ON: Ch 0 MIDI 94 Velocity 127
2024-12-08 01:27:27,545 - DEBUG - Note ON: Ch 9 MIDI 66 Velocity 70
2024-12-08 01:27:27,545 - DEBUG - Note ON: Ch 0 MIDI 86 Velocity 115
2024-12-08 01:27:27,675 - DEBUG - Note OFF: Ch 9 MIDI 107
2024-12-08 01:27:27,687 - DEBUG - Note OFF: Ch 9 MIDI 59
2024-12-08 01:27:27,700 - DEBUG - Note OFF: Ch 9 MIDI 66
2024-12-08 01:27:27,915 - DEBUG - Note ON: Ch 1 MIDI 82 Velocity 119
2024-12-08 01:27:27,926 - DEBUG - Note ON: Ch 0 MIDI 86 Velocity 109
2024-12-08 01:27:27,939 - DEBUG - Note ON: Ch 1 MIDI 77 Velocity 98
2024-12-08 01:27:27,939 - DEBUG - Note ON: Ch 9 MIDI 107 Velocity 56
2024-12-08 01:27:27,951 - DEBUG - Note ON: Ch 9 MIDI 66 Velocity 80
2024-12-08 01:27:27,963 - DEBUG - Note ON: Ch 9 MIDI 62 Velocity 90
2024-12-08 01:27:28,049 - DEBUG - Note OFF: Ch 0 MIDI 94
2024-12-08 01:27:28,049 - DEBUG - Note OFF: Ch 0 MIDI 86
2024-12-08 01:27:28,063 - DEBUG - Note OFF: Ch 3 MIDI 70
2024-12-08 01:27:28,087 - DEBUG - Note OFF: Ch 9 MIDI 107
2024-12-08 01:27:28,111 - DEBUG - Note OFF: Ch 1 MIDI 77
2024-12-08 01:27:28,111 - DEBUG - Note OFF: Ch 9 MIDI 66
2024-12-08 01:27:28,112 - DEBUG - Note OFF: Ch 9 MIDI 62
2024-12-08 01:27:28,135 - DEBUG - Note OFF: Ch 1 MIDI 82
2024-12-08 01:27:28,158 - DEBUG - Note OFF: Ch 0 MIDI 86
2024-12-08 01:27:28,158 - DEBUG - Note ON: Ch 9 MIDI 66 Velocity 90
2024-12-08 01:27:28,171 - DEBUG - Note ON: Ch 0 MIDI 86 Velocity 106
2024-12-08 01:27:28,171 - DEBUG - Note ON: Ch 0 MIDI 94 Velocity 127
2024-12-08 01:27:28,267 - DEBUG - Note OFF: Ch 0 MIDI 86
2024-12-08 01:27:28,267 - DEBUG - Note OFF: Ch 0 MIDI 94
2024-12-08 01:27:28,316 - DEBUG - Note OFF: Ch 9 MIDI 66
2024-12-08 01:27:28,341 - DEBUG - Note ON: Ch 0 MIDI 94 Velocity 127
2024-12-08 01:27:28,359 - DEBUG - Note ON: Ch 0 MIDI 86 Velocity 115
2024-12-08 01:27:28,359 - DEBUG - Note ON: Ch 9 MIDI 107 Velocity 62
2024-12-08 01:27:28,359 - DEBUG - Note ON: Ch 9 MIDI 59 Velocity 100
2024-12-08 01:27:28,359 - DEBUG - Note ON: Ch 9 MIDI 66 Velocity 70
2024-12-08 01:27:28,372 - DEBUG - Note ON: Ch 3 MIDI 65 Velocity 103
2024-12-08 01:27:28,508 - DEBUG - Note OFF: Ch 9 MIDI 107
2024-12-08 01:27:28,508 - DEBUG - Note OFF: Ch 9 MIDI 59
2024-12-08 01:27:28,520 - DEBUG - Note OFF: Ch 9 MIDI 66
2024-12-08 01:27:28,568 - DEBUG - Note OFF: Ch 0 MIDI 86
2024-12-08 01:27:28,582 - DEBUG - Note OFF: Ch 0 MIDI 94
2024-12-08 01:27:28,746 - DEBUG - Note ON: Ch 0 MIDI 84 Velocity 104
2024-12-08 01:27:28,759 - DEBUG - Note ON: Ch 1 MIDI 81 Velocity 110
2024-12-08 01:27:28,759 - DEBUG - Note ON: Ch 1 MIDI 77 Velocity 103
2024-12-08 01:27:28,759 - DEBUG - Note ON: Ch 9 MIDI 107 Velocity 53
2024-12-08 01:27:28,773 - DEBUG - Note ON: Ch 0 MIDI 93 Velocity 125
2024-12-08 01:27:28,773 - DEBUG - Note ON: Ch 0 MIDI 84 Velocity 116
2024-12-08 01:27:28,773 - DEBUG - Note OFF: Ch 3 MIDI 65
2024-12-08 01:27:28,773 - DEBUG - Note ON: Ch 9 MIDI 66 Velocity 80
2024-12-08 01:27:28,787 - DEBUG - Note ON: Ch 9 MIDI 62 Velocity 90
2024-12-08 01:27:28,920 - DEBUG - Note OFF: Ch 9 MIDI 107
2024-12-08 01:27:28,920 - DEBUG - Note OFF: Ch 0 MIDI 93
2024-12-08 01:27:28,934 - DEBUG - Note OFF: Ch 9 MIDI 66
2024-12-08 01:27:28,934 - DEBUG - Note OFF: Ch 9 MIDI 62
2024-12-08 01:27:28,947 - DEBUG - Note OFF: Ch 0 MIDI 84
2024-12-08 01:27:28,947 - DEBUG - Note OFF: Ch 0 MIDI 84
2024-12-08 01:27:28,947 - DEBUG - Note OFF: Ch 1 MIDI 81
2024-12-08 01:27:28,947 - DEBUG - Note OFF: Ch 1 MIDI 77
2024-12-08 01:27:29,167 - DEBUG - Note ON: Ch 3 MIDI 62 Velocity 109
2024-12-08 01:27:29,167 - DEBUG - Note ON: Ch 9 MIDI 107 Velocity 58
2024-12-08 01:27:29,180 - DEBUG - Note ON: Ch 9 MIDI 59 Velocity 100
2024-12-08 01:27:29,193 - DEBUG - Note ON: Ch 9 MIDI 66 Velocity 70
2024-12-08 01:27:29,194 - DEBUG - Note ON: Ch 0 MIDI 93 Velocity 127
2024-12-08 01:27:29,194 - DEBUG - Note ON: Ch 0 MIDI 84 Velocity 125
2024-12-08 01:27:29,331 - DEBUG - Note OFF: Ch 9 MIDI 107
2024-12-08 01:27:29,331 - DEBUG - Note OFF: Ch 9 MIDI 59
2024-12-08 01:27:29,344 - DEBUG - Note OFF: Ch 9 MIDI 66
2024-12-08 01:27:29,504 - DEBUG - Note OFF: Ch 0 MIDI 84
2024-12-08 01:27:29,528 - DEBUG - Note OFF: Ch 0 MIDI 93
2024-12-08 01:27:29,589 - DEBUG - Note ON: Ch 9 MIDI 107 Velocity 55
2024-12-08 01:27:29,589 - DEBUG - Note ON: Ch 0 MIDI 93 Velocity 119
2024-12-08 01:27:29,600 - DEBUG - Note ON: Ch 9 MIDI 66 Velocity 80
2024-12-08 01:27:29,613 - DEBUG - Note ON: Ch 0 MIDI 84 Velocity 98
2024-12-08 01:27:29,614 - DEBUG - Note ON: Ch 1 MIDI 77 Velocity 95
2024-12-08 01:27:29,614 - DEBUG - Note ON: Ch 9 MIDI 62 Velocity 90
2024-12-08 01:27:29,614 - DEBUG - Note ON: Ch 0 MIDI 86 Velocity 106
2024-12-08 01:27:29,614 - DEBUG - Note ON: Ch 1 MIDI 81 Velocity 110
2024-12-08 01:27:29,711 - DEBUG - Note OFF: Ch 3 MIDI 62
2024-12-08 01:27:29,723 - DEBUG - Note OFF: Ch 0 MIDI 93
2024-12-08 01:27:29,737 - DEBUG - Note OFF: Ch 0 MIDI 84
2024-12-08 01:27:29,737 - DEBUG - Note OFF: Ch 9 MIDI 107
2024-12-08 01:27:29,760 - DEBUG - Note OFF: Ch 9 MIDI 66
2024-12-08 01:27:29,760 - DEBUG - Note OFF: Ch 9 MIDI 62
2024-12-08 01:27:29,811 - DEBUG - Note ON: Ch 0 MIDI 84 Velocity 72
2024-12-08 01:27:29,811 - DEBUG - Note ON: Ch 0 MIDI 93 Velocity 115
2024-12-08 01:27:29,811 - DEBUG - Note OFF: Ch 1 MIDI 81
2024-12-08 01:27:29,811 - DEBUG - Note ON: Ch 9 MIDI 66 Velocity 90
2024-12-08 01:27:29,812 - DEBUG - Note OFF: Ch 1 MIDI 77
2024-12-08 01:27:29,823 - DEBUG - Note OFF: Ch 0 MIDI 86
2024-12-08 01:27:29,896 - DEBUG - Note OFF: Ch 0 MIDI 84
2024-12-08 01:27:29,933 - DEBUG - Note OFF: Ch 0 MIDI 93
2024-12-08 01:27:29,958 - DEBUG - Note OFF: Ch 9 MIDI 66
2024-12-08 01:27:29,995 - DEBUG - Note ON: Ch 9 MIDI 107 Velocity 57
2024-12-08 01:27:30,007 - DEBUG - Note ON: Ch 0 MIDI 96 Velocity 119
2024-12-08 01:27:30,008 - DEBUG - Note ON: Ch 9 MIDI 59 Velocity 100
2024-12-08 01:27:30,008 - DEBUG - Note ON: Ch 9 MIDI 66 Velocity 70
2024-12-08 01:27:30,020 - DEBUG - Note ON: Ch 3 MIDI 67 Velocity 109
2024-12-08 01:27:30,033 - DEBUG - Note ON: Ch 0 MIDI 88 Velocity 118
2024-12-08 01:27:30,145 - DEBUG - Note OFF: Ch 0 MIDI 88
2024-12-08 01:27:30,145 - DEBUG - Note OFF: Ch 9 MIDI 107
2024-12-08 01:27:30,158 - DEBUG - Note OFF: Ch 9 MIDI 59
2024-12-08 01:27:30,171 - DEBUG - Note OFF: Ch 9 MIDI 66
2024-12-08 01:27:30,233 - DEBUG - Note OFF: Ch 0 MIDI 96
2024-12-08 01:27:30,403 - DEBUG - Note ON: Ch 9 MIDI 107 Velocity 54
2024-12-08 01:27:30,415 - DEBUG - Note ON: Ch 1 MIDI 82 Velocity 119
2024-12-08 01:27:30,427 - DEBUG - Note ON: Ch 1 MIDI 77 Velocity 95
2024-12-08 01:27:30,427 - DEBUG - Note ON: Ch 9 MIDI 66 Velocity 80
2024-12-08 01:27:30,442 - DEBUG - Note ON: Ch 0 MIDI 86 Velocity 103
2024-12-08 01:27:30,442 - DEBUG - Note OFF: Ch 3 MIDI 67
2024-12-08 01:27:30,442 - DEBUG - Note ON: Ch 9 MIDI 62 Velocity 90
2024-12-08 01:27:30,454 - DEBUG - Note ON: Ch 0 MIDI 96 Velocity 127
2024-12-08 01:27:30,454 - DEBUG - Note ON: Ch 0 MIDI 88 Velocity 127
2024-12-08 01:27:30,557 - DEBUG - Note OFF: Ch 9 MIDI 107
2024-12-08 01:27:30,583 - DEBUG - Note OFF: Ch 9 MIDI 66
2024-12-08 01:27:30,584 - DEBUG - Note OFF: Ch 1 MIDI 77
2024-12-08 01:27:30,584 - DEBUG - Note OFF: Ch 9 MIDI 62
2024-12-08 01:27:30,620 - DEBUG - Note OFF: Ch 1 MIDI 82
2024-12-08 01:27:30,620 - DEBUG - Note OFF: Ch 0 MIDI 86
2024-12-08 01:27:30,645 - DEBUG - Note OFF: Ch 0 MIDI 88
2024-12-08 01:27:30,683 - DEBUG - Note OFF: Ch 0 MIDI 96
2024-12-08 01:27:30,815 - DEBUG - Note ON: Ch 9 MIDI 107 Velocity 58
2024-12-08 01:27:30,826 - DEBUG - Note ON: Ch 3 MIDI 60 Velocity 113
2024-12-08 01:27:30,826 - DEBUG - Note ON: Ch 9 MIDI 59 Velocity 100
2024-12-08 01:27:30,838 - DEBUG - Note ON: Ch 9 MIDI 66 Velocity 70
2024-12-08 01:27:30,851 - DEBUG - Note ON: Ch 0 MIDI 94 Velocity 127
2024-12-08 01:27:30,864 - DEBUG - Note ON: Ch 0 MIDI 86 Velocity 125
2024-12-08 01:27:30,971 - DEBUG - Note OFF: Ch 9 MIDI 107
2024-12-08 01:27:30,983 - DEBUG - Note OFF: Ch 9 MIDI 59
2024-12-08 01:27:30,995 - DEBUG - Note OFF: Ch 0 MIDI 94
2024-12-08 01:27:30,995 - DEBUG - Note OFF: Ch 9 MIDI 66
2024-12-08 01:27:31,007 - DEBUG - Note OFF: Ch 0 MIDI 86
2024-12-08 01:27:31,204 - DEBUG - Note OFF: Ch 3 MIDI 60
2024-12-08 01:27:31,228 - DEBUG - Note ON: Ch 0 MIDI 84 Velocity 108
2024-12-08 01:27:31,228 - DEBUG - Note ON: Ch 1 MIDI 79 Velocity 94
2024-12-08 01:27:31,229 - DEBUG - Note ON: Ch 9 MIDI 107 Velocity 59
2024-12-08 01:27:31,240 - DEBUG - Note ON: Ch 0 MIDI 88 Velocity 109
2024-12-08 01:27:31,240 - DEBUG - Note ON: Ch 0 MIDI 91 Velocity 122
2024-12-08 01:27:31,254 - DEBUG - Note ON: Ch 1 MIDI 82 Velocity 127
2024-12-08 01:27:31,254 - DEBUG - Note ON: Ch 9 MIDI 66 Velocity 80
2024-12-08 01:27:31,254 - DEBUG - Note ON: Ch 9 MIDI 62 Velocity 90
2024-12-08 01:27:31,373 - DEBUG - Note OFF: Ch 0 MIDI 91
2024-12-08 01:27:31,373 - DEBUG - Note OFF: Ch 1 MIDI 82
2024-12-08 01:27:31,387 - DEBUG - Note OFF: Ch 9 MIDI 107
2024-12-08 01:27:31,399 - DEBUG - Note OFF: Ch 9 MIDI 66
2024-12-08 01:27:31,412 - DEBUG - Note OFF: Ch 9 MIDI 62
2024-12-08 01:27:31,423 - DEBUG - Note OFF: Ch 1 MIDI 79
2024-12-08 01:27:31,445 - DEBUG - Note OFF: Ch 0 MIDI 84
2024-12-08 01:27:31,456 - DEBUG - Note OFF: Ch 0 MIDI 88
2024-12-08 01:27:31,457 - DEBUG - Note ON: Ch 9 MIDI 66 Velocity 90
2024-12-08 01:27:31,611 - DEBUG - Note OFF: Ch 9 MIDI 66
2024-12-08 01:27:31,623 - DEBUG - Note ON: Ch 3 MIDI 65 Velocity 106
2024-12-08 01:27:31,637 - DEBUG - Note ON: Ch 0 MIDI 89 Velocity 109
2024-12-08 01:27:31,649 - DEBUG - Note ON: Ch 0 MIDI 84 Velocity 98
2024-12-08 01:27:31,649 - DEBUG - Note ON: Ch 9 MIDI 107 Velocity 57
2024-12-08 01:27:31,649 - DEBUG - Note ON: Ch 1 MIDI 81 Velocity 98
2024-12-08 01:27:31,649 - DEBUG - Note ON: Ch 9 MIDI 59 Velocity 100
2024-12-08 01:27:31,661 - DEBUG - Note ON: Ch 0 MIDI 89 Velocity 127
2024-12-08 01:27:31,662 - DEBUG - Note ON: Ch 1 MIDI 81 Velocity 125
2024-12-08 01:27:31,662 - DEBUG - Note ON: Ch 9 MIDI 66 Velocity 70
2024-12-08 01:27:31,798 - DEBUG - Note OFF: Ch 9 MIDI 107
2024-12-08 01:27:31,811 - DEBUG - Note OFF: Ch 9 MIDI 59
2024-12-08 01:27:31,811 - DEBUG - Note OFF: Ch 9 MIDI 66
2024-12-08 01:27:31,951 - DEBUG - Note OFF: Ch 0 MIDI 84
2024-12-08 01:27:31,951 - DEBUG - Note OFF: Ch 0 MIDI 89
2024-12-08 01:27:31,951 - DEBUG - Note OFF: Ch 1 MIDI 81
2024-12-08 01:27:32,059 - DEBUG - Note ON: Ch 9 MIDI 107 Velocity 56
2024-12-08 01:27:32,071 - DEBUG - Note ON: Ch 9 MIDI 66 Velocity 80
2024-12-08 01:27:32,084 - DEBUG - Note ON: Ch 9 MIDI 62 Velocity 90
2024-12-08 01:27:32,085 - DEBUG - Note ON: Ch 9 MIDI 72 Velocity 85
2024-12-08 01:27:32,120 - DEBUG - Note OFF: Ch 3 MIDI 65
2024-12-08 01:27:32,201 - DEBUG - Note ON: Ch 9 MIDI 72 Velocity 75
2024-12-08 01:27:32,213 - DEBUG - Note OFF: Ch 9 MIDI 107
2024-12-08 01:27:32,225 - DEBUG - Note OFF: Ch 9 MIDI 66
2024-12-08 01:27:32,237 - DEBUG - Note OFF: Ch 9 MIDI 62
2024-12-08 01:27:32,249 - DEBUG - Note OFF: Ch 9 MIDI 72
2024-12-08 01:27:32,312 - DEBUG - Note ON: Ch 9 MIDI 72 Velocity 74
2024-12-08 01:27:32,351 - DEBUG - Note OFF: Ch 9 MIDI 72
2024-12-08 01:27:32,426 - DEBUG - Note ON: Ch 9 MIDI 72 Velocity 95
2024-12-08 01:27:32,448 - DEBUG - Note OFF: Ch 0 MIDI 89
2024-12-08 01:27:32,460 - DEBUG - Note OFF: Ch 1 MIDI 81
2024-12-08 01:27:32,473 - DEBUG - Note ON: Ch 0 MIDI 84 Velocity 106
2024-12-08 01:27:32,473 - DEBUG - Note ON: Ch 3 MIDI 60 Velocity 117
2024-12-08 01:27:32,474 - DEBUG - Note OFF: Ch 9 MIDI 72
2024-12-08 01:27:32,474 - DEBUG - Note ON: Ch 9 MIDI 107 Velocity 53
2024-12-08 01:27:32,474 - DEBUG - Note ON: Ch 1 MIDI 82 Velocity 116
2024-12-08 01:27:32,474 - DEBUG - Note ON: Ch 9 MIDI 59 Velocity 100
2024-12-08 01:27:32,487 - DEBUG - Note ON: Ch 1 MIDI 76 Velocity 105
2024-12-08 01:27:32,487 - DEBUG - Note ON: Ch 9 MIDI 66 Velocity 70
2024-12-08 01:27:32,583 - DEBUG - Note OFF: Ch 9 MIDI 72
2024-12-08 01:27:32,618 - DEBUG - Note OFF: Ch 9 MIDI 107
2024-12-08 01:27:32,631 - DEBUG - Note OFF: Ch 9 MIDI 59
2024-12-08 01:27:32,643 - DEBUG - Note OFF: Ch 9 MIDI 66
2024-12-08 01:27:32,866 - DEBUG - Note OFF: Ch 3 MIDI 60
2024-12-08 01:27:32,879 - DEBUG - Note ON: Ch 9 MIDI 107 Velocity 42
2024-12-08 01:27:32,903 - DEBUG - Note ON: Ch 9 MIDI 66 Velocity 80
2024-12-08 01:27:32,904 - DEBUG - Note ON: Ch 9 MIDI 62 Velocity 90
2024-12-08 01:27:32,904 - DEBUG - Note ON: Ch 9 MIDI 69 Velocity 107
2024-12-08 01:27:32,917 - DEBUG - Note ON: Ch 0 MIDI 84 Velocity 127
2024-12-08 01:27:33,039 - DEBUG - Note OFF: Ch 9 MIDI 107
2024-12-08 01:27:33,052 - DEBUG - Note OFF: Ch 9 MIDI 66
2024-12-08 01:27:33,066 - DEBUG - Note OFF: Ch 9 MIDI 62
2024-12-08 01:27:33,066 - DEBUG - Note OFF: Ch 9 MIDI 69
2024-12-08 01:27:33,105 - DEBUG - Note ON: Ch 9 MIDI 66 Velocity 90
2024-12-08 01:27:33,171 - DEBUG - Note OFF: Ch 1 MIDI 76
2024-12-08 01:27:33,187 - DEBUG - Note OFF: Ch 1 MIDI 82
2024-12-08 01:27:33,235 - DEBUG - Note OFF: Ch 0 MIDI 84
2024-12-08 01:27:33,260 - DEBUG - Note OFF: Ch 9 MIDI 66
2024-12-08 01:27:33,298 - DEBUG - Note ON: Ch 1 MIDI 81 Velocity 86
2024-12-08 01:27:33,298 - DEBUG - Note ON: Ch 9 MIDI 59 Velocity 100
2024-12-08 01:27:33,311 - DEBUG - Note ON: Ch 2 MIDI 96 Velocity 95
2024-12-08 01:27:33,311 - DEBUG - Note ON: Ch 2 MIDI 89 Velocity 100
2024-12-08 01:27:33,311 - DEBUG - Note ON: Ch 9 MIDI 73 Velocity 73
2024-12-08 01:27:33,311 - DEBUG - Note ON: Ch 9 MIDI 66 Velocity 70
2024-12-08 01:27:33,323 - DEBUG - Note ON: Ch 1 MIDI 77 Velocity 72
2024-12-08 01:27:33,324 - DEBUG - Note ON: Ch 3 MIDI 65 Velocity 100
2024-12-08 01:27:33,348 - DEBUG - Note ON: Ch 0 MIDI 84 Velocity 127
2024-12-08 01:27:33,397 - DEBUG - Note OFF: Ch 1 MIDI 81
2024-12-08 01:27:33,397 - DEBUG - Note OFF: Ch 1 MIDI 77
2024-12-08 01:27:33,409 - DEBUG - Note OFF: Ch 0 MIDI 84
2024-12-08 01:27:33,457 - DEBUG - Note OFF: Ch 2 MIDI 89
2024-12-08 01:27:33,457 - DEBUG - Note OFF: Ch 9 MIDI 59
2024-12-08 01:27:33,468 - DEBUG - Note OFF: Ch 9 MIDI 73
2024-12-08 01:27:33,469 - DEBUG - Note OFF: Ch 9 MIDI 66
2024-12-08 01:27:33,520 - DEBUG - Note ON: Ch 2 MIDI 91 Velocity 87
2024-12-08 01:27:33,631 - DEBUG - Note OFF: Ch 3 MIDI 65
2024-12-08 01:27:33,656 - DEBUG - Note OFF: Ch 2 MIDI 91
2024-12-08 01:27:33,679 - DEBUG - Note OFF: Ch 0 MIDI 84
2024-12-08 01:27:33,703 - DEBUG - Note ON: Ch 0 MIDI 84 Velocity 85
2024-12-08 01:27:33,703 - DEBUG - Note ON: Ch 1 MIDI 81 Velocity 90
2024-12-08 01:27:33,716 - DEBUG - Note ON: Ch 1 MIDI 77 Velocity 81
2024-12-08 01:27:33,716 - DEBUG - Note ON: Ch 2 MIDI 93 Velocity 87
2024-12-08 01:27:33,716 - DEBUG - Note ON: Ch 9 MIDI 66 Velocity 80
2024-12-08 01:27:33,729 - DEBUG - Note ON: Ch 9 MIDI 62 Velocity 90
2024-12-08 01:27:33,753 - DEBUG - Note ON: Ch 0 MIDI 93 Velocity 127
2024-12-08 01:27:33,876 - DEBUG - Note OFF: Ch 1 MIDI 81
2024-12-08 01:27:33,876 - DEBUG - Note OFF: Ch 2 MIDI 93
2024-12-08 01:27:33,876 - DEBUG - Note OFF: Ch 9 MIDI 66
2024-12-08 01:27:33,889 - DEBUG - Note OFF: Ch 9 MIDI 62
2024-12-08 01:27:33,900 - DEBUG - Note OFF: Ch 0 MIDI 84
2024-12-08 01:27:33,900 - DEBUG - Note OFF: Ch 1 MIDI 77
2024-12-08 01:27:33,914 - DEBUG - Note ON: Ch 2 MIDI 84 Velocity 94
2024-12-08 01:27:33,925 - DEBUG - Note OFF: Ch 2 MIDI 96
2024-12-08 01:27:34,017 - DEBUG - Note OFF: Ch 0 MIDI 93
2024-12-08 01:27:34,094 - DEBUG - Note OFF: Ch 2 MIDI 84
2024-12-08 01:27:34,131 - DEBUG - Note ON: Ch 2 MIDI 89 Velocity 95
2024-12-08 01:27:34,131 - DEBUG - Note ON: Ch 9 MIDI 59 Velocity 100
2024-12-08 01:27:34,131 - DEBUG - Note ON: Ch 9 MIDI 66 Velocity 70
2024-12-08 01:27:34,143 - DEBUG - Note ON: Ch 0 MIDI 91 Velocity 127
2024-12-08 01:27:34,156 - DEBUG - Note ON: Ch 3 MIDI 60 Velocity 105
2024-12-08 01:27:34,279 - DEBUG - Note OFF: Ch 9 MIDI 59
2024-12-08 01:27:34,291 - DEBUG - Note OFF: Ch 9 MIDI 66
2024-12-08 01:27:34,316 - DEBUG - Note OFF: Ch 2 MIDI 89
2024-12-08 01:27:34,340 - DEBUG - Note ON: Ch 2 MIDI 94 Velocity 89
2024-12-08 01:27:34,392 - DEBUG - Note OFF: Ch 0 MIDI 91
2024-12-08 01:27:34,515 - DEBUG - Note ON: Ch 0 MIDI 84 Velocity 74
2024-12-08 01:27:34,515 - DEBUG - Note OFF: Ch 2 MIDI 94
2024-12-08 01:27:34,515 - DEBUG - Note OFF: Ch 3 MIDI 60
2024-12-08 01:27:34,539 - DEBUG - Note ON: Ch 0 MIDI 89 Velocity 127
2024-12-08 01:27:34,539 - DEBUG - Note ON: Ch 1 MIDI 81 Velocity 100
2024-12-08 01:27:34,539 - DEBUG - Note ON: Ch 1 MIDI 77 Velocity 97
2024-12-08 01:27:34,539 - DEBUG - Note ON: Ch 2 MIDI 93 Velocity 86
2024-12-08 01:27:34,551 - DEBUG - Note ON: Ch 9 MIDI 66 Velocity 80
2024-12-08 01:27:34,551 - DEBUG - Note ON: Ch 9 MIDI 62 Velocity 90
2024-12-08 01:27:34,691 - DEBUG - Note OFF: Ch 1 MIDI 81
2024-12-08 01:27:34,704 - DEBUG - Note OFF: Ch 1 MIDI 77
2024-12-08 01:27:34,704 - DEBUG - Note OFF: Ch 2 MIDI 93
2024-12-08 01:27:34,704 - DEBUG - Note OFF: Ch 9 MIDI 66
2024-12-08 01:27:34,704 - DEBUG - Note OFF: Ch 9 MIDI 62
2024-12-08 01:27:34,716 - DEBUG - Note OFF: Ch 0 MIDI 84
2024-12-08 01:27:34,716 - DEBUG - Note OFF: Ch 0 MIDI 89
2024-12-08 01:27:34,741 - DEBUG - Note ON: Ch 2 MIDI 91 Velocity 89
2024-12-08 01:27:34,754 - DEBUG - Note ON: Ch 9 MIDI 66 Velocity 90
2024-12-08 01:27:34,901 - DEBUG - Note OFF: Ch 9 MIDI 66
2024-12-08 01:27:34,951 - DEBUG - Note OFF: Ch 2 MIDI 91
2024-12-08 01:27:34,952 - DEBUG - Note ON: Ch 2 MIDI 89 Velocity 90
2024-12-08 01:27:34,952 - DEBUG - Note ON: Ch 9 MIDI 59 Velocity 100
2024-12-08 01:27:34,952 - DEBUG - Note ON: Ch 0 MIDI 84 Velocity 127
2024-12-08 01:27:34,952 - DEBUG - Note ON: Ch 9 MIDI 66 Velocity 70
2024-12-08 01:27:34,965 - DEBUG - Note ON: Ch 3 MIDI 65 Velocity 100
2024-12-08 01:27:35,104 - DEBUG - Note OFF: Ch 9 MIDI 59
2024-12-08 01:27:35,117 - DEBUG - Note OFF: Ch 9 MIDI 66
2024-12-08 01:27:35,117 - DEBUG - Note OFF: Ch 2 MIDI 89
2024-12-08 01:27:35,156 - DEBUG - Note ON: Ch 2 MIDI 84 Velocity 89
2024-12-08 01:27:35,311 - DEBUG - Note OFF: Ch 2 MIDI 84
2024-12-08 01:27:35,359 - DEBUG - Note ON: Ch 0 MIDI 84 Velocity 86
2024-12-08 01:27:35,359 - DEBUG - Note ON: Ch 1 MIDI 81 Velocity 97
2024-12-08 01:27:35,371 - DEBUG - Note ON: Ch 1 MIDI 77 Velocity 96
2024-12-08 01:27:35,371 - DEBUG - Note ON: Ch 2 MIDI 89 Velocity 86
2024-12-08 01:27:35,371 - DEBUG - Note ON: Ch 9 MIDI 66 Velocity 80
2024-12-08 01:27:35,383 - DEBUG - Note ON: Ch 9 MIDI 62 Velocity 90
2024-12-08 01:27:35,433 - DEBUG - Note OFF: Ch 3 MIDI 65
2024-12-08 01:27:35,508 - DEBUG - Note OFF: Ch 1 MIDI 81
2024-12-08 01:27:35,520 - DEBUG - Note OFF: Ch 9 MIDI 66
2024-12-08 01:27:35,533 - DEBUG - Note OFF: Ch 9 MIDI 62
2024-12-08 01:27:35,546 - DEBUG - Note OFF: Ch 0 MIDI 84
2024-12-08 01:27:35,546 - DEBUG - Note OFF: Ch 2 MIDI 89
2024-12-08 01:27:35,571 - DEBUG - Note ON: Ch 2 MIDI 91 Velocity 81
2024-12-08 01:27:35,595 - DEBUG - Note ON: Ch 0 MIDI 84 Velocity 65
2024-12-08 01:27:35,607 - DEBUG - Note ON: Ch 1 MIDI 81 Velocity 86
2024-12-08 01:27:35,719 - DEBUG - Note OFF: Ch 1 MIDI 81
2024-12-08 01:27:35,745 - DEBUG - Note OFF: Ch 1 MIDI 77
2024-12-08 01:27:35,745 - DEBUG - Note OFF: Ch 2 MIDI 91
2024-12-08 01:27:35,756 - DEBUG - Note OFF: Ch 0 MIDI 84
2024-12-08 01:27:35,769 - DEBUG - Note ON: Ch 9 MIDI 59 Velocity 100
2024-12-08 01:27:35,781 - DEBUG - Note ON: Ch 2 MIDI 93 Velocity 91
2024-12-08 01:27:35,781 - DEBUG - Note ON: Ch 9 MIDI 66 Velocity 70
2024-12-08 01:27:35,804 - DEBUG - Note ON: Ch 3 MIDI 60 Velocity 103
2024-12-08 01:27:35,927 - DEBUG - Note OFF: Ch 9 MIDI 59
2024-12-08 01:27:35,940 - DEBUG - Note OFF: Ch 9 MIDI 66
2024-12-08 01:27:35,976 - DEBUG - Note OFF: Ch 0 MIDI 84
2024-12-08 01:27:35,988 - DEBUG - Note ON: Ch 2 MIDI 91 Velocity 88
2024-12-08 01:27:36,026 - DEBUG - Note OFF: Ch 2 MIDI 93
2024-12-08 01:27:36,185 - DEBUG - Note ON: Ch 0 MIDI 84 Velocity 90
2024-12-08 01:27:36,185 - DEBUG - Note ON: Ch 1 MIDI 81 Velocity 98
2024-12-08 01:27:36,198 - DEBUG - Note ON: Ch 1 MIDI 77 Velocity 94
2024-12-08 01:27:36,198 - DEBUG - Note ON: Ch 2 MIDI 89 Velocity 90
2024-12-08 01:27:36,198 - DEBUG - Note ON: Ch 9 MIDI 66 Velocity 80
2024-12-08 01:27:36,198 - DEBUG - Note ON: Ch 0 MIDI 84 Velocity 127
2024-12-08 01:27:36,198 - DEBUG - Note ON: Ch 9 MIDI 62 Velocity 90
2024-12-08 01:27:36,211 - DEBUG - Note OFF: Ch 2 MIDI 91
2024-12-08 01:27:36,223 - DEBUG - Note OFF: Ch 3 MIDI 60
2024-12-08 01:27:36,345 - DEBUG - Note OFF: Ch 2 MIDI 89
2024-12-08 01:27:36,345 - DEBUG - Note OFF: Ch 9 MIDI 66
2024-12-08 01:27:36,356 - DEBUG - Note OFF: Ch 9 MIDI 62
2024-12-08 01:27:36,393 - DEBUG - Note OFF: Ch 1 MIDI 81
2024-12-08 01:27:36,404 - DEBUG - Note ON: Ch 2 MIDI 84 Velocity 83
2024-12-08 01:27:36,404 - DEBUG - Note ON: Ch 9 MIDI 66 Velocity 90
2024-12-08 01:27:36,404 - DEBUG - Note OFF: Ch 1 MIDI 77
2024-12-08 01:27:36,416 - DEBUG - Note OFF: Ch 0 MIDI 84
2024-12-08 01:27:36,440 - DEBUG - Note OFF: Ch 0 MIDI 84
2024-12-08 01:27:36,536 - DEBUG - Note OFF: Ch 2 MIDI 84
2024-12-08 01:27:36,550 - DEBUG - Note OFF: Ch 9 MIDI 66
2024-12-08 01:27:36,598 - DEBUG - Note ON: Ch 9 MIDI 59 Velocity 100
2024-12-08 01:27:36,611 - DEBUG - Note ON: Ch 2 MIDI 89 Velocity 90
2024-12-08 01:27:36,611 - DEBUG - Note ON: Ch 3 MIDI 65 Velocity 107
2024-12-08 01:27:36,611 - DEBUG - Note ON: Ch 9 MIDI 66 Velocity 70
2024-12-08 01:27:36,611 - DEBUG - Note ON: Ch 0 MIDI 84 Velocity 127
2024-12-08 01:27:36,753 - DEBUG - Note OFF: Ch 9 MIDI 59
2024-12-08 01:27:36,764 - DEBUG - Note OFF: Ch 9 MIDI 66
2024-12-08 01:27:36,786 - DEBUG - Note OFF: Ch 2 MIDI 89
2024-12-08 01:27:36,811 - DEBUG - Note ON: Ch 2 MIDI 91 Velocity 86
2024-12-08 01:27:36,944 - DEBUG - Note OFF: Ch 0 MIDI 84
2024-12-08 01:27:36,967 - DEBUG - Note OFF: Ch 3 MIDI 65
2024-12-08 01:27:36,991 - DEBUG - Note OFF: Ch 2 MIDI 91
2024-12-08 01:27:37,004 - DEBUG - Note ON: Ch 0 MIDI 84 Velocity 96
2024-12-08 01:27:37,016 - DEBUG - Note ON: Ch 0 MIDI 93 Velocity 127
2024-12-08 01:27:37,016 - DEBUG - Note ON: Ch 1 MIDI 81 Velocity 97
2024-12-08 01:27:37,016 - DEBUG - Note ON: Ch 1 MIDI 77 Velocity 97
2024-12-08 01:27:37,016 - DEBUG - Note ON: Ch 2 MIDI 93 Velocity 86
2024-12-08 01:27:37,016 - DEBUG - Note ON: Ch 9 MIDI 66 Velocity 80
2024-12-08 01:27:37,029 - DEBUG - Note ON: Ch 9 MIDI 62 Velocity 90
2024-12-08 01:27:37,173 - DEBUG - Note OFF: Ch 9 MIDI 66
2024-12-08 01:27:37,186 - DEBUG - Note OFF: Ch 9 MIDI 62
2024-12-08 01:27:37,197 - DEBUG - Note OFF: Ch 2 MIDI 93
2024-12-08 01:27:37,210 - DEBUG - Note OFF: Ch 1 MIDI 81
2024-12-08 01:27:37,223 - DEBUG - Note ON: Ch 2 MIDI 89 Velocity 86
2024-12-08 01:27:37,234 - DEBUG - Note OFF: Ch 1 MIDI 77
2024-12-08 01:27:37,246 - DEBUG - Note OFF: Ch 0 MIDI 84
2024-12-08 01:27:37,296 - DEBUG - Note OFF: Ch 0 MIDI 93
2024-12-08 01:27:37,367 - DEBUG - Note OFF: Ch 2 MIDI 89
2024-12-08 01:27:37,428 - DEBUG - Note ON: Ch 9 MIDI 59 Velocity 100
2024-12-08 01:27:37,428 - DEBUG - Note ON: Ch 2 MIDI 84 Velocity 86
2024-12-08 01:27:37,428 - DEBUG - Note ON: Ch 3 MIDI 67 Velocity 106
2024-12-08 01:27:37,428 - DEBUG - Note ON: Ch 9 MIDI 66 Velocity 70
2024-12-08 01:27:37,439 - DEBUG - Note ON: Ch 0 MIDI 91 Velocity 127
2024-12-08 01:27:37,570 - DEBUG - Note OFF: Ch 9 MIDI 59
2024-12-08 01:27:37,583 - DEBUG - Note OFF: Ch 9 MIDI 66
2024-12-08 01:27:37,606 - DEBUG - Note OFF: Ch 2 MIDI 84
2024-12-08 01:27:37,631 - DEBUG - Note ON: Ch 2 MIDI 91 Velocity 90
2024-12-08 01:27:37,631 - DEBUG - Note OFF: Ch 3 MIDI 67
2024-12-08 01:27:37,665 - DEBUG - Note OFF: Ch 0 MIDI 91
2024-12-08 01:27:37,821 - DEBUG - Note ON: Ch 0 MIDI 84 Velocity 98
2024-12-08 01:27:37,822 - DEBUG - Note ON: Ch 1 MIDI 81 Velocity 103
2024-12-08 01:27:37,845 - DEBUG - Note ON: Ch 1 MIDI 77 Velocity 86
2024-12-08 01:27:37,845 - DEBUG - Note ON: Ch 2 MIDI 89 Velocity 78
2024-12-08 01:27:37,845 - DEBUG - Note ON: Ch 3 MIDI 69 Velocity 105
2024-12-08 01:27:37,845 - DEBUG - Note ON: Ch 9 MIDI 66 Velocity 80
2024-12-08 01:27:37,845 - DEBUG - Note ON: Ch 9 MIDI 62 Velocity 90
2024-12-08 01:27:37,857 - DEBUG - Note ON: Ch 0 MIDI 89 Velocity 127
2024-12-08 01:27:37,879 - DEBUG - Note OFF: Ch 2 MIDI 91
2024-12-08 01:27:37,990 - DEBUG - Note OFF: Ch 2 MIDI 89
2024-12-08 01:27:38,003 - DEBUG - Note OFF: Ch 9 MIDI 66
2024-12-08 01:27:38,003 - DEBUG - Note OFF: Ch 9 MIDI 62
2024-12-08 01:27:38,014 - DEBUG - Note OFF: Ch 3 MIDI 69
2024-12-08 01:27:38,026 - DEBUG - Note OFF: Ch 0 MIDI 84
2024-12-08 01:27:38,026 - DEBUG - Note OFF: Ch 0 MIDI 89
2024-12-08 01:27:38,026 - DEBUG - Note OFF: Ch 1 MIDI 77
2024-12-08 01:27:38,037 - DEBUG - Note OFF: Ch 1 MIDI 81
2024-12-08 01:27:38,048 - DEBUG - Note ON: Ch 2 MIDI 84 Velocity 82
2024-12-08 01:27:38,049 - DEBUG - Note ON: Ch 9 MIDI 66 Velocity 90
2024-12-08 01:27:38,183 - DEBUG - Note OFF: Ch 2 MIDI 84
2024-12-08 01:27:38,206 - DEBUG - Note OFF: Ch 9 MIDI 66
2024-12-08 01:27:38,243 - DEBUG - Note ON: Ch 9 MIDI 59 Velocity 100
2024-12-08 01:27:38,256 - DEBUG - Note ON: Ch 2 MIDI 86 Velocity 89
2024-12-08 01:27:38,256 - DEBUG - Note ON: Ch 9 MIDI 66 Velocity 70
2024-12-08 01:27:38,269 - DEBUG - Note ON: Ch 3 MIDI 70 Velocity 113
2024-12-08 01:27:38,282 - DEBUG - Note ON: Ch 0 MIDI 86 Velocity 127
2024-12-08 01:27:38,405 - DEBUG - Note OFF: Ch 9 MIDI 59
2024-12-08 01:27:38,405 - DEBUG - Note OFF: Ch 9 MIDI 66
2024-12-08 01:27:38,430 - DEBUG - Note OFF: Ch 2 MIDI 86
2024-12-08 01:27:38,456 - DEBUG - Note ON: Ch 2 MIDI 94 Velocity 86
2024-12-08 01:27:38,640 - DEBUG - Note ON: Ch 1 MIDI 82 Velocity 104
2024-12-08 01:27:38,640 - DEBUG - Note OFF: Ch 2 MIDI 94
2024-12-08 01:27:38,654 - DEBUG - Note ON: Ch 0 MIDI 86 Velocity 98
2024-12-08 01:27:38,654 - DEBUG - Note ON: Ch 1 MIDI 77 Velocity 90
2024-12-08 01:27:38,666 - DEBUG - Note ON: Ch 2 MIDI 86 Velocity 76
2024-12-08 01:27:38,666 - DEBUG - Note ON: Ch 9 MIDI 66 Velocity 80
2024-12-08 01:27:38,678 - DEBUG - Note ON: Ch 9 MIDI 62 Velocity 90
2024-12-08 01:27:38,714 - DEBUG - Note OFF: Ch 3 MIDI 70
2024-12-08 01:27:38,798 - DEBUG - Note OFF: Ch 2 MIDI 86
2024-12-08 01:27:38,823 - DEBUG - Note OFF: Ch 9 MIDI 66
2024-12-08 01:27:38,834 - DEBUG - Note OFF: Ch 9 MIDI 62
2024-12-08 01:27:38,835 - DEBUG - Note OFF: Ch 0 MIDI 86
2024-12-08 01:27:38,835 - DEBUG - Note OFF: Ch 1 MIDI 82
2024-12-08 01:27:38,835 - DEBUG - Note OFF: Ch 1 MIDI 77
2024-12-08 01:27:38,871 - DEBUG - Note ON: Ch 2 MIDI 89 Velocity 86
2024-12-08 01:27:39,017 - DEBUG - Note OFF: Ch 2 MIDI 89
2024-12-08 01:27:39,067 - DEBUG - Note ON: Ch 9 MIDI 59 Velocity 100
2024-12-08 01:27:39,081 - DEBUG - Note ON: Ch 2 MIDI 91 Velocity 90
2024-12-08 01:27:39,081 - DEBUG - Note ON: Ch 3 MIDI 70 Velocity 125
2024-12-08 01:27:39,081 - DEBUG - Note ON: Ch 9 MIDI 66 Velocity 70
2024-12-08 01:27:39,228 - DEBUG - Note OFF: Ch 9 MIDI 59
2024-12-08 01:27:39,229 - DEBUG - Note OFF: Ch 9 MIDI 66
2024-12-08 01:27:39,253 - DEBUG - Note OFF: Ch 0 MIDI 86
2024-12-08 01:27:39,275 - DEBUG - Note OFF: Ch 2 MIDI 91
2024-12-08 01:27:39,287 - DEBUG - Note ON: Ch 2 MIDI 86 Velocity 91
2024-12-08 01:27:39,347 - DEBUG - Note OFF: Ch 3 MIDI 70
2024-12-08 01:27:39,419 - DEBUG - Note OFF: Ch 2 MIDI 86
2024-12-08 01:27:39,478 - DEBUG - Note ON: Ch 0 MIDI 86 Velocity 103
2024-12-08 01:27:39,479 - DEBUG - Note ON: Ch 1 MIDI 82 Velocity 109
2024-12-08 01:27:39,479 - DEBUG - Note ON: Ch 1 MIDI 77 Velocity 98
2024-12-08 01:27:39,491 - DEBUG - Note ON: Ch 3 MIDI 69 Velocity 109
2024-12-08 01:27:39,492 - DEBUG - Note ON: Ch 9 MIDI 66 Velocity 80
2024-12-08 01:27:39,504 - DEBUG - Note ON: Ch 2 MIDI 94 Velocity 96
2024-12-08 01:27:39,504 - DEBUG - Note ON: Ch 9 MIDI 62 Velocity 90
2024-12-08 01:27:39,504 - DEBUG - Note ON: Ch 0 MIDI 86 Velocity 127
2024-12-08 01:27:39,647 - DEBUG - Note OFF: Ch 2 MIDI 94
2024-12-08 01:27:39,648 - DEBUG - Note OFF: Ch 9 MIDI 66
2024-12-08 01:27:39,659 - DEBUG - Note OFF: Ch 0 MIDI 86
2024-12-08 01:27:39,660 - DEBUG - Note OFF: Ch 9 MIDI 62
2024-12-08 01:27:39,660 - DEBUG - Note OFF: Ch 1 MIDI 82
2024-12-08 01:27:39,660 - DEBUG - Note OFF: Ch 1 MIDI 77
2024-12-08 01:27:39,696 - DEBUG - Note OFF: Ch 0 MIDI 86
2024-12-08 01:27:39,697 - DEBUG - Note ON: Ch 2 MIDI 86 Velocity 85
2024-12-08 01:27:39,697 - DEBUG - Note ON: Ch 9 MIDI 66 Velocity 90
2024-12-08 01:27:39,721 - DEBUG - Note OFF: Ch 3 MIDI 69
2024-12-08 01:27:39,844 - DEBUG - Note OFF: Ch 2 MIDI 86
2024-12-08 01:27:39,856 - DEBUG - Note OFF: Ch 9 MIDI 66
2024-12-08 01:27:39,893 - DEBUG - Note ON: Ch 9 MIDI 59 Velocity 100
2024-12-08 01:27:39,905 - DEBUG - Note ON: Ch 2 MIDI 89 Velocity 81
2024-12-08 01:27:39,906 - DEBUG - Note ON: Ch 9 MIDI 66 Velocity 70
2024-12-08 01:27:39,906 - DEBUG - Note ON: Ch 0 MIDI 86 Velocity 127
2024-12-08 01:27:39,930 - DEBUG - Note ON: Ch 3 MIDI 67 Velocity 102
2024-12-08 01:27:40,050 - DEBUG - Note OFF: Ch 9 MIDI 59
2024-12-08 01:27:40,063 - DEBUG - Note OFF: Ch 2 MIDI 89
2024-12-08 01:27:40,063 - DEBUG - Note OFF: Ch 9 MIDI 66
2024-12-08 01:27:40,109 - DEBUG - Note ON: Ch 2 MIDI 91 Velocity 78
2024-12-08 01:27:40,233 - DEBUG - Note OFF: Ch 0 MIDI 86
2024-12-08 01:27:40,294 - DEBUG - Note ON: Ch 1 MIDI 82 Velocity 106
2024-12-08 01:27:40,294 - DEBUG - Note ON: Ch 0 MIDI 86 Velocity 104
2024-12-08 01:27:40,308 - DEBUG - Note ON: Ch 1 MIDI 79 Velocity 93
2024-12-08 01:27:40,320 - DEBUG - Note ON: Ch 2 MIDI 89 Velocity 89
2024-12-08 01:27:40,320 - DEBUG - Note ON: Ch 9 MIDI 66 Velocity 80
2024-12-08 01:27:40,320 - DEBUG - Note ON: Ch 9 MIDI 62 Velocity 90
2024-12-08 01:27:40,333 - DEBUG - Note ON: Ch 0 MIDI 94 Velocity 127
2024-12-08 01:27:40,345 - DEBUG - Note OFF: Ch 2 MIDI 91
2024-12-08 01:27:40,395 - DEBUG - Note OFF: Ch 3 MIDI 67
2024-12-08 01:27:40,454 - DEBUG - Note OFF: Ch 2 MIDI 89
2024-12-08 01:27:40,467 - DEBUG - Note OFF: Ch 9 MIDI 66
2024-12-08 01:27:40,480 - DEBUG - Note OFF: Ch 9 MIDI 62
2024-12-08 01:27:40,481 - DEBUG - Note OFF: Ch 1 MIDI 82
2024-12-08 01:27:40,481 - DEBUG - Note OFF: Ch 1 MIDI 79
2024-12-08 01:27:40,516 - DEBUG - Note OFF: Ch 0 MIDI 86
2024-12-08 01:27:40,516 - DEBUG - Note ON: Ch 2 MIDI 86 Velocity 83
2024-12-08 01:27:40,604 - DEBUG - Note OFF: Ch 0 MIDI 94
2024-12-08 01:27:40,650 - DEBUG - Note OFF: Ch 2 MIDI 86
2024-12-08 01:27:40,723 - DEBUG - Note ON: Ch 9 MIDI 59 Velocity 100
2024-12-08 01:27:40,724 - DEBUG - Note ON: Ch 2 MIDI 94 Velocity 95
2024-12-08 01:27:40,724 - DEBUG - Note ON: Ch 3 MIDI 62 Velocity 110
2024-12-08 01:27:40,724 - DEBUG - Note ON: Ch 9 MIDI 66 Velocity 70
2024-12-08 01:27:40,737 - DEBUG - Note ON: Ch 0 MIDI 93 Velocity 127
2024-12-08 01:27:40,873 - DEBUG - Note OFF: Ch 9 MIDI 59
2024-12-08 01:27:40,886 - DEBUG - Note OFF: Ch 9 MIDI 66
2024-12-08 01:27:40,924 - DEBUG - Note OFF: Ch 2 MIDI 94
2024-12-08 01:27:40,937 - DEBUG - Note OFF: Ch 0 MIDI 93
2024-12-08 01:27:40,937 - DEBUG - Note ON: Ch 2 MIDI 86 Velocity 82
2024-12-08 01:27:41,059 - DEBUG - Note OFF: Ch 2 MIDI 86
2024-12-08 01:27:41,110 - DEBUG - Note ON: Ch 0 MIDI 86 Velocity 103
2024-12-08 01:27:41,123 - DEBUG - Note ON: Ch 1 MIDI 82 Velocity 110
2024-12-08 01:27:41,134 - DEBUG - Note ON: Ch 1 MIDI 79 Velocity 98
2024-12-08 01:27:41,135 - DEBUG - Note ON: Ch 2 MIDI 89 Velocity 89
2024-12-08 01:27:41,135 - DEBUG - Note ON: Ch 9 MIDI 66 Velocity 80
2024-12-08 01:27:41,147 - DEBUG - Note ON: Ch 0 MIDI 91 Velocity 127
2024-12-08 01:27:41,147 - DEBUG - Note ON: Ch 9 MIDI 62 Velocity 90
2024-12-08 01:27:41,206 - DEBUG - Note OFF: Ch 3 MIDI 62
2024-12-08 01:27:41,290 - DEBUG - Note OFF: Ch 2 MIDI 89
2024-12-08 01:27:41,290 - DEBUG - Note OFF: Ch 9 MIDI 66
2024-12-08 01:27:41,303 - DEBUG - Note OFF: Ch 0 MIDI 91
2024-12-08 01:27:41,303 - DEBUG - Note OFF: Ch 1 MIDI 82
2024-12-08 01:27:41,303 - DEBUG - Note OFF: Ch 1 MIDI 79
2024-12-08 01:27:41,303 - DEBUG - Note OFF: Ch 9 MIDI 62
2024-12-08 01:27:41,328 - DEBUG - Note OFF: Ch 0 MIDI 86
2024-12-08 01:27:41,340 - DEBUG - Note ON: Ch 2 MIDI 91 Velocity 88
2024-12-08 01:27:41,341 - DEBUG - Note ON: Ch 9 MIDI 66 Velocity 90
2024-12-08 01:27:41,503 - DEBUG - Note OFF: Ch 9 MIDI 66
2024-12-08 01:27:41,538 - DEBUG - Note OFF: Ch 2 MIDI 91
2024-12-08 01:27:41,539 - DEBUG - Note ON: Ch 3 MIDI 60 Velocity 101
2024-12-08 01:27:41,539 - DEBUG - Note ON: Ch 9 MIDI 59 Velocity 100
2024-12-08 01:27:41,551 - DEBUG - Note ON: Ch 0 MIDI 88 Velocity 127
2024-12-08 01:27:41,551 - DEBUG - Note ON: Ch 2 MIDI 88 Velocity 80
2024-12-08 01:27:41,551 - DEBUG - Note ON: Ch 9 MIDI 66 Velocity 70
2024-12-08 01:27:41,695 - DEBUG - Note OFF: Ch 9 MIDI 59
2024-12-08 01:27:41,706 - DEBUG - Note OFF: Ch 9 MIDI 66
2024-12-08 01:27:41,718 - DEBUG - Note OFF: Ch 2 MIDI 88
2024-12-08 01:27:41,754 - DEBUG - Note ON: Ch 2 MIDI 96 Velocity 93
2024-12-08 01:27:41,937 - DEBUG - Note ON: Ch 1 MIDI 82 Velocity 96
2024-12-08 01:27:41,950 - DEBUG - Note ON: Ch 0 MIDI 84 Velocity 84
2024-12-08 01:27:41,951 - DEBUG - Note ON: Ch 1 MIDI 76 Velocity 96
2024-12-08 01:27:41,963 - DEBUG - Note ON: Ch 2 MIDI 88 Velocity 77
2024-12-08 01:27:41,963 - DEBUG - Note ON: Ch 9 MIDI 66 Velocity 80
2024-12-08 01:27:41,974 - DEBUG - Note OFF: Ch 2 MIDI 96
2024-12-08 01:27:41,974 - DEBUG - Note ON: Ch 9 MIDI 62 Velocity 90
2024-12-08 01:27:42,095 - DEBUG - Note OFF: Ch 2 MIDI 88
2024-12-08 01:27:42,107 - DEBUG - Note OFF: Ch 3 MIDI 60
2024-12-08 01:27:42,119 - DEBUG - Note OFF: Ch 9 MIDI 66
2024-12-08 01:27:42,133 - DEBUG - Note OFF: Ch 9 MIDI 62
2024-12-08 01:27:42,171 - DEBUG - Note ON: Ch 2 MIDI 84 Velocity 88
2024-12-08 01:27:42,183 - DEBUG - Note OFF: Ch 1 MIDI 76
2024-12-08 01:27:42,183 - DEBUG - Note OFF: Ch 0 MIDI 84
2024-12-08 01:27:42,206 - DEBUG - Note OFF: Ch 1 MIDI 82
2024-12-08 01:27:42,315 - DEBUG - Note OFF: Ch 2 MIDI 84
2024-12-08 01:27:42,364 - DEBUG - Note ON: Ch 9 MIDI 59 Velocity 100
2024-12-08 01:27:42,375 - DEBUG - Note ON: Ch 2 MIDI 89 Velocity 95
2024-12-08 01:27:42,375 - DEBUG - Note ON: Ch 9 MIDI 66 Velocity 70
2024-12-08 01:27:42,413 - DEBUG - Note ON: Ch 3 MIDI 67 Velocity 107
2024-12-08 01:27:42,461 - DEBUG - Note OFF: Ch 0 MIDI 88
2024-12-08 01:27:42,517 - DEBUG - Note OFF: Ch 9 MIDI 59
2024-12-08 01:27:42,530 - DEBUG - Note OFF: Ch 9 MIDI 66
2024-12-08 01:27:42,556 - DEBUG - Note OFF: Ch 2 MIDI 89
2024-12-08 01:27:42,580 - DEBUG - Note ON: Ch 2 MIDI 91 Velocity 89
2024-12-08 01:27:42,747 - DEBUG - Note ON: Ch 0 MIDI 84 Velocity 92
2024-12-08 01:27:42,748 - DEBUG - Note ON: Ch 1 MIDI 82 Velocity 96
2024-12-08 01:27:42,748 - DEBUG - Note OFF: Ch 2 MIDI 91
2024-12-08 01:27:42,759 - DEBUG - Note ON: Ch 1 MIDI 76 Velocity 88
2024-12-08 01:27:42,783 - DEBUG - Note ON: Ch 0 MIDI 88 Velocity 127
2024-12-08 01:27:42,783 - DEBUG - Note ON: Ch 2 MIDI 96 Velocity 90
2024-12-08 01:27:42,783 - DEBUG - Note ON: Ch 9 MIDI 66 Velocity 80
2024-12-08 01:27:42,796 - DEBUG - Note ON: Ch 9 MIDI 62 Velocity 90
2024-12-08 01:27:42,844 - DEBUG - Note OFF: Ch 3 MIDI 67
2024-12-08 01:27:42,943 - DEBUG - Note OFF: Ch 9 MIDI 66
2024-12-08 01:27:42,954 - DEBUG - Note OFF: Ch 9 MIDI 62
2024-12-08 01:27:42,980 - DEBUG - Note OFF: Ch 1 MIDI 76
2024-12-08 01:27:42,980 - DEBUG - Note OFF: Ch 2 MIDI 96
2024-12-08 01:27:42,980 - DEBUG - Note ON: Ch 2 MIDI 88 Velocity 90
2024-12-08 01:27:42,994 - DEBUG - Note ON: Ch 9 MIDI 66 Velocity 90
2024-12-08 01:27:43,077 - DEBUG - Note OFF: Ch 1 MIDI 82
2024-12-08 01:27:43,103 - DEBUG - Note OFF: Ch 0 MIDI 84
2024-12-08 01:27:43,140 - DEBUG - Note ON: Ch 1 MIDI 82 Velocity 74
2024-12-08 01:27:43,154 - DEBUG - Note OFF: Ch 9 MIDI 66
2024-12-08 01:27:43,165 - DEBUG - Note OFF: Ch 0 MIDI 88
2024-12-08 01:27:43,166 - DEBUG - Note OFF: Ch 2 MIDI 88
2024-12-08 01:27:43,190 - DEBUG - Note ON: Ch 9 MIDI 59 Velocity 100
2024-12-08 01:27:43,203 - DEBUG - Note ON: Ch 2 MIDI 89 Velocity 86
2024-12-08 01:27:43,203 - DEBUG - Note ON: Ch 9 MIDI 66 Velocity 70
2024-12-08 01:27:43,203 - DEBUG - Note ON: Ch 0 MIDI 96 Velocity 127
2024-12-08 01:27:43,203 - DEBUG - Note ON: Ch 3 MIDI 60 Velocity 105
2024-12-08 01:27:43,263 - DEBUG - Note OFF: Ch 1 MIDI 82
2024-12-08 01:27:43,345 - DEBUG - Note OFF: Ch 2 MIDI 89
2024-12-08 01:27:43,345 - DEBUG - Note OFF: Ch 9 MIDI 59
2024-12-08 01:27:43,357 - DEBUG - Note OFF: Ch 9 MIDI 66
2024-12-08 01:27:43,370 - DEBUG - Note OFF: Ch 0 MIDI 96
2024-12-08 01:27:43,394 - DEBUG - Note ON: Ch 2 MIDI 94 Velocity 96
2024-12-08 01:27:43,563 - DEBUG - Note OFF: Ch 2 MIDI 94
2024-12-08 01:27:43,586 - DEBUG - Note ON: Ch 0 MIDI 84 Velocity 94
2024-12-08 01:27:43,598 - DEBUG - Note ON: Ch 1 MIDI 82 Velocity 103
2024-12-08 01:27:43,599 - DEBUG - Note ON: Ch 2 MIDI 84 Velocity 89
2024-12-08 01:27:43,611 - DEBUG - Note ON: Ch 0 MIDI 96 Velocity 127
2024-12-08 01:27:43,611 - DEBUG - Note ON: Ch 1 MIDI 76 Velocity 96
2024-12-08 01:27:43,612 - DEBUG - Note ON: Ch 9 MIDI 66 Velocity 80
2024-12-08 01:27:43,623 - DEBUG - Note ON: Ch 9 MIDI 62 Velocity 90
2024-12-08 01:27:43,658 - DEBUG - Note OFF: Ch 3 MIDI 60
2024-12-08 01:27:43,768 - DEBUG - Note OFF: Ch 2 MIDI 84
2024-12-08 01:27:43,769 - DEBUG - Note OFF: Ch 9 MIDI 66
2024-12-08 01:27:43,769 - DEBUG - Note OFF: Ch 9 MIDI 62
2024-12-08 01:27:43,806 - DEBUG - Note OFF: Ch 1 MIDI 82
2024-12-08 01:27:43,806 - DEBUG - Note ON: Ch 2 MIDI 88 Velocity 89
2024-12-08 01:27:43,818 - DEBUG - Note OFF: Ch 1 MIDI 76
2024-12-08 01:27:43,830 - DEBUG - Note OFF: Ch 0 MIDI 84
2024-12-08 01:27:43,830 - DEBUG - Note OFF: Ch 0 MIDI 96
2024-12-08 01:27:43,958 - DEBUG - Note OFF: Ch 2 MIDI 88
2024-12-08 01:27:44,016 - DEBUG - Note ON: Ch 9 MIDI 59 Velocity 100
2024-12-08 01:27:44,028 - DEBUG - Note ON: Ch 2 MIDI 89 Velocity 87
2024-12-08 01:27:44,028 - DEBUG - Note ON: Ch 3 MIDI 62 Velocity 106
2024-12-08 01:27:44,029 - DEBUG - Note ON: Ch 9 MIDI 66 Velocity 70
2024-12-08 01:27:44,029 - DEBUG - Note ON: Ch 0 MIDI 94 Velocity 127
2024-12-08 01:27:44,163 - DEBUG - Note OFF: Ch 2 MIDI 89
2024-12-08 01:27:44,174 - DEBUG - Note OFF: Ch 9 MIDI 59
2024-12-08 01:27:44,174 - DEBUG - Note OFF: Ch 9 MIDI 66
2024-12-08 01:27:44,218 - DEBUG - Note ON: Ch 2 MIDI 96 Velocity 86
2024-12-08 01:27:44,244 - DEBUG - Note OFF: Ch 0 MIDI 94
2024-12-08 01:27:44,244 - DEBUG - Note OFF: Ch 3 MIDI 62
2024-12-08 01:27:44,413 - DEBUG - Note OFF: Ch 2 MIDI 96
2024-12-08 01:27:44,413 - DEBUG - Note ON: Ch 1 MIDI 82 Velocity 114
2024-12-08 01:27:44,413 - DEBUG - Note ON: Ch 3 MIDI 64 Velocity 97
2024-12-08 01:27:44,425 - DEBUG - Note ON: Ch 0 MIDI 84 Velocity 94
2024-12-08 01:27:44,425 - DEBUG - Note ON: Ch 0 MIDI 91 Velocity 127
2024-12-08 01:27:44,426 - DEBUG - Note ON: Ch 2 MIDI 88 Velocity 86
2024-12-08 01:27:44,438 - DEBUG - Note ON: Ch 1 MIDI 76 Velocity 98
2024-12-08 01:27:44,438 - DEBUG - Note ON: Ch 9 MIDI 66 Velocity 80
2024-12-08 01:27:44,450 - DEBUG - Note ON: Ch 9 MIDI 62 Velocity 90
2024-12-08 01:27:44,570 - DEBUG - Note OFF: Ch 2 MIDI 88
2024-12-08 01:27:44,595 - DEBUG - Note OFF: Ch 9 MIDI 66
2024-12-08 01:27:44,595 - DEBUG - Note OFF: Ch 9 MIDI 62
2024-12-08 01:27:44,607 - DEBUG - Note OFF: Ch 0 MIDI 91
2024-12-08 01:27:44,607 - DEBUG - Note OFF: Ch 1 MIDI 76
2024-12-08 01:27:44,607 - DEBUG - Note OFF: Ch 3 MIDI 64
2024-12-08 01:27:44,644 - DEBUG - Note ON: Ch 2 MIDI 91 Velocity 80
2024-12-08 01:27:44,644 - DEBUG - Note ON: Ch 9 MIDI 66 Velocity 90
2024-12-08 01:27:44,679 - DEBUG - Note OFF: Ch 1 MIDI 82
2024-12-08 01:27:44,798 - DEBUG - Note OFF: Ch 2 MIDI 91
2024-12-08 01:27:44,798 - DEBUG - Note OFF: Ch 9 MIDI 66
2024-12-08 01:27:44,834 - DEBUG - Note ON: Ch 2 MIDI 96 Velocity 90
2024-12-08 01:27:44,834 - DEBUG - Note ON: Ch 9 MIDI 59 Velocity 100
2024-12-08 01:27:44,846 - DEBUG - Note ON: Ch 9 MIDI 66 Velocity 70
2024-12-08 01:27:44,857 - DEBUG - Note ON: Ch 0 MIDI 93 Velocity 127
2024-12-08 01:27:44,858 - DEBUG - Note ON: Ch 3 MIDI 65 Velocity 106
2024-12-08 01:27:44,930 - DEBUG - Note OFF: Ch 0 MIDI 84
2024-12-08 01:27:44,990 - DEBUG - Note OFF: Ch 9 MIDI 59
2024-12-08 01:27:45,003 - DEBUG - Note OFF: Ch 9 MIDI 66
2024-12-08 01:27:45,049 - DEBUG - Note OFF: Ch 2 MIDI 96
2024-12-08 01:27:45,049 - DEBUG - Note ON: Ch 2 MIDI 89 Velocity 84
2024-12-08 01:27:45,134 - DEBUG - Note OFF: Ch 3 MIDI 65
2024-12-08 01:27:45,194 - DEBUG - Note OFF: Ch 2 MIDI 89
2024-12-08 01:27:45,243 - DEBUG - Note ON: Ch 0 MIDI 84 Velocity 93
2024-12-08 01:27:45,254 - DEBUG - Note ON: Ch 1 MIDI 81 Velocity 103
2024-12-08 01:27:45,254 - DEBUG - Note ON: Ch 3 MIDI 60 Velocity 100
2024-12-08 01:27:45,255 - DEBUG - Note ON: Ch 1 MIDI 77 Velocity 96
2024-12-08 01:27:45,255 - DEBUG - Note ON: Ch 2 MIDI 91 Velocity 86
2024-12-08 01:27:45,255 - DEBUG - Note ON: Ch 9 MIDI 66 Velocity 80
2024-12-08 01:27:45,266 - DEBUG - Note ON: Ch 9 MIDI 62 Velocity 90
2024-12-08 01:27:45,417 - DEBUG - Note OFF: Ch 9 MIDI 66
2024-12-08 01:27:45,418 - DEBUG - Note OFF: Ch 9 MIDI 62
2024-12-08 01:27:45,443 - DEBUG - Note OFF: Ch 2 MIDI 91
2024-12-08 01:27:45,465 - DEBUG - Note ON: Ch 2 MIDI 93 Velocity 88
2024-12-08 01:27:45,547 - DEBUG - Note OFF: Ch 3 MIDI 60
2024-12-08 01:27:45,607 - DEBUG - Note OFF: Ch 1 MIDI 77
2024-12-08 01:27:45,618 - DEBUG - Note OFF: Ch 0 MIDI 84
2024-12-08 01:27:45,630 - DEBUG - Note OFF: Ch 1 MIDI 81
2024-12-08 01:27:45,665 - DEBUG - Note ON: Ch 9 MIDI 59 Velocity 100
2024-12-08 01:27:45,677 - DEBUG - Note OFF: Ch 2 MIDI 93
2024-12-08 01:27:45,678 - DEBUG - Note ON: Ch 2 MIDI 94 Velocity 100
2024-12-08 01:27:45,678 - DEBUG - Note ON: Ch 3 MIDI 62 Velocity 103
2024-12-08 01:27:45,678 - DEBUG - Note ON: Ch 9 MIDI 66 Velocity 70
2024-12-08 01:27:45,823 - DEBUG - Note OFF: Ch 9 MIDI 59
2024-12-08 01:27:45,823 - DEBUG - Note OFF: Ch 9 MIDI 66
2024-12-08 01:27:45,881 - DEBUG - Note ON: Ch 2 MIDI 93 Velocity 95
2024-12-08 01:27:45,927 - DEBUG - Note OFF: Ch 2 MIDI 94
2024-12-08 01:27:45,940 - DEBUG - Note OFF: Ch 3 MIDI 62
2024-12-08 01:27:45,952 - DEBUG - Note OFF: Ch 0 MIDI 93
2024-12-08 01:27:46,047 - DEBUG - Note ON: Ch 1 MIDI 82 Velocity 127
2024-12-08 01:27:46,058 - DEBUG - Note ON: Ch 0 MIDI 84 Velocity 99
2024-12-08 01:27:46,059 - DEBUG - Note ON: Ch 0 MIDI 84 Velocity 127
2024-12-08 01:27:46,070 - DEBUG - Note ON: Ch 1 MIDI 77 Velocity 100
2024-12-08 01:27:46,070 - DEBUG - Note ON: Ch 3 MIDI 64 Velocity 94
2024-12-08 01:27:46,083 - DEBUG - Note ON: Ch 2 MIDI 91 Velocity 87
2024-12-08 01:27:46,083 - DEBUG - Note ON: Ch 9 MIDI 66 Velocity 80
2024-12-08 01:27:46,095 - DEBUG - Note ON: Ch 9 MIDI 62 Velocity 90
2024-12-08 01:27:46,133 - DEBUG - Note OFF: Ch 2 MIDI 93
2024-12-08 01:27:46,233 - DEBUG - Note OFF: Ch 9 MIDI 66
2024-12-08 01:27:46,246 - DEBUG - Note OFF: Ch 0 MIDI 84
2024-12-08 01:27:46,246 - DEBUG - Note OFF: Ch 9 MIDI 62
2024-12-08 01:27:46,295 - DEBUG - Note OFF: Ch 2 MIDI 91
2024-12-08 01:27:46,295 - DEBUG - Note ON: Ch 2 MIDI 89 Velocity 93
2024-12-08 01:27:46,295 - DEBUG - Note ON: Ch 9 MIDI 66 Velocity 90
2024-12-08 01:27:46,308 - DEBUG - Note OFF: Ch 3 MIDI 64
2024-12-08 01:27:46,370 - DEBUG - Note OFF: Ch 1 MIDI 82
2024-12-08 01:27:46,444 - DEBUG - Note OFF: Ch 2 MIDI 89
2024-12-08 01:27:46,444 - DEBUG - Note OFF: Ch 9 MIDI 66
2024-12-08 01:27:46,470 - DEBUG - Note ON: Ch 1 MIDI 81 Velocity 94
2024-12-08 01:27:46,482 - DEBUG - Note ON: Ch 9 MIDI 59 Velocity 100
2024-12-08 01:27:46,494 - DEBUG - Note ON: Ch 0 MIDI 84 Velocity 127
2024-12-08 01:27:46,494 - DEBUG - Note ON: Ch 2 MIDI 84 Velocity 86
2024-12-08 01:27:46,495 - DEBUG - Note ON: Ch 9 MIDI 66 Velocity 70
2024-12-08 01:27:46,508 - DEBUG - Note ON: Ch 3 MIDI 65 Velocity 97
2024-12-08 01:27:46,603 - DEBUG - Note OFF: Ch 1 MIDI 81
2024-12-08 01:27:46,626 - DEBUG - Note OFF: Ch 1 MIDI 77
2024-12-08 01:27:46,638 - DEBUG - Note OFF: Ch 0 MIDI 84
2024-12-08 01:27:46,638 - DEBUG - Note OFF: Ch 9 MIDI 59
2024-12-08 01:27:46,651 - DEBUG - Note OFF: Ch 9 MIDI 66
2024-12-08 01:27:46,664 - DEBUG - Note OFF: Ch 2 MIDI 84
2024-12-08 01:27:46,700 - DEBUG - Note ON: Ch 2 MIDI 89 Velocity 90
2024-12-08 01:27:46,724 - DEBUG - Note OFF: Ch 0 MIDI 84
2024-12-08 01:27:46,843 - DEBUG - Note OFF: Ch 2 MIDI 89
2024-12-08 01:27:46,877 - DEBUG - Note OFF: Ch 3 MIDI 65
2024-12-08 01:27:46,903 - DEBUG - Note ON: Ch 0 MIDI 84 Velocity 92
2024-12-08 01:27:46,903 - DEBUG - Note ON: Ch 0 MIDI 93 Velocity 127
2024-12-08 01:27:46,903 - DEBUG - Note ON: Ch 1 MIDI 81 Velocity 92
2024-12-08 01:27:46,903 - DEBUG - Note ON: Ch 2 MIDI 91 Velocity 87
2024-12-08 01:27:46,903 - DEBUG - Note ON: Ch 9 MIDI 66 Velocity 80
2024-12-08 01:27:46,916 - DEBUG - Note ON: Ch 1 MIDI 77 Velocity 86
2024-12-08 01:27:46,916 - DEBUG - Note ON: Ch 9 MIDI 62 Velocity 90
2024-12-08 01:27:47,067 - DEBUG - Note OFF: Ch 9 MIDI 66
2024-12-08 01:27:47,067 - DEBUG - Note OFF: Ch 9 MIDI 62
2024-12-08 01:27:47,103 - DEBUG - Note OFF: Ch 1 MIDI 81
2024-12-08 01:27:47,115 - DEBUG - Note OFF: Ch 0 MIDI 84
2024-12-08 01:27:47,115 - DEBUG - Note OFF: Ch 1 MIDI 77
2024-12-08 01:27:47,115 - DEBUG - Note OFF: Ch 2 MIDI 91
2024-12-08 01:27:47,116 - DEBUG - Note ON: Ch 2 MIDI 96 Velocity 95
2024-12-08 01:27:47,128 - DEBUG - Note OFF: Ch 0 MIDI 93
2024-12-08 01:27:47,297 - DEBUG - Note OFF: Ch 2 MIDI 96
2024-12-08 01:27:47,310 - DEBUG - Note ON: Ch 0 MIDI 91 Velocity 127
2024-12-08 01:27:47,310 - DEBUG - Note ON: Ch 3 MIDI 60 Velocity 103
2024-12-08 01:27:47,310 - DEBUG - Note ON: Ch 9 MIDI 59 Velocity 100
2024-12-08 01:27:47,323 - DEBUG - Note ON: Ch 2 MIDI 89 Velocity 89
2024-12-08 01:27:47,323 - DEBUG - Note ON: Ch 9 MIDI 66 Velocity 70
2024-12-08 01:27:47,470 - DEBUG - Note OFF: Ch 9 MIDI 59
2024-12-08 01:27:47,470 - DEBUG - Note OFF: Ch 9 MIDI 66
2024-12-08 01:27:47,482 - DEBUG - Note OFF: Ch 0 MIDI 91
2024-12-08 01:27:47,483 - DEBUG - Note OFF: Ch 2 MIDI 89
2024-12-08 01:27:47,527 - DEBUG - Note ON: Ch 2 MIDI 91 Velocity 90
2024-12-08 01:27:47,685 - DEBUG - Note OFF: Ch 2 MIDI 91
2024-12-08 01:27:47,685 - DEBUG - Note OFF: Ch 3 MIDI 60
2024-12-08 01:27:47,710 - DEBUG - Note ON: Ch 0 MIDI 84 Velocity 95
2024-12-08 01:27:47,710 - DEBUG - Note ON: Ch 1 MIDI 81 Velocity 99
2024-12-08 01:27:47,722 - DEBUG - Note ON: Ch 0 MIDI 89 Velocity 127
2024-12-08 01:27:47,734 - DEBUG - Note ON: Ch 1 MIDI 77 Velocity 76
2024-12-08 01:27:47,734 - DEBUG - Note ON: Ch 2 MIDI 93 Velocity 94
2024-12-08 01:27:47,734 - DEBUG - Note ON: Ch 9 MIDI 66 Velocity 80
2024-12-08 01:27:47,746 - DEBUG - Note ON: Ch 9 MIDI 62 Velocity 90
2024-12-08 01:27:47,878 - DEBUG - Note OFF: Ch 0 MIDI 89
2024-12-08 01:27:47,890 - DEBUG - Note OFF: Ch 9 MIDI 66
2024-12-08 01:27:47,890 - DEBUG - Note OFF: Ch 9 MIDI 62
2024-12-08 01:27:47,915 - DEBUG - Note OFF: Ch 2 MIDI 93
2024-12-08 01:27:47,927 - DEBUG - Note OFF: Ch 1 MIDI 81
2024-12-08 01:27:47,940 - DEBUG - Note ON: Ch 2 MIDI 89 Velocity 83
2024-12-08 01:27:47,940 - DEBUG - Note ON: Ch 9 MIDI 66 Velocity 90
2024-12-08 01:27:47,952 - DEBUG - Note OFF: Ch 0 MIDI 84
2024-12-08 01:27:47,952 - DEBUG - Note OFF: Ch 1 MIDI 77
2024-12-08 01:27:48,070 - DEBUG - Note OFF: Ch 2 MIDI 89
2024-12-08 01:27:48,094 - DEBUG - Note OFF: Ch 9 MIDI 66
2024-12-08 01:27:48,130 - DEBUG - Note ON: Ch 0 MIDI 84 Velocity 127
2024-12-08 01:27:48,130 - DEBUG - Note ON: Ch 3 MIDI 65 Velocity 103
2024-12-08 01:27:48,131 - DEBUG - Note ON: Ch 9 MIDI 59 Velocity 100
2024-12-08 01:27:48,143 - DEBUG - Note ON: Ch 2 MIDI 94 Velocity 93
2024-12-08 01:27:48,143 - DEBUG - Note ON: Ch 9 MIDI 66 Velocity 70
2024-12-08 01:27:48,286 - DEBUG - Note OFF: Ch 9 MIDI 59
2024-12-08 01:27:48,297 - DEBUG - Note OFF: Ch 9 MIDI 66
2024-12-08 01:27:48,334 - DEBUG - Note OFF: Ch 2 MIDI 94
2024-12-08 01:27:48,385 - DEBUG - Note ON: Ch 2 MIDI 89 Velocity 88
2024-12-08 01:27:48,470 - DEBUG - Note OFF: Ch 2 MIDI 89
2024-12-08 01:27:48,552 - DEBUG - Note ON: Ch 0 MIDI 84 Velocity 98
2024-12-08 01:27:48,553 - DEBUG - Note ON: Ch 1 MIDI 81 Velocity 101
2024-12-08 01:27:48,553 - DEBUG - Note ON: Ch 1 MIDI 77 Velocity 97
2024-12-08 01:27:48,553 - DEBUG - Note ON: Ch 2 MIDI 93 Velocity 93
2024-12-08 01:27:48,553 - DEBUG - Note ON: Ch 9 MIDI 66 Velocity 80
2024-12-08 01:27:48,564 - DEBUG - Note ON: Ch 9 MIDI 62 Velocity 90
2024-12-08 01:27:48,635 - DEBUG - Note OFF: Ch 3 MIDI 65
2024-12-08 01:27:48,708 - DEBUG - Note OFF: Ch 9 MIDI 66
2024-12-08 01:27:48,721 - DEBUG - Note OFF: Ch 1 MIDI 81
2024-12-08 01:27:48,721 - DEBUG - Note OFF: Ch 1 MIDI 77
2024-12-08 01:27:48,721 - DEBUG - Note OFF: Ch 9 MIDI 62
2024-12-08 01:27:48,732 - DEBUG - Note OFF: Ch 0 MIDI 84
2024-12-08 01:27:48,758 - DEBUG - Note ON: Ch 2 MIDI 91 Velocity 91
2024-12-08 01:27:48,817 - DEBUG - Note OFF: Ch 2 MIDI 93
2024-12-08 01:27:48,950 - DEBUG - Note OFF: Ch 2 MIDI 91
2024-12-08 01:27:48,964 - DEBUG - Note ON: Ch 9 MIDI 59 Velocity 100
2024-12-08 01:27:48,964 - DEBUG - Note ON: Ch 2 MIDI 89 Velocity 93
2024-12-08 01:27:48,964 - DEBUG - Note ON: Ch 3 MIDI 60 Velocity 106
2024-12-08 01:27:48,964 - DEBUG - Note ON: Ch 9 MIDI 66 Velocity 70
2024-12-08 01:27:49,118 - DEBUG - Note OFF: Ch 9 MIDI 59
2024-12-08 01:27:49,118 - DEBUG - Note OFF: Ch 0 MIDI 84
2024-12-08 01:27:49,118 - DEBUG - Note OFF: Ch 2 MIDI 89
2024-12-08 01:27:49,118 - DEBUG - Note OFF: Ch 9 MIDI 66
2024-12-08 01:27:49,177 - DEBUG - Note ON: Ch 2 MIDI 84 Velocity 83
2024-12-08 01:27:49,325 - DEBUG - Note OFF: Ch 2 MIDI 84
2024-12-08 01:27:49,350 - DEBUG - Note ON: Ch 0 MIDI 84 Velocity 95
2024-12-08 01:27:49,350 - DEBUG - Note ON: Ch 1 MIDI 81 Velocity 97
2024-12-08 01:27:49,362 - DEBUG - Note ON: Ch 1 MIDI 77 Velocity 93
2024-12-08 01:27:49,374 - DEBUG - Note ON: Ch 2 MIDI 91 Velocity 93
2024-12-08 01:27:49,385 - DEBUG - Note ON: Ch 9 MIDI 66 Velocity 80
2024-12-08 01:27:49,386 - DEBUG - Note ON: Ch 9 MIDI 62 Velocity 90
2024-12-08 01:27:49,398 - DEBUG - Note ON: Ch 0 MIDI 84 Velocity 127
2024-12-08 01:27:49,472 - DEBUG - Note OFF: Ch 3 MIDI 60
2024-12-08 01:27:49,532 - DEBUG - Note OFF: Ch 9 MIDI 66
2024-12-08 01:27:49,545 - DEBUG - Note OFF: Ch 1 MIDI 81
2024-12-08 01:27:49,545 - DEBUG - Note OFF: Ch 1 MIDI 77
2024-12-08 01:27:49,545 - DEBUG - Note OFF: Ch 9 MIDI 62
2024-12-08 01:27:49,570 - DEBUG - Note OFF: Ch 0 MIDI 84
2024-12-08 01:27:49,583 - DEBUG - Note OFF: Ch 0 MIDI 84
2024-12-08 01:27:49,583 - DEBUG - Note ON: Ch 2 MIDI 89 Velocity 90
2024-12-08 01:27:49,583 - DEBUG - Note ON: Ch 9 MIDI 66 Velocity 90
2024-12-08 01:27:49,618 - DEBUG - Note OFF: Ch 2 MIDI 91
2024-12-08 01:27:49,737 - DEBUG - Note OFF: Ch 9 MIDI 66
2024-12-08 01:27:49,786 - DEBUG - Note ON: Ch 9 MIDI 59 Velocity 100
2024-12-08 01:27:49,797 - DEBUG - Note ON: Ch 0 MIDI 84 Velocity 127
2024-12-08 01:27:49,797 - DEBUG - Note ON: Ch 2 MIDI 91 Velocity 94
2024-12-08 01:27:49,797 - DEBUG - Note ON: Ch 9 MIDI 66 Velocity 70
2024-12-08 01:27:49,797 - DEBUG - Note OFF: Ch 2 MIDI 89
2024-12-08 01:27:49,810 - DEBUG - Note ON: Ch 3 MIDI 65 Velocity 109
2024-12-08 01:27:49,942 - DEBUG - Note OFF: Ch 9 MIDI 59
2024-12-08 01:27:49,943 - DEBUG - Note OFF: Ch 2 MIDI 91
2024-12-08 01:27:49,943 - DEBUG - Note OFF: Ch 9 MIDI 66
2024-12-08 01:27:50,003 - DEBUG - Note ON: Ch 2 MIDI 84 Velocity 81
2024-12-08 01:27:50,047 - DEBUG - Note OFF: Ch 0 MIDI 84
2024-12-08 01:27:50,163 - DEBUG - Note OFF: Ch 2 MIDI 84
2024-12-08 01:27:50,174 - DEBUG - Note ON: Ch 0 MIDI 84 Velocity 96
2024-12-08 01:27:50,174 - DEBUG - Note ON: Ch 1 MIDI 81 Velocity 90
2024-12-08 01:27:50,197 - DEBUG - Note ON: Ch 0 MIDI 93 Velocity 127
2024-12-08 01:27:50,197 - DEBUG - Note ON: Ch 1 MIDI 77 Velocity 84
2024-12-08 01:27:50,210 - DEBUG - Note ON: Ch 2 MIDI 89 Velocity 90
2024-12-08 01:27:50,210 - DEBUG - Note ON: Ch 9 MIDI 66 Velocity 80
2024-12-08 01:27:50,210 - DEBUG - Note ON: Ch 9 MIDI 62 Velocity 90
2024-12-08 01:27:50,260 - DEBUG - Note OFF: Ch 3 MIDI 65
2024-12-08 01:27:50,347 - DEBUG - Note OFF: Ch 2 MIDI 89
2024-12-08 01:27:50,359 - DEBUG - Note OFF: Ch 9 MIDI 66
2024-12-08 01:27:50,373 - DEBUG - Note OFF: Ch 9 MIDI 62
2024-12-08 01:27:50,407 - DEBUG - Note OFF: Ch 1 MIDI 81
2024-12-08 01:27:50,407 - DEBUG - Note OFF: Ch 0 MIDI 93
2024-12-08 01:27:50,407 - DEBUG - Note OFF: Ch 1 MIDI 77
2024-12-08 01:27:50,407 - DEBUG - Note ON: Ch 2 MIDI 91 Velocity 91
2024-12-08 01:27:50,420 - DEBUG - Note OFF: Ch 0 MIDI 84
2024-12-08 01:27:50,577 - DEBUG - Note OFF: Ch 2 MIDI 91
2024-12-08 01:27:50,602 - DEBUG - Note ON: Ch 0 MIDI 91 Velocity 127
2024-12-08 01:27:50,602 - DEBUG - Note ON: Ch 9 MIDI 59 Velocity 100
2024-12-08 01:27:50,613 - DEBUG - Note ON: Ch 2 MIDI 96 Velocity 93
2024-12-08 01:27:50,614 - DEBUG - Note ON: Ch 9 MIDI 66 Velocity 70
2024-12-08 01:27:50,625 - DEBUG - Note ON: Ch 3 MIDI 67 Velocity 101
2024-12-08 01:27:50,759 - DEBUG - Note OFF: Ch 9 MIDI 59
2024-12-08 01:27:50,773 - DEBUG - Note OFF: Ch 9 MIDI 66
2024-12-08 01:27:50,798 - DEBUG - Note OFF: Ch 0 MIDI 91
2024-12-08 01:27:50,811 - DEBUG - Note OFF: Ch 2 MIDI 96
2024-12-08 01:27:50,822 - DEBUG - Note ON: Ch 2 MIDI 93 Velocity 91
2024-12-08 01:27:50,834 - DEBUG - Note OFF: Ch 3 MIDI 67
2024-12-08 01:27:50,998 - DEBUG - Note ON: Ch 0 MIDI 87 Velocity 104
2024-12-08 01:27:50,998 - DEBUG - Note ON: Ch 1 MIDI 81 Velocity 103
2024-12-08 01:27:51,011 - DEBUG - Note ON: Ch 3 MIDI 69 Velocity 105
2024-12-08 01:27:51,023 - DEBUG - Note ON: Ch 0 MIDI 89 Velocity 127
2024-12-08 01:27:51,024 - DEBUG - Note ON: Ch 1 MIDI 77 Velocity 88
2024-12-08 01:27:51,024 - DEBUG - Note ON: Ch 2 MIDI 91 Velocity 90
2024-12-08 01:27:51,024 - DEBUG - Note ON: Ch 9 MIDI 66 Velocity 80
2024-12-08 01:27:51,036 - DEBUG - Note ON: Ch 0 MIDI 84 Velocity 90
2024-12-08 01:27:51,036 - DEBUG - Note ON: Ch 9 MIDI 62 Velocity 90
2024-12-08 01:27:51,074 - DEBUG - Note OFF: Ch 2 MIDI 93
2024-12-08 01:27:51,171 - DEBUG - Note OFF: Ch 0 MIDI 89
2024-12-08 01:27:51,171 - DEBUG - Note OFF: Ch 3 MIDI 69
2024-12-08 01:27:51,183 - DEBUG - Note OFF: Ch 9 MIDI 66
2024-12-08 01:27:51,194 - DEBUG - Note OFF: Ch 9 MIDI 62
2024-12-08 01:27:51,241 - DEBUG - Note ON: Ch 2 MIDI 89 Velocity 86
2024-12-08 01:27:51,241 - DEBUG - Note ON: Ch 9 MIDI 66 Velocity 90
2024-12-08 01:27:51,241 - DEBUG - Note OFF: Ch 2 MIDI 91
2024-12-08 01:27:51,267 - DEBUG - Note OFF: Ch 1 MIDI 81
2024-12-08 01:27:51,292 - DEBUG - Note OFF: Ch 0 MIDI 84
2024-12-08 01:27:51,342 - DEBUG - Note OFF: Ch 0 MIDI 87
2024-12-08 01:27:51,390 - DEBUG - Note OFF: Ch 9 MIDI 66
2024-12-08 01:27:51,403 - DEBUG - Note OFF: Ch 2 MIDI 89
2024-12-08 01:27:51,427 - DEBUG - Note ON: Ch 3 MIDI 70 Velocity 113
2024-12-08 01:27:51,427 - DEBUG - Note ON: Ch 9 MIDI 59 Velocity 100
2024-12-08 01:27:51,440 - DEBUG - Note ON: Ch 0 MIDI 86 Velocity 127
2024-12-08 01:27:51,440 - DEBUG - Note ON: Ch 0 MIDI 86 Velocity 88
2024-12-08 01:27:51,440 - DEBUG - Note ON: Ch 2 MIDI 86 Velocity 89
2024-12-08 01:27:51,441 - DEBUG - Note ON: Ch 9 MIDI 66 Velocity 70
2024-12-08 01:27:51,453 - DEBUG - Note ON: Ch 1 MIDI 82 Velocity 95
2024-12-08 01:27:51,573 - DEBUG - Note OFF: Ch 1 MIDI 77
2024-12-08 01:27:51,586 - DEBUG - Note OFF: Ch 1 MIDI 82
2024-12-08 01:27:51,586 - DEBUG - Note OFF: Ch 9 MIDI 59
2024-12-08 01:27:51,598 - DEBUG - Note OFF: Ch 0 MIDI 86
2024-12-08 01:27:51,598 - DEBUG - Note OFF: Ch 9 MIDI 66
2024-12-08 01:27:51,599 - DEBUG - Note OFF: Ch 2 MIDI 86
2024-12-08 01:27:51,646 - DEBUG - Note ON: Ch 2 MIDI 89 Velocity 87
2024-12-08 01:27:51,790 - DEBUG - Note OFF: Ch 2 MIDI 89
2024-12-08 01:27:51,839 - DEBUG - Note ON: Ch 1 MIDI 82 Velocity 106
2024-12-08 01:27:51,852 - DEBUG - Note ON: Ch 2 MIDI 94 Velocity 93
2024-12-08 01:27:51,852 - DEBUG - Note ON: Ch 9 MIDI 66 Velocity 80
2024-12-08 01:27:51,865 - DEBUG - Note ON: Ch 0 MIDI 86 Velocity 99
2024-12-08 01:27:51,865 - DEBUG - Note ON: Ch 1 MIDI 77 Velocity 81
2024-12-08 01:27:51,865 - DEBUG - Note ON: Ch 9 MIDI 62 Velocity 90
2024-12-08 01:27:51,960 - DEBUG - Note OFF: Ch 3 MIDI 70
2024-12-08 01:27:52,006 - DEBUG - Note OFF: Ch 9 MIDI 66
2024-12-08 01:27:52,019 - DEBUG - Note OFF: Ch 9 MIDI 62
2024-12-08 01:27:52,019 - DEBUG - Note OFF: Ch 1 MIDI 82
2024-12-08 01:27:52,019 - DEBUG - Note OFF: Ch 1 MIDI 77
2024-12-08 01:27:52,019 - DEBUG - Note OFF: Ch 2 MIDI 94
2024-12-08 01:27:52,045 - DEBUG - Note OFF: Ch 0 MIDI 86
2024-12-08 01:27:52,057 - DEBUG - Note ON: Ch 2 MIDI 86 Velocity 81
2024-12-08 01:27:52,192 - DEBUG - Note OFF: Ch 2 MIDI 86
2024-12-08 01:27:52,252 - DEBUG - Note ON: Ch 9 MIDI 59 Velocity 100
2024-12-08 01:27:52,265 - DEBUG - Note ON: Ch 2 MIDI 89 Velocity 86
2024-12-08 01:27:52,265 - DEBUG - Note ON: Ch 3 MIDI 70 Velocity 127
2024-12-08 01:27:52,265 - DEBUG - Note ON: Ch 9 MIDI 66 Velocity 70
2024-12-08 01:27:52,390 - DEBUG - Note OFF: Ch 0 MIDI 86
2024-12-08 01:27:52,416 - DEBUG - Note OFF: Ch 9 MIDI 59
2024-12-08 01:27:52,417 - DEBUG - Note OFF: Ch 9 MIDI 66
2024-12-08 01:27:52,477 - DEBUG - Note OFF: Ch 2 MIDI 89
2024-12-08 01:27:52,477 - DEBUG - Note ON: Ch 2 MIDI 91 Velocity 85
2024-12-08 01:27:52,499 - DEBUG - Note OFF: Ch 3 MIDI 70
2024-12-08 01:27:52,613 - DEBUG - Note OFF: Ch 2 MIDI 91
2024-12-08 01:27:52,647 - DEBUG - Note ON: Ch 1 MIDI 82 Velocity 101
2024-12-08 01:27:52,660 - DEBUG - Note ON: Ch 0 MIDI 86 Velocity 101
2024-12-08 01:27:52,672 - DEBUG - Note ON: Ch 1 MIDI 77 Velocity 94
2024-12-08 01:27:52,673 - DEBUG - Note ON: Ch 2 MIDI 86 Velocity 77
2024-12-08 01:27:52,673 - DEBUG - Note ON: Ch 3 MIDI 69 Velocity 101
2024-12-08 01:27:52,673 - DEBUG - Note ON: Ch 9 MIDI 66 Velocity 80
2024-12-08 01:27:52,685 - DEBUG - Note ON: Ch 0 MIDI 86 Velocity 127
2024-12-08 01:27:52,685 - DEBUG - Note ON: Ch 9 MIDI 62 Velocity 90
2024-12-08 01:27:52,806 - DEBUG - Note OFF: Ch 2 MIDI 86
2024-12-08 01:27:52,830 - DEBUG - Note OFF: Ch 9 MIDI 66
2024-12-08 01:27:52,842 - DEBUG - Note OFF: Ch 1 MIDI 82
2024-12-08 01:27:52,843 - DEBUG - Note OFF: Ch 1 MIDI 77
2024-12-08 01:27:52,843 - DEBUG - Note OFF: Ch 9 MIDI 62
2024-12-08 01:27:52,843 - DEBUG - Note OFF: Ch 0 MIDI 86
2024-12-08 01:27:52,866 - DEBUG - Note OFF: Ch 0 MIDI 86
2024-12-08 01:27:52,879 - DEBUG - Note ON: Ch 2 MIDI 89 Velocity 89
2024-12-08 01:27:52,879 - DEBUG - Note OFF: Ch 3 MIDI 69
2024-12-08 01:27:52,879 - DEBUG - Note ON: Ch 9 MIDI 66 Velocity 90
2024-12-08 01:27:53,036 - DEBUG - Note OFF: Ch 2 MIDI 89
2024-12-08 01:27:53,036 - DEBUG - Note OFF: Ch 9 MIDI 66
2024-12-08 01:27:53,083 - DEBUG - Note ON: Ch 9 MIDI 59 Velocity 100
2024-12-08 01:27:53,083 - DEBUG - Note ON: Ch 2 MIDI 94 Velocity 94
2024-12-08 01:27:53,084 - DEBUG - Note ON: Ch 9 MIDI 66 Velocity 70
2024-12-08 01:27:53,106 - DEBUG - Note ON: Ch 0 MIDI 86 Velocity 127
2024-12-08 01:27:53,118 - DEBUG - Note ON: Ch 3 MIDI 67 Velocity 103
2024-12-08 01:27:53,238 - DEBUG - Note OFF: Ch 9 MIDI 59
2024-12-08 01:27:53,238 - DEBUG - Note OFF: Ch 9 MIDI 66
2024-12-08 01:27:53,287 - DEBUG - Note OFF: Ch 2 MIDI 94
2024-12-08 01:27:53,300 - DEBUG - Note ON: Ch 2 MIDI 86 Velocity 83
2024-12-08 01:27:53,324 - DEBUG - Note OFF: Ch 0 MIDI 86
2024-12-08 01:27:53,445 - DEBUG - Note OFF: Ch 2 MIDI 86
2024-12-08 01:27:53,470 - DEBUG - Note ON: Ch 1 MIDI 82 Velocity 109
2024-12-08 01:27:53,482 - DEBUG - Note ON: Ch 0 MIDI 86 Velocity 100
2024-12-08 01:27:53,483 - DEBUG - Note ON: Ch 1 MIDI 79 Velocity 94
2024-12-08 01:27:53,495 - DEBUG - Note ON: Ch 2 MIDI 89 Velocity 86
2024-12-08 01:27:53,495 - DEBUG - Note ON: Ch 9 MIDI 66 Velocity 80
2024-12-08 01:27:53,508 - DEBUG - Note ON: Ch 9 MIDI 62 Velocity 90
2024-12-08 01:27:53,520 - DEBUG - Note ON: Ch 0 MIDI 94 Velocity 127
2024-12-08 01:27:53,558 - DEBUG - Note OFF: Ch 3 MIDI 67
2024-12-08 01:27:53,655 - DEBUG - Note OFF: Ch 9 MIDI 66
2024-12-08 01:27:53,666 - DEBUG - Note OFF: Ch 9 MIDI 62
2024-12-08 01:27:53,678 - DEBUG - Note OFF: Ch 1 MIDI 82
2024-12-08 01:27:53,678 - DEBUG - Note OFF: Ch 2 MIDI 89
2024-12-08 01:27:53,691 - DEBUG - Note OFF: Ch 0 MIDI 86
2024-12-08 01:27:53,691 - DEBUG - Note OFF: Ch 1 MIDI 79
2024-12-08 01:27:53,704 - DEBUG - Note ON: Ch 2 MIDI 98 Velocity 95
2024-12-08 01:27:53,763 - DEBUG - Note OFF: Ch 0 MIDI 94
2024-12-08 01:27:53,910 - DEBUG - Note ON: Ch 0 MIDI 93 Velocity 127
2024-12-08 01:27:53,910 - DEBUG - Note ON: Ch 9 MIDI 59 Velocity 100
2024-12-08 01:27:53,910 - DEBUG - Note OFF: Ch 2 MIDI 98
2024-12-08 01:27:53,910 - DEBUG - Note ON: Ch 2 MIDI 89 Velocity 84
2024-12-08 01:27:53,911 - DEBUG - Note ON: Ch 3 MIDI 60 Velocity 117
2024-12-08 01:27:53,911 - DEBUG - Note ON: Ch 9 MIDI 66 Velocity 70
2024-12-08 01:27:54,059 - DEBUG - Note OFF: Ch 9 MIDI 59
2024-12-08 01:27:54,072 - DEBUG - Note OFF: Ch 2 MIDI 89
2024-12-08 01:27:54,073 - DEBUG - Note OFF: Ch 9 MIDI 66
2024-12-08 01:27:54,122 - DEBUG - Note ON: Ch 2 MIDI 86 Velocity 83
2024-12-08 01:27:54,142 - DEBUG - Note OFF: Ch 0 MIDI 93
2024-12-08 01:27:54,256 - DEBUG - Note OFF: Ch 2 MIDI 86
2024-12-08 01:27:54,321 - DEBUG - Note ON: Ch 0 MIDI 91 Velocity 127
2024-12-08 01:27:54,321 - DEBUG - Note ON: Ch 1 MIDI 82 Velocity 125
2024-12-08 01:27:54,322 - DEBUG - Note ON: Ch 2 MIDI 94 Velocity 95
2024-12-08 01:27:54,322 - DEBUG - Note ON: Ch 9 MIDI 66 Velocity 80
2024-12-08 01:27:54,335 - DEBUG - Note ON: Ch 0 MIDI 84 Velocity 94
2024-12-08 01:27:54,335 - DEBUG - Note ON: Ch 1 MIDI 76 Velocity 99
2024-12-08 01:27:54,335 - DEBUG - Note ON: Ch 9 MIDI 62 Velocity 90
2024-12-08 01:27:54,346 - DEBUG - Note OFF: Ch 3 MIDI 60
2024-12-08 01:27:54,479 - DEBUG - Note OFF: Ch 9 MIDI 66
2024-12-08 01:27:54,492 - DEBUG - Note OFF: Ch 9 MIDI 62
2024-12-08 01:27:54,505 - DEBUG - Note OFF: Ch 0 MIDI 91
2024-12-08 01:27:54,505 - DEBUG - Note OFF: Ch 0 MIDI 84
2024-12-08 01:27:54,530 - DEBUG - Note ON: Ch 2 MIDI 88 Velocity 86
2024-12-08 01:27:54,530 - DEBUG - Note ON: Ch 9 MIDI 66 Velocity 90
2024-12-08 01:27:54,543 - DEBUG - Note OFF: Ch 1 MIDI 82
2024-12-08 01:27:54,543 - DEBUG - Note OFF: Ch 1 MIDI 76
2024-12-08 01:27:54,543 - DEBUG - Note OFF: Ch 2 MIDI 94
2024-12-08 01:27:54,665 - DEBUG - Note OFF: Ch 2 MIDI 88
2024-12-08 01:27:54,690 - DEBUG - Note OFF: Ch 9 MIDI 66
2024-12-08 01:27:54,715 - DEBUG - Note ON: Ch 3 MIDI 65 Velocity 105
2024-12-08 01:27:54,728 - DEBUG - Note ON: Ch 9 MIDI 59 Velocity 100
2024-12-08 01:27:54,741 - DEBUG - Note ON: Ch 2 MIDI 96 Velocity 89
2024-12-08 01:27:54,741 - DEBUG - Note ON: Ch 9 MIDI 66 Velocity 70
2024-12-08 01:27:54,741 - DEBUG - Note ON: Ch 0 MIDI 96 Velocity 125
2024-12-08 01:27:54,882 - DEBUG - Note OFF: Ch 9 MIDI 59
2024-12-08 01:27:54,895 - DEBUG - Note OFF: Ch 9 MIDI 66
2024-12-08 01:27:54,895 - DEBUG - Note OFF: Ch 0 MIDI 96
2024-12-08 01:27:54,942 - DEBUG - Note ON: Ch 2 MIDI 89 Velocity 86
2024-12-08 01:27:54,954 - DEBUG - Note OFF: Ch 2 MIDI 96
2024-12-08 01:27:55,064 - DEBUG - Note OFF: Ch 3 MIDI 65
2024-12-08 01:27:55,077 - DEBUG - Note OFF: Ch 2 MIDI 89
2024-12-08 01:27:55,120 - DEBUG - Note ON: Ch 0 MIDI 84 Velocity 96
2024-12-08 01:27:55,132 - DEBUG - Note ON: Ch 1 MIDI 81 Velocity 103
2024-12-08 01:27:55,133 - DEBUG - Note ON: Ch 1 MIDI 77 Velocity 98
2024-12-08 01:27:55,146 - DEBUG - Note ON: Ch 2 MIDI 91 Velocity 90
2024-12-08 01:27:55,146 - DEBUG - Note ON: Ch 3 MIDI 63 Velocity 109
2024-12-08 01:27:55,146 - DEBUG - Note ON: Ch 9 MIDI 66 Velocity 80
2024-12-08 01:27:55,159 - DEBUG - Note ON: Ch 0 MIDI 96 Velocity 127
2024-12-08 01:27:55,159 - DEBUG - Note ON: Ch 9 MIDI 62 Velocity 90
2024-12-08 01:27:55,260 - DEBUG - Note OFF: Ch 3 MIDI 63
2024-12-08 01:27:55,311 - DEBUG - Note OFF: Ch 2 MIDI 91
2024-12-08 01:27:55,311 - DEBUG - Note OFF: Ch 9 MIDI 66
2024-12-08 01:27:55,311 - DEBUG - Note OFF: Ch 1 MIDI 81
2024-12-08 01:27:55,311 - DEBUG - Note OFF: Ch 9 MIDI 62
2024-12-08 01:27:55,322 - DEBUG - Note OFF: Ch 0 MIDI 84
2024-12-08 01:27:55,323 - DEBUG - Note OFF: Ch 0 MIDI 96
2024-12-08 01:27:55,350 - DEBUG - Note OFF: Ch 1 MIDI 77
2024-12-08 01:27:55,351 - DEBUG - Note ON: Ch 2 MIDI 93 Velocity 93
2024-12-08 01:27:55,518 - DEBUG - Note OFF: Ch 2 MIDI 93
2024-12-08 01:27:55,555 - DEBUG - Note ON: Ch 9 MIDI 59 Velocity 100
2024-12-08 01:27:55,569 - DEBUG - Note ON: Ch 2 MIDI 94 Velocity 95
2024-12-08 01:27:55,569 - DEBUG - Note ON: Ch 3 MIDI 62 Velocity 110
2024-12-08 01:27:55,569 - DEBUG - Note ON: Ch 9 MIDI 66 Velocity 70
2024-12-08 01:27:55,582 - DEBUG - Note ON: Ch 0 MIDI 96 Velocity 127
2024-12-08 01:27:55,702 - DEBUG - Note OFF: Ch 9 MIDI 59
2024-12-08 01:27:55,714 - DEBUG - Note OFF: Ch 9 MIDI 66
2024-12-08 01:27:55,763 - DEBUG - Note ON: Ch 2 MIDI 93 Velocity 88
2024-12-08 01:27:55,775 - DEBUG - Note OFF: Ch 2 MIDI 94
2024-12-08 01:27:55,797 - DEBUG - Note OFF: Ch 0 MIDI 96
2024-12-08 01:27:55,958 - DEBUG - Note ON: Ch 1 MIDI 78 Velocity 100
2024-12-08 01:27:55,958 - DEBUG - Note OFF: Ch 2 MIDI 93
2024-12-08 01:27:56,046 - DEBUG - Note ON: Ch 0 MIDI 86 Velocity 109
2024-12-08 01:27:56,047 - DEBUG - Note ON: Ch 1 MIDI 81 Velocity 109
2024-12-08 01:27:56,047 - DEBUG - Note ON: Ch 2 MIDI 91 Velocity 85
2024-12-08 01:27:56,047 - DEBUG - Note ON: Ch 9 MIDI 66 Velocity 80
2024-12-08 01:27:56,047 - DEBUG - Note ON: Ch 9 MIDI 62 Velocity 90
2024-12-08 01:27:56,047 - DEBUG - Note ON: Ch 0 MIDI 96 Velocity 127
2024-12-08 01:27:56,048 - DEBUG - Note OFF: Ch 3 MIDI 62
2024-12-08 01:27:56,123 - DEBUG - Note OFF: Ch 9 MIDI 66
2024-12-08 01:27:56,136 - DEBUG - Note OFF: Ch 1 MIDI 81
2024-12-08 01:27:56,136 - DEBUG - Note OFF: Ch 9 MIDI 62
2024-12-08 01:27:56,166 - DEBUG - Note OFF: Ch 0 MIDI 86
2024-12-08 01:27:56,166 - DEBUG - Note OFF: Ch 1 MIDI 78
2024-12-08 01:27:56,178 - DEBUG - Note ON: Ch 2 MIDI 90 Velocity 88
2024-12-08 01:27:56,178 - DEBUG - Note ON: Ch 9 MIDI 66 Velocity 90
2024-12-08 01:27:56,190 - DEBUG - Note OFF: Ch 2 MIDI 91
2024-12-08 01:27:56,204 - DEBUG - Note OFF: Ch 0 MIDI 96
2024-12-08 01:27:56,336 - DEBUG - Note OFF: Ch 2 MIDI 90
2024-12-08 01:27:56,336 - DEBUG - Note OFF: Ch 9 MIDI 66
2024-12-08 01:27:56,372 - DEBUG - Note ON: Ch 9 MIDI 59 Velocity 100
2024-12-08 01:27:56,386 - DEBUG - Note ON: Ch 2 MIDI 86 Velocity 75
2024-12-08 01:27:56,386 - DEBUG - Note ON: Ch 9 MIDI 66 Velocity 70
2024-12-08 01:27:56,398 - DEBUG - Note ON: Ch 3 MIDI 67 Velocity 106
2024-12-08 01:27:56,398 - DEBUG - Note ON: Ch 0 MIDI 98 Velocity 127
2024-12-08 01:27:56,532 - DEBUG - Note OFF: Ch 9 MIDI 59
2024-12-08 01:27:56,544 - DEBUG - Note OFF: Ch 2 MIDI 86
2024-12-08 01:27:56,544 - DEBUG - Note OFF: Ch 9 MIDI 66
2024-12-08 01:27:56,594 - DEBUG - Note ON: Ch 2 MIDI 89 Velocity 81
2024-12-08 01:27:56,617 - DEBUG - Note OFF: Ch 0 MIDI 98
2024-12-08 01:27:56,715 - DEBUG - Note OFF: Ch 2 MIDI 89
2024-12-08 01:27:56,802 - DEBUG - Note ON: Ch 0 MIDI 86 Velocity 115
2024-12-08 01:27:56,803 - DEBUG - Note ON: Ch 1 MIDI 77 Velocity 108
2024-12-08 01:27:56,803 - DEBUG - Note ON: Ch 9 MIDI 66 Velocity 80
2024-12-08 01:27:56,803 - DEBUG - Note ON: Ch 2 MIDI 94 Velocity 97
2024-12-08 01:27:56,803 - DEBUG - Note OFF: Ch 3 MIDI 67
2024-12-08 01:27:56,803 - DEBUG - Note ON: Ch 9 MIDI 62 Velocity 90
2024-12-08 01:27:56,817 - DEBUG - Note ON: Ch 0 MIDI 96 Velocity 127
2024-12-08 01:27:56,954 - DEBUG - Note OFF: Ch 9 MIDI 66
2024-12-08 01:27:56,965 - DEBUG - Note OFF: Ch 2 MIDI 94
2024-12-08 01:27:56,965 - DEBUG - Note OFF: Ch 9 MIDI 62
2024-12-08 01:27:56,977 - DEBUG - Note OFF: Ch 1 MIDI 77
2024-12-08 01:27:56,990 - DEBUG - Note OFF: Ch 0 MIDI 96
2024-12-08 01:27:57,002 - DEBUG - Note ON: Ch 2 MIDI 89 Velocity 89
2024-12-08 01:27:57,025 - DEBUG - Note OFF: Ch 0 MIDI 86
2024-12-08 01:27:57,134 - DEBUG - Note OFF: Ch 2 MIDI 89
2024-12-08 01:27:57,205 - DEBUG - Note ON: Ch 3 MIDI 60 Velocity 113
2024-12-08 01:27:57,205 - DEBUG - Note ON: Ch 9 MIDI 59 Velocity 100
2024-12-08 01:27:57,205 - DEBUG - Note ON: Ch 0 MIDI 94 Velocity 127
2024-12-08 01:27:57,205 - DEBUG - Note ON: Ch 2 MIDI 86 Velocity 90
2024-12-08 01:27:57,205 - DEBUG - Note ON: Ch 9 MIDI 66 Velocity 70
2024-12-08 01:27:57,360 - DEBUG - Note OFF: Ch 9 MIDI 59
2024-12-08 01:27:57,360 - DEBUG - Note OFF: Ch 9 MIDI 66
2024-12-08 01:27:57,385 - DEBUG - Note OFF: Ch 2 MIDI 86
2024-12-08 01:27:57,422 - DEBUG - Note ON: Ch 2 MIDI 88 Velocity 93
2024-12-08 01:27:57,446 - DEBUG - Note OFF: Ch 0 MIDI 94
2024-12-08 01:27:57,554 - DEBUG - Note OFF: Ch 2 MIDI 88
2024-12-08 01:27:57,579 - DEBUG - Note OFF: Ch 3 MIDI 60
2024-12-08 01:27:57,592 - DEBUG - Note ON: Ch 1 MIDI 82 Velocity 105
2024-12-08 01:27:57,604 - DEBUG - Note ON: Ch 0 MIDI 88 Velocity 100
2024-12-08 01:27:57,604 - DEBUG - Note ON: Ch 0 MIDI 91 Velocity 127
2024-12-08 01:27:57,604 - DEBUG - Note ON: Ch 1 MIDI 79 Velocity 90
2024-12-08 01:27:57,628 - DEBUG - Note ON: Ch 2 MIDI 91 Velocity 96
2024-12-08 01:27:57,628 - DEBUG - Note ON: Ch 9 MIDI 66 Velocity 80
2024-12-08 01:27:57,628 - DEBUG - Note ON: Ch 9 MIDI 62 Velocity 90
2024-12-08 01:27:57,765 - DEBUG - Note OFF: Ch 0 MIDI 91
2024-12-08 01:27:57,778 - DEBUG - Note OFF: Ch 1 MIDI 79
2024-12-08 01:27:57,778 - DEBUG - Note OFF: Ch 9 MIDI 66
2024-12-08 01:27:57,790 - DEBUG - Note OFF: Ch 2 MIDI 91
2024-12-08 01:27:57,790 - DEBUG - Note OFF: Ch 9 MIDI 62
2024-12-08 01:27:57,790 - DEBUG - Note OFF: Ch 0 MIDI 88
2024-12-08 01:27:57,790 - DEBUG - Note OFF: Ch 1 MIDI 82
2024-12-08 01:27:57,830 - DEBUG - Note ON: Ch 2 MIDI 84 Velocity 83
2024-12-08 01:27:57,830 - DEBUG - Note ON: Ch 9 MIDI 66 Velocity 90
2024-12-08 01:27:57,970 - DEBUG - Note OFF: Ch 2 MIDI 84
2024-12-08 01:27:57,982 - DEBUG - Note OFF: Ch 9 MIDI 66
2024-12-08 01:27:58,007 - DEBUG - Note ON: Ch 0 MIDI 84 Velocity 104
2024-12-08 01:27:58,007 - DEBUG - Note ON: Ch 3 MIDI 65 Velocity 105
2024-12-08 01:27:58,020 - DEBUG - Note ON: Ch 0 MIDI 89 Velocity 109
2024-12-08 01:27:58,020 - DEBUG - Note ON: Ch 1 MIDI 81 Velocity 101
2024-12-08 01:27:58,020 - DEBUG - Note ON: Ch 9 MIDI 59 Velocity 100
2024-12-08 01:27:58,032 - DEBUG - Note ON: Ch 0 MIDI 89 Velocity 127
2024-12-08 01:27:58,032 - DEBUG - Note ON: Ch 2 MIDI 89 Velocity 95
2024-12-08 01:27:58,032 - DEBUG - Note ON: Ch 9 MIDI 72 Velocity 125
2024-12-08 01:27:58,033 - DEBUG - Note ON: Ch 9 MIDI 66 Velocity 70
2024-12-08 01:27:58,178 - DEBUG - Note OFF: Ch 2 MIDI 89
2024-12-08 01:27:58,178 - DEBUG - Note OFF: Ch 9 MIDI 59
2024-12-08 01:27:58,190 - DEBUG - Note OFF: Ch 9 MIDI 72
2024-12-08 01:27:58,190 - DEBUG - Note OFF: Ch 9 MIDI 66
2024-12-08 01:27:58,225 - DEBUG - Note OFF: Ch 1 MIDI 81
2024-12-08 01:27:58,237 - DEBUG - Note ON: Ch 2 MIDI 91 Velocity 96
2024-12-08 01:27:58,263 - DEBUG - Note OFF: Ch 0 MIDI 84
2024-12-08 01:27:58,263 - DEBUG - Note OFF: Ch 0 MIDI 89
2024-12-08 01:27:58,347 - DEBUG - Note OFF: Ch 0 MIDI 89
2024-12-08 01:27:58,383 - DEBUG - Note OFF: Ch 3 MIDI 65
2024-12-08 01:27:58,407 - DEBUG - Note OFF: Ch 2 MIDI 91
2024-12-08 01:27:58,442 - DEBUG - Note ON: Ch 2 MIDI 96 Velocity 100
2024-12-08 01:27:58,442 - DEBUG - Note ON: Ch 9 MIDI 66 Velocity 80
2024-12-08 01:27:58,453 - DEBUG - Note ON: Ch 9 MIDI 62 Velocity 90
2024-12-08 01:27:58,598 - DEBUG - Note OFF: Ch 9 MIDI 66
2024-12-08 01:27:58,610 - DEBUG - Note OFF: Ch 9 MIDI 62
2024-12-08 01:27:58,648 - DEBUG - Note OFF: Ch 2 MIDI 96
2024-12-08 01:27:58,648 - DEBUG - Note ON: Ch 2 MIDI 89 Velocity 91
2024-12-08 01:27:58,663 - DEBUG - Note ON: Ch 9 MIDI 69 Velocity 113
2024-12-08 01:27:58,770 - DEBUG - Note OFF: Ch 2 MIDI 89
2024-12-08 01:27:58,817 - DEBUG - Note OFF: Ch 9 MIDI 69
2024-12-08 01:27:58,854 - DEBUG - Note ON: Ch 0 MIDI 84 Velocity 99
2024-12-08 01:27:58,854 - DEBUG - Note ON: Ch 0 MIDI 96 Velocity 127
2024-12-08 01:27:58,854 - DEBUG - Note ON: Ch 1 MIDI 82 Velocity 111
2024-12-08 01:27:58,854 - DEBUG - Note ON: Ch 3 MIDI 60 Velocity 117
2024-12-08 01:27:58,855 - DEBUG - Note ON: Ch 9 MIDI 59 Velocity 100
2024-12-08 01:27:58,855 - DEBUG - Note ON: Ch 1 MIDI 76 Velocity 98
2024-12-08 01:27:58,855 - DEBUG - Note ON: Ch 2 MIDI 91 Velocity 95
2024-12-08 01:27:58,855 - DEBUG - Note ON: Ch 9 MIDI 66 Velocity 70
2024-12-08 01:27:58,868 - DEBUG - Note ON: Ch 9 MIDI 69 Velocity 107
2024-12-08 01:27:59,002 - DEBUG - Note OFF: Ch 2 MIDI 91
2024-12-08 01:27:59,002 - DEBUG - Note OFF: Ch 9 MIDI 59
2024-12-08 01:27:59,014 - DEBUG - Note OFF: Ch 9 MIDI 66
2024-12-08 01:27:59,025 - DEBUG - Note OFF: Ch 9 MIDI 69
2024-12-08 01:27:59,062 - DEBUG - Note ON: Ch 2 MIDI 96 Velocity 106
2024-12-08 01:27:59,265 - DEBUG - Note ON: Ch 2 MIDI 93 Velocity 106
2024-12-08 01:27:59,265 - DEBUG - Note ON: Ch 9 MIDI 66 Velocity 80
2024-12-08 01:27:59,278 - DEBUG - Note ON: Ch 9 MIDI 62 Velocity 90
2024-12-08 01:27:59,278 - DEBUG - Note ON: Ch 9 MIDI 65 Velocity 127
2024-12-08 01:27:59,302 - DEBUG - Note OFF: Ch 2 MIDI 96
2024-12-08 01:27:59,424 - DEBUG - Note OFF: Ch 9 MIDI 66
2024-12-08 01:27:59,438 - DEBUG - Note OFF: Ch 0 MIDI 96
2024-12-08 01:27:59,438 - DEBUG - Note OFF: Ch 9 MIDI 62
2024-12-08 01:27:59,438 - DEBUG - Note OFF: Ch 9 MIDI 65
2024-12-08 01:27:59,462 - DEBUG - Note OFF: Ch 2 MIDI 93
2024-12-08 01:27:59,475 - DEBUG - Note ON: Ch 2 MIDI 89 Velocity 96
2024-12-08 01:27:59,475 - DEBUG - Note ON: Ch 9 MIDI 66 Velocity 90
2024-12-08 01:27:59,500 - DEBUG - Note OFF: Ch 1 MIDI 76
2024-12-08 01:27:59,524 - DEBUG - Note OFF: Ch 1 MIDI 82
2024-12-08 01:27:59,550 - DEBUG - Note OFF: Ch 3 MIDI 60
2024-12-08 01:27:59,586 - DEBUG - Note OFF: Ch 2 MIDI 89
2024-12-08 01:27:59,633 - DEBUG - Note OFF: Ch 9 MIDI 66
2024-12-08 01:27:59,644 - DEBUG - Note ON: Ch 0 MIDI 96 Velocity 127
2024-12-08 01:27:59,657 - DEBUG - Note ON: Ch 0 MIDI 91 Velocity 127
2024-12-08 01:27:59,669 - DEBUG - Note ON: Ch 9 MIDI 107 Velocity 70
2024-12-08 01:27:59,670 - DEBUG - Note ON: Ch 1 MIDI 81 Velocity 72
2024-12-08 01:27:59,670 - DEBUG - Note ON: Ch 9 MIDI 59 Velocity 100
2024-12-08 01:27:59,682 - DEBUG - Note ON: Ch 2 MIDI 89 Velocity 105
2024-12-08 01:27:59,683 - DEBUG - Note ON: Ch 2 MIDI 96 Velocity 104
2024-12-08 01:27:59,683 - DEBUG - Note ON: Ch 9 MIDI 66 Velocity 70
2024-12-08 01:27:59,683 - DEBUG - Note ON: Ch 9 MIDI 73 Velocity 71
2024-12-08 01:27:59,707 - DEBUG - Note ON: Ch 3 MIDI 65 Velocity 113
2024-12-08 01:27:59,707 - DEBUG - Note ON: Ch 4 MIDI 93 Velocity 127
2024-12-08 01:27:59,746 - DEBUG - Note OFF: Ch 1 MIDI 81
2024-12-08 01:27:59,782 - DEBUG - Note OFF: Ch 0 MIDI 84
2024-12-08 01:27:59,795 - DEBUG - Note OFF: Ch 0 MIDI 91
2024-12-08 01:27:59,795 - DEBUG - Note ON: Ch 0 MIDI 93 Velocity 103
2024-12-08 01:27:59,821 - DEBUG - Note OFF: Ch 9 MIDI 107
2024-12-08 01:27:59,832 - DEBUG - Note OFF: Ch 9 MIDI 59
2024-12-08 01:27:59,832 - DEBUG - Note OFF: Ch 9 MIDI 66
2024-12-08 01:27:59,832 - DEBUG - Note OFF: Ch 9 MIDI 73
2024-12-08 01:27:59,844 - DEBUG - Note OFF: Ch 4 MIDI 93
2024-12-08 01:27:59,893 - DEBUG - Note ON: Ch 2 MIDI 91 Velocity 100
2024-12-08 01:27:59,919 - DEBUG - Note OFF: Ch 2 MIDI 89
2024-12-08 01:27:59,944 - DEBUG - Note OFF: Ch 3 MIDI 65
2024-12-08 01:27:59,956 - DEBUG - Note OFF: Ch 0 MIDI 96
2024-12-08 01:27:59,969 - DEBUG - Note OFF: Ch 0 MIDI 93
2024-12-08 01:28:00,005 - DEBUG - Note OFF: Ch 2 MIDI 91
2024-12-08 01:28:00,068 - DEBUG - Note ON: Ch 0 MIDI 84 Velocity 93
2024-12-08 01:28:00,079 - DEBUG - Note ON: Ch 1 MIDI 81 Velocity 100
2024-12-08 01:28:00,079 - DEBUG - Note ON: Ch 9 MIDI 107 Velocity 64
2024-12-08 01:28:00,092 - DEBUG - Note ON: Ch 0 MIDI 93 Velocity 122
2024-12-08 01:28:00,092 - DEBUG - Note ON: Ch 1 MIDI 77 Velocity 88
2024-12-08 01:28:00,093 - DEBUG - Note ON: Ch 2 MIDI 93 Velocity 98
2024-12-08 01:28:00,093 - DEBUG - Note ON: Ch 4 MIDI 93 Velocity 123
2024-12-08 01:28:00,093 - DEBUG - Note ON: Ch 9 MIDI 66 Velocity 80
2024-12-08 01:28:00,104 - DEBUG - Note ON: Ch 0 MIDI 96 Velocity 111
2024-12-08 01:28:00,104 - DEBUG - Note ON: Ch 9 MIDI 62 Velocity 90
2024-12-08 01:28:00,202 - DEBUG - Note OFF: Ch 2 MIDI 96
2024-12-08 01:28:00,227 - DEBUG - Note OFF: Ch 9 MIDI 107
2024-12-08 01:28:00,239 - DEBUG - Note OFF: Ch 1 MIDI 81
2024-12-08 01:28:00,239 - DEBUG - Note OFF: Ch 4 MIDI 93
2024-12-08 01:28:00,252 - DEBUG - Note OFF: Ch 2 MIDI 93
2024-12-08 01:28:00,252 - DEBUG - Note OFF: Ch 9 MIDI 66
2024-12-08 01:28:00,252 - DEBUG - Note OFF: Ch 9 MIDI 62
2024-12-08 01:28:00,277 - DEBUG - Note OFF: Ch 0 MIDI 84
2024-12-08 01:28:00,277 - DEBUG - Note OFF: Ch 1 MIDI 77
2024-12-08 01:28:00,289 - DEBUG - Note OFF: Ch 0 MIDI 93
2024-12-08 01:28:00,302 - DEBUG - Note ON: Ch 2 MIDI 89 Velocity 77
2024-12-08 01:28:00,315 - DEBUG - Note OFF: Ch 0 MIDI 96
2024-12-08 01:28:00,423 - DEBUG - Note OFF: Ch 2 MIDI 89
2024-12-08 01:28:00,485 - DEBUG - Note ON: Ch 9 MIDI 107 Velocity 64
2024-12-08 01:28:00,497 - DEBUG - Note ON: Ch 2 MIDI 94 Velocity 108
2024-12-08 01:28:00,497 - DEBUG - Note ON: Ch 9 MIDI 59 Velocity 100
2024-12-08 01:28:00,510 - DEBUG - Note ON: Ch 0 MIDI 96 Velocity 115
2024-12-08 01:28:00,510 - DEBUG - Note ON: Ch 0 MIDI 93 Velocity 127
2024-12-08 01:28:00,511 - DEBUG - Note ON: Ch 2 MIDI 96 Velocity 83
2024-12-08 01:28:00,511 - DEBUG - Note ON: Ch 9 MIDI 66 Velocity 70
2024-12-08 01:28:00,522 - DEBUG - Note ON: Ch 3 MIDI 60 Velocity 109
2024-12-08 01:28:00,535 - DEBUG - Note ON: Ch 4 MIDI 93 Velocity 127
2024-12-08 01:28:00,648 - DEBUG - Note OFF: Ch 9 MIDI 107
2024-12-08 01:28:00,648 - DEBUG - Note OFF: Ch 9 MIDI 59
2024-12-08 01:28:00,665 - DEBUG - Note OFF: Ch 9 MIDI 66
2024-12-08 01:28:00,665 - DEBUG - Note OFF: Ch 2 MIDI 96
2024-12-08 01:28:00,690 - DEBUG - Note OFF: Ch 2 MIDI 94
2024-12-08 01:28:00,714 - DEBUG - Note ON: Ch 2 MIDI 89 Velocity 82
2024-12-08 01:28:00,810 - DEBUG - Note OFF: Ch 2 MIDI 89
2024-12-08 01:28:00,907 - DEBUG - Note ON: Ch 0 MIDI 84 Velocity 93
2024-12-08 01:28:00,907 - DEBUG - Note ON: Ch 9 MIDI 107 Velocity 61
2024-12-08 01:28:00,907 - DEBUG - Note ON: Ch 1 MIDI 81 Velocity 98
2024-12-08 01:28:00,907 - DEBUG - Note ON: Ch 2 MIDI 96 Velocity 90
2024-12-08 01:28:00,919 - DEBUG - Note ON: Ch 1 MIDI 77 Velocity 93
2024-12-08 01:28:00,919 - DEBUG - Note ON: Ch 2 MIDI 93 Velocity 95
2024-12-08 01:28:00,919 - DEBUG - Note ON: Ch 9 MIDI 66 Velocity 80
2024-12-08 01:28:00,932 - DEBUG - Note ON: Ch 9 MIDI 62 Velocity 90
2024-12-08 01:28:00,983 - DEBUG - Note OFF: Ch 4 MIDI 93
2024-12-08 01:28:01,043 - DEBUG - Note OFF: Ch 3 MIDI 60
2024-12-08 01:28:01,056 - DEBUG - Note OFF: Ch 9 MIDI 107
2024-12-08 01:28:01,070 - DEBUG - Note OFF: Ch 0 MIDI 96
2024-12-08 01:28:01,070 - DEBUG - Note OFF: Ch 2 MIDI 93
2024-12-08 01:28:01,070 - DEBUG - Note OFF: Ch 9 MIDI 66
2024-12-08 01:28:01,082 - DEBUG - Note OFF: Ch 0 MIDI 93
2024-12-08 01:28:01,082 - DEBUG - Note OFF: Ch 9 MIDI 62
2024-12-08 01:28:01,119 - DEBUG - Note ON: Ch 2 MIDI 91 Velocity 86
2024-12-08 01:28:01,119 - DEBUG - Note ON: Ch 9 MIDI 66 Velocity 90
2024-12-08 01:28:01,189 - DEBUG - Note OFF: Ch 1 MIDI 81
2024-12-08 01:28:01,214 - DEBUG - Note OFF: Ch 0 MIDI 84
2024-12-08 01:28:01,227 - DEBUG - Note OFF: Ch 1 MIDI 77
2024-12-08 01:28:01,228 - DEBUG - Note OFF: Ch 2 MIDI 96
2024-12-08 01:28:01,275 - DEBUG - Note OFF: Ch 9 MIDI 66
2024-12-08 01:28:01,309 - DEBUG - Note OFF: Ch 2 MIDI 91
2024-12-08 01:28:01,310 - DEBUG - Note ON: Ch 9 MIDI 107 Velocity 64
2024-12-08 01:28:01,322 - DEBUG - Note ON: Ch 9 MIDI 59 Velocity 100
2024-12-08 01:28:01,333 - DEBUG - Note ON: Ch 2 MIDI 89 Velocity 89
2024-12-08 01:28:01,333 - DEBUG - Note ON: Ch 3 MIDI 65 Velocity 102
2024-12-08 01:28:01,333 - DEBUG - Note ON: Ch 9 MIDI 66 Velocity 70
2024-12-08 01:28:01,357 - DEBUG - Note ON: Ch 0 MIDI 96 Velocity 127
2024-12-08 01:28:01,369 - DEBUG - Note ON: Ch 4 MIDI 93 Velocity 123
2024-12-08 01:28:01,370 - DEBUG - Note ON: Ch 0 MIDI 91 Velocity 127
2024-12-08 01:28:01,444 - DEBUG - Note ON: Ch 0 MIDI 93 Velocity 53
2024-12-08 01:28:01,466 - DEBUG - Note OFF: Ch 0 MIDI 91
2024-12-08 01:28:01,467 - DEBUG - Note OFF: Ch 9 MIDI 107
2024-12-08 01:28:01,480 - DEBUG - Note OFF: Ch 9 MIDI 59
2024-12-08 01:28:01,480 - DEBUG - Note OFF: Ch 9 MIDI 66
2024-12-08 01:28:01,505 - DEBUG - Note OFF: Ch 2 MIDI 89
2024-12-08 01:28:01,532 - DEBUG - Note OFF: Ch 4 MIDI 93
2024-12-08 01:28:01,532 - DEBUG - Note ON: Ch 2 MIDI 84 Velocity 86
2024-12-08 01:28:01,618 - DEBUG - Note OFF: Ch 0 MIDI 96
2024-12-08 01:28:01,642 - DEBUG - Note OFF: Ch 0 MIDI 93
2024-12-08 01:28:01,687 - DEBUG - Note OFF: Ch 2 MIDI 84
2024-12-08 01:28:01,687 - DEBUG - Note OFF: Ch 3 MIDI 65
2024-12-08 01:28:01,712 - DEBUG - Note ON: Ch 0 MIDI 84 Velocity 90
2024-12-08 01:28:01,712 - DEBUG - Note ON: Ch 1 MIDI 81 Velocity 90
2024-12-08 01:28:01,723 - DEBUG - Note ON: Ch 1 MIDI 77 Velocity 95
2024-12-08 01:28:01,723 - DEBUG - Note ON: Ch 9 MIDI 107 Velocity 65
2024-12-08 01:28:01,745 - DEBUG - Note ON: Ch 2 MIDI 89 Velocity 90
2024-12-08 01:28:01,746 - DEBUG - Note ON: Ch 9 MIDI 66 Velocity 80
2024-12-08 01:28:01,746 - DEBUG - Note ON: Ch 9 MIDI 62 Velocity 90
2024-12-08 01:28:01,782 - DEBUG - Note ON: Ch 0 MIDI 93 Velocity 122
2024-12-08 01:28:01,782 - DEBUG - Note ON: Ch 0 MIDI 96 Velocity 110
2024-12-08 01:28:01,782 - DEBUG - Note ON: Ch 4 MIDI 93 Velocity 127
2024-12-08 01:28:01,878 - DEBUG - Note OFF: Ch 9 MIDI 107
2024-12-08 01:28:01,902 - DEBUG - Note OFF: Ch 2 MIDI 89
2024-12-08 01:28:01,903 - DEBUG - Note OFF: Ch 9 MIDI 66
2024-12-08 01:28:01,903 - DEBUG - Note OFF: Ch 9 MIDI 62
2024-12-08 01:28:01,938 - DEBUG - Note OFF: Ch 4 MIDI 93
2024-12-08 01:28:01,950 - DEBUG - Note ON: Ch 2 MIDI 91 Velocity 97
2024-12-08 01:28:01,962 - DEBUG - Note OFF: Ch 0 MIDI 93
2024-12-08 01:28:01,973 - DEBUG - Note OFF: Ch 0 MIDI 96
2024-12-08 01:28:02,009 - DEBUG - Note OFF: Ch 1 MIDI 81
2024-12-08 01:28:02,033 - DEBUG - Note OFF: Ch 1 MIDI 77
2024-12-08 01:28:02,057 - DEBUG - Note OFF: Ch 0 MIDI 84
2024-12-08 01:28:02,119 - DEBUG - Note OFF: Ch 2 MIDI 91
2024-12-08 01:28:02,132 - DEBUG - Note ON: Ch 3 MIDI 60 Velocity 106
2024-12-08 01:28:02,132 - DEBUG - Note ON: Ch 9 MIDI 107 Velocity 63
2024-12-08 01:28:02,143 - DEBUG - Note ON: Ch 9 MIDI 59 Velocity 100
2024-12-08 01:28:02,155 - DEBUG - Note ON: Ch 2 MIDI 93 Velocity 93
2024-12-08 01:28:02,156 - DEBUG - Note ON: Ch 9 MIDI 66 Velocity 70
2024-12-08 01:28:02,167 - DEBUG - Note ON: Ch 0 MIDI 96 Velocity 119
2024-12-08 01:28:02,180 - DEBUG - Note ON: Ch 0 MIDI 93 Velocity 127
2024-12-08 01:28:02,193 - DEBUG - Note ON: Ch 4 MIDI 93 Velocity 125
2024-12-08 01:28:02,290 - DEBUG - Note OFF: Ch 9 MIDI 107
2024-12-08 01:28:02,302 - DEBUG - Note OFF: Ch 9 MIDI 59
2024-12-08 01:28:02,313 - DEBUG - Note OFF: Ch 9 MIDI 66
2024-12-08 01:28:02,337 - DEBUG - Note OFF: Ch 2 MIDI 93
2024-12-08 01:28:02,363 - DEBUG - Note ON: Ch 2 MIDI 89 Velocity 86
2024-12-08 01:28:02,493 - DEBUG - Note OFF: Ch 2 MIDI 89
2024-12-08 01:28:02,553 - DEBUG - Note ON: Ch 1 MIDI 81 Velocity 96
2024-12-08 01:28:02,554 - DEBUG - Note ON: Ch 9 MIDI 107 Velocity 65
2024-12-08 01:28:02,554 - DEBUG - Note ON: Ch 0 MIDI 84 Velocity 82
2024-12-08 01:28:02,566 - DEBUG - Note OFF: Ch 0 MIDI 93
2024-12-08 01:28:02,566 - DEBUG - Note ON: Ch 1 MIDI 77 Velocity 99
2024-12-08 01:28:02,566 - DEBUG - Note ON: Ch 2 MIDI 98 Velocity 100
2024-12-08 01:28:02,566 - DEBUG - Note OFF: Ch 4 MIDI 93
2024-12-08 01:28:02,566 - DEBUG - Note ON: Ch 9 MIDI 66 Velocity 80
2024-12-08 01:28:02,579 - DEBUG - Note ON: Ch 9 MIDI 62 Velocity 90
2024-12-08 01:28:02,629 - DEBUG - Note OFF: Ch 3 MIDI 60
2024-12-08 01:28:02,692 - DEBUG - Note OFF: Ch 0 MIDI 96
2024-12-08 01:28:02,705 - DEBUG - Note OFF: Ch 9 MIDI 107
2024-12-08 01:28:02,718 - DEBUG - Note OFF: Ch 9 MIDI 66
2024-12-08 01:28:02,729 - DEBUG - Note OFF: Ch 9 MIDI 62
2024-12-08 01:28:02,753 - DEBUG - Note OFF: Ch 2 MIDI 98
2024-12-08 01:28:02,777 - DEBUG - Note ON: Ch 2 MIDI 89 Velocity 83
2024-12-08 01:28:02,777 - DEBUG - Note ON: Ch 9 MIDI 66 Velocity 90
2024-12-08 01:28:02,825 - DEBUG - Note OFF: Ch 1 MIDI 81
2024-12-08 01:28:02,838 - DEBUG - Note OFF: Ch 1 MIDI 77
2024-12-08 01:28:02,849 - DEBUG - Note OFF: Ch 0 MIDI 84
2024-12-08 01:28:02,896 - DEBUG - Note OFF: Ch 2 MIDI 89
2024-12-08 01:28:02,922 - DEBUG - Note OFF: Ch 9 MIDI 66
2024-12-08 01:28:02,958 - DEBUG - Note ON: Ch 0 MIDI 93 Velocity 122
2024-12-08 01:28:02,959 - DEBUG - Note ON: Ch 9 MIDI 107 Velocity 64
2024-12-08 01:28:02,972 - DEBUG - Note ON: Ch 0 MIDI 96 Velocity 127
2024-12-08 01:28:02,972 - DEBUG - Note ON: Ch 3 MIDI 65 Velocity 102
2024-12-08 01:28:02,972 - DEBUG - Note ON: Ch 9 MIDI 59 Velocity 100
2024-12-08 01:28:02,984 - DEBUG - Note ON: Ch 2 MIDI 96 Velocity 102
2024-12-08 01:28:02,985 - DEBUG - Note ON: Ch 9 MIDI 66 Velocity 70
2024-12-08 01:28:02,997 - DEBUG - Note ON: Ch 4 MIDI 93 Velocity 127
2024-12-08 01:28:03,119 - DEBUG - Note OFF: Ch 9 MIDI 107
2024-12-08 01:28:03,120 - DEBUG - Note OFF: Ch 9 MIDI 59
2024-12-08 01:28:03,132 - DEBUG - Note OFF: Ch 9 MIDI 66
2024-12-08 01:28:03,180 - DEBUG - Note ON: Ch 2 MIDI 89 Velocity 90
2024-12-08 01:28:03,205 - DEBUG - Note OFF: Ch 0 MIDI 96
2024-12-08 01:28:03,205 - DEBUG - Note OFF: Ch 2 MIDI 96
2024-12-08 01:28:03,205 - DEBUG - Note OFF: Ch 4 MIDI 93
2024-12-08 01:28:03,229 - DEBUG - Note OFF: Ch 0 MIDI 93
2024-12-08 01:28:03,313 - DEBUG - Note OFF: Ch 2 MIDI 89
2024-12-08 01:28:03,362 - DEBUG - Note ON: Ch 0 MIDI 84 Velocity 99
2024-12-08 01:28:03,362 - DEBUG - Note ON: Ch 1 MIDI 81 Velocity 103
2024-12-08 01:28:03,374 - DEBUG - Note ON: Ch 0 MIDI 101 Velocity 127
2024-12-08 01:28:03,374 - DEBUG - Note ON: Ch 0 MIDI 96 Velocity 122
2024-12-08 01:28:03,374 - DEBUG - Note ON: Ch 1 MIDI 77 Velocity 92
2024-12-08 01:28:03,374 - DEBUG - Note ON: Ch 9 MIDI 107 Velocity 64
2024-12-08 01:28:03,386 - DEBUG - Note OFF: Ch 3 MIDI 65
2024-12-08 01:28:03,386 - DEBUG - Note ON: Ch 2 MIDI 91 Velocity 95
2024-12-08 01:28:03,386 - DEBUG - Note ON: Ch 4 MIDI 96 Velocity 123
2024-12-08 01:28:03,387 - DEBUG - Note ON: Ch 9 MIDI 66 Velocity 80
2024-12-08 01:28:03,398 - DEBUG - Note ON: Ch 9 MIDI 62 Velocity 90
2024-12-08 01:28:03,533 - DEBUG - Note OFF: Ch 9 MIDI 107
2024-12-08 01:28:03,546 - DEBUG - Note OFF: Ch 0 MIDI 101
2024-12-08 01:28:03,547 - DEBUG - Note OFF: Ch 0 MIDI 96
2024-12-08 01:28:03,547 - DEBUG - Note OFF: Ch 9 MIDI 66
2024-12-08 01:28:03,558 - DEBUG - Note OFF: Ch 4 MIDI 96
2024-12-08 01:28:03,559 - DEBUG - Note OFF: Ch 9 MIDI 62
2024-12-08 01:28:03,583 - DEBUG - Note OFF: Ch 2 MIDI 91
2024-12-08 01:28:03,583 - DEBUG - Note OFF: Ch 1 MIDI 81
2024-12-08 01:28:03,594 - DEBUG - Note OFF: Ch 1 MIDI 77
2024-12-08 01:28:03,595 - DEBUG - Note ON: Ch 2 MIDI 93 Velocity 98
2024-12-08 01:28:03,620 - DEBUG - Note OFF: Ch 0 MIDI 84
2024-12-08 01:28:03,785 - DEBUG - Note ON: Ch 0 MIDI 96 Velocity 127
2024-12-08 01:28:03,786 - DEBUG - Note ON: Ch 0 MIDI 89 Velocity 127
2024-12-08 01:28:03,786 - DEBUG - Note ON: Ch 3 MIDI 60 Velocity 109
2024-12-08 01:28:03,786 - DEBUG - Note ON: Ch 9 MIDI 107 Velocity 59
2024-12-08 01:28:03,797 - DEBUG - Note ON: Ch 4 MIDI 89 Velocity 127
2024-12-08 01:28:03,798 - DEBUG - Note ON: Ch 9 MIDI 59 Velocity 100
2024-12-08 01:28:03,798 - DEBUG - Note ON: Ch 2 MIDI 91 Velocity 91
2024-12-08 01:28:03,798 - DEBUG - Note ON: Ch 9 MIDI 66 Velocity 70
2024-12-08 01:28:03,855 - DEBUG - Note OFF: Ch 2 MIDI 93
2024-12-08 01:28:03,942 - DEBUG - Note OFF: Ch 9 MIDI 107
2024-12-08 01:28:03,953 - DEBUG - Note OFF: Ch 9 MIDI 59
2024-12-08 01:28:03,954 - DEBUG - Note OFF: Ch 9 MIDI 66
2024-12-08 01:28:04,013 - DEBUG - Note ON: Ch 2 MIDI 89 Velocity 86
2024-12-08 01:28:04,035 - DEBUG - Note OFF: Ch 2 MIDI 91
2024-12-08 01:28:04,170 - DEBUG - Note ON: Ch 0 MIDI 84 Velocity 94
2024-12-08 01:28:04,170 - DEBUG - Note ON: Ch 1 MIDI 81 Velocity 96
2024-12-08 01:28:04,182 - DEBUG - Note ON: Ch 1 MIDI 77 Velocity 94
2024-12-08 01:28:04,182 - DEBUG - Note OFF: Ch 2 MIDI 89
2024-12-08 01:28:04,193 - DEBUG - Note ON: Ch 9 MIDI 107 Velocity 63
2024-12-08 01:28:04,217 - DEBUG - Note ON: Ch 2 MIDI 84 Velocity 89
2024-12-08 01:28:04,218 - DEBUG - Note ON: Ch 9 MIDI 66 Velocity 80
2024-12-08 01:28:04,218 - DEBUG - Note ON: Ch 9 MIDI 62 Velocity 90
2024-12-08 01:28:04,253 - DEBUG - Note OFF: Ch 0 MIDI 96
2024-12-08 01:28:04,253 - DEBUG - Note OFF: Ch 0 MIDI 89
2024-12-08 01:28:04,254 - DEBUG - Note OFF: Ch 4 MIDI 89
2024-12-08 01:28:04,346 - DEBUG - Note OFF: Ch 9 MIDI 107
2024-12-08 01:28:04,369 - DEBUG - Note OFF: Ch 2 MIDI 84
2024-12-08 01:28:04,369 - DEBUG - Note OFF: Ch 9 MIDI 66
2024-12-08 01:28:04,382 - DEBUG - Note OFF: Ch 9 MIDI 62
2024-12-08 01:28:04,406 - DEBUG - Note ON: Ch 0 MIDI 96 Velocity 125
2024-12-08 01:28:04,407 - DEBUG - Note ON: Ch 0 MIDI 91 Velocity 121
2024-12-08 01:28:04,419 - DEBUG - Note OFF: Ch 1 MIDI 81
2024-12-08 01:28:04,419 - DEBUG - Note ON: Ch 2 MIDI 89 Velocity 94
2024-12-08 01:28:04,419 - DEBUG - Note ON: Ch 9 MIDI 66 Velocity 90
2024-12-08 01:28:04,432 - DEBUG - Note OFF: Ch 3 MIDI 60
2024-12-08 01:28:04,444 - DEBUG - Note OFF: Ch 1 MIDI 77
2024-12-08 01:28:04,444 - DEBUG - Note ON: Ch 4 MIDI 91 Velocity 115
2024-12-08 01:28:04,469 - DEBUG - Note OFF: Ch 0 MIDI 84
2024-12-08 01:28:04,482 - DEBUG - Note OFF: Ch 0 MIDI 91
2024-12-08 01:28:04,519 - DEBUG - Note OFF: Ch 0 MIDI 96
2024-12-08 01:28:04,565 - DEBUG - Note OFF: Ch 2 MIDI 89
2024-12-08 01:28:04,577 - DEBUG - Note OFF: Ch 9 MIDI 66
2024-12-08 01:28:04,589 - DEBUG - Note ON: Ch 0 MIDI 96 Velocity 121
2024-12-08 01:28:04,590 - DEBUG - Note OFF: Ch 4 MIDI 91
2024-12-08 01:28:04,590 - DEBUG - Note ON: Ch 0 MIDI 91 Velocity 127
2024-12-08 01:28:04,614 - DEBUG - Note ON: Ch 9 MIDI 107 Velocity 62
2024-12-08 01:28:04,615 - DEBUG - Note ON: Ch 3 MIDI 65 Velocity 109
2024-12-08 01:28:04,615 - DEBUG - Note ON: Ch 4 MIDI 93 Velocity 123
2024-12-08 01:28:04,615 - DEBUG - Note ON: Ch 9 MIDI 59 Velocity 100
2024-12-08 01:28:04,627 - DEBUG - Note ON: Ch 2 MIDI 98 Velocity 101
2024-12-08 01:28:04,628 - DEBUG - Note ON: Ch 9 MIDI 66 Velocity 70
2024-12-08 01:28:04,762 - DEBUG - Note ON: Ch 0 MIDI 93 Velocity 106
2024-12-08 01:28:04,762 - DEBUG - Note OFF: Ch 9 MIDI 107
2024-12-08 01:28:04,774 - DEBUG - Note OFF: Ch 9 MIDI 59
2024-12-08 01:28:04,787 - DEBUG - Note OFF: Ch 0 MIDI 91
2024-12-08 01:28:04,787 - DEBUG - Note OFF: Ch 9 MIDI 66
2024-12-08 01:28:04,823 - DEBUG - Note OFF: Ch 2 MIDI 98
2024-12-08 01:28:04,835 - DEBUG - Note ON: Ch 2 MIDI 89 Velocity 89
2024-12-08 01:28:04,836 - DEBUG - Note OFF: Ch 3 MIDI 65
2024-12-08 01:28:04,954 - DEBUG - Note OFF: Ch 2 MIDI 89
2024-12-08 01:28:05,002 - DEBUG - Note ON: Ch 0 MIDI 84 Velocity 95
2024-12-08 01:28:05,002 - DEBUG - Note ON: Ch 1 MIDI 81 Velocity 98
2024-12-08 01:28:05,002 - DEBUG - Note ON: Ch 1 MIDI 77 Velocity 90
2024-12-08 01:28:05,024 - DEBUG - Note ON: Ch 9 MIDI 107 Velocity 66
2024-12-08 01:28:05,037 - DEBUG - Note ON: Ch 2 MIDI 96 Velocity 100
2024-12-08 01:28:05,037 - DEBUG - Note ON: Ch 9 MIDI 66 Velocity 80
2024-12-08 01:28:05,049 - DEBUG - Note ON: Ch 9 MIDI 62 Velocity 90
2024-12-08 01:28:05,062 - DEBUG - Note ON: Ch 3 MIDI 65 Velocity 105
2024-12-08 01:28:05,182 - DEBUG - Note OFF: Ch 9 MIDI 107
2024-12-08 01:28:05,193 - DEBUG - Note OFF: Ch 9 MIDI 66
2024-12-08 01:28:05,206 - DEBUG - Note OFF: Ch 9 MIDI 62
2024-12-08 01:28:05,220 - DEBUG - Note OFF: Ch 2 MIDI 96
2024-12-08 01:28:05,243 - DEBUG - Note ON: Ch 2 MIDI 89 Velocity 83
2024-12-08 01:28:05,265 - DEBUG - Note OFF: Ch 1 MIDI 81
2024-12-08 01:28:05,277 - DEBUG - Note OFF: Ch 1 MIDI 77
2024-12-08 01:28:05,302 - DEBUG - Note OFF: Ch 0 MIDI 84
2024-12-08 01:28:05,313 - DEBUG - Note OFF: Ch 3 MIDI 65
2024-12-08 01:28:05,349 - DEBUG - Note OFF: Ch 4 MIDI 93
2024-12-08 01:28:05,384 - DEBUG - Note OFF: Ch 2 MIDI 89
2024-12-08 01:28:05,433 - DEBUG - Note ON: Ch 9 MIDI 107 Velocity 64
2024-12-08 01:28:05,444 - DEBUG - Note ON: Ch 9 MIDI 59 Velocity 100
2024-12-08 01:28:05,456 - DEBUG - Note ON: Ch 2 MIDI 93 Velocity 101
2024-12-08 01:28:05,456 - DEBUG - Note ON: Ch 9 MIDI 66 Velocity 70
2024-12-08 01:28:05,482 - DEBUG - Note ON: Ch 3 MIDI 67 Velocity 109
2024-12-08 01:28:05,589 - DEBUG - Note OFF: Ch 9 MIDI 107
2024-12-08 01:28:05,602 - DEBUG - Note OFF: Ch 9 MIDI 59
2024-12-08 01:28:05,602 - DEBUG - Note OFF: Ch 9 MIDI 66
2024-12-08 01:28:05,662 - DEBUG - Note ON: Ch 2 MIDI 91 Velocity 88
2024-12-08 01:28:05,695 - DEBUG - Note OFF: Ch 2 MIDI 93
2024-12-08 01:28:05,707 - DEBUG - Note OFF: Ch 3 MIDI 67
2024-12-08 01:28:05,819 - DEBUG - Note ON: Ch 0 MIDI 87 Velocity 105
2024-12-08 01:28:05,832 - DEBUG - Note ON: Ch 1 MIDI 81 Velocity 103
2024-12-08 01:28:05,832 - DEBUG - Note OFF: Ch 2 MIDI 91
2024-12-08 01:28:05,845 - DEBUG - Note ON: Ch 3 MIDI 69 Velocity 105
2024-12-08 01:28:05,846 - DEBUG - Note ON: Ch 9 MIDI 107 Velocity 64
2024-12-08 01:28:05,857 - DEBUG - Note ON: Ch 1 MIDI 77 Velocity 77
2024-12-08 01:28:05,858 - DEBUG - Note ON: Ch 2 MIDI 89 Velocity 90
2024-12-08 01:28:05,858 - DEBUG - Note ON: Ch 9 MIDI 66 Velocity 80
2024-12-08 01:28:05,870 - DEBUG - Note ON: Ch 0 MIDI 84 Velocity 81
2024-12-08 01:28:05,870 - DEBUG - Note ON: Ch 9 MIDI 62 Velocity 90
2024-12-08 01:28:05,978 - DEBUG - Note OFF: Ch 0 MIDI 93
2024-12-08 01:28:05,989 - DEBUG - Note OFF: Ch 0 MIDI 96
2024-12-08 01:28:06,002 - DEBUG - Note OFF: Ch 9 MIDI 107
2024-12-08 01:28:06,014 - DEBUG - Note OFF: Ch 3 MIDI 69
2024-12-08 01:28:06,014 - DEBUG - Note OFF: Ch 9 MIDI 66
2024-12-08 01:28:06,026 - DEBUG - Note OFF: Ch 0 MIDI 84
2024-12-08 01:28:06,026 - DEBUG - Note OFF: Ch 9 MIDI 62
2024-12-08 01:28:06,038 - DEBUG - Note OFF: Ch 2 MIDI 89
2024-12-08 01:28:06,063 - DEBUG - Note ON: Ch 2 MIDI 87 Velocity 108
2024-12-08 01:28:06,076 - DEBUG - Note ON: Ch 9 MIDI 66 Velocity 90
2024-12-08 01:28:06,076 - DEBUG - Note OFF: Ch 1 MIDI 81
2024-12-08 01:28:06,114 - DEBUG - Note OFF: Ch 1 MIDI 77
2024-12-08 01:28:06,178 - DEBUG - Note OFF: Ch 0 MIDI 87
2024-12-08 01:28:06,226 - DEBUG - Note OFF: Ch 9 MIDI 66
2024-12-08 01:28:06,226 - DEBUG - Note OFF: Ch 2 MIDI 87
2024-12-08 01:28:06,249 - DEBUG - Note ON: Ch 0 MIDI 94 Velocity 127
2024-12-08 01:28:06,262 - DEBUG - Note ON: Ch 0 MIDI 91 Velocity 122
2024-12-08 01:28:06,262 - DEBUG - Note ON: Ch 3 MIDI 70 Velocity 123
2024-12-08 01:28:06,262 - DEBUG - Note ON: Ch 9 MIDI 107 Velocity 65
2024-12-08 01:28:06,262 - DEBUG - Note ON: Ch 0 MIDI 86 Velocity 121
2024-12-08 01:28:06,262 - DEBUG - Note ON: Ch 9 MIDI 59 Velocity 100
2024-12-08 01:28:06,274 - DEBUG - Note ON: Ch 1 MIDI 77 Velocity 62
2024-12-08 01:28:06,275 - DEBUG - Note ON: Ch 2 MIDI 86 Velocity 95
2024-12-08 01:28:06,275 - DEBUG - Note ON: Ch 9 MIDI 66 Velocity 70
2024-12-08 01:28:06,286 - DEBUG - Note ON: Ch 1 MIDI 82 Velocity 90
2024-12-08 01:28:06,297 - DEBUG - Note ON: Ch 0 MIDI 86 Velocity 77
2024-12-08 01:28:06,310 - DEBUG - Note ON: Ch 4 MIDI 94 Velocity 127
2024-12-08 01:28:06,356 - DEBUG - Note OFF: Ch 0 MIDI 86
2024-12-08 01:28:06,356 - DEBUG - Note OFF: Ch 1 MIDI 77
2024-12-08 01:28:06,369 - DEBUG - Note OFF: Ch 1 MIDI 82
2024-12-08 01:28:06,394 - DEBUG - Note OFF: Ch 0 MIDI 91
2024-12-08 01:28:06,405 - DEBUG - Note OFF: Ch 0 MIDI 86
2024-12-08 01:28:06,418 - DEBUG - Note OFF: Ch 9 MIDI 107
2024-12-08 01:28:06,418 - DEBUG - Note OFF: Ch 9 MIDI 59
2024-12-08 01:28:06,432 - DEBUG - Note OFF: Ch 2 MIDI 86
2024-12-08 01:28:06,432 - DEBUG - Note OFF: Ch 9 MIDI 66
2024-12-08 01:28:06,445 - DEBUG - Note OFF: Ch 0 MIDI 94
2024-12-08 01:28:06,445 - DEBUG - Note OFF: Ch 4 MIDI 94
2024-12-08 01:28:06,469 - DEBUG - Note ON: Ch 2 MIDI 89 Velocity 93
2024-12-08 01:28:06,629 - DEBUG - Note OFF: Ch 2 MIDI 89
2024-12-08 01:28:06,676 - DEBUG - Note ON: Ch 1 MIDI 82 Velocity 115
2024-12-08 01:28:06,676 - DEBUG - Note ON: Ch 9 MIDI 107 Velocity 64
2024-12-08 01:28:06,677 - DEBUG - Note ON: Ch 0 MIDI 86 Velocity 101
2024-12-08 01:28:06,689 - DEBUG - Note ON: Ch 0 MIDI 94 Velocity 127
2024-12-08 01:28:06,690 - DEBUG - Note ON: Ch 0 MIDI 91 Velocity 118
2024-12-08 01:28:06,690 - DEBUG - Note ON: Ch 1 MIDI 77 Velocity 93
2024-12-08 01:28:06,690 - DEBUG - Note ON: Ch 2 MIDI 94 Velocity 110
2024-12-08 01:28:06,690 - DEBUG - Note ON: Ch 4 MIDI 94 Velocity 127
2024-12-08 01:28:06,691 - DEBUG - Note ON: Ch 9 MIDI 66 Velocity 80
2024-12-08 01:28:06,691 - DEBUG - Note ON: Ch 0 MIDI 86 Velocity 114
2024-12-08 01:28:06,691 - DEBUG - Note ON: Ch 9 MIDI 62 Velocity 90
2024-12-08 01:28:06,726 - DEBUG - Note OFF: Ch 3 MIDI 70
2024-12-08 01:28:06,824 - DEBUG - Note OFF: Ch 0 MIDI 86
2024-12-08 01:28:06,824 - DEBUG - Note OFF: Ch 9 MIDI 107
2024-12-08 01:28:06,837 - DEBUG - Note OFF: Ch 0 MIDI 91
2024-12-08 01:28:06,837 - DEBUG - Note OFF: Ch 4 MIDI 94
2024-12-08 01:28:06,837 - DEBUG - Note OFF: Ch 9 MIDI 66
2024-12-08 01:28:06,849 - DEBUG - Note OFF: Ch 0 MIDI 94
2024-12-08 01:28:06,849 - DEBUG - Note OFF: Ch 2 MIDI 94
2024-12-08 01:28:06,849 - DEBUG - Note OFF: Ch 9 MIDI 62
2024-12-08 01:28:06,873 - DEBUG - Note OFF: Ch 1 MIDI 82
2024-12-08 01:28:06,873 - DEBUG - Note OFF: Ch 1 MIDI 77
2024-12-08 01:28:06,885 - DEBUG - Note OFF: Ch 0 MIDI 86
2024-12-08 01:28:06,885 - DEBUG - Note ON: Ch 2 MIDI 86 Velocity 78
2024-12-08 01:28:07,016 - DEBUG - Note OFF: Ch 2 MIDI 86
2024-12-08 01:28:07,076 - DEBUG - Note ON: Ch 9 MIDI 107 Velocity 64
2024-12-08 01:28:07,089 - DEBUG - Note ON: Ch 2 MIDI 89 Velocity 93
2024-12-08 01:28:07,089 - DEBUG - Note ON: Ch 9 MIDI 59 Velocity 100
2024-12-08 01:28:07,103 - DEBUG - Note ON: Ch 3 MIDI 70 Velocity 125
2024-12-08 01:28:07,103 - DEBUG - Note ON: Ch 4 MIDI 94 Velocity 127
2024-12-08 01:28:07,103 - DEBUG - Note ON: Ch 9 MIDI 66 Velocity 70
2024-12-08 01:28:07,103 - DEBUG - Note ON: Ch 0 MIDI 91 Velocity 127
2024-12-08 01:28:07,114 - DEBUG - Note ON: Ch 0 MIDI 94 Velocity 127
2024-12-08 01:28:07,127 - DEBUG - Note ON: Ch 0 MIDI 86 Velocity 119
2024-12-08 01:28:07,238 - DEBUG - Note OFF: Ch 9 MIDI 107
2024-12-08 01:28:07,252 - DEBUG - Note OFF: Ch 9 MIDI 59
2024-12-08 01:28:07,252 - DEBUG - Note OFF: Ch 2 MIDI 89
2024-12-08 01:28:07,252 - DEBUG - Note OFF: Ch 9 MIDI 66
2024-12-08 01:28:07,309 - DEBUG - Note ON: Ch 2 MIDI 91 Velocity 90
2024-12-08 01:28:07,454 - DEBUG - Note OFF: Ch 2 MIDI 91
2024-12-08 01:28:07,489 - DEBUG - Note ON: Ch 9 MIDI 107 Velocity 66
2024-12-08 01:28:07,502 - DEBUG - Note ON: Ch 0 MIDI 86 Velocity 103
2024-12-08 01:28:07,502 - DEBUG - Note ON: Ch 1 MIDI 79 Velocity 99
2024-12-08 01:28:07,515 - DEBUG - Note ON: Ch 2 MIDI 94 Velocity 96
2024-12-08 01:28:07,515 - DEBUG - Note ON: Ch 9 MIDI 66 Velocity 80
2024-12-08 01:28:07,516 - DEBUG - Note ON: Ch 1 MIDI 82 Velocity 106
2024-12-08 01:28:07,516 - DEBUG - Note ON: Ch 9 MIDI 62 Velocity 90
2024-12-08 01:28:07,542 - DEBUG - Note OFF: Ch 4 MIDI 94
2024-12-08 01:28:07,589 - DEBUG - Note OFF: Ch 0 MIDI 86
2024-12-08 01:28:07,602 - DEBUG - Note OFF: Ch 0 MIDI 91
2024-12-08 01:28:07,602 - DEBUG - Note OFF: Ch 0 MIDI 94
2024-12-08 01:28:07,649 - DEBUG - Note OFF: Ch 9 MIDI 107
2024-12-08 01:28:07,662 - DEBUG - Note OFF: Ch 9 MIDI 66
2024-12-08 01:28:07,674 - DEBUG - Note OFF: Ch 9 MIDI 62
2024-12-08 01:28:07,687 - DEBUG - Note OFF: Ch 3 MIDI 70
2024-12-08 01:28:07,699 - DEBUG - Note OFF: Ch 2 MIDI 94
2024-12-08 01:28:07,711 - DEBUG - Note OFF: Ch 1 MIDI 82
2024-12-08 01:28:07,712 - DEBUG - Note ON: Ch 9 MIDI 66 Velocity 90
2024-12-08 01:28:07,724 - DEBUG - Note OFF: Ch 1 MIDI 79
2024-12-08 01:28:07,724 - DEBUG - Note ON: Ch 2 MIDI 89 Velocity 87
2024-12-08 01:28:07,736 - DEBUG - Note ON: Ch 0 MIDI 94 Velocity 111
2024-12-08 01:28:07,749 - DEBUG - Note ON: Ch 0 MIDI 91 Velocity 93
2024-12-08 01:28:07,749 - DEBUG - Note ON: Ch 4 MIDI 94 Velocity 123
2024-12-08 01:28:07,749 - DEBUG - Note OFF: Ch 0 MIDI 86
2024-12-08 01:28:07,750 - DEBUG - Note ON: Ch 0 MIDI 86 Velocity 93
2024-12-08 01:28:07,809 - DEBUG - Note OFF: Ch 2 MIDI 89
2024-12-08 01:28:07,822 - DEBUG - Note OFF: Ch 0 MIDI 94
2024-12-08 01:28:07,822 - DEBUG - Note OFF: Ch 0 MIDI 91
2024-12-08 01:28:07,833 - DEBUG - Note OFF: Ch 0 MIDI 86
2024-12-08 01:28:07,845 - DEBUG - Note OFF: Ch 4 MIDI 94
2024-12-08 01:28:07,869 - DEBUG - Note OFF: Ch 9 MIDI 66
2024-12-08 01:28:07,905 - DEBUG - Note ON: Ch 0 MIDI 94 Velocity 125
2024-12-08 01:28:07,905 - DEBUG - Note ON: Ch 9 MIDI 107 Velocity 62
2024-12-08 01:28:07,917 - DEBUG - Note ON: Ch 0 MIDI 91 Velocity 114
2024-12-08 01:28:07,917 - DEBUG - Note ON: Ch 9 MIDI 59 Velocity 100
2024-12-08 01:28:07,918 - DEBUG - Note ON: Ch 0 MIDI 86 Velocity 110
2024-12-08 01:28:07,918 - DEBUG - Note ON: Ch 2 MIDI 93 Velocity 93
2024-12-08 01:28:07,918 - DEBUG - Note ON: Ch 4 MIDI 94 Velocity 125
2024-12-08 01:28:07,918 - DEBUG - Note ON: Ch 9 MIDI 66 Velocity 70
2024-12-08 01:28:07,931 - DEBUG - Note ON: Ch 3 MIDI 65 Velocity 97
2024-12-08 01:28:08,065 - DEBUG - Note OFF: Ch 9 MIDI 107
2024-12-08 01:28:08,065 - DEBUG - Note OFF: Ch 9 MIDI 59
2024-12-08 01:28:08,077 - DEBUG - Note OFF: Ch 9 MIDI 66
2024-12-08 01:28:08,125 - DEBUG - Note OFF: Ch 0 MIDI 94
2024-12-08 01:28:08,126 - DEBUG - Note ON: Ch 2 MIDI 89 Velocity 100
2024-12-08 01:28:08,137 - DEBUG - Note OFF: Ch 0 MIDI 91
2024-12-08 01:28:08,137 - DEBUG - Note OFF: Ch 0 MIDI 86
2024-12-08 01:28:08,137 - DEBUG - Note OFF: Ch 4 MIDI 94
2024-12-08 01:28:08,173 - DEBUG - Note OFF: Ch 2 MIDI 93
2024-12-08 01:28:08,264 - DEBUG - Note OFF: Ch 2 MIDI 89
2024-12-08 01:28:08,314 - DEBUG - Note ON: Ch 9 MIDI 107 Velocity 65
2024-12-08 01:28:08,327 - DEBUG - Note ON: Ch 2 MIDI 84 Velocity 85
2024-12-08 01:28:08,339 - DEBUG - Note ON: Ch 0 MIDI 84 Velocity 97
2024-12-08 01:28:08,339 - DEBUG - Note ON: Ch 1 MIDI 81 Velocity 103
2024-12-08 01:28:08,340 - DEBUG - Note ON: Ch 4 MIDI 93 Velocity 125
2024-12-08 01:28:08,340 - DEBUG - Note ON: Ch 9 MIDI 66 Velocity 80
2024-12-08 01:28:08,340 - DEBUG - Note ON: Ch 1 MIDI 77 Velocity 88
2024-12-08 01:28:08,340 - DEBUG - Note OFF: Ch 3 MIDI 65
2024-12-08 01:28:08,340 - DEBUG - Note ON: Ch 9 MIDI 62 Velocity 90
2024-12-08 01:28:08,352 - DEBUG - Note ON: Ch 0 MIDI 84 Velocity 118
2024-12-08 01:28:08,352 - DEBUG - Note ON: Ch 0 MIDI 93 Velocity 127
2024-12-08 01:28:08,363 - DEBUG - Note ON: Ch 0 MIDI 89 Velocity 127
2024-12-08 01:28:08,473 - DEBUG - Note OFF: Ch 9 MIDI 107
2024-12-08 01:28:08,485 - DEBUG - Note OFF: Ch 2 MIDI 84
2024-12-08 01:28:08,485 - DEBUG - Note OFF: Ch 9 MIDI 66
2024-12-08 01:28:08,496 - DEBUG - Note OFF: Ch 4 MIDI 93
2024-12-08 01:28:08,496 - DEBUG - Note OFF: Ch 9 MIDI 62
2024-12-08 01:28:08,521 - DEBUG - Note OFF: Ch 1 MIDI 81
2024-12-08 01:28:08,522 - DEBUG - Note OFF: Ch 1 MIDI 77
2024-12-08 01:28:08,533 - DEBUG - Note OFF: Ch 0 MIDI 84
2024-12-08 01:28:08,533 - DEBUG - Note OFF: Ch 0 MIDI 89
2024-12-08 01:28:08,533 - DEBUG - Note ON: Ch 2 MIDI 89 Velocity 89
2024-12-08 01:28:08,555 - DEBUG - Note OFF: Ch 0 MIDI 93
2024-12-08 01:28:08,555 - DEBUG - Note OFF: Ch 0 MIDI 84
2024-12-08 01:28:08,662 - DEBUG - Note OFF: Ch 2 MIDI 89
2024-12-08 01:28:08,721 - DEBUG - Note ON: Ch 3 MIDI 62 Velocity 112
2024-12-08 01:28:08,733 - DEBUG - Note ON: Ch 9 MIDI 107 Velocity 62
2024-12-08 01:28:08,733 - DEBUG - Note ON: Ch 9 MIDI 59 Velocity 100
2024-12-08 01:28:08,744 - DEBUG - Note ON: Ch 2 MIDI 93 Velocity 89
2024-12-08 01:28:08,744 - DEBUG - Note ON: Ch 9 MIDI 66 Velocity 70
2024-12-08 01:28:08,757 - DEBUG - Note ON: Ch 4 MIDI 93 Velocity 121
2024-12-08 01:28:08,770 - DEBUG - Note ON: Ch 0 MIDI 84 Velocity 115
2024-12-08 01:28:08,770 - DEBUG - Note ON: Ch 0 MIDI 93 Velocity 127
2024-12-08 01:28:08,770 - DEBUG - Note ON: Ch 0 MIDI 89 Velocity 127
2024-12-08 01:28:08,882 - DEBUG - Note OFF: Ch 9 MIDI 107
2024-12-08 01:28:08,893 - DEBUG - Note OFF: Ch 9 MIDI 59
2024-12-08 01:28:08,904 - DEBUG - Note OFF: Ch 9 MIDI 66
2024-12-08 01:28:08,916 - DEBUG - Note OFF: Ch 2 MIDI 93
2024-12-08 01:28:08,953 - DEBUG - Note ON: Ch 2 MIDI 84 Velocity 82
2024-12-08 01:28:09,001 - DEBUG - Note OFF: Ch 0 MIDI 89
2024-12-08 01:28:09,002 - DEBUG - Note OFF: Ch 4 MIDI 93
2024-12-08 01:28:09,035 - DEBUG - Note OFF: Ch 0 MIDI 84
2024-12-08 01:28:09,035 - DEBUG - Note OFF: Ch 0 MIDI 93
2024-12-08 01:28:09,059 - DEBUG - Note OFF: Ch 2 MIDI 84
2024-12-08 01:28:09,141 - DEBUG - Note ON: Ch 9 MIDI 107 Velocity 65
2024-12-08 01:28:09,153 - DEBUG - Note ON: Ch 0 MIDI 93 Velocity 114
2024-12-08 01:28:09,153 - DEBUG - Note ON: Ch 0 MIDI 89 Velocity 114
2024-12-08 01:28:09,153 - DEBUG - Note ON: Ch 1 MIDI 77 Velocity 101
2024-12-08 01:28:09,153 - DEBUG - Note ON: Ch 2 MIDI 89 Velocity 91
2024-12-08 01:28:09,153 - DEBUG - Note ON: Ch 4 MIDI 93 Velocity 110
2024-12-08 01:28:09,165 - DEBUG - Note ON: Ch 0 MIDI 86 Velocity 109
2024-12-08 01:28:09,165 - DEBUG - Note ON: Ch 0 MIDI 84 Velocity 99
2024-12-08 01:28:09,166 - DEBUG - Note ON: Ch 9 MIDI 66 Velocity 80
2024-12-08 01:28:09,166 - DEBUG - Note ON: Ch 1 MIDI 81 Velocity 105
2024-12-08 01:28:09,166 - DEBUG - Note ON: Ch 9 MIDI 62 Velocity 90
2024-12-08 01:28:09,225 - DEBUG - Note OFF: Ch 3 MIDI 62
2024-12-08 01:28:09,252 - DEBUG - Note OFF: Ch 0 MIDI 89
2024-12-08 01:28:09,275 - DEBUG - Note OFF: Ch 0 MIDI 93
2024-12-08 01:28:09,275 - DEBUG - Note OFF: Ch 4 MIDI 93
2024-12-08 01:28:09,287 - DEBUG - Note OFF: Ch 0 MIDI 84
2024-12-08 01:28:09,287 - DEBUG - Note OFF: Ch 2 MIDI 89
2024-12-08 01:28:09,299 - DEBUG - Note OFF: Ch 1 MIDI 81
2024-12-08 01:28:09,299 - DEBUG - Note OFF: Ch 9 MIDI 107
2024-12-08 01:28:09,312 - DEBUG - Note OFF: Ch 9 MIDI 66
2024-12-08 01:28:09,323 - DEBUG - Note OFF: Ch 9 MIDI 62
2024-12-08 01:28:09,334 - DEBUG - Note OFF: Ch 1 MIDI 77
2024-12-08 01:28:09,358 - DEBUG - Note OFF: Ch 0 MIDI 86
2024-12-08 01:28:09,371 - DEBUG - Note ON: Ch 2 MIDI 93 Velocity 95
2024-12-08 01:28:09,372 - DEBUG - Note ON: Ch 9 MIDI 66 Velocity 90
2024-12-08 01:28:09,372 - DEBUG - Note ON: Ch 0 MIDI 93 Velocity 101
2024-12-08 01:28:09,372 - DEBUG - Note ON: Ch 0 MIDI 89 Velocity 108
2024-12-08 01:28:09,372 - DEBUG - Note ON: Ch 4 MIDI 93 Velocity 113
2024-12-08 01:28:09,384 - DEBUG - Note ON: Ch 0 MIDI 84 Velocity 83
2024-12-08 01:28:09,458 - DEBUG - Note OFF: Ch 0 MIDI 89
2024-12-08 01:28:09,472 - DEBUG - Note OFF: Ch 0 MIDI 84
2024-12-08 01:28:09,472 - DEBUG - Note OFF: Ch 0 MIDI 93
2024-12-08 01:28:09,483 - DEBUG - Note OFF: Ch 4 MIDI 93
2024-12-08 01:28:09,521 - DEBUG - Note OFF: Ch 9 MIDI 66
2024-12-08 01:28:09,557 - DEBUG - Note OFF: Ch 2 MIDI 93
2024-12-08 01:28:09,557 - DEBUG - Note ON: Ch 3 MIDI 67 Velocity 106
2024-12-08 01:28:09,557 - DEBUG - Note ON: Ch 9 MIDI 107 Velocity 64
2024-12-08 01:28:09,557 - DEBUG - Note ON: Ch 1 MIDI 83 Velocity 122
2024-12-08 01:28:09,558 - DEBUG - Note ON: Ch 4 MIDI 93 Velocity 107
2024-12-08 01:28:09,558 - DEBUG - Note ON: Ch 9 MIDI 59 Velocity 100
2024-12-08 01:28:09,570 - DEBUG - Note ON: Ch 0 MIDI 93 Velocity 122
2024-12-08 01:28:09,570 - DEBUG - Note ON: Ch 2 MIDI 91 Velocity 95
2024-12-08 01:28:09,570 - DEBUG - Note ON: Ch 9 MIDI 66 Velocity 70
2024-12-08 01:28:09,582 - DEBUG - Note ON: Ch 0 MIDI 89 Velocity 125
2024-12-08 01:28:09,713 - DEBUG - Note OFF: Ch 9 MIDI 107
2024-12-08 01:28:09,713 - DEBUG - Note OFF: Ch 9 MIDI 59
2024-12-08 01:28:09,725 - DEBUG - Note OFF: Ch 2 MIDI 91
2024-12-08 01:28:09,725 - DEBUG - Note OFF: Ch 9 MIDI 66
2024-12-08 01:28:09,773 - DEBUG - Note OFF: Ch 4 MIDI 93
2024-12-08 01:28:09,773 - DEBUG - Note ON: Ch 2 MIDI 86 Velocity 81
2024-12-08 01:28:09,835 - DEBUG - Note OFF: Ch 0 MIDI 89
2024-12-08 01:28:09,872 - DEBUG - Note OFF: Ch 1 MIDI 83
2024-12-08 01:28:09,883 - DEBUG - Note OFF: Ch 0 MIDI 93
2024-12-08 01:28:09,894 - DEBUG - Note OFF: Ch 2 MIDI 86
2024-12-08 01:28:09,966 - DEBUG - Note ON: Ch 1 MIDI 83 Velocity 105
2024-12-08 01:28:09,966 - DEBUG - Note ON: Ch 9 MIDI 107 Velocity 64
2024-12-08 01:28:09,978 - DEBUG - Note ON: Ch 0 MIDI 91 Velocity 122
2024-12-08 01:28:09,978 - DEBUG - Note ON: Ch 0 MIDI 86 Velocity 109
2024-12-08 01:28:09,978 - DEBUG - Note ON: Ch 2 MIDI 89 Velocity 93
2024-12-08 01:28:09,978 - DEBUG - Note OFF: Ch 3 MIDI 67
2024-12-08 01:28:09,978 - DEBUG - Note ON: Ch 0 MIDI 89 Velocity 116
2024-12-08 01:28:09,978 - DEBUG - Note ON: Ch 1 MIDI 83 Velocity 106
2024-12-08 01:28:09,979 - DEBUG - Note ON: Ch 1 MIDI 77 Velocity 93
2024-12-08 01:28:09,979 - DEBUG - Note ON: Ch 9 MIDI 66 Velocity 80
2024-12-08 01:28:09,992 - DEBUG - Note ON: Ch 9 MIDI 62 Velocity 90
2024-12-08 01:28:10,014 - DEBUG - Note ON: Ch 4 MIDI 91 Velocity 123
2024-12-08 01:28:10,123 - DEBUG - Note OFF: Ch 0 MIDI 89
2024-12-08 01:28:10,123 - DEBUG - Note OFF: Ch 9 MIDI 107
2024-12-08 01:28:10,135 - DEBUG - Note OFF: Ch 2 MIDI 89
2024-12-08 01:28:10,135 - DEBUG - Note OFF: Ch 9 MIDI 66
2024-12-08 01:28:10,147 - DEBUG - Note OFF: Ch 9 MIDI 62
2024-12-08 01:28:10,160 - DEBUG - Note OFF: Ch 0 MIDI 91
2024-12-08 01:28:10,160 - DEBUG - Note OFF: Ch 1 MIDI 83
2024-12-08 01:28:10,160 - DEBUG - Note OFF: Ch 1 MIDI 77
2024-12-08 01:28:10,172 - DEBUG - Note OFF: Ch 1 MIDI 83
2024-12-08 01:28:10,172 - DEBUG - Note OFF: Ch 4 MIDI 91
2024-12-08 01:28:10,185 - DEBUG - Note ON: Ch 2 MIDI 91 Velocity 95
2024-12-08 01:28:10,210 - DEBUG - Note OFF: Ch 0 MIDI 86
2024-12-08 01:28:10,376 - DEBUG - Note ON: Ch 3 MIDI 67 Velocity 107
2024-12-08 01:28:10,376 - DEBUG - Note ON: Ch 9 MIDI 107 Velocity 62
2024-12-08 01:28:10,389 - DEBUG - Note ON: Ch 1 MIDI 83 Velocity 118
2024-12-08 01:28:10,389 - DEBUG - Note ON: Ch 9 MIDI 59 Velocity 100
2024-12-08 01:28:10,401 - DEBUG - Note ON: Ch 0 MIDI 91 Velocity 127
2024-12-08 01:28:10,402 - DEBUG - Note ON: Ch 0 MIDI 89 Velocity 127
2024-12-08 01:28:10,402 - DEBUG - Note ON: Ch 2 MIDI 89 Velocity 88
2024-12-08 01:28:10,402 - DEBUG - Note ON: Ch 9 MIDI 66 Velocity 70
2024-12-08 01:28:10,426 - DEBUG - Note OFF: Ch 2 MIDI 91
2024-12-08 01:28:10,438 - DEBUG - Note ON: Ch 4 MIDI 91 Velocity 119
2024-12-08 01:28:10,502 - DEBUG - Note OFF: Ch 2 MIDI 89
2024-12-08 01:28:10,536 - DEBUG - Note OFF: Ch 9 MIDI 107
2024-12-08 01:28:10,536 - DEBUG - Note OFF: Ch 9 MIDI 59
2024-12-08 01:28:10,549 - DEBUG - Note OFF: Ch 9 MIDI 66
2024-12-08 01:28:10,597 - DEBUG - Note ON: Ch 2 MIDI 86 Velocity 84
2024-12-08 01:28:10,610 - DEBUG - Note OFF: Ch 0 MIDI 89
2024-12-08 01:28:10,622 - DEBUG - Note OFF: Ch 0 MIDI 91
2024-12-08 01:28:10,622 - DEBUG - Note OFF: Ch 1 MIDI 83
2024-12-08 01:28:10,622 - DEBUG - Note OFF: Ch 4 MIDI 91
2024-12-08 01:28:10,746 - DEBUG - Note OFF: Ch 2 MIDI 86
2024-12-08 01:28:10,794 - DEBUG - Note ON: Ch 0 MIDI 86 Velocity 108
2024-12-08 01:28:10,794 - DEBUG - Note ON: Ch 1 MIDI 83 Velocity 101
2024-12-08 01:28:10,794 - DEBUG - Note ON: Ch 9 MIDI 107 Velocity 65
2024-12-08 01:28:10,794 - DEBUG - Note ON: Ch 1 MIDI 77 Velocity 103
2024-12-08 01:28:10,805 - DEBUG - Note ON: Ch 2 MIDI 89 Velocity 96
2024-12-08 01:28:10,805 - DEBUG - Note ON: Ch 9 MIDI 66 Velocity 80
2024-12-08 01:28:10,817 - DEBUG - Note ON: Ch 0 MIDI 93 Velocity 127
2024-12-08 01:28:10,817 - DEBUG - Note ON: Ch 9 MIDI 62 Velocity 90
2024-12-08 01:28:10,829 - DEBUG - Note ON: Ch 0 MIDI 89 Velocity 127
2024-12-08 01:28:10,830 - DEBUG - Note ON: Ch 4 MIDI 93 Velocity 127
2024-12-08 01:28:10,830 - DEBUG - Note ON: Ch 1 MIDI 83 Velocity 125
2024-12-08 01:28:10,853 - DEBUG - Note OFF: Ch 3 MIDI 67
2024-12-08 01:28:10,949 - DEBUG - Note OFF: Ch 9 MIDI 107
2024-12-08 01:28:10,961 - DEBUG - Note OFF: Ch 9 MIDI 66
2024-12-08 01:28:10,974 - DEBUG - Note OFF: Ch 9 MIDI 62
2024-12-08 01:28:10,974 - DEBUG - Note OFF: Ch 2 MIDI 89
2024-12-08 01:28:10,986 - DEBUG - Note OFF: Ch 0 MIDI 89
2024-12-08 01:28:10,998 - DEBUG - Note OFF: Ch 4 MIDI 93
2024-12-08 01:28:11,011 - DEBUG - Note OFF: Ch 1 MIDI 83
2024-12-08 01:28:11,012 - DEBUG - Note OFF: Ch 1 MIDI 83
2024-12-08 01:28:11,012 - DEBUG - Note ON: Ch 2 MIDI 91 Velocity 90
2024-12-08 01:28:11,012 - DEBUG - Note ON: Ch 9 MIDI 66 Velocity 90
2024-12-08 01:28:11,038 - DEBUG - Note OFF: Ch 0 MIDI 93
2024-12-08 01:28:11,038 - DEBUG - Note OFF: Ch 1 MIDI 77
2024-12-08 01:28:11,049 - DEBUG - Note OFF: Ch 0 MIDI 86
2024-12-08 01:28:11,169 - DEBUG - Note OFF: Ch 9 MIDI 66
2024-12-08 01:28:11,181 - DEBUG - Note OFF: Ch 2 MIDI 91
2024-12-08 01:28:11,205 - DEBUG - Note ON: Ch 9 MIDI 107 Velocity 59
2024-12-08 01:28:11,217 - DEBUG - Note ON: Ch 0 MIDI 91 Velocity 125
2024-12-08 01:28:11,217 - DEBUG - Note ON: Ch 9 MIDI 59 Velocity 100
2024-12-08 01:28:11,217 - DEBUG - Note ON: Ch 2 MIDI 88 Velocity 87
2024-12-08 01:28:11,217 - DEBUG - Note ON: Ch 3 MIDI 60 Velocity 115
2024-12-08 01:28:11,218 - DEBUG - Note ON: Ch 9 MIDI 66 Velocity 70
2024-12-08 01:28:11,229 - DEBUG - Note ON: Ch 0 MIDI 89 Velocity 116
2024-12-08 01:28:11,230 - DEBUG - Note ON: Ch 1 MIDI 82 Velocity 127
2024-12-08 01:28:11,242 - DEBUG - Note ON: Ch 4 MIDI 91 Velocity 123
2024-12-08 01:28:11,352 - DEBUG - Note OFF: Ch 9 MIDI 107
2024-12-08 01:28:11,363 - DEBUG - Note OFF: Ch 9 MIDI 59
2024-12-08 01:28:11,376 - DEBUG - Note OFF: Ch 9 MIDI 66
2024-12-08 01:28:11,389 - DEBUG - Note OFF: Ch 2 MIDI 88
2024-12-08 01:28:11,424 - DEBUG - Note ON: Ch 2 MIDI 96 Velocity 89
2024-12-08 01:28:11,593 - DEBUG - Note OFF: Ch 2 MIDI 96
2024-12-08 01:28:11,616 - DEBUG - Note ON: Ch 9 MIDI 107 Velocity 64
2024-12-08 01:28:11,629 - DEBUG - Note ON: Ch 0 MIDI 84 Velocity 93
2024-12-08 01:28:11,629 - DEBUG - Note ON: Ch 1 MIDI 82 Velocity 98
2024-12-08 01:28:11,629 - DEBUG - Note ON: Ch 2 MIDI 88 Velocity 89
2024-12-08 01:28:11,630 - DEBUG - Note ON: Ch 9 MIDI 66 Velocity 80
2024-12-08 01:28:11,641 - DEBUG - Note ON: Ch 0 MIDI 88 Velocity 101
2024-12-08 01:28:11,642 - DEBUG - Note ON: Ch 1 MIDI 79 Velocity 88
2024-12-08 01:28:11,642 - DEBUG - Note ON: Ch 9 MIDI 62 Velocity 90
2024-12-08 01:28:11,664 - DEBUG - Note OFF: Ch 4 MIDI 91
2024-12-08 01:28:11,689 - DEBUG - Note OFF: Ch 1 MIDI 82
2024-12-08 01:28:11,713 - DEBUG - Note OFF: Ch 3 MIDI 60
2024-12-08 01:28:11,713 - DEBUG - Note OFF: Ch 0 MIDI 89
2024-12-08 01:28:11,749 - DEBUG - Note OFF: Ch 0 MIDI 91
2024-12-08 01:28:11,773 - DEBUG - Note OFF: Ch 9 MIDI 107
2024-12-08 01:28:11,785 - DEBUG - Note OFF: Ch 2 MIDI 88
2024-12-08 01:28:11,785 - DEBUG - Note OFF: Ch 9 MIDI 66
2024-12-08 01:28:11,797 - DEBUG - Note OFF: Ch 9 MIDI 62
2024-12-08 01:28:11,822 - DEBUG - Note OFF: Ch 1 MIDI 79
2024-12-08 01:28:11,833 - DEBUG - Note OFF: Ch 0 MIDI 84
2024-12-08 01:28:11,833 - DEBUG - Note OFF: Ch 1 MIDI 82
2024-12-08 01:28:11,833 - DEBUG - Note ON: Ch 2 MIDI 84 Velocity 85
2024-12-08 01:28:11,869 - DEBUG - Note OFF: Ch 0 MIDI 88
2024-12-08 01:28:11,965 - DEBUG - Note OFF: Ch 2 MIDI 84
2024-12-08 01:28:12,025 - DEBUG - Note ON: Ch 9 MIDI 107 Velocity 61
2024-12-08 01:28:12,036 - DEBUG - Note ON: Ch 9 MIDI 59 Velocity 100
2024-12-08 01:28:12,049 - DEBUG - Note ON: Ch 2 MIDI 89 Velocity 95
2024-12-08 01:28:12,049 - DEBUG - Note ON: Ch 9 MIDI 66 Velocity 70
2024-12-08 01:28:12,049 - DEBUG - Note ON: Ch 0 MIDI 84 Velocity 100
2024-12-08 01:28:12,062 - DEBUG - Note ON: Ch 0 MIDI 96 Velocity 127
2024-12-08 01:28:12,062 - DEBUG - Note ON: Ch 3 MIDI 60 Velocity 117
2024-12-08 01:28:12,073 - DEBUG - Note ON: Ch 0 MIDI 88 Velocity 127
2024-12-08 01:28:12,085 - DEBUG - Note ON: Ch 4 MIDI 96 Velocity 127
2024-12-08 01:28:12,183 - DEBUG - Note OFF: Ch 9 MIDI 107
2024-12-08 01:28:12,194 - DEBUG - Note OFF: Ch 9 MIDI 59
2024-12-08 01:28:12,194 - DEBUG - Note OFF: Ch 2 MIDI 89
2024-12-08 01:28:12,194 - DEBUG - Note OFF: Ch 9 MIDI 66
2024-12-08 01:28:12,255 - DEBUG - Note ON: Ch 2 MIDI 96 Velocity 93
2024-12-08 01:28:12,436 - DEBUG - Note ON: Ch 0 MIDI 88 Velocity 105
2024-12-08 01:28:12,436 - DEBUG - Note ON: Ch 1 MIDI 82 Velocity 99
2024-12-08 01:28:12,436 - DEBUG - Note ON: Ch 9 MIDI 107 Velocity 60
2024-12-08 01:28:12,449 - DEBUG - Note ON: Ch 0 MIDI 84 Velocity 88
2024-12-08 01:28:12,462 - DEBUG - Note ON: Ch 1 MIDI 79 Velocity 83
2024-12-08 01:28:12,462 - DEBUG - Note OFF: Ch 2 MIDI 96
2024-12-08 01:28:12,462 - DEBUG - Note ON: Ch 2 MIDI 89 Velocity 91
2024-12-08 01:28:12,462 - DEBUG - Note ON: Ch 9 MIDI 66 Velocity 80
2024-12-08 01:28:12,462 - DEBUG - Note ON: Ch 9 MIDI 62 Velocity 90
2024-12-08 01:28:12,512 - DEBUG - Note OFF: Ch 3 MIDI 60
2024-12-08 01:28:12,512 - DEBUG - Note OFF: Ch 4 MIDI 96
2024-12-08 01:28:12,535 - DEBUG - Note OFF: Ch 0 MIDI 88
2024-12-08 01:28:12,562 - DEBUG - Note OFF: Ch 0 MIDI 84
2024-12-08 01:28:12,563 - DEBUG - Note OFF: Ch 0 MIDI 96
2024-12-08 01:28:12,589 - DEBUG - Note OFF: Ch 9 MIDI 107
2024-12-08 01:28:12,614 - DEBUG - Note OFF: Ch 2 MIDI 89
2024-12-08 01:28:12,614 - DEBUG - Note OFF: Ch 9 MIDI 66
2024-12-08 01:28:12,614 - DEBUG - Note OFF: Ch 9 MIDI 62
2024-12-08 01:28:12,663 - DEBUG - Note ON: Ch 2 MIDI 91 Velocity 91
2024-12-08 01:28:12,663 - DEBUG - Note ON: Ch 9 MIDI 66 Velocity 90
2024-12-08 01:28:12,676 - DEBUG - Note OFF: Ch 1 MIDI 79
2024-12-08 01:28:12,702 - DEBUG - Note OFF: Ch 1 MIDI 82
2024-12-08 01:28:12,713 - DEBUG - Note OFF: Ch 0 MIDI 84
2024-12-08 01:28:12,725 - DEBUG - Note OFF: Ch 0 MIDI 88
2024-12-08 01:28:12,811 - DEBUG - Note OFF: Ch 2 MIDI 91
2024-12-08 01:28:12,811 - DEBUG - Note OFF: Ch 9 MIDI 66
2024-12-08 01:28:12,846 - DEBUG - Note ON: Ch 0 MIDI 91 Velocity 127
2024-12-08 01:28:12,846 - DEBUG - Note ON: Ch 0 MIDI 84 Velocity 87
2024-12-08 01:28:12,846 - DEBUG - Note ON: Ch 9 MIDI 107 Velocity 64
2024-12-08 01:28:12,859 - DEBUG - Note ON: Ch 0 MIDI 96 Velocity 127
2024-12-08 01:28:12,859 - DEBUG - Note ON: Ch 9 MIDI 59 Velocity 100
2024-12-08 01:28:12,872 - DEBUG - Note ON: Ch 2 MIDI 96 Velocity 95
2024-12-08 01:28:12,872 - DEBUG - Note ON: Ch 3 MIDI 65 Velocity 103
2024-12-08 01:28:12,872 - DEBUG - Note ON: Ch 9 MIDI 66 Velocity 70
2024-12-08 01:28:12,872 - DEBUG - Note ON: Ch 1 MIDI 81 Velocity 84
2024-12-08 01:28:12,883 - DEBUG - Note ON: Ch 1 MIDI 77 Velocity 78
2024-12-08 01:28:12,895 - DEBUG - Note ON: Ch 4 MIDI 93 Velocity 127
2024-12-08 01:28:12,956 - DEBUG - Note OFF: Ch 1 MIDI 81
2024-12-08 01:28:12,969 - DEBUG - Note OFF: Ch 1 MIDI 77
2024-12-08 01:28:12,969 - DEBUG - Note OFF: Ch 0 MIDI 84
2024-12-08 01:28:13,005 - DEBUG - Note OFF: Ch 9 MIDI 107
2024-12-08 01:28:13,016 - DEBUG - Note ON: Ch 0 MIDI 93 Velocity 106
2024-12-08 01:28:13,016 - DEBUG - Note OFF: Ch 9 MIDI 59
2024-12-08 01:28:13,029 - DEBUG - Note OFF: Ch 9 MIDI 66
2024-12-08 01:28:13,053 - DEBUG - Note OFF: Ch 0 MIDI 91
2024-12-08 01:28:13,053 - DEBUG - Note OFF: Ch 4 MIDI 93
2024-12-08 01:28:13,077 - DEBUG - Note OFF: Ch 2 MIDI 96
2024-12-08 01:28:13,077 - DEBUG - Note ON: Ch 2 MIDI 89 Velocity 90
2024-12-08 01:28:13,161 - DEBUG - Note OFF: Ch 0 MIDI 96
2024-12-08 01:28:13,173 - DEBUG - Note OFF: Ch 0 MIDI 93
2024-12-08 01:28:13,222 - DEBUG - Note OFF: Ch 2 MIDI 89
2024-12-08 01:28:13,223 - DEBUG - Note OFF: Ch 3 MIDI 65
2024-12-08 01:28:13,269 - DEBUG - Note ON: Ch 0 MIDI 84 Velocity 93
2024-12-08 01:28:13,269 - DEBUG - Note ON: Ch 9 MIDI 107 Velocity 62
2024-12-08 01:28:13,269 - DEBUG - Note ON: Ch 0 MIDI 93 Velocity 118
2024-12-08 01:28:13,270 - DEBUG - Note ON: Ch 1 MIDI 81 Velocity 104
2024-12-08 01:28:13,270 - DEBUG - Note ON: Ch 1 MIDI 77 Velocity 97
2024-12-08 01:28:13,283 - DEBUG - Note ON: Ch 0 MIDI 96 Velocity 101
2024-12-08 01:28:13,283 - DEBUG - Note ON: Ch 2 MIDI 93 Velocity 101
2024-12-08 01:28:13,284 - DEBUG - Note ON: Ch 9 MIDI 66 Velocity 80
2024-12-08 01:28:13,284 - DEBUG - Note ON: Ch 9 MIDI 62 Velocity 90
2024-12-08 01:28:13,307 - DEBUG - Note ON: Ch 4 MIDI 93 Velocity 121
2024-12-08 01:28:13,418 - DEBUG - Note OFF: Ch 9 MIDI 107
2024-12-08 01:28:13,432 - DEBUG - Note OFF: Ch 9 MIDI 66
2024-12-08 01:28:13,445 - DEBUG - Note OFF: Ch 4 MIDI 93
2024-12-08 01:28:13,445 - DEBUG - Note OFF: Ch 9 MIDI 62
2024-12-08 01:28:13,456 - DEBUG - Note OFF: Ch 1 MIDI 81
2024-12-08 01:28:13,457 - DEBUG - Note OFF: Ch 2 MIDI 93
2024-12-08 01:28:13,481 - DEBUG - Note OFF: Ch 0 MIDI 93
2024-12-08 01:28:13,482 - DEBUG - Note OFF: Ch 1 MIDI 77
2024-12-08 01:28:13,482 - DEBUG - Note ON: Ch 2 MIDI 94 Velocity 104
2024-12-08 01:28:13,494 - DEBUG - Note OFF: Ch 0 MIDI 84
2024-12-08 01:28:13,494 - DEBUG - Note OFF: Ch 0 MIDI 96
2024-12-08 01:28:13,676 - DEBUG - Note ON: Ch 9 MIDI 107 Velocity 61
2024-12-08 01:28:13,689 - DEBUG - Note ON: Ch 0 MIDI 96 Velocity 127
2024-12-08 01:28:13,689 - DEBUG - Note OFF: Ch 2 MIDI 94
2024-12-08 01:28:13,689 - DEBUG - Note ON: Ch 9 MIDI 59 Velocity 100
2024-12-08 01:28:13,689 - DEBUG - Note ON: Ch 0 MIDI 93 Velocity 127
2024-12-08 01:28:13,690 - DEBUG - Note ON: Ch 2 MIDI 93 Velocity 98
2024-12-08 01:28:13,690 - DEBUG - Note ON: Ch 3 MIDI 60 Velocity 106
2024-12-08 01:28:13,690 - DEBUG - Note ON: Ch 9 MIDI 66 Velocity 70
2024-12-08 01:28:13,714 - DEBUG - Note ON: Ch 4 MIDI 93 Velocity 127
2024-12-08 01:28:13,833 - DEBUG - Note OFF: Ch 9 MIDI 107
2024-12-08 01:28:13,833 - DEBUG - Note OFF: Ch 9 MIDI 59
2024-12-08 01:28:13,845 - DEBUG - Note OFF: Ch 9 MIDI 66
2024-12-08 01:28:13,881 - DEBUG - Note OFF: Ch 2 MIDI 93
2024-12-08 01:28:13,893 - DEBUG - Note ON: Ch 2 MIDI 91 Velocity 90
2024-12-08 01:28:14,084 - DEBUG - Note OFF: Ch 2 MIDI 91
2024-12-08 01:28:14,084 - DEBUG - Note ON: Ch 9 MIDI 107 Velocity 64
2024-12-08 01:28:14,098 - DEBUG - Note ON: Ch 0 MIDI 84 Velocity 90
2024-12-08 01:28:14,110 - DEBUG - Note ON: Ch 1 MIDI 81 Velocity 98
2024-12-08 01:28:14,110 - DEBUG - Note ON: Ch 1 MIDI 77 Velocity 96
2024-12-08 01:28:14,110 - DEBUG - Note ON: Ch 2 MIDI 89 Velocity 100
2024-12-08 01:28:14,110 - DEBUG - Note ON: Ch 9 MIDI 66 Velocity 80
2024-12-08 01:28:14,110 - DEBUG - Note ON: Ch 9 MIDI 62 Velocity 90
2024-12-08 01:28:14,133 - DEBUG - Note OFF: Ch 4 MIDI 93
2024-12-08 01:28:14,155 - DEBUG - Note OFF: Ch 3 MIDI 60
2024-12-08 01:28:14,238 - DEBUG - Note OFF: Ch 9 MIDI 107
2024-12-08 01:28:14,264 - DEBUG - Note OFF: Ch 9 MIDI 66
2024-12-08 01:28:14,264 - DEBUG - Note OFF: Ch 2 MIDI 89
2024-12-08 01:28:14,264 - DEBUG - Note OFF: Ch 9 MIDI 62
2024-12-08 01:28:14,290 - DEBUG - Note OFF: Ch 0 MIDI 96
2024-12-08 01:28:14,290 - DEBUG - Note OFF: Ch 0 MIDI 93
2024-12-08 01:28:14,314 - DEBUG - Note OFF: Ch 1 MIDI 81
2024-12-08 01:28:14,314 - DEBUG - Note ON: Ch 2 MIDI 84 Velocity 83
2024-12-08 01:28:14,314 - DEBUG - Note ON: Ch 9 MIDI 66 Velocity 90
2024-12-08 01:28:14,339 - DEBUG - Note OFF: Ch 1 MIDI 77
2024-12-08 01:28:14,339 - DEBUG - Note OFF: Ch 0 MIDI 84
2024-12-08 01:28:14,445 - DEBUG - Note OFF: Ch 2 MIDI 84
2024-12-08 01:28:14,469 - DEBUG - Note OFF: Ch 9 MIDI 66
2024-12-08 01:28:14,495 - DEBUG - Note ON: Ch 3 MIDI 65 Velocity 105
2024-12-08 01:28:14,495 - DEBUG - Note ON: Ch 9 MIDI 107 Velocity 64
2024-12-08 01:28:14,507 - DEBUG - Note ON: Ch 2 MIDI 89 Velocity 95
2024-12-08 01:28:14,507 - DEBUG - Note ON: Ch 9 MIDI 59 Velocity 100
2024-12-08 01:28:14,519 - DEBUG - Note ON: Ch 0 MIDI 96 Velocity 127
2024-12-08 01:28:14,519 - DEBUG - Note ON: Ch 9 MIDI 66 Velocity 70
2024-12-08 01:28:14,519 - DEBUG - Note ON: Ch 0 MIDI 91 Velocity 127
2024-12-08 01:28:14,532 - DEBUG - Note ON: Ch 0 MIDI 89 Velocity 122
2024-12-08 01:28:14,544 - DEBUG - Note ON: Ch 4 MIDI 93 Velocity 127
2024-12-08 01:28:14,653 - DEBUG - Note OFF: Ch 9 MIDI 107
2024-12-08 01:28:14,664 - DEBUG - Note OFF: Ch 9 MIDI 59
2024-12-08 01:28:14,678 - DEBUG - Note OFF: Ch 9 MIDI 66
2024-12-08 01:28:14,678 - DEBUG - Note OFF: Ch 2 MIDI 89
2024-12-08 01:28:14,689 - DEBUG - Note ON: Ch 0 MIDI 93 Velocity 104
2024-12-08 01:28:14,702 - DEBUG - Note OFF: Ch 0 MIDI 91
2024-12-08 01:28:14,702 - DEBUG - Note OFF: Ch 4 MIDI 93
2024-12-08 01:28:14,725 - DEBUG - Note ON: Ch 2 MIDI 91 Velocity 95
2024-12-08 01:28:14,833 - DEBUG - Note OFF: Ch 0 MIDI 89
2024-12-08 01:28:14,845 - DEBUG - Note OFF: Ch 0 MIDI 93
2024-12-08 01:28:14,856 - DEBUG - Note OFF: Ch 0 MIDI 96
2024-12-08 01:28:14,856 - DEBUG - Note OFF: Ch 3 MIDI 65
2024-12-08 01:28:14,869 - DEBUG - Note OFF: Ch 2 MIDI 91
2024-12-08 01:28:14,906 - DEBUG - Note ON: Ch 9 MIDI 107 Velocity 58
2024-12-08 01:28:14,931 - DEBUG - Note ON: Ch 2 MIDI 93 Velocity 74
2024-12-08 01:28:14,931 - DEBUG - Note ON: Ch 9 MIDI 66 Velocity 80
2024-12-08 01:28:14,932 - DEBUG - Note ON: Ch 0 MIDI 84 Velocity 92
2024-12-08 01:28:14,932 - DEBUG - Note ON: Ch 9 MIDI 62 Velocity 90
2024-12-08 01:28:14,945 - DEBUG - Note ON: Ch 1 MIDI 81 Velocity 99
2024-12-08 01:28:14,945 - DEBUG - Note ON: Ch 1 MIDI 77 Velocity 98
2024-12-08 01:28:14,957 - DEBUG - Note ON: Ch 4 MIDI 93 Velocity 123
2024-12-08 01:28:14,969 - DEBUG - Note ON: Ch 0 MIDI 93 Velocity 118
2024-12-08 01:28:14,969 - DEBUG - Note ON: Ch 0 MIDI 96 Velocity 105
2024-12-08 01:28:14,981 - DEBUG - Note ON: Ch 0 MIDI 89 Velocity 97
2024-12-08 01:28:15,064 - DEBUG - Note OFF: Ch 9 MIDI 107
2024-12-08 01:28:15,077 - DEBUG - Note OFF: Ch 9 MIDI 66
2024-12-08 01:28:15,089 - DEBUG - Note OFF: Ch 9 MIDI 62
2024-12-08 01:28:15,113 - DEBUG - Note OFF: Ch 4 MIDI 93
2024-12-08 01:28:15,124 - DEBUG - Note OFF: Ch 2 MIDI 93
2024-12-08 01:28:15,136 - DEBUG - Note OFF: Ch 1 MIDI 81
2024-12-08 01:28:15,136 - DEBUG - Note ON: Ch 2 MIDI 89 Velocity 80
2024-12-08 01:28:15,149 - DEBUG - Note OFF: Ch 0 MIDI 89
2024-12-08 01:28:15,161 - DEBUG - Note OFF: Ch 0 MIDI 93
2024-12-08 01:28:15,161 - DEBUG - Note OFF: Ch 1 MIDI 77
2024-12-08 01:28:15,174 - DEBUG - Note OFF: Ch 0 MIDI 84
2024-12-08 01:28:15,198 - DEBUG - Note OFF: Ch 0 MIDI 96
2024-12-08 01:28:15,283 - DEBUG - Note OFF: Ch 2 MIDI 89
2024-12-08 01:28:15,318 - DEBUG - Note ON: Ch 3 MIDI 60 Velocity 106
2024-12-08 01:28:15,318 - DEBUG - Note ON: Ch 9 MIDI 107 Velocity 64
2024-12-08 01:28:15,331 - DEBUG - Note ON: Ch 9 MIDI 59 Velocity 100
2024-12-08 01:28:15,345 - DEBUG - Note ON: Ch 2 MIDI 84 Velocity 83
2024-12-08 01:28:15,345 - DEBUG - Note ON: Ch 9 MIDI 66 Velocity 70
2024-12-08 01:28:15,345 - DEBUG - Note ON: Ch 0 MIDI 96 Velocity 114
2024-12-08 01:28:15,357 - DEBUG - Note ON: Ch 0 MIDI 89 Velocity 110
2024-12-08 01:28:15,369 - DEBUG - Note ON: Ch 0 MIDI 93 Velocity 121
2024-12-08 01:28:15,381 - DEBUG - Note ON: Ch 4 MIDI 93 Velocity 125
2024-12-08 01:28:15,476 - DEBUG - Note OFF: Ch 9 MIDI 107
2024-12-08 01:28:15,489 - DEBUG - Note OFF: Ch 2 MIDI 84
2024-12-08 01:28:15,489 - DEBUG - Note OFF: Ch 9 MIDI 59
2024-12-08 01:28:15,501 - DEBUG - Note OFF: Ch 9 MIDI 66
2024-12-08 01:28:15,551 - DEBUG - Note ON: Ch 2 MIDI 89 Velocity 96
2024-12-08 01:28:15,707 - DEBUG - Note OFF: Ch 2 MIDI 89
2024-12-08 01:28:15,733 - DEBUG - Note ON: Ch 1 MIDI 81 Velocity 93
2024-12-08 01:28:15,733 - DEBUG - Note ON: Ch 0 MIDI 84 Velocity 89
2024-12-08 01:28:15,733 - DEBUG - Note ON: Ch 1 MIDI 77 Velocity 96
2024-12-08 01:28:15,733 - DEBUG - Note OFF: Ch 4 MIDI 93
2024-12-08 01:28:15,733 - DEBUG - Note ON: Ch 9 MIDI 107 Velocity 60
2024-12-08 01:28:15,757 - DEBUG - Note ON: Ch 2 MIDI 91 Velocity 86
2024-12-08 01:28:15,757 - DEBUG - Note ON: Ch 9 MIDI 66 Velocity 80
2024-12-08 01:28:15,757 - DEBUG - Note ON: Ch 9 MIDI 62 Velocity 90
2024-12-08 01:28:15,794 - DEBUG - Note OFF: Ch 3 MIDI 60
2024-12-08 01:28:15,866 - DEBUG - Note OFF: Ch 0 MIDI 93
2024-12-08 01:28:15,889 - DEBUG - Note OFF: Ch 9 MIDI 107
2024-12-08 01:28:15,901 - DEBUG - Note OFF: Ch 0 MIDI 89
2024-12-08 01:28:15,901 - DEBUG - Note OFF: Ch 2 MIDI 91
2024-12-08 01:28:15,901 - DEBUG - Note OFF: Ch 9 MIDI 66
2024-12-08 01:28:15,913 - DEBUG - Note OFF: Ch 9 MIDI 62
2024-12-08 01:28:15,949 - DEBUG - Note OFF: Ch 1 MIDI 81
2024-12-08 01:28:15,949 - DEBUG - Note OFF: Ch 0 MIDI 96
2024-12-08 01:28:15,962 - DEBUG - Note OFF: Ch 1 MIDI 77
2024-12-08 01:28:15,962 - DEBUG - Note ON: Ch 2 MIDI 84 Velocity 81
2024-12-08 01:28:15,962 - DEBUG - Note ON: Ch 9 MIDI 66 Velocity 90
2024-12-08 01:28:15,963 - DEBUG - Note OFF: Ch 0 MIDI 84
2024-12-08 01:28:16,109 - DEBUG - Note OFF: Ch 2 MIDI 84
2024-12-08 01:28:16,109 - DEBUG - Note OFF: Ch 9 MIDI 66
2024-12-08 01:28:16,144 - DEBUG - Note ON: Ch 9 MIDI 107 Velocity 60
2024-12-08 01:28:16,155 - DEBUG - Note ON: Ch 0 MIDI 96 Velocity 127
2024-12-08 01:28:16,155 - DEBUG - Note ON: Ch 9 MIDI 59 Velocity 100
2024-12-08 01:28:16,167 - DEBUG - Note ON: Ch 0 MIDI 93 Velocity 127
2024-12-08 01:28:16,167 - DEBUG - Note ON: Ch 2 MIDI 89 Velocity 97
2024-12-08 01:28:16,167 - DEBUG - Note ON: Ch 4 MIDI 93 Velocity 127
2024-12-08 01:28:16,167 - DEBUG - Note ON: Ch 9 MIDI 66 Velocity 70
2024-12-08 01:28:16,179 - DEBUG - Note ON: Ch 0 MIDI 89 Velocity 108
2024-12-08 01:28:16,179 - DEBUG - Note ON: Ch 3 MIDI 65 Velocity 106
2024-12-08 01:28:16,301 - DEBUG - Note OFF: Ch 9 MIDI 107
2024-12-08 01:28:16,312 - DEBUG - Note OFF: Ch 9 MIDI 59
2024-12-08 01:28:16,325 - DEBUG - Note OFF: Ch 2 MIDI 89
2024-12-08 01:28:16,325 - DEBUG - Note OFF: Ch 9 MIDI 66
2024-12-08 01:28:16,349 - DEBUG - Note OFF: Ch 4 MIDI 93
2024-12-08 01:28:16,374 - DEBUG - Note ON: Ch 2 MIDI 91 Velocity 96
2024-12-08 01:28:16,374 - DEBUG - Note OFF: Ch 0 MIDI 89
2024-12-08 01:28:16,411 - DEBUG - Note OFF: Ch 0 MIDI 93
2024-12-08 01:28:16,435 - DEBUG - Note OFF: Ch 0 MIDI 96
2024-12-08 01:28:16,535 - DEBUG - Note OFF: Ch 2 MIDI 91
2024-12-08 01:28:16,559 - DEBUG - Note ON: Ch 0 MIDI 84 Velocity 84
2024-12-08 01:28:16,560 - DEBUG - Note ON: Ch 1 MIDI 81 Velocity 92
2024-12-08 01:28:16,560 - DEBUG - Note ON: Ch 4 MIDI 96 Velocity 119
2024-12-08 01:28:16,560 - DEBUG - Note ON: Ch 9 MIDI 107 Velocity 62
2024-12-08 01:28:16,571 - DEBUG - Note ON: Ch 0 MIDI 101 Velocity 125
2024-12-08 01:28:16,572 - DEBUG - Note ON: Ch 0 MIDI 96 Velocity 125
2024-12-08 01:28:16,572 - DEBUG - Note ON: Ch 1 MIDI 77 Velocity 96
2024-12-08 01:28:16,572 - DEBUG - Note OFF: Ch 3 MIDI 65
2024-12-08 01:28:16,572 - DEBUG - Note ON: Ch 2 MIDI 96 Velocity 97
2024-12-08 01:28:16,572 - DEBUG - Note ON: Ch 9 MIDI 66 Velocity 80
2024-12-08 01:28:16,585 - DEBUG - Note ON: Ch 9 MIDI 62 Velocity 90
2024-12-08 01:28:16,718 - DEBUG - Note OFF: Ch 9 MIDI 107
2024-12-08 01:28:16,732 - DEBUG - Note OFF: Ch 0 MIDI 101
2024-12-08 01:28:16,732 - DEBUG - Note OFF: Ch 4 MIDI 96
2024-12-08 01:28:16,732 - DEBUG - Note OFF: Ch 9 MIDI 66
2024-12-08 01:28:16,744 - DEBUG - Note OFF: Ch 9 MIDI 62
2024-12-08 01:28:16,744 - DEBUG - Note OFF: Ch 0 MIDI 96
2024-12-08 01:28:16,756 - DEBUG - Note OFF: Ch 2 MIDI 96
2024-12-08 01:28:16,769 - DEBUG - Note OFF: Ch 1 MIDI 81
2024-12-08 01:28:16,782 - DEBUG - Note ON: Ch 2 MIDI 89 Velocity 91
2024-12-08 01:28:16,794 - DEBUG - Note OFF: Ch 1 MIDI 77
2024-12-08 01:28:16,805 - DEBUG - Note OFF: Ch 0 MIDI 84
2024-12-08 01:28:16,918 - DEBUG - Note OFF: Ch 2 MIDI 89
2024-12-08 01:28:16,977 - DEBUG - Note ON: Ch 4 MIDI 89 Velocity 125
2024-12-08 01:28:16,977 - DEBUG - Note ON: Ch 9 MIDI 107 Velocity 64
2024-12-08 01:28:16,977 - DEBUG - Note ON: Ch 9 MIDI 59 Velocity 100
2024-12-08 01:28:16,989 - DEBUG - Note ON: Ch 2 MIDI 91 Velocity 97
2024-12-08 01:28:16,989 - DEBUG - Note ON: Ch 3 MIDI 60 Velocity 109
2024-12-08 01:28:16,989 - DEBUG - Note ON: Ch 9 MIDI 66 Velocity 70
2024-12-08 01:28:17,003 - DEBUG - Note ON: Ch 0 MIDI 96 Velocity 127
2024-12-08 01:28:17,003 - DEBUG - Note ON: Ch 0 MIDI 89 Velocity 127
2024-12-08 01:28:17,129 - DEBUG - Note OFF: Ch 9 MIDI 107
2024-12-08 01:28:17,129 - DEBUG - Note OFF: Ch 9 MIDI 59
2024-12-08 01:28:17,141 - DEBUG - Note OFF: Ch 2 MIDI 91
2024-12-08 01:28:17,141 - DEBUG - Note OFF: Ch 9 MIDI 66
2024-12-08 01:28:17,192 - DEBUG - Note ON: Ch 2 MIDI 93 Velocity 90
2024-12-08 01:28:17,376 - DEBUG - Note ON: Ch 0 MIDI 84 Velocity 93
2024-12-08 01:28:17,389 - DEBUG - Note ON: Ch 1 MIDI 81 Velocity 97
2024-12-08 01:28:17,389 - DEBUG - Note ON: Ch 9 MIDI 107 Velocity 61
2024-12-08 01:28:17,389 - DEBUG - Note ON: Ch 1 MIDI 77 Velocity 95
2024-12-08 01:28:17,401 - DEBUG - Note ON: Ch 2 MIDI 91 Velocity 91
2024-12-08 01:28:17,402 - DEBUG - Note ON: Ch 9 MIDI 66 Velocity 80
2024-12-08 01:28:17,414 - DEBUG - Note ON: Ch 9 MIDI 62 Velocity 90
2024-12-08 01:28:17,414 - DEBUG - Note OFF: Ch 4 MIDI 89
2024-12-08 01:28:17,452 - DEBUG - Note OFF: Ch 2 MIDI 93
2024-12-08 01:28:17,465 - DEBUG - Note OFF: Ch 0 MIDI 96
2024-12-08 01:28:17,478 - DEBUG - Note OFF: Ch 0 MIDI 89
2024-12-08 01:28:17,541 - DEBUG - Note OFF: Ch 9 MIDI 107
2024-12-08 01:28:17,554 - DEBUG - Note OFF: Ch 9 MIDI 66
2024-12-08 01:28:17,567 - DEBUG - Note OFF: Ch 9 MIDI 62
2024-12-08 01:28:17,567 - DEBUG - Note OFF: Ch 2 MIDI 91
2024-12-08 01:28:17,591 - DEBUG - Note ON: Ch 0 MIDI 96 Velocity 110
2024-12-08 01:28:17,603 - DEBUG - Note ON: Ch 0 MIDI 91 Velocity 127
2024-12-08 01:28:17,603 - DEBUG - Note OFF: Ch 1 MIDI 81
2024-12-08 01:28:17,603 - DEBUG - Note ON: Ch 9 MIDI 66 Velocity 90
2024-12-08 01:28:17,615 - DEBUG - Note ON: Ch 2 MIDI 89 Velocity 87
2024-12-08 01:28:17,615 - DEBUG - Note ON: Ch 4 MIDI 91 Velocity 115
2024-12-08 01:28:17,627 - DEBUG - Note OFF: Ch 1 MIDI 77
2024-12-08 01:28:17,666 - DEBUG - Note OFF: Ch 0 MIDI 84
2024-12-08 01:28:17,666 - DEBUG - Note OFF: Ch 3 MIDI 60
2024-12-08 01:28:17,678 - DEBUG - Note OFF: Ch 0 MIDI 91
2024-12-08 01:28:17,715 - DEBUG - Note OFF: Ch 0 MIDI 96
2024-12-08 01:28:17,741 - DEBUG - Note OFF: Ch 2 MIDI 89
2024-12-08 01:28:17,742 - DEBUG - Note OFF: Ch 4 MIDI 91
2024-12-08 01:28:17,767 - DEBUG - Note OFF: Ch 9 MIDI 66
2024-12-08 01:28:17,791 - DEBUG - Note ON: Ch 0 MIDI 91 Velocity 127
2024-12-08 01:28:17,791 - DEBUG - Note ON: Ch 4 MIDI 93 Velocity 125
2024-12-08 01:28:17,791 - DEBUG - Note ON: Ch 0 MIDI 96 Velocity 127
2024-12-08 01:28:17,792 - DEBUG - Note ON: Ch 9 MIDI 107 Velocity 64
2024-12-08 01:28:17,803 - DEBUG - Note ON: Ch 9 MIDI 59 Velocity 100
2024-12-08 01:28:17,816 - DEBUG - Note ON: Ch 2 MIDI 96 Velocity 98
2024-12-08 01:28:17,816 - DEBUG - Note ON: Ch 3 MIDI 65 Velocity 105
2024-12-08 01:28:17,816 - DEBUG - Note ON: Ch 9 MIDI 66 Velocity 70
2024-12-08 01:28:17,951 - DEBUG - Note OFF: Ch 9 MIDI 107
2024-12-08 01:28:17,963 - DEBUG - Note ON: Ch 0 MIDI 93 Velocity 108
2024-12-08 01:28:17,963 - DEBUG - Note OFF: Ch 9 MIDI 59
2024-12-08 01:28:17,963 - DEBUG - Note OFF: Ch 9 MIDI 66
2024-12-08 01:28:17,988 - DEBUG - Note OFF: Ch 0 MIDI 91
2024-12-08 01:28:18,024 - DEBUG - Note OFF: Ch 2 MIDI 96
2024-12-08 01:28:18,024 - DEBUG - Note ON: Ch 2 MIDI 89 Velocity 86
2024-12-08 01:28:18,049 - DEBUG - Note OFF: Ch 3 MIDI 65
2024-12-08 01:28:18,118 - DEBUG - Note OFF: Ch 2 MIDI 89
2024-12-08 01:28:18,189 - DEBUG - Note ON: Ch 0 MIDI 84 Velocity 94
2024-12-08 01:28:18,201 - DEBUG - Note ON: Ch 1 MIDI 81 Velocity 95
2024-12-08 01:28:18,213 - DEBUG - Note ON: Ch 1 MIDI 77 Velocity 96
2024-12-08 01:28:18,213 - DEBUG - Note ON: Ch 9 MIDI 107 Velocity 62
2024-12-08 01:28:18,213 - DEBUG - Note ON: Ch 2 MIDI 96 Velocity 98
2024-12-08 01:28:18,225 - DEBUG - Note ON: Ch 2 MIDI 91 Velocity 100
2024-12-08 01:28:18,225 - DEBUG - Note ON: Ch 9 MIDI 66 Velocity 80
2024-12-08 01:28:18,237 - DEBUG - Note ON: Ch 9 MIDI 62 Velocity 90
2024-12-08 01:28:18,237 - DEBUG - Note ON: Ch 3 MIDI 65 Velocity 106
2024-12-08 01:28:18,360 - DEBUG - Note OFF: Ch 9 MIDI 107
2024-12-08 01:28:18,392 - DEBUG - Note OFF: Ch 2 MIDI 91
2024-12-08 01:28:18,393 - DEBUG - Note OFF: Ch 9 MIDI 66
2024-12-08 01:28:18,393 - DEBUG - Note OFF: Ch 9 MIDI 62
2024-12-08 01:28:18,418 - DEBUG - Note ON: Ch 2 MIDI 93 Velocity 93
2024-12-08 01:28:18,443 - DEBUG - Note OFF: Ch 1 MIDI 81
2024-12-08 01:28:18,443 - DEBUG - Note OFF: Ch 1 MIDI 77
2024-12-08 01:28:18,469 - DEBUG - Note OFF: Ch 0 MIDI 84
2024-12-08 01:28:18,481 - DEBUG - Note OFF: Ch 3 MIDI 65
2024-12-08 01:28:18,493 - DEBUG - Note OFF: Ch 2 MIDI 96
2024-12-08 01:28:18,529 - DEBUG - Note OFF: Ch 4 MIDI 93
2024-12-08 01:28:18,594 - DEBUG - Note OFF: Ch 2 MIDI 93
2024-12-08 01:28:18,616 - DEBUG - Note ON: Ch 9 MIDI 107 Velocity 64
2024-12-08 01:28:18,629 - DEBUG - Note ON: Ch 2 MIDI 96 Velocity 94
2024-12-08 01:28:18,629 - DEBUG - Note ON: Ch 9 MIDI 59 Velocity 100
2024-12-08 01:28:18,641 - DEBUG - Note ON: Ch 2 MIDI 94 Velocity 106
2024-12-08 01:28:18,641 - DEBUG - Note ON: Ch 9 MIDI 66 Velocity 70
2024-12-08 01:28:18,665 - DEBUG - Note ON: Ch 3 MIDI 67 Velocity 110
2024-12-08 01:28:18,751 - DEBUG - Note OFF: Ch 2 MIDI 96
2024-12-08 01:28:18,774 - DEBUG - Note OFF: Ch 9 MIDI 107
2024-12-08 01:28:18,786 - DEBUG - Note OFF: Ch 9 MIDI 59
2024-12-08 01:28:18,787 - DEBUG - Note OFF: Ch 9 MIDI 66
2024-12-08 01:28:18,811 - DEBUG - Note OFF: Ch 2 MIDI 94
2024-12-08 01:28:18,846 - DEBUG - Note ON: Ch 2 MIDI 93 Velocity 97
2024-12-08 01:28:18,846 - DEBUG - Note ON: Ch 2 MIDI 96 Velocity 76
2024-12-08 01:28:18,895 - DEBUG - Note OFF: Ch 3 MIDI 67
2024-12-08 01:28:19,001 - DEBUG - Note OFF: Ch 2 MIDI 93
2024-12-08 01:28:19,013 - DEBUG - Note ON: Ch 0 MIDI 87 Velocity 108
2024-12-08 01:28:19,024 - DEBUG - Note ON: Ch 1 MIDI 81 Velocity 108
2024-12-08 01:28:19,036 - DEBUG - Note ON: Ch 9 MIDI 107 Velocity 60
2024-12-08 01:28:19,036 - DEBUG - Note ON: Ch 1 MIDI 77 Velocity 76
2024-12-08 01:28:19,049 - DEBUG - Note ON: Ch 0 MIDI 84 Velocity 90
2024-12-08 01:28:19,049 - DEBUG - Note ON: Ch 2 MIDI 91 Velocity 96
2024-12-08 01:28:19,049 - DEBUG - Note ON: Ch 3 MIDI 69 Velocity 105
2024-12-08 01:28:19,049 - DEBUG - Note ON: Ch 9 MIDI 66 Velocity 80
2024-12-08 01:28:19,062 - DEBUG - Note ON: Ch 9 MIDI 62 Velocity 90
2024-12-08 01:28:19,146 - DEBUG - Note OFF: Ch 2 MIDI 96
2024-12-08 01:28:19,183 - DEBUG - Note OFF: Ch 0 MIDI 93
2024-12-08 01:28:19,183 - DEBUG - Note OFF: Ch 0 MIDI 96
2024-12-08 01:28:19,183 - DEBUG - Note OFF: Ch 9 MIDI 107
2024-12-08 01:28:19,206 - DEBUG - Note OFF: Ch 0 MIDI 84
2024-12-08 01:28:19,206 - DEBUG - Note OFF: Ch 9 MIDI 66
2024-12-08 01:28:19,220 - DEBUG - Note OFF: Ch 9 MIDI 62
2024-12-08 01:28:19,270 - DEBUG - Note OFF: Ch 1 MIDI 81
2024-12-08 01:28:19,271 - DEBUG - Note OFF: Ch 3 MIDI 69
2024-12-08 01:28:19,271 - DEBUG - Note OFF: Ch 2 MIDI 91
2024-12-08 01:28:19,271 - DEBUG - Note ON: Ch 2 MIDI 89 Velocity 100
2024-12-08 01:28:19,271 - DEBUG - Note ON: Ch 9 MIDI 66 Velocity 90
2024-12-08 01:28:19,367 - DEBUG - Note OFF: Ch 0 MIDI 87
2024-12-08 01:28:19,414 - DEBUG - Note OFF: Ch 9 MIDI 66
2024-12-08 01:28:19,414 - DEBUG - Note OFF: Ch 2 MIDI 89
2024-12-08 01:28:19,451 - DEBUG - Note ON: Ch 0 MIDI 86 Velocity 85
2024-12-08 01:28:19,451 - DEBUG - Note ON: Ch 1 MIDI 82 Velocity 88
2024-12-08 01:28:19,451 - DEBUG - Note ON: Ch 9 MIDI 107 Velocity 65
2024-12-08 01:28:19,451 - DEBUG - Note ON: Ch 0 MIDI 94 Velocity 127
2024-12-08 01:28:19,452 - DEBUG - Note ON: Ch 2 MIDI 86 Velocity 86
2024-12-08 01:28:19,452 - DEBUG - Note ON: Ch 9 MIDI 59 Velocity 100
2024-12-08 01:28:19,465 - DEBUG - Note ON: Ch 0 MIDI 86 Velocity 111
2024-12-08 01:28:19,465 - DEBUG - Note ON: Ch 3 MIDI 70 Velocity 115
2024-12-08 01:28:19,465 - DEBUG - Note ON: Ch 9 MIDI 66 Velocity 70
2024-12-08 01:28:19,465 - DEBUG - Note ON: Ch 0 MIDI 89 Velocity 121
2024-12-08 01:28:19,465 - DEBUG - Note ON: Ch 0 MIDI 91 Velocity 119
2024-12-08 01:28:19,465 - DEBUG - Note ON: Ch 4 MIDI 94 Velocity 127
2024-12-08 01:28:19,536 - DEBUG - Note OFF: Ch 1 MIDI 82
2024-12-08 01:28:19,549 - DEBUG - Note OFF: Ch 1 MIDI 77
2024-12-08 01:28:19,561 - DEBUG - Note OFF: Ch 0 MIDI 86
2024-12-08 01:28:19,584 - DEBUG - Note OFF: Ch 0 MIDI 89
2024-12-08 01:28:19,596 - DEBUG - Note OFF: Ch 9 MIDI 107
2024-12-08 01:28:19,609 - DEBUG - Note OFF: Ch 9 MIDI 59
2024-12-08 01:28:19,621 - DEBUG - Note OFF: Ch 2 MIDI 86
2024-12-08 01:28:19,621 - DEBUG - Note OFF: Ch 4 MIDI 94
2024-12-08 01:28:19,621 - DEBUG - Note OFF: Ch 9 MIDI 66
2024-12-08 01:28:19,656 - DEBUG - Note ON: Ch 2 MIDI 89 Velocity 83
2024-12-08 01:28:19,681 - DEBUG - Note OFF: Ch 0 MIDI 86
2024-12-08 01:28:19,681 - DEBUG - Note OFF: Ch 0 MIDI 91
2024-12-08 01:28:19,693 - DEBUG - Note OFF: Ch 0 MIDI 94
2024-12-08 01:28:19,802 - DEBUG - Note OFF: Ch 2 MIDI 89
2024-12-08 01:28:19,851 - DEBUG - Note ON: Ch 1 MIDI 82 Velocity 116
2024-12-08 01:28:19,851 - DEBUG - Note ON: Ch 9 MIDI 107 Velocity 64
2024-12-08 01:28:19,864 - DEBUG - Note ON: Ch 1 MIDI 77 Velocity 90
2024-12-08 01:28:19,864 - DEBUG - Note ON: Ch 4 MIDI 94 Velocity 127
2024-12-08 01:28:19,877 - DEBUG - Note ON: Ch 0 MIDI 86 Velocity 104
2024-12-08 01:28:19,878 - DEBUG - Note ON: Ch 0 MIDI 94 Velocity 122
2024-12-08 01:28:19,878 - DEBUG - Note ON: Ch 2 MIDI 91 Velocity 95
2024-12-08 01:28:19,878 - DEBUG - Note ON: Ch 9 MIDI 66 Velocity 80
2024-12-08 01:28:19,878 - DEBUG - Note ON: Ch 0 MIDI 91 Velocity 103
2024-12-08 01:28:19,878 - DEBUG - Note ON: Ch 9 MIDI 62 Velocity 90
2024-12-08 01:28:19,891 - DEBUG - Note ON: Ch 0 MIDI 89 Velocity 109
2024-12-08 01:28:19,905 - DEBUG - Note ON: Ch 0 MIDI 86 Velocity 106
2024-12-08 01:28:19,931 - DEBUG - Note OFF: Ch 3 MIDI 70
2024-12-08 01:28:20,017 - DEBUG - Note OFF: Ch 9 MIDI 107
2024-12-08 01:28:20,029 - DEBUG - Note OFF: Ch 0 MIDI 91
2024-12-08 01:28:20,030 - DEBUG - Note OFF: Ch 0 MIDI 89
2024-12-08 01:28:20,030 - DEBUG - Note OFF: Ch 4 MIDI 94
2024-12-08 01:28:20,030 - DEBUG - Note OFF: Ch 9 MIDI 66
2024-12-08 01:28:20,043 - DEBUG - Note OFF: Ch 1 MIDI 77
2024-12-08 01:28:20,043 - DEBUG - Note OFF: Ch 2 MIDI 91
2024-12-08 01:28:20,043 - DEBUG - Note OFF: Ch 9 MIDI 62
2024-12-08 01:28:20,044 - DEBUG - Note OFF: Ch 0 MIDI 86
2024-12-08 01:28:20,056 - DEBUG - Note OFF: Ch 0 MIDI 94
2024-12-08 01:28:20,056 - DEBUG - Note OFF: Ch 0 MIDI 86
2024-12-08 01:28:20,056 - DEBUG - Note OFF: Ch 1 MIDI 82
2024-12-08 01:28:20,081 - DEBUG - Note ON: Ch 2 MIDI 94 Velocity 100
2024-12-08 01:28:20,262 - DEBUG - Note OFF: Ch 2 MIDI 94
2024-12-08 01:28:20,263 - DEBUG - Note ON: Ch 9 MIDI 107 Velocity 60
2024-12-08 01:28:20,274 - DEBUG - Note ON: Ch 9 MIDI 59 Velocity 100
2024-12-08 01:28:20,286 - DEBUG - Note ON: Ch 0 MIDI 94 Velocity 127
2024-12-08 01:28:20,286 - DEBUG - Note ON: Ch 2 MIDI 89 Velocity 88
2024-12-08 01:28:20,286 - DEBUG - Note ON: Ch 9 MIDI 66 Velocity 70
2024-12-08 01:28:20,297 - DEBUG - Note ON: Ch 0 MIDI 91 Velocity 119
2024-12-08 01:28:20,298 - DEBUG - Note ON: Ch 3 MIDI 67 Velocity 107
2024-12-08 01:28:20,298 - DEBUG - Note ON: Ch 4 MIDI 94 Velocity 127
2024-12-08 01:28:20,298 - DEBUG - Note ON: Ch 0 MIDI 86 Velocity 115
2024-12-08 01:28:20,298 - DEBUG - Note ON: Ch 0 MIDI 89 Velocity 118
2024-12-08 01:28:20,421 - DEBUG - Note OFF: Ch 9 MIDI 107
2024-12-08 01:28:20,433 - DEBUG - Note OFF: Ch 9 MIDI 59
2024-12-08 01:28:20,445 - DEBUG - Note OFF: Ch 2 MIDI 89
2024-12-08 01:28:20,445 - DEBUG - Note OFF: Ch 9 MIDI 66
2024-12-08 01:28:20,496 - DEBUG - Note ON: Ch 2 MIDI 86 Velocity 83
2024-12-08 01:28:20,616 - DEBUG - Note OFF: Ch 2 MIDI 86
2024-12-08 01:28:20,677 - DEBUG - Note ON: Ch 1 MIDI 82 Velocity 110
2024-12-08 01:28:20,677 - DEBUG - Note ON: Ch 9 MIDI 107 Velocity 64
2024-12-08 01:28:20,689 - DEBUG - Note ON: Ch 0 MIDI 86 Velocity 104
2024-12-08 01:28:20,689 - DEBUG - Note ON: Ch 1 MIDI 79 Velocity 97
2024-12-08 01:28:20,702 - DEBUG - Note ON: Ch 2 MIDI 91 Velocity 93
2024-12-08 01:28:20,702 - DEBUG - Note ON: Ch 9 MIDI 66 Velocity 80
2024-12-08 01:28:20,702 - DEBUG - Note OFF: Ch 4 MIDI 94
2024-12-08 01:28:20,702 - DEBUG - Note ON: Ch 9 MIDI 62 Velocity 90
2024-12-08 01:28:20,727 - DEBUG - Note OFF: Ch 0 MIDI 89
2024-12-08 01:28:20,751 - DEBUG - Note OFF: Ch 0 MIDI 86
2024-12-08 01:28:20,763 - DEBUG - Note OFF: Ch 0 MIDI 94
2024-12-08 01:28:20,763 - DEBUG - Note OFF: Ch 0 MIDI 91
2024-12-08 01:28:20,837 - DEBUG - Note OFF: Ch 9 MIDI 107
2024-12-08 01:28:20,849 - DEBUG - Note OFF: Ch 2 MIDI 91
2024-12-08 01:28:20,849 - DEBUG - Note OFF: Ch 3 MIDI 67
2024-12-08 01:28:20,849 - DEBUG - Note OFF: Ch 9 MIDI 66
2024-12-08 01:28:20,861 - DEBUG - Note OFF: Ch 9 MIDI 62
2024-12-08 01:28:20,896 - DEBUG - Note ON: Ch 4 MIDI 94 Velocity 115
2024-12-08 01:28:20,909 - DEBUG - Note ON: Ch 0 MIDI 94 Velocity 122
2024-12-08 01:28:20,909 - DEBUG - Note ON: Ch 2 MIDI 94 Velocity 100
2024-12-08 01:28:20,909 - DEBUG - Note ON: Ch 9 MIDI 66 Velocity 90
2024-12-08 01:28:20,909 - DEBUG - Note ON: Ch 0 MIDI 89 Velocity 108
2024-12-08 01:28:20,921 - DEBUG - Note ON: Ch 0 MIDI 86 Velocity 97
2024-12-08 01:28:20,922 - DEBUG - Note OFF: Ch 1 MIDI 82
2024-12-08 01:28:20,936 - DEBUG - Note ON: Ch 0 MIDI 91 Velocity 94
2024-12-08 01:28:20,936 - DEBUG - Note OFF: Ch 0 MIDI 86
2024-12-08 01:28:20,936 - DEBUG - Note OFF: Ch 1 MIDI 79
2024-12-08 01:28:20,974 - DEBUG - Note OFF: Ch 0 MIDI 91
2024-12-08 01:28:20,985 - DEBUG - Note OFF: Ch 0 MIDI 89
2024-12-08 01:28:20,985 - DEBUG - Note OFF: Ch 4 MIDI 94
2024-12-08 01:28:20,997 - DEBUG - Note OFF: Ch 0 MIDI 86
2024-12-08 01:28:21,009 - DEBUG - Note OFF: Ch 0 MIDI 94
2024-12-08 01:28:21,057 - DEBUG - Note OFF: Ch 9 MIDI 66
2024-12-08 01:28:21,094 - DEBUG - Note ON: Ch 0 MIDI 94 Velocity 125
2024-12-08 01:28:21,094 - DEBUG - Note ON: Ch 0 MIDI 89 Velocity 116
2024-12-08 01:28:21,094 - DEBUG - Note ON: Ch 4 MIDI 94 Velocity 125
2024-12-08 01:28:21,094 - DEBUG - Note ON: Ch 9 MIDI 107 Velocity 60
2024-12-08 01:28:21,106 - DEBUG - Note ON: Ch 0 MIDI 86 Velocity 109
2024-12-08 01:28:21,107 - DEBUG - Note ON: Ch 9 MIDI 59 Velocity 100
2024-12-08 01:28:21,107 - DEBUG - Note ON: Ch 0 MIDI 91 Velocity 115
2024-12-08 01:28:21,107 - DEBUG - Note ON: Ch 2 MIDI 93 Velocity 96
2024-12-08 01:28:21,107 - DEBUG - Note ON: Ch 9 MIDI 66 Velocity 70
2024-12-08 01:28:21,119 - DEBUG - Note OFF: Ch 2 MIDI 94
2024-12-08 01:28:21,132 - DEBUG - Note ON: Ch 3 MIDI 65 Velocity 106
2024-12-08 01:28:21,251 - DEBUG - Note OFF: Ch 9 MIDI 107
2024-12-08 01:28:21,251 - DEBUG - Note OFF: Ch 9 MIDI 59
2024-12-08 01:28:21,262 - DEBUG - Note OFF: Ch 9 MIDI 66
2024-12-08 01:28:21,285 - DEBUG - Note OFF: Ch 4 MIDI 94
2024-12-08 01:28:21,309 - DEBUG - Note OFF: Ch 0 MIDI 94
2024-12-08 01:28:21,309 - DEBUG - Note OFF: Ch 0 MIDI 89
2024-12-08 01:28:21,309 - DEBUG - Note OFF: Ch 0 MIDI 86
2024-12-08 01:28:21,309 - DEBUG - Note OFF: Ch 0 MIDI 91
2024-12-08 01:28:21,321 - DEBUG - Note ON: Ch 2 MIDI 89 Velocity 98
2024-12-08 01:28:21,360 - DEBUG - Note OFF: Ch 2 MIDI 93
2024-12-08 01:28:21,458 - DEBUG - Note OFF: Ch 2 MIDI 89
2024-12-08 01:28:21,494 - DEBUG - Note ON: Ch 0 MIDI 84 Velocity 96
2024-12-08 01:28:21,507 - DEBUG - Note ON: Ch 1 MIDI 81 Velocity 100
2024-12-08 01:28:21,507 - DEBUG - Note ON: Ch 9 MIDI 107 Velocity 65
2024-12-08 01:28:21,519 - DEBUG - Note ON: Ch 1 MIDI 77 Velocity 93
2024-12-08 01:28:21,519 - DEBUG - Note ON: Ch 2 MIDI 84 Velocity 86
2024-12-08 01:28:21,519 - DEBUG - Note ON: Ch 9 MIDI 66 Velocity 80
2024-12-08 01:28:21,531 - DEBUG - Note ON: Ch 0 MIDI 93 Velocity 125
2024-12-08 01:28:21,531 - DEBUG - Note ON: Ch 4 MIDI 93 Velocity 125
2024-12-08 01:28:21,531 - DEBUG - Note ON: Ch 9 MIDI 62 Velocity 90
2024-12-08 01:28:21,544 - DEBUG - Note ON: Ch 0 MIDI 84 Velocity 116
2024-12-08 01:28:21,544 - DEBUG - Note ON: Ch 0 MIDI 89 Velocity 127
2024-12-08 01:28:21,555 - DEBUG - Note OFF: Ch 3 MIDI 65
2024-12-08 01:28:21,643 - DEBUG - Note OFF: Ch 2 MIDI 84
2024-12-08 01:28:21,656 - DEBUG - Note OFF: Ch 9 MIDI 107
2024-12-08 01:28:21,681 - DEBUG - Note OFF: Ch 1 MIDI 77
2024-12-08 01:28:21,681 - DEBUG - Note OFF: Ch 9 MIDI 66
2024-12-08 01:28:21,681 - DEBUG - Note OFF: Ch 1 MIDI 81
2024-12-08 01:28:21,681 - DEBUG - Note OFF: Ch 9 MIDI 62
2024-12-08 01:28:21,695 - DEBUG - Note OFF: Ch 4 MIDI 93
2024-12-08 01:28:21,707 - DEBUG - Note OFF: Ch 0 MIDI 84
2024-12-08 01:28:21,707 - DEBUG - Note OFF: Ch 0 MIDI 89
2024-12-08 01:28:21,718 - DEBUG - Note OFF: Ch 0 MIDI 84
2024-12-08 01:28:21,731 - DEBUG - Note OFF: Ch 0 MIDI 93
2024-12-08 01:28:21,731 - DEBUG - Note ON: Ch 2 MIDI 89 Velocity 95
2024-12-08 01:28:21,869 - DEBUG - Note OFF: Ch 2 MIDI 89
2024-12-08 01:28:21,918 - DEBUG - Note ON: Ch 9 MIDI 107 Velocity 62
2024-12-08 01:28:21,931 - DEBUG - Note ON: Ch 0 MIDI 93 Velocity 127
2024-12-08 01:28:21,931 - DEBUG - Note ON: Ch 9 MIDI 59 Velocity 100
2024-12-08 01:28:21,931 - DEBUG - Note ON: Ch 0 MIDI 84 Velocity 118
2024-12-08 01:28:21,931 - DEBUG - Note ON: Ch 2 MIDI 91 Velocity 96
2024-12-08 01:28:21,931 - DEBUG - Note ON: Ch 9 MIDI 66 Velocity 70
2024-12-08 01:28:21,945 - DEBUG - Note ON: Ch 0 MIDI 89 Velocity 127
2024-12-08 01:28:21,945 - DEBUG - Note ON: Ch 4 MIDI 93 Velocity 123
2024-12-08 01:28:21,957 - DEBUG - Note ON: Ch 3 MIDI 62 Velocity 106
2024-12-08 01:28:22,069 - DEBUG - Note OFF: Ch 9 MIDI 107
2024-12-08 01:28:22,081 - DEBUG - Note OFF: Ch 9 MIDI 59
2024-12-08 01:28:22,092 - DEBUG - Note OFF: Ch 9 MIDI 66
2024-12-08 01:28:22,093 - DEBUG - Note OFF: Ch 2 MIDI 91
2024-12-08 01:28:22,142 - DEBUG - Note ON: Ch 2 MIDI 86 Velocity 86
2024-12-08 01:28:22,179 - DEBUG - Note OFF: Ch 4 MIDI 93
2024-12-08 01:28:22,204 - DEBUG - Note OFF: Ch 0 MIDI 89
2024-12-08 01:28:22,231 - DEBUG - Note OFF: Ch 0 MIDI 93
2024-12-08 01:28:22,231 - DEBUG - Note OFF: Ch 0 MIDI 84
2024-12-08 01:28:22,257 - DEBUG - Note OFF: Ch 2 MIDI 86
2024-12-08 01:28:22,331 - DEBUG - Note ON: Ch 0 MIDI 86 Velocity 109
2024-12-08 01:28:22,332 - DEBUG - Note ON: Ch 1 MIDI 81 Velocity 108
2024-12-08 01:28:22,332 - DEBUG - Note ON: Ch 9 MIDI 107 Velocity 66
2024-12-08 01:28:22,332 - DEBUG - Note ON: Ch 0 MIDI 89 Velocity 111
2024-12-08 01:28:22,345 - DEBUG - Note ON: Ch 0 MIDI 93 Velocity 111
2024-12-08 01:28:22,345 - DEBUG - Note ON: Ch 2 MIDI 89 Velocity 95
2024-12-08 01:28:22,345 - DEBUG - Note ON: Ch 4 MIDI 93 Velocity 102
2024-12-08 01:28:22,345 - DEBUG - Note ON: Ch 9 MIDI 66 Velocity 80
2024-12-08 01:28:22,356 - DEBUG - Note ON: Ch 0 MIDI 84 Velocity 85
2024-12-08 01:28:22,356 - DEBUG - Note ON: Ch 9 MIDI 62 Velocity 90
2024-12-08 01:28:22,428 - DEBUG - Note OFF: Ch 0 MIDI 89
2024-12-08 01:28:22,429 - DEBUG - Note OFF: Ch 3 MIDI 62
2024-12-08 01:28:22,441 - DEBUG - Note OFF: Ch 0 MIDI 84
2024-12-08 01:28:22,452 - DEBUG - Note OFF: Ch 0 MIDI 93
2024-12-08 01:28:22,453 - DEBUG - Note OFF: Ch 4 MIDI 93
2024-12-08 01:28:22,488 - DEBUG - Note OFF: Ch 9 MIDI 107
2024-12-08 01:28:22,489 - DEBUG - Note OFF: Ch 2 MIDI 89
2024-12-08 01:28:22,501 - DEBUG - Note OFF: Ch 9 MIDI 66
2024-12-08 01:28:22,515 - DEBUG - Note OFF: Ch 9 MIDI 62
2024-12-08 01:28:22,538 - DEBUG - Note ON: Ch 0 MIDI 89 Velocity 106
2024-12-08 01:28:22,538 - DEBUG - Note OFF: Ch 1 MIDI 81
2024-12-08 01:28:22,551 - DEBUG - Note ON: Ch 0 MIDI 93 Velocity 110
2024-12-08 01:28:22,552 - DEBUG - Note ON: Ch 2 MIDI 91 Velocity 89
2024-12-08 01:28:22,552 - DEBUG - Note ON: Ch 4 MIDI 93 Velocity 96
2024-12-08 01:28:22,552 - DEBUG - Note ON: Ch 9 MIDI 66 Velocity 90
2024-12-08 01:28:22,564 - DEBUG - Note ON: Ch 0 MIDI 84 Velocity 86
2024-12-08 01:28:22,576 - DEBUG - Note OFF: Ch 0 MIDI 86
2024-12-08 01:28:22,624 - DEBUG - Note OFF: Ch 0 MIDI 89
2024-12-08 01:28:22,624 - DEBUG - Note OFF: Ch 0 MIDI 84
2024-12-08 01:28:22,661 - DEBUG - Note OFF: Ch 0 MIDI 93
2024-12-08 01:28:22,709 - DEBUG - Note OFF: Ch 9 MIDI 66
2024-12-08 01:28:22,721 - DEBUG - Note OFF: Ch 4 MIDI 93
2024-12-08 01:28:22,732 - DEBUG - Note OFF: Ch 2 MIDI 91
2024-12-08 01:28:22,744 - DEBUG - Note ON: Ch 9 MIDI 107 Velocity 64
2024-12-08 01:28:22,744 - DEBUG - Note ON: Ch 0 MIDI 86 Velocity 106
2024-12-08 01:28:22,744 - DEBUG - Note ON: Ch 4 MIDI 96 Velocity 109
2024-12-08 01:28:22,744 - DEBUG - Note ON: Ch 9 MIDI 59 Velocity 100
2024-12-08 01:28:22,756 - DEBUG - Note ON: Ch 0 MIDI 89 Velocity 115
2024-12-08 01:28:22,756 - DEBUG - Note ON: Ch 0 MIDI 96 Velocity 122
2024-12-08 01:28:22,756 - DEBUG - Note ON: Ch 2 MIDI 88 Velocity 94
2024-12-08 01:28:22,756 - DEBUG - Note ON: Ch 9 MIDI 66 Velocity 70
2024-12-08 01:28:22,769 - DEBUG - Note ON: Ch 3 MIDI 67 Velocity 113
2024-12-08 01:28:22,856 - DEBUG - Note OFF: Ch 0 MIDI 89
2024-12-08 01:28:22,881 - DEBUG - Note OFF: Ch 2 MIDI 88
2024-12-08 01:28:22,893 - DEBUG - Note OFF: Ch 9 MIDI 107
2024-12-08 01:28:22,904 - DEBUG - Note OFF: Ch 4 MIDI 96
2024-12-08 01:28:22,904 - DEBUG - Note OFF: Ch 9 MIDI 59
2024-12-08 01:28:22,916 - DEBUG - Note OFF: Ch 9 MIDI 66
2024-12-08 01:28:22,916 - DEBUG - Note OFF: Ch 0 MIDI 86
2024-12-08 01:28:22,929 - DEBUG - Note OFF: Ch 0 MIDI 96
2024-12-08 01:28:22,964 - DEBUG - Note ON: Ch 2 MIDI 84 Velocity 86
2024-12-08 01:28:23,090 - DEBUG - Note OFF: Ch 2 MIDI 84
2024-12-08 01:28:23,153 - DEBUG - Note ON: Ch 0 MIDI 96 Velocity 127
2024-12-08 01:28:23,153 - DEBUG - Note ON: Ch 9 MIDI 107 Velocity 65
2024-12-08 01:28:23,165 - DEBUG - Note ON: Ch 0 MIDI 89 Velocity 127
2024-12-08 01:28:23,165 - DEBUG - Note ON: Ch 0 MIDI 86 Velocity 121
2024-12-08 01:28:23,165 - DEBUG - Note ON: Ch 1 MIDI 77 Velocity 111
2024-12-08 01:28:23,165 - DEBUG - Note ON: Ch 2 MIDI 89 Velocity 89
2024-12-08 01:28:23,165 - DEBUG - Note ON: Ch 2 MIDI 91 Velocity 82
2024-12-08 01:28:23,165 - DEBUG - Note ON: Ch 4 MIDI 96 Velocity 119
2024-12-08 01:28:23,166 - DEBUG - Note ON: Ch 9 MIDI 66 Velocity 80
2024-12-08 01:28:23,177 - DEBUG - Note ON: Ch 0 MIDI 86 Velocity 116
2024-12-08 01:28:23,177 - DEBUG - Note ON: Ch 9 MIDI 62 Velocity 90
2024-12-08 01:28:23,201 - DEBUG - Note OFF: Ch 2 MIDI 91
2024-12-08 01:28:23,225 - DEBUG - Note OFF: Ch 3 MIDI 67
2024-12-08 01:28:23,309 - DEBUG - Note OFF: Ch 9 MIDI 107
2024-12-08 01:28:23,321 - DEBUG - Note OFF: Ch 2 MIDI 89
2024-12-08 01:28:23,321 - DEBUG - Note OFF: Ch 1 MIDI 77
2024-12-08 01:28:23,321 - DEBUG - Note OFF: Ch 9 MIDI 66
2024-12-08 01:28:23,334 - DEBUG - Note OFF: Ch 9 MIDI 62
2024-12-08 01:28:23,347 - DEBUG - Note OFF: Ch 0 MIDI 89
2024-12-08 01:28:23,347 - DEBUG - Note OFF: Ch 4 MIDI 96
2024-12-08 01:28:23,359 - DEBUG - Note OFF: Ch 0 MIDI 96
2024-12-08 01:28:23,359 - DEBUG - Note OFF: Ch 0 MIDI 86
2024-12-08 01:28:23,371 - DEBUG - Note OFF: Ch 0 MIDI 86
2024-12-08 01:28:23,371 - DEBUG - Note ON: Ch 2 MIDI 96 Velocity 97
2024-12-08 01:28:23,564 - DEBUG - Note ON: Ch 9 MIDI 107 Velocity 66
2024-12-08 01:28:23,577 - DEBUG - Note ON: Ch 0 MIDI 88 Velocity 125
2024-12-08 01:28:23,577 - DEBUG - Note ON: Ch 0 MIDI 94 Velocity 127
2024-12-08 01:28:23,577 - DEBUG - Note ON: Ch 2 MIDI 89 Velocity 89
2024-12-08 01:28:23,577 - DEBUG - Note ON: Ch 4 MIDI 94 Velocity 127
2024-12-08 01:28:23,578 - DEBUG - Note ON: Ch 9 MIDI 59 Velocity 100
2024-12-08 01:28:23,578 - DEBUG - Note ON: Ch 9 MIDI 66 Velocity 70
2024-12-08 01:28:23,591 - DEBUG - Note ON: Ch 3 MIDI 60 Velocity 113
2024-12-08 01:28:23,603 - DEBUG - Note OFF: Ch 2 MIDI 96
2024-12-08 01:28:23,713 - DEBUG - Note OFF: Ch 4 MIDI 94
2024-12-08 01:28:23,726 - DEBUG - Note OFF: Ch 9 MIDI 107
2024-12-08 01:28:23,726 - DEBUG - Note OFF: Ch 2 MIDI 89
2024-12-08 01:28:23,726 - DEBUG - Note OFF: Ch 9 MIDI 59
2024-12-08 01:28:23,738 - DEBUG - Note OFF: Ch 9 MIDI 66
2024-12-08 01:28:23,751 - DEBUG - Note OFF: Ch 0 MIDI 88
2024-12-08 01:28:23,751 - DEBUG - Note OFF: Ch 0 MIDI 94
2024-12-08 01:28:23,774 - DEBUG - Note ON: Ch 2 MIDI 84 Velocity 86
2024-12-08 01:28:23,916 - DEBUG - Note OFF: Ch 2 MIDI 84
2024-12-08 01:28:23,965 - DEBUG - Note ON: Ch 0 MIDI 87 Velocity 114
2024-12-08 01:28:23,977 - DEBUG - Note ON: Ch 0 MIDI 91 Velocity 116
2024-12-08 01:28:23,978 - DEBUG - Note ON: Ch 0 MIDI 88 Velocity 106
2024-12-08 01:28:23,978 - DEBUG - Note ON: Ch 1 MIDI 82 Velocity 106
2024-12-08 01:28:23,978 - DEBUG - Note ON: Ch 9 MIDI 107 Velocity 62
2024-12-08 01:28:23,991 - DEBUG - Note OFF: Ch 0 MIDI 87
2024-12-08 01:28:23,992 - DEBUG - Note ON: Ch 1 MIDI 79 Velocity 94
2024-12-08 01:28:23,992 - DEBUG - Note ON: Ch 1 MIDI 82 Velocity 127
2024-12-08 01:28:23,992 - DEBUG - Note ON: Ch 4 MIDI 91 Velocity 115
2024-12-08 01:28:23,992 - DEBUG - Note ON: Ch 0 MIDI 88 Velocity 127
2024-12-08 01:28:23,992 - DEBUG - Note ON: Ch 2 MIDI 88 Velocity 98
2024-12-08 01:28:23,992 - DEBUG - Note ON: Ch 9 MIDI 66 Velocity 80
2024-12-08 01:28:24,003 - DEBUG - Note ON: Ch 9 MIDI 62 Velocity 90
2024-12-08 01:28:24,015 - DEBUG - Note OFF: Ch 3 MIDI 60
2024-12-08 01:28:24,112 - DEBUG - Note OFF: Ch 0 MIDI 88
2024-12-08 01:28:24,112 - DEBUG - Note OFF: Ch 2 MIDI 88
2024-12-08 01:28:24,136 - DEBUG - Note OFF: Ch 1 MIDI 82
2024-12-08 01:28:24,136 - DEBUG - Note OFF: Ch 1 MIDI 79
2024-12-08 01:28:24,136 - DEBUG - Note OFF: Ch 9 MIDI 107
2024-12-08 01:28:24,136 - DEBUG - Note OFF: Ch 1 MIDI 82
2024-12-08 01:28:24,136 - DEBUG - Note OFF: Ch 4 MIDI 91
2024-12-08 01:28:24,148 - DEBUG - Note OFF: Ch 0 MIDI 91
2024-12-08 01:28:24,149 - DEBUG - Note OFF: Ch 9 MIDI 66
2024-12-08 01:28:24,161 - DEBUG - Note OFF: Ch 9 MIDI 62
2024-12-08 01:28:24,184 - DEBUG - Note OFF: Ch 0 MIDI 88
2024-12-08 01:28:24,197 - DEBUG - Note ON: Ch 2 MIDI 96 Velocity 93
2024-12-08 01:28:24,197 - DEBUG - Note ON: Ch 9 MIDI 66 Velocity 90
2024-12-08 01:28:24,354 - DEBUG - Note OFF: Ch 9 MIDI 66
2024-12-08 01:28:24,376 - DEBUG - Note OFF: Ch 2 MIDI 96
2024-12-08 01:28:24,390 - DEBUG - Note ON: Ch 0 MIDI 89 Velocity 127
2024-12-08 01:28:24,390 - DEBUG - Note ON: Ch 3 MIDI 65 Velocity 102
2024-12-08 01:28:24,390 - DEBUG - Note ON: Ch 9 MIDI 107 Velocity 63
2024-12-08 01:28:24,402 - DEBUG - Note ON: Ch 1 MIDI 81 Velocity 115
2024-12-08 01:28:24,402 - DEBUG - Note ON: Ch 2 MIDI 89 Velocity 96
2024-12-08 01:28:24,402 - DEBUG - Note ON: Ch 9 MIDI 59 Velocity 100
2024-12-08 01:28:24,402 - DEBUG - Note ON: Ch 4 MIDI 89 Velocity 117
2024-12-08 01:28:24,402 - DEBUG - Note ON: Ch 9 MIDI 66 Velocity 70
2024-12-08 01:28:24,543 - DEBUG - Note OFF: Ch 9 MIDI 107
2024-12-08 01:28:24,559 - DEBUG - Note OFF: Ch 9 MIDI 59
2024-12-08 01:28:24,559 - DEBUG - Note OFF: Ch 2 MIDI 89
2024-12-08 01:28:24,559 - DEBUG - Note OFF: Ch 9 MIDI 66
2024-12-08 01:28:24,573 - DEBUG - Note OFF: Ch 3 MIDI 65
2024-12-08 01:28:24,609 - DEBUG - Note ON: Ch 2 MIDI 96 Velocity 97
2024-12-08 01:28:24,609 - DEBUG - Note ON: Ch 9 MIDI 72 Velocity 121
2024-12-08 01:28:24,767 - DEBUG - Note OFF: Ch 9 MIDI 72
2024-12-08 01:28:24,782 - DEBUG - Note ON: Ch 0 MIDI 89 Velocity 105
2024-12-08 01:28:24,782 - DEBUG - Note ON: Ch 0 MIDI 84 Velocity 94
2024-12-08 01:28:24,782 - DEBUG - Note ON: Ch 1 MIDI 81 Velocity 100
2024-12-08 01:28:24,794 - DEBUG - Note OFF: Ch 2 MIDI 96
2024-12-08 01:28:24,807 - DEBUG - Note ON: Ch 9 MIDI 107 Velocity 62
2024-12-08 01:28:24,808 - DEBUG - Note ON: Ch 2 MIDI 89 Velocity 95
2024-12-08 01:28:24,808 - DEBUG - Note ON: Ch 3 MIDI 65 Velocity 110
2024-12-08 01:28:24,822 - DEBUG - Note ON: Ch 9 MIDI 66 Velocity 80
2024-12-08 01:28:24,822 - DEBUG - Note ON: Ch 9 MIDI 62 Velocity 90
2024-12-08 01:28:24,941 - DEBUG - Note OFF: Ch 4 MIDI 89
2024-12-08 01:28:24,952 - DEBUG - Note OFF: Ch 9 MIDI 107
2024-12-08 01:28:24,964 - DEBUG - Note OFF: Ch 2 MIDI 89
2024-12-08 01:28:24,977 - DEBUG - Note OFF: Ch 9 MIDI 66
2024-12-08 01:28:24,977 - DEBUG - Note OFF: Ch 9 MIDI 62
2024-12-08 01:28:25,001 - DEBUG - Note OFF: Ch 1 MIDI 81
2024-12-08 01:28:25,026 - DEBUG - Note OFF: Ch 0 MIDI 84
2024-12-08 01:28:25,026 - DEBUG - Note ON: Ch 2 MIDI 91 Velocity 97
2024-12-08 01:28:25,051 - DEBUG - Note OFF: Ch 0 MIDI 89
2024-12-08 01:28:25,051 - DEBUG - Note ON: Ch 9 MIDI 72 Velocity 105
2024-12-08 01:28:25,076 - DEBUG - Note OFF: Ch 3 MIDI 65
2024-12-08 01:28:25,183 - DEBUG - Note OFF: Ch 2 MIDI 91
2024-12-08 01:28:25,184 - DEBUG - Note ON: Ch 0 MIDI 89 Velocity 104
2024-12-08 01:28:25,196 - DEBUG - Note ON: Ch 0 MIDI 84 Velocity 99
2024-12-08 01:28:25,196 - DEBUG - Note ON: Ch 1 MIDI 81 Velocity 106
2024-12-08 01:28:25,209 - DEBUG - Note OFF: Ch 9 MIDI 72
2024-12-08 01:28:25,209 - DEBUG - Note ON: Ch 9 MIDI 107 Velocity 61
2024-12-08 01:28:25,226 - DEBUG - Note ON: Ch 3 MIDI 67 Velocity 112
2024-12-08 01:28:25,226 - DEBUG - Note ON: Ch 9 MIDI 59 Velocity 100
2024-12-08 01:28:25,227 - DEBUG - Note ON: Ch 2 MIDI 93 Velocity 101
2024-12-08 01:28:25,227 - DEBUG - Note ON: Ch 9 MIDI 66 Velocity 70
2024-12-08 01:28:25,251 - DEBUG - Note ON: Ch 9 MIDI 69 Velocity 109
2024-12-08 01:28:25,366 - DEBUG - Note OFF: Ch 9 MIDI 107
2024-12-08 01:28:25,380 - DEBUG - Note OFF: Ch 1 MIDI 81
2024-12-08 01:28:25,380 - DEBUG - Note OFF: Ch 9 MIDI 59
2024-12-08 01:28:25,380 - DEBUG - Note OFF: Ch 9 MIDI 66
2024-12-08 01:28:25,405 - DEBUG - Note OFF: Ch 0 MIDI 84
2024-12-08 01:28:25,405 - DEBUG - Note OFF: Ch 9 MIDI 69
2024-12-08 01:28:25,431 - DEBUG - Note OFF: Ch 0 MIDI 89
2024-12-08 01:28:25,431 - DEBUG - Note OFF: Ch 2 MIDI 93
2024-12-08 01:28:25,431 - DEBUG - Note ON: Ch 2 MIDI 89 Velocity 90
2024-12-08 01:28:25,442 - DEBUG - Note OFF: Ch 1 MIDI 81
2024-12-08 01:28:25,442 - DEBUG - Note ON: Ch 9 MIDI 69 Velocity 99
2024-12-08 01:28:25,468 - DEBUG - Note OFF: Ch 3 MIDI 67
2024-12-08 01:28:25,517 - DEBUG - Note OFF: Ch 0 MIDI 89
2024-12-08 01:28:25,578 - DEBUG - Note OFF: Ch 2 MIDI 89
2024-12-08 01:28:25,603 - DEBUG - Note OFF: Ch 9 MIDI 69
2024-12-08 01:28:25,615 - DEBUG - Note ON: Ch 0 MIDI 87 Velocity 111
2024-12-08 01:28:25,628 - DEBUG - Note ON: Ch 0 MIDI 84 Velocity 86
2024-12-08 01:28:25,629 - DEBUG - Note ON: Ch 1 MIDI 81 Velocity 99
2024-12-08 01:28:25,629 - DEBUG - Note ON: Ch 3 MIDI 69 Velocity 110
2024-12-08 01:28:25,629 - DEBUG - Note ON: Ch 9 MIDI 107 Velocity 65
2024-12-08 01:28:25,629 - DEBUG - Note ON: Ch 9 MIDI 65 Velocity 109
2024-12-08 01:28:25,642 - DEBUG - Note ON: Ch 2 MIDI 93 Velocity 95
2024-12-08 01:28:25,642 - DEBUG - Note ON: Ch 9 MIDI 66 Velocity 80
2024-12-08 01:28:25,653 - DEBUG - Note ON: Ch 9 MIDI 62 Velocity 90
2024-12-08 01:28:25,828 - DEBUG - Note OFF: Ch 9 MIDI 107
2024-12-08 01:28:25,834 - DEBUG - Note OFF: Ch 9 MIDI 65
2024-12-08 01:28:25,834 - DEBUG - Note OFF: Ch 9 MIDI 66
2024-12-08 01:28:25,834 - DEBUG - Note OFF: Ch 9 MIDI 62
2024-12-08 01:28:25,834 - DEBUG - Note OFF: Ch 0 MIDI 84
2024-12-08 01:28:25,834 - DEBUG - Note OFF: Ch 3 MIDI 69
2024-12-08 01:28:25,834 - DEBUG - Note OFF: Ch 2 MIDI 93
2024-12-08 01:28:25,835 - DEBUG - Note ON: Ch 2 MIDI 91 Velocity 90
2024-12-08 01:28:25,852 - DEBUG - Note ON: Ch 9 MIDI 66 Velocity 90
2024-12-08 01:28:25,852 - DEBUG - Note OFF: Ch 1 MIDI 81
2024-12-08 01:28:25,927 - DEBUG - Note OFF: Ch 0 MIDI 87
2024-12-08 01:28:25,998 - DEBUG - Note OFF: Ch 9 MIDI 66
2024-12-08 01:28:26,011 - DEBUG - Note OFF: Ch 2 MIDI 91
2024-12-08 01:28:26,023 - DEBUG - Note ON: Ch 4 MIDI 94 Velocity 127
2024-12-08 01:28:26,036 - DEBUG - Note ON: Ch 9 MIDI 107 Velocity 67
2024-12-08 01:28:26,036 - DEBUG - Note ON: Ch 9 MIDI 81 Velocity 53
2024-12-08 01:28:26,048 - DEBUG - Note ON: Ch 3 MIDI 70 Velocity 127
2024-12-08 01:28:26,048 - DEBUG - Note ON: Ch 9 MIDI 59 Velocity 100
2024-12-08 01:28:26,049 - DEBUG - Note ON: Ch 1 MIDI 82 Velocity 88
2024-12-08 01:28:26,049 - DEBUG - Note ON: Ch 2 MIDI 94 Velocity 110
2024-12-08 01:28:26,049 - DEBUG - Note ON: Ch 9 MIDI 66 Velocity 70
2024-12-08 01:28:26,061 - DEBUG - Note ON: Ch 0 MIDI 94 Velocity 127
2024-12-08 01:28:26,062 - DEBUG - Note ON: Ch 0 MIDI 91 Velocity 125
2024-12-08 01:28:26,073 - DEBUG - Note ON: Ch 0 MIDI 89 Velocity 122
2024-12-08 01:28:26,087 - DEBUG - Note ON: Ch 0 MIDI 86 Velocity 114
2024-12-08 01:28:26,136 - DEBUG - Note OFF: Ch 1 MIDI 82
2024-12-08 01:28:26,185 - DEBUG - Note OFF: Ch 0 MIDI 89
2024-12-08 01:28:26,185 - DEBUG - Note OFF: Ch 0 MIDI 86
2024-12-08 01:28:26,196 - DEBUG - Note OFF: Ch 0 MIDI 91
2024-12-08 01:28:26,197 - DEBUG - Note OFF: Ch 4 MIDI 94
2024-12-08 01:28:26,197 - DEBUG - Note OFF: Ch 9 MIDI 81
2024-12-08 01:28:26,197 - DEBUG - Note OFF: Ch 9 MIDI 107
2024-12-08 01:28:26,197 - DEBUG - Note OFF: Ch 9 MIDI 59
2024-12-08 01:28:26,209 - DEBUG - Note OFF: Ch 9 MIDI 66
2024-12-08 01:28:26,221 - DEBUG - Note OFF: Ch 0 MIDI 94
2024-12-08 01:28:26,256 - DEBUG - Note OFF: Ch 2 MIDI 94
2024-12-08 01:28:26,257 - DEBUG - Note ON: Ch 2 MIDI 91 Velocity 93
2024-12-08 01:28:26,384 - DEBUG - Note OFF: Ch 2 MIDI 91
2024-12-08 01:28:26,444 - DEBUG - Note OFF: Ch 3 MIDI 70
2024-12-08 01:28:26,444 - DEBUG - Note ON: Ch 1 MIDI 82 Velocity 125
2024-12-08 01:28:26,445 - DEBUG - Note ON: Ch 4 MIDI 94 Velocity 127
2024-12-08 01:28:26,445 - DEBUG - Note ON: Ch 9 MIDI 107 Velocity 65
2024-12-08 01:28:26,456 - DEBUG - Note ON: Ch 0 MIDI 86 Velocity 110
2024-12-08 01:28:26,456 - DEBUG - Note ON: Ch 0 MIDI 94 Velocity 127
2024-12-08 01:28:26,456 - DEBUG - Note ON: Ch 1 MIDI 77 Velocity 98
2024-12-08 01:28:26,457 - DEBUG - Note ON: Ch 2 MIDI 86 Velocity 86
2024-12-08 01:28:26,470 - DEBUG - Note ON: Ch 0 MIDI 86 Velocity 111
2024-12-08 01:28:26,470 - DEBUG - Note ON: Ch 9 MIDI 66 Velocity 80
2024-12-08 01:28:26,471 - DEBUG - Note ON: Ch 0 MIDI 91 Velocity 114
2024-12-08 01:28:26,471 - DEBUG - Note ON: Ch 0 MIDI 89 Velocity 116
2024-12-08 01:28:26,471 - DEBUG - Note ON: Ch 9 MIDI 62 Velocity 90
2024-12-08 01:28:26,568 - DEBUG - Note OFF: Ch 0 MIDI 91
2024-12-08 01:28:26,568 - DEBUG - Note OFF: Ch 0 MIDI 89
2024-12-08 01:28:26,592 - DEBUG - Note OFF: Ch 0 MIDI 86
2024-12-08 01:28:26,592 - DEBUG - Note OFF: Ch 0 MIDI 94
2024-12-08 01:28:26,593 - DEBUG - Note OFF: Ch 2 MIDI 86
2024-12-08 01:28:26,604 - DEBUG - Note OFF: Ch 9 MIDI 107
2024-12-08 01:28:26,615 - DEBUG - Note OFF: Ch 4 MIDI 94
2024-12-08 01:28:26,616 - DEBUG - Note OFF: Ch 1 MIDI 82
2024-12-08 01:28:26,616 - DEBUG - Note OFF: Ch 1 MIDI 77
2024-12-08 01:28:26,616 - DEBUG - Note OFF: Ch 9 MIDI 66
2024-12-08 01:28:26,628 - DEBUG - Note OFF: Ch 9 MIDI 62
2024-12-08 01:28:26,652 - DEBUG - Note OFF: Ch 0 MIDI 86
2024-12-08 01:28:26,664 - DEBUG - Note ON: Ch 2 MIDI 89 Velocity 90
2024-12-08 01:28:26,804 - DEBUG - Note OFF: Ch 2 MIDI 89
2024-12-08 01:28:26,864 - DEBUG - Note ON: Ch 9 MIDI 107 Velocity 62
2024-12-08 01:28:26,864 - DEBUG - Note ON: Ch 9 MIDI 59 Velocity 100
2024-12-08 01:28:26,877 - DEBUG - Note ON: Ch 0 MIDI 94 Velocity 127
2024-12-08 01:28:26,877 - DEBUG - Note ON: Ch 2 MIDI 94 Velocity 102
2024-12-08 01:28:26,877 - DEBUG - Note ON: Ch 9 MIDI 66 Velocity 70
2024-12-08 01:28:26,888 - DEBUG - Note ON: Ch 0 MIDI 91 Velocity 121
2024-12-08 01:28:26,888 - DEBUG - Note ON: Ch 0 MIDI 89 Velocity 121
2024-12-08 01:28:26,901 - DEBUG - Note ON: Ch 0 MIDI 86 Velocity 116
2024-12-08 01:28:26,901 - DEBUG - Note ON: Ch 3 MIDI 67 Velocity 112
2024-12-08 01:28:26,901 - DEBUG - Note ON: Ch 4 MIDI 94 Velocity 127
2024-12-08 01:28:27,012 - DEBUG - Note OFF: Ch 9 MIDI 107
2024-12-08 01:28:27,023 - DEBUG - Note OFF: Ch 9 MIDI 59
2024-12-08 01:28:27,035 - DEBUG - Note OFF: Ch 9 MIDI 66
2024-12-08 01:28:27,072 - DEBUG - Note OFF: Ch 2 MIDI 94
2024-12-08 01:28:27,084 - DEBUG - Note ON: Ch 2 MIDI 86 Velocity 83
2024-12-08 01:28:27,208 - DEBUG - Note OFF: Ch 2 MIDI 86
2024-12-08 01:28:27,269 - DEBUG - Note ON: Ch 1 MIDI 82 Velocity 119
2024-12-08 01:28:27,269 - DEBUG - Note ON: Ch 0 MIDI 86 Velocity 108
2024-12-08 01:28:27,269 - DEBUG - Note ON: Ch 9 MIDI 107 Velocity 67
2024-12-08 01:28:27,281 - DEBUG - Note ON: Ch 1 MIDI 79 Velocity 100
2024-12-08 01:28:27,281 - DEBUG - Note ON: Ch 2 MIDI 89 Velocity 95
2024-12-08 01:28:27,293 - DEBUG - Note ON: Ch 9 MIDI 66 Velocity 80
2024-12-08 01:28:27,304 - DEBUG - Note OFF: Ch 4 MIDI 94
2024-12-08 01:28:27,304 - DEBUG - Note ON: Ch 9 MIDI 62 Velocity 90
2024-12-08 01:28:27,342 - DEBUG - Note OFF: Ch 0 MIDI 89
2024-12-08 01:28:27,354 - DEBUG - Note OFF: Ch 0 MIDI 91
2024-12-08 01:28:27,354 - DEBUG - Note OFF: Ch 0 MIDI 86
2024-12-08 01:28:27,367 - DEBUG - Note OFF: Ch 0 MIDI 94
2024-12-08 01:28:27,431 - DEBUG - Note OFF: Ch 9 MIDI 107
2024-12-08 01:28:27,431 - DEBUG - Note OFF: Ch 2 MIDI 89
2024-12-08 01:28:27,444 - DEBUG - Note OFF: Ch 3 MIDI 67
2024-12-08 01:28:27,444 - DEBUG - Note OFF: Ch 9 MIDI 66
2024-12-08 01:28:27,455 - DEBUG - Note OFF: Ch 9 MIDI 62
2024-12-08 01:28:27,481 - DEBUG - Note OFF: Ch 1 MIDI 82
2024-12-08 01:28:27,481 - DEBUG - Note OFF: Ch 1 MIDI 79
2024-12-08 01:28:27,492 - DEBUG - Note ON: Ch 0 MIDI 94 Velocity 114
2024-12-08 01:28:27,492 - DEBUG - Note ON: Ch 2 MIDI 94 Velocity 104
2024-12-08 01:28:27,492 - DEBUG - Note ON: Ch 9 MIDI 66 Velocity 90
2024-12-08 01:28:27,506 - DEBUG - Note ON: Ch 0 MIDI 91 Velocity 96
2024-12-08 01:28:27,518 - DEBUG - Note ON: Ch 0 MIDI 86 Velocity 97
2024-12-08 01:28:27,518 - DEBUG - Note ON: Ch 0 MIDI 89 Velocity 96
2024-12-08 01:28:27,518 - DEBUG - Note ON: Ch 4 MIDI 94 Velocity 121
2024-12-08 01:28:27,518 - DEBUG - Note OFF: Ch 0 MIDI 86
2024-12-08 01:28:27,577 - DEBUG - Note OFF: Ch 0 MIDI 89
2024-12-08 01:28:27,578 - DEBUG - Note OFF: Ch 0 MIDI 94
2024-12-08 01:28:27,578 - DEBUG - Note OFF: Ch 0 MIDI 91
2024-12-08 01:28:27,591 - DEBUG - Note OFF: Ch 4 MIDI 94
2024-12-08 01:28:27,603 - DEBUG - Note OFF: Ch 0 MIDI 86
2024-12-08 01:28:27,648 - DEBUG - Note OFF: Ch 9 MIDI 66
2024-12-08 01:28:27,672 - DEBUG - Note ON: Ch 0 MIDI 94 Velocity 125
2024-12-08 01:28:27,672 - DEBUG - Note OFF: Ch 2 MIDI 94
2024-12-08 01:28:27,672 - DEBUG - Note ON: Ch 0 MIDI 91 Velocity 109
2024-12-08 01:28:27,683 - DEBUG - Note ON: Ch 0 MIDI 86 Velocity 108
2024-12-08 01:28:27,684 - DEBUG - Note ON: Ch 0 MIDI 89 Velocity 116
2024-12-08 01:28:27,684 - DEBUG - Note ON: Ch 9 MIDI 107 Velocity 60
2024-12-08 01:28:27,695 - DEBUG - Note ON: Ch 4 MIDI 94 Velocity 127
2024-12-08 01:28:27,696 - DEBUG - Note ON: Ch 9 MIDI 59 Velocity 100
2024-12-08 01:28:27,708 - DEBUG - Note ON: Ch 2 MIDI 93 Velocity 90
2024-12-08 01:28:27,709 - DEBUG - Note ON: Ch 3 MIDI 65 Velocity 110
2024-12-08 01:28:27,709 - DEBUG - Note ON: Ch 9 MIDI 66 Velocity 70
2024-12-08 01:28:27,842 - DEBUG - Note OFF: Ch 9 MIDI 107
2024-12-08 01:28:27,855 - DEBUG - Note OFF: Ch 0 MIDI 89
2024-12-08 01:28:27,855 - DEBUG - Note OFF: Ch 9 MIDI 59
2024-12-08 01:28:27,856 - DEBUG - Note OFF: Ch 0 MIDI 91
2024-12-08 01:28:27,856 - DEBUG - Note OFF: Ch 9 MIDI 66
2024-12-08 01:28:27,881 - DEBUG - Note OFF: Ch 0 MIDI 94
2024-12-08 01:28:27,881 - DEBUG - Note OFF: Ch 0 MIDI 86
2024-12-08 01:28:27,881 - DEBUG - Note OFF: Ch 4 MIDI 94
2024-12-08 01:28:27,904 - DEBUG - Note ON: Ch 2 MIDI 89 Velocity 95
2024-12-08 01:28:27,953 - DEBUG - Note OFF: Ch 2 MIDI 93
2024-12-08 01:28:28,056 - DEBUG - Note OFF: Ch 2 MIDI 89
2024-12-08 01:28:28,093 - DEBUG - Note ON: Ch 0 MIDI 84 Velocity 100
2024-12-08 01:28:28,093 - DEBUG - Note ON: Ch 9 MIDI 107 Velocity 63
2024-12-08 01:28:28,105 - DEBUG - Note ON: Ch 1 MIDI 81 Velocity 109
2024-12-08 01:28:28,118 - DEBUG - Note ON: Ch 0 MIDI 93 Velocity 127
2024-12-08 01:28:28,118 - DEBUG - Note ON: Ch 1 MIDI 77 Velocity 104
2024-12-08 01:28:28,118 - DEBUG - Note ON: Ch 2 MIDI 84 Velocity 83
2024-12-08 01:28:28,118 - DEBUG - Note OFF: Ch 3 MIDI 65
2024-12-08 01:28:28,118 - DEBUG - Note ON: Ch 4 MIDI 93 Velocity 125
2024-12-08 01:28:28,118 - DEBUG - Note ON: Ch 9 MIDI 66 Velocity 80
2024-12-08 01:28:28,119 - DEBUG - Note ON: Ch 0 MIDI 84 Velocity 115
2024-12-08 01:28:28,119 - DEBUG - Note ON: Ch 0 MIDI 89 Velocity 127
2024-12-08 01:28:28,119 - DEBUG - Note ON: Ch 9 MIDI 62 Velocity 90
2024-12-08 01:28:28,241 - DEBUG - Note OFF: Ch 2 MIDI 84
2024-12-08 01:28:28,253 - DEBUG - Note OFF: Ch 9 MIDI 107
2024-12-08 01:28:28,264 - DEBUG - Note OFF: Ch 4 MIDI 93
2024-12-08 01:28:28,264 - DEBUG - Note OFF: Ch 9 MIDI 66
2024-12-08 01:28:28,276 - DEBUG - Note OFF: Ch 9 MIDI 62
2024-12-08 01:28:28,288 - DEBUG - Note OFF: Ch 1 MIDI 81
2024-12-08 01:28:28,288 - DEBUG - Note OFF: Ch 1 MIDI 77
2024-12-08 01:28:28,301 - DEBUG - Note OFF: Ch 0 MIDI 84
2024-12-08 01:28:28,301 - DEBUG - Note OFF: Ch 0 MIDI 93
2024-12-08 01:28:28,312 - DEBUG - Note OFF: Ch 0 MIDI 89
2024-12-08 01:28:28,312 - DEBUG - Note ON: Ch 2 MIDI 89 Velocity 95
2024-12-08 01:28:28,325 - DEBUG - Note OFF: Ch 0 MIDI 84
2024-12-08 01:28:28,461 - DEBUG - Note OFF: Ch 2 MIDI 89
2024-12-08 01:28:28,509 - DEBUG - Note ON: Ch 9 MIDI 107 Velocity 64
2024-12-08 01:28:28,521 - DEBUG - Note ON: Ch 9 MIDI 59 Velocity 100
2024-12-08 01:28:28,521 - DEBUG - Note ON: Ch 0 MIDI 84 Velocity 115
2024-12-08 01:28:28,521 - DEBUG - Note ON: Ch 2 MIDI 91 Velocity 96
2024-12-08 01:28:28,521 - DEBUG - Note ON: Ch 9 MIDI 66 Velocity 70
